<svg width="186" height="65" viewBox="0 0 186 65" fill="none" xmlns="http://www.w3.org/2000/svg">
<path d="M179.693 44.9642C181.219 43.7982 181.319 42.2485 180.053 41.0211C179.923 40.8907 179.838 40.6989 179.785 40.5225C179.769 40.4764 179.999 40.2846 180.038 40.3077C180.222 40.4074 180.444 40.5225 180.544 40.6912C180.79 41.1055 180.981 41.5504 181.212 42.0184C181.925 40.7756 181.902 40.6145 180.943 39.7246C180.79 39.5865 180.598 39.4638 180.513 39.2873C180.452 39.1646 180.544 38.9728 180.567 38.804C180.721 38.8424 180.943 38.827 181.02 38.9191C181.311 39.3027 181.557 39.7169 181.848 40.1695C182.853 38.6583 180.966 38.1596 180.782 36.9859C181.879 37.0626 181.733 38.1366 182.324 38.5585C182.684 37.8988 182.7 37.3234 182.101 36.8171C181.902 36.6483 181.695 36.4872 181.534 36.2878C181.396 36.119 181.311 35.9119 181.242 35.7048C181.227 35.6664 181.465 35.4823 181.518 35.513C181.687 35.605 181.856 35.7278 181.971 35.8812C182.209 36.2034 182.408 36.5486 182.677 36.9629C183.06 36.1574 182.892 35.6357 182.27 35.1908C181.948 34.9606 181.434 34.7765 181.749 33.9863C182.186 34.485 182.562 34.8993 182.945 35.3365C183.352 34.1705 183.229 33.8866 182.124 33.2346C181.94 33.1271 181.787 32.9584 181.634 32.7973C181.634 32.7896 181.81 32.5441 181.848 32.5518C182.055 32.6208 182.27 32.7129 182.431 32.8586C182.677 33.0811 182.884 33.3496 183.152 33.6565C183.475 33.0581 183.283 32.6745 182.846 32.3523C182.577 32.1529 182.263 31.9994 182.025 31.7693C181.879 31.6312 181.841 31.3857 181.756 31.1939C181.979 31.24 182.263 31.2093 182.424 31.3397C182.723 31.5775 182.945 31.8997 183.214 32.2066C183.567 31.2553 183.482 31.0865 182.355 30.4038C182.048 30.2197 181.572 30.1046 182.002 29.4832C182.24 29.6596 182.462 29.8131 182.661 29.9818C182.861 30.1429 183.037 30.327 183.245 30.5112C183.666 29.3144 183.283 29.2914 182.155 28.4859C181.979 28.3632 181.81 28.2327 181.657 28.087C181.641 28.0793 181.787 27.8568 181.802 27.8645C182.009 27.9642 182.224 28.064 182.408 28.202C182.677 28.4015 182.922 28.624 183.198 28.8465C183.544 27.7494 183.406 27.4963 182.332 26.99C182.025 26.8442 181.749 26.6141 181.472 26.4146C181.465 26.4146 181.595 26.1768 181.603 26.1845C181.917 26.3149 182.24 26.453 182.539 26.6141C182.738 26.7215 182.907 26.8672 183.122 27.013C183.252 25.8162 183.137 25.6321 182.04 25.1411C181.795 25.0261 181.587 24.8266 181.357 24.6655C181.426 24.5581 181.495 24.4507 181.564 24.3433C182.017 24.6271 182.462 24.9033 182.93 25.1948C182.904 24.3203 182.485 23.7782 181.672 23.5685C181.595 23.5455 181.495 23.5531 181.449 23.5071C181.296 23.346 181.166 23.1619 181.02 22.9931C181.235 22.9624 181.48 22.8474 181.664 22.9087C181.971 23.0161 182.232 23.2309 182.562 23.4227C182.646 22.6326 182.37 22.2413 181.664 22.1799C181.457 22.1646 181.219 22.1646 181.058 22.0572C180.897 21.9575 180.813 21.735 180.69 21.5662C180.882 21.5048 181.104 21.3591 181.265 21.4051C181.58 21.5048 181.856 21.7197 182.194 21.9114C182.255 21.2824 182.048 20.9141 181.472 20.7761C181.173 20.707 180.859 20.6456 180.575 20.5306C180.444 20.4769 180.36 20.3004 180.26 20.1854C180.429 20.1317 180.621 19.9859 180.751 20.0319C181.089 20.147 181.403 20.3388 181.733 20.5075C181.749 19.5486 181.541 19.3338 180.544 19.1881C180.314 19.1497 180.084 19.05 179.869 18.9502C179.846 18.9426 179.915 18.6204 179.946 18.6204C180.207 18.6204 180.475 18.6357 180.736 18.6894C180.897 18.7201 181.05 18.8275 181.204 18.8966C181.25 18.8429 181.296 18.7892 181.35 18.7278C181.135 18.536 180.951 18.2905 180.698 18.1754C180.452 18.068 180.138 18.1217 179.861 18.0604C179.677 18.022 179.501 17.9223 179.34 17.8225C179.317 17.8072 179.37 17.577 179.424 17.5617C179.608 17.5157 179.808 17.485 179.992 17.5234C180.245 17.5694 180.475 17.6845 180.721 17.7688C180.774 17.7151 180.828 17.6614 180.882 17.6077C180.675 17.3929 180.49 17.1091 180.237 16.9863C179.969 16.8559 179.624 16.902 179.324 16.8329C179.186 16.8022 179.079 16.6565 178.956 16.5644C179.11 16.4647 179.263 16.2806 179.409 16.2882C179.677 16.2959 179.946 16.4187 180.214 16.4954C180.26 16.4263 180.299 16.3573 180.345 16.2882C180.076 16.0964 179.838 15.8663 179.547 15.7359C179.324 15.6362 179.025 15.7129 178.787 15.6285C178.665 15.5901 178.603 15.3753 178.519 15.2449C178.649 15.1836 178.787 15.0531 178.902 15.0762C179.148 15.1145 179.386 15.2219 179.685 15.3216C179.616 14.4164 178.902 14.4931 178.35 14.3474C178.12 14.286 177.89 14.2093 177.66 14.1326C177.652 14.1326 177.698 13.8794 177.729 13.8794C177.99 13.8794 178.258 13.8794 178.519 13.9178C178.688 13.9484 178.849 14.0405 179.071 14.1326C178.826 12.7747 177.683 13.4805 177.023 13.1583C177.095 12.8003 177.514 12.6878 178.281 12.8207C178.066 12.0536 177.928 11.9539 177.176 12.0613C177.023 12.0843 176.854 12.161 176.716 12.115C176.555 12.0689 176.425 11.9155 176.279 11.8158C176.432 11.7237 176.586 11.5626 176.747 11.5549C176.992 11.5396 177.253 11.6317 177.506 11.6777C177.545 11.6087 177.591 11.5396 177.629 11.4629C177.353 11.3171 177.092 11.1177 176.8 11.0486C176.563 10.9873 176.286 11.1177 176.033 11.087C175.903 11.0716 175.796 10.8952 175.673 10.7878C175.803 10.7034 175.934 10.55 176.072 10.5346C176.317 10.5116 176.57 10.5807 176.862 10.6113C176.701 10.0053 176.348 9.86723 175.849 10.0053C175.696 10.0437 175.535 10.1281 175.397 10.0897C175.228 10.0437 175.09 9.8979 174.936 9.79817C175.082 9.69844 175.212 9.54501 175.366 9.50665C175.558 9.46062 175.773 9.522 176.041 9.53735C175.895 9.00034 175.619 8.86226 175.136 8.96198C174.806 9.03103 174.215 9.09241 174.138 8.94665C173.885 8.47869 174.315 8.50169 174.637 8.5247C174.791 8.53238 174.944 8.55541 175.097 8.56308C175.143 8.56308 175.189 8.53238 175.266 8.50937C175.097 7.99538 174.752 7.85729 174.261 7.97236C174.062 8.01839 173.847 8.08743 173.648 8.07209C173.502 8.05675 173.371 7.91866 173.226 7.83428C173.364 7.7192 173.486 7.52742 173.64 7.49673C173.87 7.4507 174.131 7.51209 174.461 7.5351C174.008 6.70658 173.417 7.06713 172.857 7.13617C172.681 7.15918 172.474 6.94438 172.282 6.84465C172.451 6.72958 172.612 6.59916 172.788 6.5071C172.865 6.46875 172.988 6.5378 173.095 6.5378C173.218 6.5378 173.341 6.52246 173.463 6.52246C173.479 6.43807 173.486 6.34602 173.502 6.26163C173.095 6.19259 172.673 6.15422 172.274 6.05449C172.044 5.99312 171.837 5.83203 171.615 5.70929C171.791 5.55586 171.967 5.4101 172.144 5.25667L172.228 5.3794C172.32 5.17994 172.405 4.97282 172.497 4.77337C172.85 4.94214 173.21 5.1109 173.586 5.28734C173.586 5.24131 173.532 5.11091 173.578 5.03419C173.663 4.85775 173.793 4.70431 173.908 4.54321C174.016 4.71965 174.238 4.91913 174.208 5.06489C174.054 5.76299 174.138 6.34601 174.921 6.79862C174.967 6.35368 174.982 5.96243 175.067 5.57886C175.097 5.42543 175.282 5.31036 175.397 5.17227C175.473 5.34105 175.634 5.51749 175.611 5.67092C175.565 5.9701 175.45 6.27697 175.305 6.54547C175.005 7.07481 175.228 7.40468 175.742 7.76524C175.803 7.28961 175.826 6.87534 175.926 6.49177C175.972 6.33067 176.187 6.20793 176.325 6.06985C176.394 6.26163 176.532 6.46108 176.509 6.63753C176.463 6.9137 176.34 7.18987 176.194 7.42769C175.857 7.98004 176.026 8.3943 176.647 8.86993C176.693 8.32526 176.708 7.88798 176.77 7.45838C176.793 7.27427 176.9 7.09015 177.008 6.92905C177.031 6.89069 177.314 6.9444 177.33 7.00577C177.384 7.18988 177.43 7.40468 177.376 7.58113C177.261 7.98005 177.046 8.34827 176.954 8.74718C176.893 9.00801 176.969 9.30721 176.992 9.59105C177.092 9.59105 177.192 9.59871 177.291 9.60639C177.384 9.13843 177.445 8.66281 177.568 8.20252C177.606 8.05676 177.805 7.95702 177.928 7.83428C178.005 8.00305 178.166 8.18718 178.128 8.32526C178.043 8.64746 177.905 8.96965 177.713 9.24583C177.284 9.86722 177.46 10.3352 178.105 10.8568C178.243 10.3275 178.35 9.86722 178.488 9.4146C178.542 9.23816 178.649 9.07705 178.757 8.93129C178.772 8.90828 179.048 9.02335 179.056 9.07705C179.056 9.23048 179.002 9.39927 178.941 9.54502C178.757 9.99764 178.481 10.4272 178.388 10.8952C178.327 11.2174 178.519 11.5856 178.596 11.9308C178.695 11.9308 178.795 11.9308 178.887 11.9308C179.056 11.3555 179.217 10.7801 179.386 10.1971C179.447 10.1664 179.516 10.1357 179.578 10.105C179.654 10.3275 179.831 10.5807 179.777 10.7725C179.654 11.1867 179.386 11.5626 179.24 11.9769C179.148 12.253 179.179 12.5676 179.148 12.8668C179.248 12.8898 179.355 12.9128 179.455 12.9358C179.608 12.4909 179.739 12.0383 179.923 11.6087C179.984 11.4552 180.168 11.3478 180.299 11.2251C180.345 11.4169 180.467 11.6393 180.414 11.8004C180.306 12.115 180.138 12.4218 179.938 12.6827C179.509 13.235 179.601 13.7106 180.199 14.3167C180.368 13.7874 180.49 13.3424 180.667 12.9205C180.736 12.744 180.928 12.6213 181.058 12.4755C181.12 12.6903 181.281 12.9358 181.219 13.1046C181.043 13.5572 180.744 13.9638 180.536 14.4087C180.444 14.6005 180.452 14.8383 180.414 15.0531C180.49 15.0762 180.575 15.0992 180.652 15.1222C180.828 14.7079 180.966 14.286 181.189 13.8947C181.288 13.7183 181.541 13.6339 181.726 13.5112C181.726 13.7183 181.787 13.9561 181.703 14.1172C181.526 14.4624 181.204 14.7309 181.058 15.0838C180.92 15.4214 180.928 15.8203 180.866 16.1885C180.989 16.2192 181.104 16.2499 181.227 16.2806C181.388 15.8663 181.518 15.4444 181.726 15.0531C181.81 14.892 182.048 14.823 182.224 14.7079C182.24 14.915 182.332 15.1605 182.255 15.314C182.063 15.7052 181.772 16.0504 181.549 16.4263C181.442 16.6105 181.411 16.8329 181.342 17.04C181.411 17.0707 181.48 17.1014 181.557 17.1321C181.894 16.5951 182.224 16.0504 182.562 15.5134C183.091 16.6565 181.327 16.971 181.917 18.2905C182.224 17.7305 182.424 17.3009 182.684 16.9096C182.784 16.7562 183.014 16.6872 183.191 16.5798C183.175 16.8022 183.222 17.0631 183.122 17.2318C182.922 17.5617 182.592 17.8072 182.385 18.1371C182.217 18.4056 182.163 18.7431 182.055 19.05C182.155 19.096 182.255 19.142 182.362 19.1881C182.539 18.8965 182.731 18.605 182.884 18.3058C183.037 17.999 183.068 17.5464 183.636 17.8379C183.651 18.8122 181.91 19.2111 182.784 20.5843C183.068 20.0703 183.275 19.633 183.544 19.2341C183.628 19.1037 183.866 19.073 184.027 18.9963C184.05 19.1957 184.165 19.4642 184.081 19.587C183.828 19.9475 183.452 20.2161 183.214 20.5766C183.022 20.8681 182.968 21.244 182.853 21.5816C182.953 21.6276 183.06 21.6736 183.16 21.7273C183.406 21.3514 183.628 20.9602 183.912 20.6073C184.004 20.4922 184.234 20.4922 184.403 20.4309C184.395 20.6073 184.449 20.8298 184.365 20.9602C184.196 21.2133 183.973 21.4511 183.736 21.6429C183.191 22.0802 183.06 22.5712 183.528 23.3C183.797 22.8704 184.012 22.4791 184.265 22.1186C184.349 22.0035 184.541 21.9575 184.679 21.8731C184.717 22.0572 184.84 22.3027 184.771 22.4101C184.572 22.7093 184.319 22.9854 184.027 23.2002C183.429 23.6529 183.498 24.1668 183.797 24.8956C184.058 24.4507 184.219 24.1132 184.441 23.814C184.526 23.6989 184.733 23.6759 184.886 23.6068C184.917 23.7909 185.009 23.9981 184.963 24.1592C184.917 24.3126 184.748 24.4584 184.61 24.5581C183.82 25.1258 183.682 25.8622 184.096 26.9132C184.349 26.4913 184.518 26.1384 184.748 25.8316C184.848 25.7011 185.055 25.6628 185.216 25.5784C185.216 25.7625 185.3 25.9927 185.216 26.1231C185.07 26.3609 184.856 26.568 184.625 26.7368C183.973 27.2201 183.966 27.8338 184.219 28.693C184.495 28.2941 184.679 27.9719 184.925 27.6957C185.032 27.573 185.247 27.5423 185.408 27.4733C185.4 27.6574 185.446 27.8722 185.362 28.0103C185.247 28.202 185.055 28.3632 184.856 28.4859C184.134 28.9615 184.088 29.6289 184.249 30.5572C184.533 30.1276 184.71 29.79 184.955 29.5215C185.07 29.3988 185.331 29.4218 185.523 29.3835C185.5 29.5676 185.523 29.7977 185.431 29.9205C185.262 30.1429 185.024 30.3271 184.779 30.4728C184.203 30.8104 184.081 31.3013 184.157 31.892C184.226 31.9611 184.303 32.0301 184.372 32.0915C184.602 31.7923 184.802 31.4624 185.078 31.2016C185.17 31.1095 185.431 31.2016 185.615 31.2016C185.577 31.3627 185.584 31.5622 185.485 31.6772C185.354 31.8307 185.162 31.9457 184.978 32.0224C184.203 32.3523 183.866 32.897 184.119 33.8713C184.395 33.6104 184.61 33.3496 184.879 33.1655C185.032 33.0581 185.262 33.0581 185.454 33.0121C185.408 33.2269 185.393 33.457 185.293 33.6488C185.231 33.7639 185.032 33.8176 184.886 33.8559C184.004 34.0861 183.728 34.6998 183.82 35.7354C184.157 35.4286 184.403 35.1601 184.694 34.9606C184.84 34.8609 185.078 34.8992 185.27 34.8686C185.216 35.068 185.216 35.3442 185.086 35.4593C184.886 35.6434 184.595 35.7585 184.326 35.8352C183.651 36.0346 183.49 36.5179 183.528 37.2851C183.912 37.0396 184.203 36.8171 184.533 36.656C184.671 36.5947 184.886 36.679 185.063 36.702C184.978 36.8631 184.932 37.078 184.802 37.1623C184.587 37.3004 184.326 37.3848 184.073 37.4308C183.337 37.5689 183.137 38.0445 183.168 38.8501C183.574 38.5739 183.897 38.3284 184.249 38.1443C184.388 38.0676 184.602 38.1289 184.779 38.1289C184.71 38.313 184.694 38.5739 184.564 38.6506C184.257 38.8347 183.904 38.9498 183.551 39.0418C183.03 39.1799 182.738 39.4638 182.815 40.1695C183.214 39.9087 183.551 39.6632 183.92 39.4638C184.065 39.3871 184.273 39.4408 184.457 39.4331C184.38 39.6249 184.349 39.9087 184.211 39.9931C183.904 40.1696 183.544 40.2769 183.191 40.3613C182.6 40.5071 182.339 40.8753 182.347 41.6195C182.945 41.1515 183.452 40.7449 183.981 40.3307C184.365 40.6529 184.403 40.929 183.958 41.1822C183.597 41.3816 183.237 41.5964 182.853 41.7499C182.163 42.0184 181.749 42.4864 181.634 43.3993C183.129 42.1872 184.541 41.0594 185.999 39.878C185.416 48.3627 172.574 62.7851 164.081 64.5955C163.892 63.9204 163.429 63.5829 162.693 63.5829C154.315 63.5829 145.93 63.5829 137.553 63.5829C137.246 63.5829 136.947 63.5829 136.633 63.5829C136.587 63.9818 136.548 64.2887 136.495 64.6953C131.416 62.693 127.059 59.7472 123.346 55.8424C119.05 51.3239 116.104 46.0536 114.585 39.9317C115.973 41.0518 117.362 42.1718 118.865 43.3916C118.743 42.6014 118.505 42.1181 117.868 41.865C117.416 41.6808 116.963 41.4584 116.572 41.1745C116.403 41.0518 116.388 40.7372 116.303 40.5071C116.518 40.5531 116.771 40.5455 116.94 40.6605C117.339 40.9367 117.699 41.2666 118.167 41.6502C118.198 40.9367 117.999 40.5531 117.393 40.392C117.017 40.2923 116.633 40.1849 116.303 39.9931C116.165 39.9164 116.157 39.6249 116.088 39.4254C116.265 39.4408 116.472 39.4024 116.618 39.4791C116.971 39.6709 117.301 39.9164 117.692 40.1772C117.784 39.5482 117.584 39.2336 117.078 39.0802C116.756 38.9882 116.418 38.9038 116.134 38.735C115.935 38.6199 115.812 38.3668 115.659 38.1826C115.728 38.1059 115.789 38.0215 115.858 37.9448C116.342 38.221 116.817 38.4895 117.347 38.7964C117.446 37.9678 117.093 37.5689 116.357 37.3771C116.027 37.2928 115.498 37.0779 115.49 36.8862C115.459 36.4259 115.805 36.4796 116.111 36.7097C116.234 36.8018 116.357 36.9092 116.487 36.9782C116.633 37.0626 116.802 37.124 116.986 37.2084C117.07 36.5179 116.902 36.0346 116.227 35.8352C116.004 35.7661 115.782 35.6741 115.597 35.5283C115.429 35.3979 115.306 35.2061 115.199 35.022C115.176 34.9836 115.375 34.7535 115.406 34.7612C115.605 34.8379 115.789 34.9453 115.958 35.0757C116.196 35.2598 116.411 35.4669 116.717 35.7354C116.779 34.7765 116.641 34.0861 115.682 33.8483C115.513 33.8099 115.298 33.7332 115.206 33.6028C115.099 33.4493 115.099 33.2192 115.053 33.0197C115.252 33.0428 115.505 33.0044 115.636 33.1118C115.889 33.3113 116.073 33.5951 116.342 33.9173C116.641 32.7973 116.572 32.6131 115.789 32.1375C115.59 32.0148 115.352 31.9304 115.199 31.7693C115.053 31.6159 114.999 31.378 114.907 31.1709C115.145 31.2169 115.429 31.2093 115.62 31.332C115.866 31.4931 116.042 31.7693 116.349 32.0915C116.441 31.3934 116.457 30.8871 115.874 30.5265C115.59 30.3501 115.321 30.1276 115.106 29.8744C115.007 29.7594 115.06 29.5215 115.045 29.3297C115.222 29.3681 115.467 29.3374 115.567 29.4525C115.82 29.7287 116.004 30.0585 116.288 30.4881C116.457 29.6136 116.449 28.9692 115.751 28.5089C115.513 28.3555 115.298 28.1483 115.137 27.9182C115.06 27.8185 115.137 27.6113 115.137 27.4502C115.291 27.4886 115.498 27.4886 115.582 27.5807C115.835 27.8875 116.035 28.2327 116.319 28.647C116.702 27.6881 116.426 27.0897 115.797 26.545C115.551 26.3302 115.214 25.8929 115.291 25.6935C115.452 25.2792 115.713 25.5247 115.851 25.8239C115.92 25.962 115.973 26.1154 116.05 26.2458C116.157 26.4146 116.296 26.5757 116.426 26.7521C116.871 25.8469 116.794 25.4096 116.18 24.7499C115.881 24.4277 115.291 24.1975 115.759 23.3537C116.127 23.8677 116.434 24.2896 116.771 24.7499C117.109 24.0901 117.055 23.6145 116.526 23.1159C116.188 22.7937 115.521 22.5482 115.904 21.6276C116.326 22.2183 116.679 22.7016 117.055 23.2309C117.439 22.5789 117.431 22.0879 116.886 21.6506C116.648 21.4588 116.418 21.221 116.257 20.9678C116.157 20.8144 116.196 20.5843 116.165 20.3848C116.342 20.4615 116.579 20.4922 116.687 20.6303C116.948 20.9448 117.139 21.3054 117.37 21.6506C117.876 21.221 117.722 20.8758 117.37 20.5229C117.055 20.216 116.733 19.9015 116.48 19.5486C116.395 19.4259 116.51 19.1574 116.526 18.9579C116.687 19.0346 116.917 19.073 117.009 19.2034C117.277 19.6023 117.492 20.0319 117.784 20.5536C118.597 19.1651 116.986 18.7815 116.886 17.7075C117.899 17.6844 117.584 18.8735 118.213 19.0653C118.464 18.738 118.459 18.4209 118.198 18.114C117.93 17.7995 117.63 17.508 117.4 17.1628C117.301 17.017 117.347 16.7716 117.324 16.5721C117.5 16.6565 117.73 16.7025 117.853 16.8406C118.014 17.0324 118.091 17.3009 118.213 17.5234C118.321 17.7228 118.459 17.9069 118.643 18.1984C119.218 16.9633 117.492 16.6335 117.983 15.4904L118.996 17.1014C119.057 17.0861 119.119 17.0631 119.18 17.0477C119.142 16.8559 119.149 16.6411 119.057 16.4877C118.842 16.1041 118.566 15.7589 118.344 15.3754C118.252 15.2142 118.198 15.0148 118.183 14.823C118.183 14.777 118.444 14.6389 118.474 14.6696C118.628 14.8153 118.789 14.9764 118.881 15.1682C119.05 15.5134 119.165 15.8816 119.341 16.3112C119.824 15.8893 119.916 15.5211 119.548 15.0762C119.318 14.7923 119.096 14.5008 118.919 14.1863C118.819 14.0021 118.804 13.772 118.773 13.5572C118.773 13.5342 118.996 13.4421 119.027 13.4728C119.172 13.6032 119.31 13.749 119.395 13.9178C119.587 14.3013 119.74 14.7079 119.909 15.0992C120.016 15.0838 120.116 15.0608 120.223 15.0455C120.193 14.7156 120.223 14.3627 120.124 14.0635C119.993 13.6799 119.725 13.3424 119.556 12.9588C119.479 12.79 119.479 12.5752 119.495 12.3835C119.495 12.3374 119.778 12.2454 119.817 12.2837C119.94 12.4218 120.032 12.5906 120.093 12.767C120.239 13.1659 120.354 13.5725 120.484 13.9791C120.599 13.9561 120.714 13.9408 120.829 13.9178C120.799 13.5649 120.829 13.189 120.722 12.8744C120.569 12.4372 120.285 12.0536 120.093 11.6317C120.047 11.5319 120.162 11.3708 120.208 11.2327C120.346 11.3095 120.553 11.3555 120.599 11.4705C120.791 11.9385 120.929 12.4295 121.09 12.9128C121.182 12.9128 121.282 12.8974 121.374 12.8898C121.374 12.6059 121.443 12.3067 121.359 12.0536C121.205 11.5933 120.921 11.1714 120.76 10.7034C120.714 10.5576 120.906 10.3352 120.99 10.1434C121.098 10.2815 121.251 10.4119 121.297 10.573C121.435 11.0333 121.527 11.5089 121.65 12.0536C122.249 11.601 122.379 11.1714 122.026 10.596C121.827 10.2661 121.643 9.90558 121.543 9.53735C121.497 9.35323 121.658 9.12308 121.727 8.90828C121.85 9.06938 122.041 9.20747 122.095 9.39159C122.233 9.85187 122.31 10.3352 122.425 10.8722C123.139 10.3735 123.277 9.85188 122.839 9.18446C122.655 8.90829 122.517 8.58608 122.44 8.26388C122.41 8.14113 122.609 7.9647 122.709 7.81894C122.816 7.93401 122.985 8.04141 123.016 8.17182C123.131 8.63978 123.2 9.12309 123.284 9.59105C123.384 9.59105 123.484 9.59105 123.576 9.59105C123.599 9.31488 123.691 9.01569 123.629 8.75486C123.553 8.37896 123.338 8.03373 123.231 7.6655C123.169 7.46605 123.192 7.22823 123.223 7.0211C123.223 6.97507 123.53 6.90603 123.537 6.92905C123.645 7.14385 123.76 7.36632 123.798 7.59646C123.86 7.97237 123.86 8.35593 123.89 8.78553C124.68 8.24086 124.688 8.21018 124.374 7.4507C124.243 7.13617 124.074 6.83698 124.005 6.51478C123.975 6.39204 124.166 6.2156 124.259 6.06217C124.374 6.1619 124.558 6.24628 124.604 6.36902C124.68 6.58382 124.673 6.82931 124.703 7.05945C124.734 7.25891 124.773 7.45838 124.811 7.67318C125.266 7.37655 125.417 7.01599 125.264 6.5915C125.156 6.29999 124.995 6.01613 124.957 5.71694C124.934 5.54817 125.11 5.3564 125.202 5.17995C125.31 5.32571 125.471 5.45613 125.509 5.61723C125.586 5.98546 125.586 6.36136 125.632 6.79097C126.215 6.49178 126.345 6.14656 126.1 5.66326C126.008 5.47914 125.916 5.27968 125.885 5.08022C125.854 4.8961 125.893 4.69665 125.946 4.51254C125.962 4.46651 126.199 4.42047 126.215 4.45115C126.314 4.61225 126.422 4.78871 126.453 4.96515C126.491 5.21064 126.46 5.47146 126.46 5.98545C126.875 5.57886 127.128 5.31804 127.389 5.06489C127.895 4.58925 127.964 4.61226 128.248 5.24899C128.271 5.30269 128.386 5.31803 128.447 5.36406C128.616 5.49448 128.785 5.63255 128.946 5.76297C128.739 5.8627 128.532 6.0008 128.309 6.04683C127.902 6.13889 127.481 6.17725 127.059 6.23862L127.097 6.53012C127.319 6.51477 127.55 6.46107 127.749 6.5071C127.933 6.55313 128.087 6.71424 128.248 6.82932C128.056 6.93672 127.872 7.11317 127.672 7.12851C127.427 7.15153 127.158 6.97508 126.921 7.00577C126.644 7.04413 126.384 7.22056 126.123 7.33564C126.146 7.40468 126.176 7.46606 126.199 7.5351C126.376 7.51976 126.56 7.46605 126.721 7.50441C126.936 7.56578 127.128 7.70386 127.327 7.81126C127.12 7.88798 126.905 8.0414 126.706 8.01838C126.161 7.95701 125.616 7.78825 125.264 8.50937C125.455 8.52471 125.616 8.5247 125.77 8.54772C126.008 8.5784 126.245 8.62445 126.476 8.68582C126.491 8.68582 126.476 8.95431 126.46 8.95431C126.222 8.99266 125.977 9.00802 125.731 9.01569C125.632 9.01569 125.517 8.9543 125.425 8.97732C125.102 9.04636 124.788 9.13843 124.473 9.22281C124.496 9.31487 124.512 9.39926 124.535 9.49132C124.68 9.49899 124.819 9.49133 124.964 9.52201C125.179 9.5527 125.386 9.59873 125.593 9.66777C125.616 9.67544 125.609 9.9286 125.586 9.9286C125.348 9.9823 125.095 10.0744 124.872 10.0283C124.343 9.91326 123.898 9.87489 123.722 10.6113C124.036 10.573 124.312 10.5193 124.588 10.527C124.696 10.527 124.796 10.6957 124.903 10.7878C124.811 10.8875 124.727 11.0563 124.619 11.0716C124.397 11.1023 124.143 11.0026 123.929 11.0486C123.583 11.1253 123.261 11.2711 122.924 11.3939C122.954 11.4782 122.977 11.5703 123.008 11.6547C123.177 11.6317 123.353 11.578 123.522 11.5856C123.768 11.5856 124.005 11.6317 124.243 11.6777C124.266 11.6777 124.282 11.9462 124.259 11.9462C124.028 12.0076 123.768 12.1226 123.553 12.0689C122.893 11.9155 122.433 12.0459 122.233 12.7517C122.671 13.0049 123.277 12.207 123.652 13.0125C123.039 13.6032 121.719 12.675 121.504 14.1019C121.781 13.9945 122.026 13.8564 122.287 13.8257C122.471 13.8027 122.671 13.9254 122.87 13.9791C122.717 14.1019 122.586 14.2783 122.41 14.332C121.88 14.4854 121.236 14.332 120.929 14.9918C120.891 15.0762 120.883 15.1682 120.837 15.3523C121.136 15.2449 121.343 15.1298 121.558 15.1145C121.727 15.1068 121.896 15.2372 122.064 15.3063C121.926 15.429 121.811 15.5978 121.658 15.6668C121.236 15.8586 120.791 15.9967 120.361 16.1732C120.3 16.1962 120.3 16.3419 120.277 16.3956C120.714 16.3956 121.129 16.3956 121.543 16.411C121.574 16.411 121.589 16.6335 121.612 16.7562C120.96 17.0401 119.993 16.6258 119.679 17.8302C120.062 17.6998 120.331 17.5924 120.607 17.5234C120.768 17.485 120.96 17.5003 121.106 17.554C121.167 17.5771 121.221 17.8456 121.175 17.8839C121.044 17.9836 120.875 18.0297 120.714 18.0834C120.262 18.2445 119.801 18.3979 119.349 18.5667C119.303 18.582 119.303 18.7431 119.264 18.9349C119.594 18.7815 119.832 18.5974 120.093 18.5667C120.285 18.5436 120.5 18.7201 120.699 18.8045C120.546 18.9272 120.4 19.1497 120.246 19.1574C119.426 19.2188 118.766 19.4182 118.735 20.5306C119.088 20.3541 119.387 20.1623 119.709 20.0626C119.87 20.0089 120.085 20.124 120.277 20.1623C120.154 20.2928 120.055 20.4692 119.901 20.5382C119.648 20.6533 119.356 20.7147 119.08 20.7684C118.528 20.8835 118.328 21.244 118.336 21.8961C118.697 21.6966 118.988 21.4895 119.31 21.3898C119.472 21.3438 119.694 21.4972 119.893 21.5662C119.771 21.6966 119.671 21.8577 119.525 21.9498C119.402 22.0342 119.234 22.0495 119.08 22.0725C118.382 22.1799 117.914 22.4868 117.968 23.415C118.313 23.2156 118.612 22.9931 118.95 22.8704C119.111 22.809 119.341 22.9241 119.533 22.9548C119.433 23.1312 119.356 23.323 119.218 23.4688C119.142 23.5455 118.973 23.5455 118.85 23.5761C118.078 23.7654 117.669 24.3049 117.623 25.1948C118.083 24.8956 118.528 24.6195 118.965 24.3356L119.18 24.5811C118.988 24.7576 118.827 24.9877 118.605 25.0874C117.431 25.6244 117.37 25.7011 117.408 27.059C117.799 26.7675 118.121 26.4836 118.49 26.2765C118.635 26.1921 118.881 26.2842 119.08 26.2995C118.973 26.4453 118.904 26.6371 118.766 26.7291C118.551 26.8672 118.298 26.9363 118.06 27.0437C117.293 27.3659 117.078 27.9412 117.301 28.8158C117.646 28.5012 117.922 28.1944 118.252 27.9719C118.398 27.8722 118.658 27.9489 118.865 27.9489C118.773 28.133 118.72 28.3401 118.582 28.4859C118.467 28.6086 118.267 28.6623 118.098 28.7237C117.308 29.0306 116.948 29.5676 117.239 30.5342C117.561 30.258 117.838 29.9742 118.16 29.7594C118.313 29.6596 118.551 29.698 118.75 29.675C118.666 29.8591 118.628 30.0892 118.49 30.212C118.267 30.4191 117.968 30.5495 117.715 30.726C117.063 31.1786 117.032 31.2937 117.316 32.2372C117.592 31.9227 117.822 31.6082 118.106 31.355C118.259 31.2169 118.497 31.1786 118.712 31.1249C118.75 31.1172 118.896 31.309 118.873 31.3397C118.773 31.5008 118.651 31.6696 118.505 31.7923C118.183 32.0531 117.776 32.2296 117.523 32.5364C117.324 32.7743 117.293 33.1578 117.185 33.48L117.408 33.6181C117.692 33.3113 117.953 32.9737 118.275 32.7052C118.405 32.5978 118.674 32.6515 118.873 32.6362C118.781 32.8049 118.727 33.0428 118.582 33.1348C117.285 33.9557 117.178 34.1628 117.607 35.2675C117.93 34.8916 118.244 34.5233 118.566 34.1628C118.605 34.1168 118.704 34.1321 118.819 34.1091C119.165 34.6384 118.727 34.8609 118.421 35.0757C117.791 35.5206 117.408 36.027 117.891 36.9245C118.167 36.5026 118.382 36.096 118.658 35.7584C118.766 35.628 119.027 35.6204 119.218 35.5513C119.195 35.7585 119.234 36.0039 119.126 36.1574C118.973 36.3875 118.727 36.5563 118.505 36.7404C117.884 37.2544 117.822 37.8451 118.275 38.6046C118.543 38.1059 118.758 37.6456 119.042 37.2314C119.134 37.0933 119.395 37.0779 119.579 37.0089C119.564 37.2084 119.625 37.4538 119.533 37.5996C119.318 37.9218 119.034 38.198 118.766 38.4742C118.282 38.9805 118.275 39.5021 118.712 40.1619C118.988 39.7323 119.203 39.3257 119.479 38.9728C119.571 38.8577 119.809 38.8501 119.978 38.7887C119.963 38.9881 119.963 39.1876 119.916 39.3717C119.893 39.4484 119.755 39.4945 119.679 39.5558C118.697 40.3613 118.635 40.7756 119.349 41.9954C119.594 41.4967 119.794 41.0288 120.047 40.5991C120.131 40.4534 120.346 40.3537 120.523 40.2846C120.576 40.2616 120.783 40.4457 120.776 40.5071C120.753 40.6682 120.645 40.8139 120.561 40.9597C120.553 40.9827 120.523 40.9904 120.5 41.0057C119.226 42.2255 119.333 43.7751 120.852 44.9412C121.282 43.6984 121.696 42.494 122.141 41.1899C122.609 42.1872 123.008 43.1077 123.468 44.0053C126.138 49.2449 130.143 53.2034 135.244 56.0802C135.681 56.3257 136.287 56.2873 136.847 56.295C127.166 50.6641 121.597 42.4326 121.075 31.1863C120.691 23.0008 123.491 15.8356 129.161 9.90559C140.783 -2.25371 160.015 -2.08495 171.484 10.036C175.742 14.5315 178.35 19.8785 179.186 26.0233C180.03 32.1759 179.094 38.0752 176.21 43.5987C173.348 49.0761 169.137 53.2494 163.652 56.1416C163.69 56.2413 163.728 56.3334 163.759 56.4331C164.365 56.2797 165.055 56.2643 165.569 55.9575C171.246 52.5667 175.389 47.818 177.928 41.6962C178.013 41.4891 178.12 41.2973 178.289 40.929C178.764 42.3559 179.186 43.614 179.631 44.9642H179.693ZM150.134 55.4895C163.843 55.4741 175.496 44.6037 175.481 30.4344C175.466 16.0197 163.621 5.46379 150.441 5.41009C136.188 5.35639 124.811 16.5107 124.811 30.4728C124.811 44.1971 136.234 55.4818 150.142 55.4895H150.134ZM152.367 56.2873C152.597 56.3103 152.689 56.3257 152.781 56.3257C155.527 56.3257 158.282 56.341 161.028 56.3257C161.327 56.3257 161.642 56.2106 161.918 56.0879C173.44 50.971 180.291 38.5509 178.45 26.1308C175.918 9.00035 159.079 -1.89315 142.417 2.80947C129.138 6.56082 120.315 19.8401 122.111 33.5107C123.384 43.2075 128.439 50.388 136.909 55.198C137.714 55.6583 138.589 56.2336 139.456 56.2796C142.24 56.4177 145.033 56.3334 147.825 56.3334C146.813 56.0725 145.792 55.9344 144.787 55.735C130.871 53.0269 121.604 39.0495 124.55 25.2178C126.898 14.2016 135.927 6.00847 147.265 4.81939C156.203 3.88347 163.851 6.75259 169.789 13.4882C182.692 28.1177 175.404 50.5414 156.732 55.4358C155.343 55.804 153.909 56.0035 152.359 56.3027L152.367 56.2873ZM136.027 56.6632V63.2147H164.564V56.6632H136.027Z" fill="#122B18"/>
<path d="M25.9798 30.1893C25.0823 30.1893 24.2998 30.2353 23.5326 30.1586C23.2948 30.1356 22.988 29.8211 22.8882 29.5679C22.0137 27.4353 21.1622 25.2949 20.3566 23.1392C20.1572 22.6022 19.9117 22.3874 19.3133 22.3951C15.0633 22.4258 10.8057 22.4181 6.55566 22.3951C6.00331 22.3951 5.74248 22.5485 5.54302 23.0855C4.72985 25.2719 3.8553 27.4276 3.02678 29.6063C2.86568 30.0282 2.67389 30.2353 2.19826 30.2047C1.53084 30.1586 0.855752 30.197 0.0809326 30.197C0.502864 29.1 0.89411 28.0873 1.28536 27.09C4.57642 18.7818 7.87515 10.4813 11.1355 2.16541C11.381 1.54402 11.6879 1.32921 12.3246 1.38291C13.0457 1.44428 13.9433 1.18345 14.4419 1.52099C14.9483 1.86621 15.071 2.77912 15.3395 3.44654C18.7917 12.0769 22.2362 20.715 25.6806 29.3531C25.7727 29.5909 25.8494 29.8287 25.9722 30.197L25.9798 30.1893ZM19.1215 19.9632C17.0579 14.5778 15.048 9.32289 12.9613 3.87614C10.8287 9.33823 8.77272 14.6009 6.68607 19.9632H19.1292H19.1215Z" fill="#122B18"/>
<path d="M19.4825 35.4515H22.0985C22.0985 35.8121 22.0985 36.1113 22.0985 36.4182C22.0985 42.1794 22.0908 47.933 22.0985 53.6943C22.0985 55.781 22.5127 57.7832 23.8245 59.4709C25.9189 62.1636 28.765 62.739 31.9179 62.1176C35.0633 61.4962 36.8277 59.3789 37.5565 56.364C37.779 55.4434 37.8633 54.4691 37.8633 53.5179C37.894 47.8103 37.8787 42.1027 37.8787 36.4028V35.4515H40.487C40.5023 35.7354 40.533 35.9885 40.533 36.234C40.533 42.072 40.5484 47.9023 40.533 53.7403C40.533 55.4818 40.2952 57.2002 39.6355 58.8342C38.6305 61.3581 36.8737 63.1379 34.3114 64.0585C31.6955 65.0021 29.0181 65.0558 26.3638 64.281C22.459 63.1456 20.3954 60.3685 19.6973 56.4791C19.5439 55.6429 19.4978 54.776 19.4978 53.9245C19.4825 48.0865 19.4902 42.2561 19.4902 36.4182C19.4902 36.1113 19.4902 35.8044 19.4902 35.4515H19.4825Z" fill="#122B18"/>
<path d="M88.6868 30.1585H86.1629V27.5502C85.0199 28.9847 83.639 29.9053 81.9666 30.4193C80.4093 30.9026 78.8443 30.9256 77.2947 30.4423C74.9702 29.7135 73.482 28.1869 73.0984 25.732C72.6688 22.9626 73.6507 20.7916 76.0289 19.2957C77.6629 18.2677 79.5194 18.0375 81.3989 17.9762C82.565 17.9378 83.7311 17.9378 84.8971 17.9071C85.25 17.8995 85.6106 17.8611 85.9481 17.8381C85.9481 16.9175 86.0555 16.0506 85.9251 15.2221C85.6029 13.1431 84.5212 12.0921 82.4346 11.8773C81.4219 11.7699 80.3556 11.839 79.3506 12.0231C77.6552 12.3376 76.7193 13.4654 76.4662 15.2068H73.8886C74.1801 13.1892 75.0163 11.5321 76.8267 10.6039C79.6728 9.14631 82.6417 9.08492 85.5339 10.4198C87.7739 11.4554 88.4797 13.519 88.5027 15.8358C88.5411 19.7559 88.5104 23.6684 88.5334 27.5885C88.5334 28.417 88.6331 29.2379 88.6945 30.1585H88.6868ZM86.2626 21.6738C86.2013 21.6585 86.1399 21.6431 86.0785 21.6278C86.0785 21.4207 86.0478 21.2059 86.0785 21.0064C86.1936 20.2699 85.8637 20.0628 85.1656 20.1088C83.9535 20.1856 82.7338 20.1549 81.5217 20.2469C80.1025 20.362 78.6832 20.5691 77.4328 21.3363C75.1237 22.7478 74.9702 26.1693 77.1489 27.719C79.7189 29.5448 84.0226 28.4401 85.2423 25.5403C85.7563 24.3205 85.9328 22.9626 86.2626 21.6738Z" fill="#122B18"/>
<path d="M89.7595 54.5849C89.6598 57.4694 88.8312 60.4536 86.292 62.7167C82.7861 65.8467 75.5519 65.7776 72.6444 60.3385C70.4427 56.2266 70.4504 51.9997 72.6828 47.9184C74.5239 44.5506 77.6079 43.3079 81.3285 43.5917C84.796 43.8602 87.2049 45.709 88.6548 48.8313C89.4373 50.5267 89.7595 52.3295 89.7595 54.5849ZM73.7261 54.1937C73.7108 55.8814 74.079 57.4924 74.8461 58.9884C75.9815 61.1824 77.7536 62.4866 80.2775 62.5403C82.8321 62.594 84.727 61.3972 85.8854 59.1648C87.5424 55.9735 87.5731 52.6901 86.0311 49.445C84.9111 47.0899 83.0239 45.7627 80.3696 45.7781C77.6769 45.8011 75.8511 47.2203 74.7157 49.5908C74.0253 51.0407 73.6954 52.575 73.7184 54.186L73.7261 54.1937Z" fill="#122B18"/>
<path d="M61.2775 64.1359H58.907C58.907 63.8214 58.907 63.5222 58.907 63.223C58.907 59.2262 58.907 55.237 58.907 51.2402C58.907 48.3864 57.4801 46.4071 55.0866 45.9161C52.1331 45.3178 49.7089 46.4915 48.6502 49.2072C48.2436 50.2428 48.0442 51.4166 48.0212 52.5366C47.9444 56.0885 47.9905 59.6404 47.9905 63.2C47.9905 63.4838 47.9905 63.76 47.9905 64.1052H45.5049V44.2284H47.8831V46.8521C47.9521 46.8751 48.0212 46.8981 48.0902 46.9288C48.2666 46.6986 48.4508 46.4762 48.6195 46.2383C51.3429 42.4026 58.439 42.6404 60.3952 46.9441C61.0243 48.3173 61.3235 49.7519 61.3312 51.2402C61.3542 55.3674 61.3388 59.487 61.3312 63.6142C61.3312 63.7677 61.3005 63.9134 61.2698 64.1436L61.2775 64.1359Z" fill="#122B18"/>
<path d="M95.0695 30.1577H92.63V10.1351C93.213 10.1351 93.9035 10.0968 94.5862 10.1658C94.7397 10.1811 94.9698 10.534 94.9851 10.7488C95.0388 11.4623 95.0005 12.1911 95.0005 12.9045C95.0695 12.9275 95.1309 12.9505 95.1999 12.9736C95.3687 12.7434 95.5375 12.5056 95.7063 12.2755C98.4066 8.71589 104.344 8.57013 106.914 12.0069C107.912 13.3418 108.38 14.8991 108.403 16.5178C108.464 21.0286 108.426 25.5471 108.426 30.127H106.04C106.04 29.8124 106.04 29.5056 106.04 29.2064C106.04 25.2863 106.063 21.3738 106.024 17.4537C106.017 16.6098 105.902 15.7353 105.633 14.9375C105.004 13.0426 103.562 12.0683 101.629 11.8459C99.5267 11.608 97.7162 12.168 96.4351 13.9632C95.4147 15.3901 95.0772 17.0318 95.0695 18.7502C95.0542 22.2561 95.0695 25.7542 95.0695 29.2601C95.0695 29.5439 95.0695 29.8201 95.0695 30.1653V30.1577Z" fill="#122B18"/>
<path d="M95.0689 64.1278H92.6523V44.1666C93.243 44.1666 93.9335 44.1359 94.6239 44.1896C94.7697 44.1973 94.9845 44.5271 94.9921 44.7189C95.0382 45.44 95.0075 46.1612 95.1916 46.9436C95.322 46.7825 95.4678 46.6291 95.5828 46.4603C97.9687 42.9238 102.848 43.0005 105.333 44.5195C107.098 45.6011 107.911 47.3042 108.256 49.2681C108.394 50.0276 108.433 50.8101 108.433 51.5849C108.448 55.4743 108.44 59.3638 108.44 63.2609V64.1354H106.085C106.07 63.8439 106.047 63.5447 106.047 63.2455C106.047 59.3024 106.047 55.3592 106.039 51.4161C106.039 50.8254 105.985 50.2194 105.863 49.644C105.418 47.5804 104.029 46.2532 101.989 45.9003C99.5567 45.4784 97.4854 46.2992 96.2886 48.1711C95.3911 49.575 95.0765 51.14 95.0689 52.774C95.0535 56.2492 95.0689 59.7243 95.0689 63.1995V64.1431V64.1278Z" fill="#122B18"/>
<path d="M72.0785 16.3263C71.7332 16.3263 71.5108 16.3263 71.2806 16.3263C70.736 16.3263 70.0609 16.5027 69.685 16.2419C69.3474 16.0118 69.3397 15.2983 69.171 14.8074C68.8027 13.7257 68.1507 12.8818 67.0843 12.4215C64.2612 11.1941 61.0546 11.57 59.4129 14.7843C57.518 18.4743 57.5717 22.2487 59.6046 25.8773C61.1236 28.5853 64.3379 29.3525 67.0306 27.8105C68.2888 27.0894 69.0943 26 69.3321 24.5578C69.4088 24.0745 69.5699 23.8827 70.0685 23.9057C70.6823 23.9364 71.3036 23.9134 71.9174 23.9134C72.2166 26.0691 70.3447 29.0686 68.1277 30.0506C62.7346 32.4441 57.0654 29.4522 55.838 23.5222C55.1552 20.2388 55.347 17.0321 56.958 13.9942C59.9345 8.394 66.8772 8.64716 69.9535 11.524C71.3113 12.7974 71.9557 14.3778 72.0785 16.3263Z" fill="#122B18"/>
<path d="M25.3044 12.4147C25.2124 12.2689 25.197 12.2459 25.1894 12.2229C25.0052 10.8267 25.6087 10.1286 26.9998 10.1286C27.5215 10.1286 28.0355 10.1055 28.5571 10.1286C29.0481 10.1592 29.1709 9.94445 29.1709 9.49183C29.1555 8.08795 29.1555 6.69174 29.2015 5.28786C29.3166 1.90474 31.3189 0.554558 34.794 0.999503C36.4588 1.20663 36.5585 1.47515 36.2133 3.23958C35.3464 3.23958 34.4642 3.1552 33.605 3.2626C32.4005 3.40836 31.7331 4.11412 31.6718 5.33388C31.6027 6.88352 31.6564 8.43316 31.6564 10.1286C32.7227 10.1286 33.7737 10.1209 34.8247 10.1286C36.3053 10.1439 36.0905 9.91376 36.1596 11.4557C36.1903 12.1999 35.9754 12.453 35.216 12.4147C34.0576 12.3533 32.8915 12.3993 31.6411 12.3993V30.1435H29.1632V12.4147H25.3044Z" fill="#122B18"/>
<path d="M38.6989 10.1742H41.0157C41.0771 11.0564 41.1308 11.9003 41.1998 12.9743C42.6267 9.89805 45.0202 9.16924 48.0274 9.62953V11.8926C47.8663 11.8926 47.7206 11.908 47.5825 11.8926C44.2684 11.4323 41.9056 13.1508 41.3456 16.4495C41.2382 17.0862 41.1845 17.7383 41.1845 18.3827C41.1691 22.088 41.1845 25.801 41.1768 29.5063C41.1768 29.6828 41.1615 29.8669 41.1538 30.1124H38.7066V10.1665L38.6989 10.1742Z" fill="#122B18"/>
<path d="M68.0893 64.1125H65.7035C65.6881 63.8057 65.6651 63.5525 65.6651 63.2993C65.6651 57.2158 65.6805 51.1247 65.6421 45.0412C65.6421 44.2894 65.8799 44.09 66.5704 44.159C67.0537 44.205 67.5446 44.1667 68.0817 44.1667V64.1125H68.0893Z" fill="#122B18"/>
<path d="M52.4 30.1589H50.1215V10.1824H52.4V30.1589Z" fill="#122B18"/>
<path d="M68.3119 38.3281C68.1815 38.3664 68.1355 38.3971 68.0818 38.3895C67.2456 38.3511 66.4017 38.3051 65.5655 38.259V35.4436H68.3119V38.3204V38.3281Z" fill="#122B18"/>
<path d="M49.8386 1.43579H52.6617C52.6617 2.33335 52.677 3.23092 52.6387 4.12081C52.6387 4.23588 52.3702 4.41999 52.2167 4.42766C51.5723 4.45835 50.9203 4.46602 50.2759 4.42766C50.1224 4.41999 49.8616 4.1745 49.8539 4.03641C49.8156 3.19255 49.8309 2.34103 49.8309 1.44347L49.8386 1.43579Z" fill="#122B18"/>
<path d="M177.837 63.3064C177.822 64.2039 177.07 64.9327 176.196 64.8944C175.359 64.856 174.654 64.1042 174.661 63.2527C174.677 62.3934 175.398 61.6723 176.242 61.6647C177.116 61.6647 177.853 62.4165 177.837 63.3064ZM176.272 61.8871C175.528 61.8718 174.891 62.5009 174.876 63.2603C174.861 64.0198 175.467 64.6566 176.226 64.6642C176.986 64.6796 177.607 64.0658 177.615 63.3064C177.623 62.5392 177.024 61.9025 176.272 61.8871Z" fill="#122B18"/>
<path d="M159.563 15.2451C160.062 16.2347 160.522 17.1706 161.006 18.1065C161.082 18.26 161.266 18.352 161.389 18.4824C161.527 18.6282 161.788 18.8046 161.773 18.9427C161.635 20.362 163.138 20.9296 163.391 22.1417C163.43 22.3258 163.668 22.4946 163.844 22.6327C164.427 23.093 165.025 23.538 165.601 24.0059C165.724 24.1056 165.823 24.2974 165.839 24.4585C165.892 25.0876 166.36 25.4635 166.966 25.3254C168.094 25.0722 169.214 24.8037 170.511 24.5046C170.388 25.1259 170.388 25.755 170.135 26.246C169.521 27.4044 168.823 28.5244 168.079 29.6061C167.818 29.9897 167.312 30.1891 166.943 30.5036C165.655 31.593 164.427 32.7437 163.714 34.3087C163.576 34.6079 163.698 35.0221 163.714 35.3827C163.721 35.6052 163.767 35.82 163.798 36.0348C163.852 36.4107 163.783 36.9017 163.99 37.1548C164.788 38.1291 164.404 39.2721 164.45 40.3155C164.465 40.722 163.875 41.2284 163.453 41.5659C162.747 42.1489 161.934 42.6016 161.22 43.1769C161.052 43.315 161.013 43.6986 161.036 43.9671C161.059 44.32 161.228 44.6652 161.282 45.0181C161.405 45.8696 161.105 46.3376 160.277 46.5754C159.763 46.7211 159.402 46.8362 159.625 47.565C159.732 47.9179 159.464 48.4856 159.203 48.8385C158.658 49.5749 157.998 50.2193 157.392 50.9098C156.495 51.9377 155.436 52.5054 154.002 52.375C153.442 52.3213 152.82 52.5361 152.283 52.7663C151.831 52.9581 151.485 52.8583 151.263 52.5361C151.048 52.2369 150.964 51.8303 150.856 51.4621C150.772 51.1629 150.818 50.8254 150.695 50.5492C149.928 48.8308 148.831 47.2735 148.823 45.2252C148.823 44.4197 148.125 43.5835 147.665 42.8087C147.235 42.0952 147.212 41.3818 147.504 40.6607C147.788 39.9856 148.164 39.3488 148.486 38.6814C148.555 38.5433 148.639 38.3746 148.601 38.2442C148.125 36.5258 148.202 34.5619 146.537 33.3651C145.371 32.5289 145.962 31.5009 146.192 30.5497C146.507 29.2609 146.192 28.7929 144.896 28.9617C144.266 29.0461 143.76 29.1304 143.476 28.3479C143.392 28.1101 142.886 27.9183 142.563 27.8953C142.111 27.8723 141.65 28.0104 141.198 28.1101C140.247 28.3173 139.418 28.9156 138.313 28.6241C137.723 28.4707 136.986 28.7162 136.357 28.9233C135.82 29.0998 135.398 29.0307 134.984 28.7239C134.317 28.2329 133.603 27.7956 133.012 27.2279C132.498 26.7293 132.153 26.0695 131.716 25.4942C131.601 25.3407 131.44 25.1566 131.263 25.1106C130.604 24.9341 130.496 24.4355 130.343 23.8755C130.151 23.1544 130.419 22.556 130.68 21.9499C131.056 21.0754 130.956 20.2469 130.604 19.3877C130.527 19.2036 130.604 18.8737 130.742 18.7049C131.524 17.6769 132.337 16.6643 133.166 15.667C133.319 15.4829 133.588 15.3832 133.818 15.2834C134.623 14.9382 135.329 14.5623 135.406 13.5037C135.444 12.959 135.797 12.491 136.411 12.2302C136.794 12.0691 137.117 11.6778 137.385 11.3326C137.631 11.0027 137.761 10.834 138.244 11.0258C138.912 11.2943 139.595 11.371 140.362 10.9874C141.167 10.5808 142.118 10.3967 143.024 10.2586C144.029 10.1129 145.057 10.1129 146.077 10.0898C146.368 10.0898 146.668 10.2203 146.951 10.297C146.859 10.9107 146.775 11.4937 146.652 12.2992C147.143 12.4527 147.841 12.6521 148.524 12.8976C148.846 13.0127 149.123 13.2198 149.437 13.3579C150.112 13.6417 150.795 13.9256 151.493 14.1557C151.577 14.1864 151.861 13.8949 151.9 13.7185C152.099 12.8286 152.667 12.5447 153.534 12.8286C154.577 13.1738 155.659 13.4269 156.725 13.7108C156.84 13.7415 156.978 13.7108 157.109 13.6954C157.929 13.5957 158.75 13.4883 159.571 13.3886C159.648 13.3809 159.778 13.3656 159.794 13.3962C159.939 13.7261 160.192 14.0637 160.185 14.3935C160.162 15.1914 160.116 15.1914 159.563 15.2451Z" fill="#122B18"/>
<path d="M169.674 38.4365C169.973 39.4031 170.518 39.9631 170.019 41.0064C169.36 42.3643 169.099 43.914 168.692 45.3869C168.493 46.1003 168.255 46.7217 167.419 46.9672C166.882 47.1206 166.468 46.9672 166.314 46.5759C166.03 45.8241 165.67 45.011 166.237 44.2285C166.636 43.6761 166.698 43.1391 166.468 42.4947C166.237 41.8503 166.46 41.2289 167.12 41.0602C168.424 40.7226 168.984 39.7176 169.674 38.4442V38.4365Z" fill="#122B18"/>
<path d="M141.123 58.1134C142.366 57.1698 143.585 57.1698 144.782 58.1287C146.009 57.1928 147.222 57.1468 148.449 58.1287C149.592 57.2695 150.758 57.1084 151.955 57.9983C152.039 58.0597 152.262 58.0367 152.361 57.9676C153.543 57.1314 154.686 57.2542 155.806 58.1134C156.934 57.2695 158.069 57.1391 159.273 57.9369C159.404 58.029 159.741 57.9139 159.926 57.8065C160.892 57.2465 161.997 57.2695 162.848 57.8986C163.654 58.497 164.06 59.5556 163.807 60.5222C163.531 61.6039 162.818 62.3634 161.721 62.4401C160.977 62.4938 160.202 62.1639 159.243 61.9645C158.261 62.7546 157.049 62.747 155.821 61.7803C154.625 62.7163 153.412 62.7853 152.162 61.7803C150.958 62.7009 149.715 62.816 148.48 61.765C147.268 62.7163 146.055 62.7776 144.805 61.7803C143.593 62.7086 142.358 62.8006 141.153 61.7957C139.466 62.77 138.238 62.6856 137.295 61.5502C136.489 60.5836 136.535 59.1567 137.402 58.2054C138.323 57.1928 139.642 57.1391 141.107 58.098L141.123 58.1134ZM161.115 62.0949C162.227 62.0949 163.055 61.5195 163.355 60.6833C163.654 59.8395 163.393 58.9112 162.68 58.3128C162.004 57.7375 161.053 57.6608 160.294 58.098C159.949 58.2975 159.841 58.4893 159.956 58.9573C160.11 59.6017 160.102 60.3304 159.956 60.9672C159.849 61.4351 159.918 61.6499 160.294 61.811C160.624 61.9491 160.969 62.0412 161.115 62.0949ZM140.778 61.4121C140.31 60.2537 140.225 59.8164 140.609 59.0109C140.862 58.4739 140.639 58.2668 140.225 58.052C139.266 57.5534 138.131 57.8602 137.502 58.7885C136.903 59.663 137.072 60.8981 137.885 61.5886C138.706 62.2867 140.056 62.302 140.785 61.4198L140.778 61.4121ZM156.12 61.4121C157.21 62.3634 158.315 62.3327 158.928 61.6346C158.928 60.622 158.744 59.8011 158.974 59.1337C159.243 58.3589 158.913 58.1594 158.368 57.9523C157.685 57.6915 157.026 57.7758 156.458 58.2208C156.312 58.3358 156.213 58.6887 156.282 58.8422C156.665 59.7244 156.565 60.5606 156.113 61.4121H156.12ZM152.707 58.2975C152.707 59.3255 152.891 60.1386 152.661 60.8061C152.384 61.5885 152.722 61.8724 153.274 61.9491C153.85 62.0258 154.479 61.9108 155.054 61.7803C155.422 61.696 155.43 61.4044 155.346 60.9902C155.215 60.3381 155.2 59.617 155.346 58.9649C155.445 58.5046 155.384 58.3052 155.023 58.0904C154.187 57.5994 153.282 57.7298 152.707 58.2898V58.2975ZM141.66 58.2668C141.66 59.3024 141.836 60.1386 141.606 60.8367C141.376 61.5349 141.629 61.8264 142.128 61.9031C142.726 61.9952 143.378 61.9261 143.984 61.811C144.383 61.7343 144.444 61.4351 144.306 60.9748C144.145 60.4071 144.122 59.7551 144.23 59.1721C144.383 58.3742 144.329 58.1441 143.539 57.9139C142.718 57.6761 142.028 57.8832 141.66 58.2668ZM148.142 58.543C147.344 57.7528 146.431 57.6071 145.595 58.098C145.242 58.3052 145.135 58.5046 145.265 58.9726C145.426 59.5403 145.449 60.1924 145.342 60.7754C145.196 61.5732 145.235 61.8034 146.04 62.0258C146.853 62.2483 147.559 62.0795 148.157 61.4198C147.643 60.4455 147.643 59.4789 148.15 58.543H148.142ZM151.594 61.6269C151.587 60.6296 151.387 59.8165 151.617 59.149C151.901 58.3205 151.518 58.0213 150.942 57.9599C150.344 57.8986 149.707 58.0904 149.109 58.2361C149.001 58.2591 148.856 58.6504 148.917 58.7731C149.362 59.6937 149.216 60.5759 148.794 61.4275C149.845 62.3404 150.812 62.3404 151.602 61.6269H151.594ZM148.625 59.057C148.526 59.057 148.426 59.057 148.326 59.057V60.8598C148.426 60.8598 148.526 60.8598 148.625 60.8598V59.057ZM141.268 59.08H140.954V60.8521H141.268V59.08ZM152.308 59.0646C152.208 59.0646 152.101 59.0646 152.001 59.0646V60.8828H152.308V59.0723V59.0646ZM159.672 59.08C159.565 59.08 159.465 59.08 159.358 59.0723V60.8444C159.465 60.8444 159.565 60.8444 159.672 60.8444V59.08ZM144.636 60.8598C144.744 60.8598 144.851 60.8598 144.951 60.8598V59.057H144.636V60.8598ZM155.66 60.8444C155.76 60.8444 155.867 60.8444 155.967 60.8444V59.08C155.867 59.08 155.76 59.08 155.66 59.08V60.8444Z" fill="#122B18"/>
</svg>
