<svg width="93" height="53" viewBox="0 0 93 53" fill="none" xmlns="http://www.w3.org/2000/svg">
<line y1="27.2529" x2="36" y2="27.2529" stroke="#89886D" stroke-width="3.49415" stroke-dasharray="6.35 6.35"/>
<circle cx="66.8785" cy="26.7892" r="25.8785" transform="rotate(90 66.8785 26.7892)" fill="#89886D"/>
<g clip-path="url(#clip0_404_19)">
<path d="M78.7815 37.759H54.6401C53.798 37.758 52.9906 37.423 52.3951 36.8275C51.7996 36.232 51.4646 35.4246 51.4636 34.5825V20.6059C51.4646 19.7637 51.7996 18.9564 52.3951 18.3609C52.9906 17.7654 53.798 17.4304 54.6401 17.4294H78.7815C79.6237 17.4304 80.431 17.7654 81.0265 18.3609C81.622 18.9564 81.957 19.7637 81.958 20.6059V34.5825C81.957 35.4246 81.622 36.232 81.0265 36.8275C80.431 37.423 79.6237 37.758 78.7815 37.759ZM54.6401 18.7C54.1346 18.7 53.6499 18.9008 53.2924 19.2582C52.935 19.6156 52.7342 20.1004 52.7342 20.6059V34.5825C52.7342 35.088 52.935 35.5727 53.2924 35.9302C53.6499 36.2876 54.1346 36.4884 54.6401 36.4884H78.7815C79.287 36.4884 79.7718 36.2876 80.1292 35.9302C80.4866 35.5727 80.6874 35.088 80.6874 34.5825V20.6059C80.6874 20.1004 80.4866 19.6156 80.1292 19.2582C79.7718 18.9008 79.287 18.7 78.7815 18.7H54.6401Z" fill="#FFF9F0"/>
<path d="M60.9934 26.9587C60.3651 26.9587 59.751 26.7724 59.2286 26.4234C58.7063 26.0743 58.2991 25.5782 58.0587 24.9978C57.8183 24.4174 57.7554 23.7787 57.8779 23.1625C58.0005 22.5463 58.303 21.9803 58.7473 21.5361C59.1915 21.0918 59.7575 20.7893 60.3737 20.6667C60.9899 20.5442 61.6286 20.6071 62.209 20.8475C62.7894 21.0879 63.2855 21.4951 63.6346 22.0174C63.9836 22.5398 64.1699 23.154 64.1699 23.7822C64.1689 24.6244 63.8339 25.4317 63.2384 26.0272C62.6429 26.6227 61.8355 26.9577 60.9934 26.9587ZM60.9934 21.8763C60.6164 21.8763 60.248 21.9881 59.9345 22.1975C59.6211 22.4069 59.3768 22.7046 59.2326 23.0529C59.0883 23.4011 59.0506 23.7843 59.1241 24.154C59.1977 24.5237 59.3792 24.8633 59.6457 25.1299C59.9123 25.3964 60.2519 25.578 60.6216 25.6515C60.9913 25.725 61.3745 25.6873 61.7228 25.543C62.071 25.3988 62.3687 25.1545 62.5781 24.8411C62.7875 24.5277 62.8993 24.1592 62.8993 23.7822C62.8993 23.2767 62.6985 22.792 62.3411 22.4345C61.9836 22.0771 61.4989 21.8763 60.9934 21.8763Z" fill="#FFF9F0"/>
<path d="M66.7108 34.5827C66.5423 34.5827 66.3808 34.5158 66.2616 34.3967C66.1425 34.2775 66.0755 34.1159 66.0755 33.9474C66.0755 31.4958 63.7954 29.5003 60.9931 29.5003C58.1908 29.5003 55.9107 31.4958 55.9107 33.9474C55.9107 34.1159 55.8438 34.2775 55.7247 34.3967C55.6055 34.5158 55.4439 34.5827 55.2754 34.5827C55.1069 34.5827 54.9454 34.5158 54.8262 34.3967C54.7071 34.2775 54.6401 34.1159 54.6401 33.9474C54.6401 30.7944 57.4901 28.2297 60.9931 28.2297C64.4962 28.2297 67.3461 30.7944 67.3461 33.9474C67.3461 34.1159 67.2792 34.2775 67.1601 34.3967C67.0409 34.5158 66.8793 34.5827 66.7108 34.5827Z" fill="#FFF9F0"/>
<path d="M78.1481 24.4173H70.5245C70.356 24.4173 70.1944 24.3504 70.0752 24.2313C69.9561 24.1121 69.8892 23.9505 69.8892 23.782C69.8892 23.6135 69.9561 23.4519 70.0752 23.3328C70.1944 23.2137 70.356 23.1467 70.5245 23.1467H78.1481C78.3166 23.1467 78.4781 23.2137 78.5973 23.3328C78.7164 23.4519 78.7834 23.6135 78.7834 23.782C78.7834 23.9505 78.7164 24.1121 78.5973 24.2313C78.4781 24.3504 78.3166 24.4173 78.1481 24.4173Z" fill="#FFF9F0"/>
<path d="M78.1481 28.2293H70.5245C70.356 28.2293 70.1944 28.1624 70.0752 28.0433C69.9561 27.9241 69.8892 27.7625 69.8892 27.594C69.8892 27.4255 69.9561 27.264 70.0752 27.1448C70.1944 27.0257 70.356 26.9587 70.5245 26.9587H78.1481C78.3166 26.9587 78.4781 27.0257 78.5973 27.1448C78.7164 27.264 78.7834 27.4255 78.7834 27.594C78.7834 27.7625 78.7164 27.9241 78.5973 28.0433C78.4781 28.1624 78.3166 28.2293 78.1481 28.2293Z" fill="#FFF9F0"/>
<path d="M78.1481 32.0414H70.5245C70.356 32.0414 70.1944 31.9744 70.0752 31.8553C69.9561 31.7361 69.8892 31.5745 69.8892 31.4061C69.8892 31.2376 69.9561 31.076 70.0752 30.9568C70.1944 30.8377 70.356 30.7708 70.5245 30.7708H78.1481C78.3166 30.7708 78.4781 30.8377 78.5973 30.9568C78.7164 31.076 78.7834 31.2376 78.7834 31.4061C78.7834 31.5745 78.7164 31.7361 78.5973 31.8553C78.4781 31.9744 78.3166 32.0414 78.1481 32.0414Z" fill="#FFF9F0"/>
</g>
<defs>
<clipPath id="clip0_404_19">
<rect width="30.4944" height="30.4944" fill="white" transform="translate(51.4634 12.3469)"/>
</clipPath>
</defs>
</svg>
