<svg width="93" height="53" viewBox="0 0 93 53" fill="none" xmlns="http://www.w3.org/2000/svg">
<line y1="27.2528" x2="37" y2="27.2528" stroke="#E3DDD6" stroke-width="3.49415" stroke-dasharray="6.35 6.35"/>
<circle cx="66.8785" cy="26.6788" r="25.8785" transform="rotate(90 66.8785 26.6788)" fill="#E3DDD6"/>
<g clip-path="url(#clip0_404_13)">
<path d="M78.4585 24.88C78.9416 24.409 79.1122 23.7178 78.9037 23.0761C78.6952 22.4344 78.1509 21.9756 77.4833 21.8786L71.6449 21.0302C71.5303 21.0136 71.4312 20.9416 71.3799 20.8377L68.7689 15.5473C68.4704 14.9423 67.8657 14.5664 67.191 14.5664C66.5163 14.5664 65.9117 14.9423 65.6131 15.5473L63.0021 20.8378C62.9508 20.9416 62.8518 21.0136 62.7371 21.0303L56.8988 21.8786C56.2311 21.9756 55.6869 22.4344 55.4783 23.0761C55.2698 23.7178 55.4404 24.409 55.9236 24.88L60.1483 28.998C60.2312 29.0789 60.2691 29.1954 60.2495 29.3095L59.2522 35.1243C59.1381 35.7893 59.4063 36.4487 59.9522 36.8453C60.498 37.242 61.2082 37.2932 61.8054 36.9793L67.0273 34.234C67.1298 34.1801 67.2522 34.1801 67.3549 34.234L72.5768 36.9793C72.8366 37.1159 73.1176 37.1834 73.3973 37.1833C73.7606 37.1833 74.1215 37.0695 74.4299 36.8452C74.9757 36.4486 75.2439 35.7891 75.1299 35.1242L74.1326 29.3095C74.113 29.1953 74.1508 29.0788 74.2338 28.9979L78.4585 24.88ZM72.7452 29.5475L73.7425 35.3624C73.7759 35.557 73.6558 35.6679 73.6026 35.7065C73.5493 35.7451 73.4066 35.8252 73.2319 35.7333L68.0099 32.9879C67.7536 32.8532 67.4724 32.7858 67.1911 32.7858C66.9099 32.7858 66.6286 32.8532 66.3723 32.9879L61.1504 35.7332C60.9756 35.825 60.8329 35.7451 60.7797 35.7064C60.7265 35.6678 60.6064 35.5569 60.6398 35.3623L61.6371 29.5475C61.735 28.9766 61.5459 28.3944 61.131 27.9901L56.9063 23.872C56.7649 23.7341 56.7969 23.5738 56.8173 23.5112C56.8376 23.4486 56.906 23.3001 57.1014 23.2717L62.9396 22.4233C63.5128 22.3401 64.0082 21.9803 64.2646 21.4607L66.8756 16.1703C66.963 15.9933 67.1254 15.9741 67.1912 15.9741C67.2569 15.9741 67.4193 15.9932 67.5067 16.1703V16.1703L70.1177 21.4608C70.3741 21.9803 70.8694 22.3401 71.4426 22.4234L77.2809 23.2718C77.4763 23.3001 77.5446 23.4487 77.565 23.5113C77.5853 23.5739 77.6173 23.7343 77.4759 23.8721L73.2512 27.9901C72.8364 28.3944 72.6473 28.9766 72.7452 29.5475Z" fill="#89886D"/>
<path d="M75.4178 15.5466C75.1032 15.3181 74.6631 15.3878 74.4346 15.7023L73.6874 16.7306C73.459 17.0451 73.5287 17.4853 73.8432 17.7137C73.9682 17.8045 74.1129 17.8482 74.2563 17.8482C74.474 17.8482 74.6886 17.7476 74.8263 17.5581L75.5735 16.5298C75.8019 16.2152 75.7323 15.775 75.4178 15.5466Z" fill="#89886D"/>
<path d="M60.6977 16.7258L59.9506 15.6975C59.7221 15.3831 59.282 15.3134 58.9674 15.5417C58.653 15.7702 58.5832 16.2104 58.8117 16.5249L59.5589 17.5532C59.6966 17.7429 59.9112 17.8434 60.1289 17.8434C60.2724 17.8434 60.4172 17.7997 60.5421 17.7089C60.8565 17.4805 60.9262 17.0403 60.6977 16.7258Z" fill="#89886D"/>
<path d="M56.433 30.3575C56.3128 29.9878 55.9158 29.7855 55.546 29.9056L54.3371 30.2984C53.9674 30.4186 53.7651 30.8157 53.8852 31.1854C53.9819 31.4829 54.2578 31.672 54.5545 31.672C54.6266 31.672 54.6999 31.6607 54.7722 31.6372L55.9811 31.2444C56.3508 31.1243 56.5531 30.7272 56.433 30.3575Z" fill="#89886D"/>
<path d="M67.1924 38.1719C66.8037 38.1719 66.4885 38.487 66.4885 38.8757V40.1469C66.4885 40.5356 66.8037 40.8508 67.1924 40.8508C67.5811 40.8508 67.8962 40.5356 67.8962 40.1469V38.8757C67.8962 38.487 67.5812 38.1719 67.1924 38.1719Z" fill="#89886D"/>
<path d="M80.0477 30.2994L78.8388 29.9065C78.4692 29.7865 78.072 29.9887 77.9519 30.3585C77.8318 30.7282 78.034 31.1253 78.4038 31.2454L79.6127 31.6382C79.6849 31.6617 79.7582 31.6728 79.8303 31.6728C80.127 31.6728 80.403 31.4837 80.4996 31.1862C80.6197 30.8165 80.4174 30.4195 80.0477 30.2994Z" fill="#89886D"/>
</g>
<defs>
<clipPath id="clip0_404_13">
<rect width="26.6826" height="26.6826" fill="white" transform="translate(53.8518 14.3677)"/>
</clipPath>
</defs>
</svg>
