<svg width="93" height="53" viewBox="0 0 93 53" fill="none" xmlns="http://www.w3.org/2000/svg">
<line y1="27.2529" x2="36" y2="27.2529" stroke="#122B18" stroke-width="3.49415" stroke-dasharray="6.35 6.35"/>
<circle cx="66.8785" cy="26.485" r="25.8785" transform="rotate(90 66.8785 26.485)" fill="#122B18"/>
<path d="M64.1329 28.4712H60.2417C59.7902 28.4712 59.3572 28.6506 59.0379 28.9698C58.7187 29.2891 58.5393 29.7221 58.5393 30.1736C58.5393 30.6251 58.7187 31.0581 59.0379 31.3774C59.3572 31.6966 59.7902 31.876 60.2417 31.876H64.1329C64.5844 31.876 65.0174 31.6966 65.3367 31.3774C65.656 31.0581 65.8353 30.6251 65.8353 30.1736C65.8353 29.7221 65.656 29.2891 65.3367 28.9698C65.0174 28.6506 64.5844 28.4712 64.1329 28.4712ZM64.1329 30.9032H60.2417C60.0482 30.9032 59.8626 30.8263 59.7258 30.6895C59.589 30.5527 59.5121 30.3671 59.5121 30.1736C59.5121 29.9801 59.589 29.7945 59.7258 29.6577C59.8626 29.5209 60.0482 29.444 60.2417 29.444H64.1329C64.3264 29.444 64.512 29.5209 64.6488 29.6577C64.7857 29.7945 64.8625 29.9801 64.8625 30.1736C64.8625 30.3671 64.7857 30.5527 64.6488 30.6895C64.512 30.8263 64.3264 30.9032 64.1329 30.9032Z" fill="#FFF9F0"/>
<path d="M62.4305 36.2534H59.0257C58.8967 36.2534 58.773 36.3047 58.6818 36.3959C58.5906 36.4871 58.5393 36.6108 58.5393 36.7398C58.5393 36.8688 58.5906 36.9925 58.6818 37.0838C58.773 37.175 58.8967 37.2262 59.0257 37.2262H62.4305C62.5595 37.2262 62.6832 37.175 62.7745 37.0838C62.8657 36.9925 62.9169 36.8688 62.9169 36.7398C62.9169 36.6108 62.8657 36.4871 62.7745 36.3959C62.6832 36.3047 62.5595 36.2534 62.4305 36.2534Z" fill="#FFF9F0"/>
<path d="M59.0257 35.2814H60.4849C60.6139 35.2814 60.7376 35.2302 60.8289 35.1389C60.9201 35.0477 60.9713 34.924 60.9713 34.795C60.9713 34.666 60.9201 34.5423 60.8289 34.4511C60.7376 34.3598 60.6139 34.3086 60.4849 34.3086H59.0257C58.8967 34.3086 58.773 34.3598 58.6818 34.4511C58.5906 34.5423 58.5393 34.666 58.5393 34.795C58.5393 34.924 58.5906 35.0477 58.6818 35.1389C58.773 35.2302 58.8967 35.2814 59.0257 35.2814Z" fill="#FFF9F0"/>
<path d="M78.4808 22.6348H69.0898C68.8918 22.6356 68.6987 22.6964 68.536 22.8093C68.3733 22.9222 68.2488 23.0819 68.1788 23.2671L67.2936 25.6267L66.4083 23.2671C66.3384 23.0819 66.2138 22.9222 66.0511 22.8093C65.8884 22.6964 65.6953 22.6356 65.4973 22.6348H56.1063C55.9491 22.6348 55.7942 22.6729 55.655 22.7459C55.5157 22.8188 55.3962 22.9244 55.3067 23.0536C55.2153 23.187 55.1583 23.3409 55.1406 23.5016C55.123 23.6623 55.1453 23.8248 55.2055 23.9749L56.5927 27.1156V37.7133C56.5927 38.1003 56.7465 38.4714 57.0201 38.7451C57.2938 39.0187 57.6649 39.1725 58.0519 39.1725H76.5352C76.9222 39.1725 77.2933 39.0187 77.567 38.7451C77.8407 38.4714 77.9944 38.1003 77.9944 37.7133V27.1156L79.3913 23.9491C79.4465 23.8019 79.4652 23.6436 79.4458 23.4877C79.4264 23.3317 79.3696 23.1828 79.2801 23.0536C79.1906 22.9245 79.0711 22.8189 78.9319 22.7459C78.7927 22.673 78.6379 22.6349 78.4808 22.6348ZM65.4973 23.6076L66.5917 26.526H57.3958L56.1063 23.6076H65.4973ZM57.5655 37.7133V27.4988H66.8071V38.1997H58.0519C57.9229 38.1997 57.7992 38.1484 57.708 38.0572C57.6168 37.966 57.5655 37.8423 57.5655 37.7133ZM77.0216 37.7133C77.0216 37.8423 76.9703 37.966 76.8791 38.0572C76.7879 38.1484 76.6642 38.1997 76.5352 38.1997H67.78V27.4988H77.0216V37.7133ZM77.1913 26.526H67.9954L69.0898 23.6076L78.491 23.5819L77.1913 26.526Z" fill="#FFF9F0"/>
<path d="M69.2396 37.2263H75.5628C75.6918 37.2263 75.8155 37.1751 75.9067 37.0838C75.998 36.9926 76.0492 36.8689 76.0492 36.7399V28.9575C76.0492 28.8285 75.998 28.7048 75.9067 28.6135C75.8155 28.5223 75.6918 28.4711 75.5628 28.4711H69.2396C69.1106 28.4711 68.9869 28.5223 68.8956 28.6135C68.8044 28.7048 68.7532 28.8285 68.7532 28.9575V36.7399C68.7532 36.8689 68.8044 36.9926 68.8956 37.0838C68.9869 37.1751 69.1106 37.2263 69.2396 37.2263ZM69.726 29.4439H75.0764V36.2535H69.726V29.4439Z" fill="#FFF9F0"/>
<path d="M73.6159 30.417H71.1839C71.0549 30.417 70.9312 30.4682 70.84 30.5595C70.7488 30.6507 70.6975 30.7744 70.6975 30.9034C70.6975 31.0324 70.7488 31.1561 70.84 31.2473C70.9312 31.3386 71.0549 31.3898 71.1839 31.3898H73.6159C73.7449 31.3898 73.8686 31.3386 73.9599 31.2473C74.0511 31.1561 74.1023 31.0324 74.1023 30.9034C74.1023 30.7744 74.0511 30.6507 73.9599 30.5595C73.8686 30.4682 73.7449 30.417 73.6159 30.417Z" fill="#FFF9F0"/>
<path d="M73.6159 32.3628H71.1839C71.0549 32.3628 70.9312 32.414 70.84 32.5053C70.7488 32.5965 70.6975 32.7202 70.6975 32.8492C70.6975 32.9782 70.7488 33.1019 70.84 33.1931C70.9312 33.2844 71.0549 33.3356 71.1839 33.3356H73.6159C73.7449 33.3356 73.8686 33.2844 73.9599 33.1931C74.0511 33.1019 74.1023 32.9782 74.1023 32.8492C74.1023 32.7202 74.0511 32.5965 73.9599 32.5053C73.8686 32.414 73.7449 32.3628 73.6159 32.3628Z" fill="#FFF9F0"/>
<path d="M73.6159 34.3086H71.1839C71.0549 34.3086 70.9312 34.3598 70.84 34.4511C70.7488 34.5423 70.6975 34.666 70.6975 34.795C70.6975 34.924 70.7488 35.0477 70.84 35.1389C70.9312 35.2302 71.0549 35.2814 71.1839 35.2814H73.6159C73.7449 35.2814 73.8686 35.2302 73.9599 35.1389C74.0511 35.0477 74.1023 34.924 74.1023 34.795C74.1023 34.666 74.0511 34.5423 73.9599 34.4511C73.8686 34.3598 73.7449 34.3086 73.6159 34.3086Z" fill="#FFF9F0"/>
<path d="M66.3218 21.6613H68.2674C68.3964 21.6613 68.5201 21.6101 68.6114 21.5189C68.7026 21.4277 68.7538 21.3039 68.7538 21.1749V12.9061H68.9776C69.2012 12.9066 69.4207 12.8463 69.6126 12.7316C69.8045 12.6169 69.9617 12.4522 70.0672 12.2551C70.1727 12.0579 70.2227 11.8358 70.2117 11.6125C70.2007 11.3892 70.1292 11.1731 70.0049 10.9873L68.4557 8.66615C68.329 8.47461 68.1569 8.31738 67.9547 8.20847C67.7525 8.09957 67.5265 8.04238 67.2969 8.04199C67.0672 8.04161 66.8411 8.09804 66.6385 8.20627C66.436 8.31449 66.2633 8.47114 66.136 8.66226L64.582 10.9912C64.4585 11.1771 64.3879 11.393 64.3775 11.616C64.3672 11.8389 64.4176 12.0605 64.5233 12.257C64.629 12.4536 64.786 12.6178 64.9777 12.7321C65.1694 12.8464 65.3885 12.9066 65.6117 12.9061H65.8354V21.1749C65.8354 21.3039 65.8867 21.4277 65.9779 21.5189C66.0691 21.6101 66.1928 21.6613 66.3218 21.6613ZM65.6117 11.9333C65.542 11.9333 65.4752 11.9056 65.4259 11.8564C65.3767 11.8071 65.349 11.7403 65.349 11.6707C65.3494 11.6195 65.365 11.5695 65.3938 11.5272L66.9503 9.19828C66.9914 9.14496 67.0443 9.10186 67.1048 9.07233C67.1654 9.0428 67.2319 9.02763 67.2992 9.02801C67.3666 9.02838 67.4329 9.0443 67.4931 9.0745C67.5533 9.10471 67.6057 9.1484 67.6463 9.20217L69.1916 11.5233C69.2189 11.5624 69.235 11.6082 69.2381 11.6558C69.2411 11.7034 69.2311 11.751 69.209 11.7932C69.1869 11.8355 69.1537 11.8709 69.1129 11.8956C69.0721 11.9203 69.0253 11.9334 68.9776 11.9333H68.2674C68.1384 11.9333 68.0147 11.9846 67.9235 12.0758C67.8323 12.167 67.781 12.2907 67.781 12.4197V20.6885H66.8082V12.4197C66.8082 12.2907 66.757 12.167 66.6658 12.0758C66.5745 11.9846 66.4508 11.9333 66.3218 11.9333H65.6117Z" fill="#FFF9F0"/>
<path d="M71.6717 21.6617H73.6173C73.7463 21.6617 73.87 21.6104 73.9612 21.5192C74.0524 21.428 74.1037 21.3043 74.1037 21.1753V16.3113H74.3274C74.551 16.3117 74.7705 16.2514 74.9625 16.1367C75.1544 16.022 75.3115 15.8573 75.4171 15.6602C75.5226 15.4631 75.5725 15.241 75.5616 15.0177C75.5506 14.7944 75.4791 14.5782 75.3547 14.3924L73.8055 12.0713C73.6788 11.8798 73.5067 11.7225 73.3046 11.6136C73.1024 11.5047 72.8764 11.4475 72.6467 11.4471C72.4171 11.4468 72.1909 11.5032 71.9884 11.6114C71.7858 11.7196 71.6132 11.8763 71.4859 12.0674L69.9318 14.3963C69.8084 14.5822 69.7377 14.7982 69.7274 15.0211C69.7171 15.2441 69.7674 15.4656 69.8731 15.6622C69.9788 15.8588 70.1359 16.0229 70.3276 16.1373C70.5192 16.2516 70.7384 16.3117 70.9615 16.3113H71.1853V21.1753C71.1853 21.3043 71.2365 21.428 71.3277 21.5192C71.419 21.6104 71.5427 21.6617 71.6717 21.6617ZM70.9615 15.3385C70.8919 15.3385 70.8251 15.3108 70.7758 15.2615C70.7265 15.2123 70.6989 15.1455 70.6989 15.0758C70.6988 15.0238 70.7144 14.9729 70.7436 14.9299L72.3001 12.601C72.3413 12.5477 72.3942 12.5046 72.4547 12.4751C72.5152 12.4455 72.5817 12.4304 72.6491 12.4307C72.7164 12.4311 72.7828 12.447 72.843 12.4772C72.9032 12.5074 72.9556 12.5511 72.9961 12.6049L74.5414 14.9284C74.5688 14.9675 74.5848 15.0134 74.5879 15.061C74.591 15.1086 74.5809 15.1561 74.5589 15.1984C74.5368 15.2407 74.5035 15.2761 74.4627 15.3008C74.4219 15.3255 74.3751 15.3385 74.3274 15.3385H73.6173C73.4883 15.3385 73.3646 15.3897 73.2733 15.4809C73.1821 15.5721 73.1309 15.6959 73.1309 15.8249V20.6889H72.1581V15.8249C72.1581 15.6959 72.1068 15.5721 72.0156 15.4809C71.9244 15.3897 71.8007 15.3385 71.6717 15.3385H70.9615Z" fill="#FFF9F0"/>
<path d="M60.9712 21.6618H62.9168C63.0458 21.6618 63.1696 21.6106 63.2608 21.5193C63.352 21.4281 63.4032 21.3044 63.4032 21.1754V16.3114H63.627C63.8506 16.3119 64.0701 16.2515 64.262 16.1368C64.454 16.0222 64.6111 15.8574 64.7166 15.6603C64.8222 15.4632 64.8721 15.2411 64.8611 15.0178C64.8501 14.7945 64.7786 14.5783 64.6543 14.3925L63.1051 12.0714C62.9784 11.8799 62.8063 11.7227 62.6041 11.6137C62.4019 11.5048 62.1759 11.4477 61.9463 11.4473C61.7167 11.4469 61.4905 11.5033 61.2879 11.6115C61.0854 11.7198 60.9128 11.8764 60.7854 12.0675L59.2314 14.3964C59.1079 14.5824 59.0373 14.7983 59.027 15.0213C59.0166 15.2442 59.067 15.4658 59.1727 15.6623C59.2784 15.8589 59.4354 16.0231 59.6271 16.1374C59.8188 16.2517 60.0379 16.3118 60.2611 16.3114H60.4848V21.1754C60.4848 21.3044 60.5361 21.4281 60.6273 21.5193C60.7185 21.6106 60.8422 21.6618 60.9712 21.6618ZM60.2611 15.3386C60.1914 15.3386 60.1246 15.3109 60.0754 15.2617C60.0261 15.2124 59.9984 15.1456 59.9984 15.0759C59.9983 15.0239 60.0139 14.973 60.0432 14.93L61.5997 12.6011C61.6408 12.5478 61.6937 12.5047 61.7542 12.4752C61.8148 12.4456 61.8813 12.4305 61.9486 12.4308C62.016 12.4312 62.0824 12.4471 62.1425 12.4773C62.2027 12.5076 62.2552 12.5512 62.2957 12.605L63.841 14.9286C63.8683 14.9677 63.8844 15.0135 63.8875 15.0611C63.8905 15.1087 63.8805 15.1562 63.8584 15.1985C63.8363 15.2408 63.8031 15.2762 63.7623 15.3009C63.7215 15.3256 63.6747 15.3386 63.627 15.3386H62.9168C62.7878 15.3386 62.6641 15.3898 62.5729 15.4811C62.4817 15.5723 62.4304 15.696 62.4304 15.825V20.689H61.4576V15.825C61.4576 15.696 61.4064 15.5723 61.3152 15.4811C61.224 15.3898 61.1002 15.3386 60.9712 15.3386H60.2611Z" fill="#FFF9F0"/>
</svg>
