<svg width="82" height="193" viewBox="0 0 82 193" fill="none" xmlns="http://www.w3.org/2000/svg">
<line x1="42.2501" y1="193" x2="42.2501" y2="88" stroke="#89886D" stroke-width="5.5" stroke-dasharray="10 10"/>
<circle cx="40.7343" cy="40.7343" r="40.7343" fill="#89886D"/>
<g clip-path="url(#clip0_403_9)">
<path d="M61 57H23C21.6744 56.9984 20.4036 56.4711 19.4662 55.5338C18.5289 54.5964 18.0016 53.3256 18 52V30C18.0016 28.6744 18.5289 27.4036 19.4662 26.4662C20.4036 25.5289 21.6744 25.0016 23 25H61C62.3256 25.0016 63.5964 25.5289 64.5338 26.4662C65.4711 27.4036 65.9984 28.6744 66 30V52C65.9984 53.3256 65.4711 54.5964 64.5338 55.5338C63.5964 56.4711 62.3256 56.9984 61 57ZM23 27C22.2044 27 21.4413 27.3161 20.8787 27.8787C20.3161 28.4413 20 29.2044 20 30V52C20 52.7956 20.3161 53.5587 20.8787 54.1213C21.4413 54.6839 22.2044 55 23 55H61C61.7957 55 62.5587 54.6839 63.1213 54.1213C63.6839 53.5587 64 52.7956 64 52V30C64 29.2044 63.6839 28.4413 63.1213 27.8787C62.5587 27.3161 61.7957 27 61 27H23Z" fill="#FFF9F0"/>
<path d="M33 40C32.0111 40 31.0444 39.7068 30.2222 39.1574C29.3999 38.6079 28.759 37.8271 28.3806 36.9134C28.0022 35.9998 27.9031 34.9945 28.0961 34.0246C28.289 33.0546 28.7652 32.1637 29.4645 31.4645C30.1637 30.7652 31.0546 30.289 32.0246 30.0961C32.9945 29.9031 33.9998 30.0022 34.9134 30.3806C35.8271 30.759 36.6079 31.3999 37.1574 32.2222C37.7068 33.0444 38 34.0111 38 35C37.9984 36.3256 37.4711 37.5964 36.5338 38.5338C35.5964 39.4711 34.3256 39.9984 33 40ZM33 32C32.4067 32 31.8266 32.176 31.3333 32.5056C30.8399 32.8352 30.4554 33.3038 30.2284 33.852C30.0013 34.4001 29.9419 35.0033 30.0576 35.5853C30.1734 36.1672 30.4591 36.7018 30.8787 37.1213C31.2982 37.5409 31.8328 37.8266 32.4147 37.9424C32.9967 38.0581 33.5999 37.9987 34.1481 37.7716C34.6962 37.5446 35.1648 37.1601 35.4944 36.6667C35.8241 36.1734 36 35.5933 36 35C36 34.2044 35.6839 33.4413 35.1213 32.8787C34.5587 32.3161 33.7957 32 33 32Z" fill="#FFF9F0"/>
<path d="M42 52C41.7348 52 41.4804 51.8946 41.2929 51.7071C41.1054 51.5196 41 51.2652 41 51C41 47.141 37.411 44 33 44C28.589 44 25 47.141 25 51C25 51.2652 24.8946 51.5196 24.7071 51.7071C24.5196 51.8946 24.2652 52 24 52C23.7348 52 23.4804 51.8946 23.2929 51.7071C23.1054 51.5196 23 51.2652 23 51C23 46.037 27.486 42 33 42C38.514 42 43 46.037 43 51C43 51.2652 42.8946 51.5196 42.7071 51.7071C42.5196 51.8946 42.2652 52 42 52Z" fill="#FFF9F0"/>
<path d="M60 36H48C47.7348 36 47.4804 35.8946 47.2929 35.7071C47.1054 35.5196 47 35.2652 47 35C47 34.7348 47.1054 34.4804 47.2929 34.2929C47.4804 34.1054 47.7348 34 48 34H60C60.2652 34 60.5196 34.1054 60.7071 34.2929C60.8946 34.4804 61 34.7348 61 35C61 35.2652 60.8946 35.5196 60.7071 35.7071C60.5196 35.8946 60.2652 36 60 36Z" fill="#FFF9F0"/>
<path d="M60 42H48C47.7348 42 47.4804 41.8946 47.2929 41.7071C47.1054 41.5196 47 41.2652 47 41C47 40.7348 47.1054 40.4804 47.2929 40.2929C47.4804 40.1054 47.7348 40 48 40H60C60.2652 40 60.5196 40.1054 60.7071 40.2929C60.8946 40.4804 61 40.7348 61 41C61 41.2652 60.8946 41.5196 60.7071 41.7071C60.5196 41.8946 60.2652 42 60 42Z" fill="#FFF9F0"/>
<path d="M60 48H48C47.7348 48 47.4804 47.8946 47.2929 47.7071C47.1054 47.5196 47 47.2652 47 47C47 46.7348 47.1054 46.4804 47.2929 46.2929C47.4804 46.1054 47.7348 46 48 46H60C60.2652 46 60.5196 46.1054 60.7071 46.2929C60.8946 46.4804 61 46.7348 61 47C61 47.2652 60.8946 47.5196 60.7071 47.7071C60.5196 47.8946 60.2652 48 60 48Z" fill="#FFF9F0"/>
</g>
<defs>
<clipPath id="clip0_403_9">
<rect width="48" height="48" fill="white" transform="translate(18 17)"/>
</clipPath>
</defs>
</svg>
