<svg width="82" height="193" viewBox="0 0 82 193" fill="none" xmlns="http://www.w3.org/2000/svg">
<circle cx="40.7343" cy="40.7343" r="40.7343" fill="#B7AC84"/>
<line x1="38.25" y1="193" x2="38.25" y2="88" stroke="#B7AC84" stroke-width="5.5" stroke-dasharray="10 10"/>
<path d="M63.9593 42.8514L59.8438 35.7234C59.7478 35.557 59.5978 35.4285 59.4188 35.3589L50.7296 31.9803C51 31.0674 51.146 30.1017 51.146 29.1023C51.146 23.5077 46.5945 18.9562 40.9999 18.9562C35.4053 18.9562 30.8538 23.5077 30.8538 29.1023C30.8538 30.1018 30.9998 31.0674 31.2702 31.9803L22.5809 35.3589C22.402 35.4285 22.252 35.557 22.156 35.7234L18.0405 42.8514C17.9174 43.0645 17.8936 43.3209 17.9753 43.5531C18.057 43.7854 18.236 43.9704 18.4654 44.0596L22.0428 45.4506V57.0606C22.0428 57.4086 22.2565 57.7209 22.5809 57.847L40.694 64.8899C40.7924 64.9282 40.8961 64.9473 40.9998 64.9473C41.1035 64.9473 41.2072 64.9282 41.3055 64.8899L59.4186 57.847C59.7431 57.7209 59.9567 57.4086 59.9567 57.0606V45.4506L63.5341 44.0596C63.7636 43.9704 63.9426 43.7854 64.0242 43.5531C64.1062 43.3209 64.0824 43.0646 63.9593 42.8514ZM41 20.6437C45.6641 20.6437 49.4586 24.4383 49.4586 29.1023C49.4586 33.7664 45.664 37.5609 41 37.5609C36.336 37.5609 32.5414 33.7664 32.5414 29.1023C32.5414 24.4383 36.3359 20.6437 41 20.6437ZM41 39.2484C45.0203 39.2484 48.5019 36.8981 50.143 33.4992L56.8018 36.1387L41 42.2829L25.1981 36.1387L31.8569 33.4992C33.498 36.8981 36.9796 39.2484 41 39.2484ZM19.9939 42.8432L23.2556 37.1939L39.7774 43.6181L36.5157 49.2675L19.9939 42.8432ZM23.7305 46.1068L36.5789 51.1026C36.9669 51.2533 37.4071 51.0987 37.6153 50.7381L40.1562 46.3371V62.8702L23.7305 56.4834V46.1068ZM58.2695 56.4834L41.8438 62.8702V46.3371L44.3847 50.7382C44.593 51.0988 45.0331 51.2535 45.4211 51.1027L58.2695 46.1069V56.4834ZM45.4843 49.2675L42.2225 43.6181L58.7444 37.1939L62.0061 42.8432L45.4843 49.2675ZM38.9006 34.5831C39.4847 34.5831 40.0344 34.3551 40.4484 33.9411L47.0259 27.3638C47.8805 26.5091 47.8805 25.1184 47.0257 24.2634C46.6118 23.8495 46.0612 23.6214 45.4758 23.6214C44.8903 23.6214 44.3398 23.8495 43.9257 24.2634L39.0841 29.1052L37.7919 27.4792C37.374 26.9535 36.7489 26.652 36.0769 26.652C35.5847 26.652 35.1011 26.8209 34.7151 27.1276C33.7701 27.8791 33.6125 29.2593 34.3637 30.2042L37.1167 33.6686C37.5283 34.2419 38.1929 34.5832 38.9006 34.5831ZM35.7651 28.4485C35.8785 28.3584 35.9972 28.3394 36.0768 28.3394C36.2313 28.3394 36.3749 28.4086 36.4706 28.529L38.3512 30.8955C38.5008 31.0838 38.7236 31.1993 38.9637 31.213C39.2032 31.2264 39.4383 31.1373 39.6083 30.9672L45.1188 25.4567C45.214 25.3614 45.3408 25.3089 45.4757 25.3089C45.6106 25.3089 45.7371 25.3615 45.8324 25.4566C46.0292 25.6535 46.0293 25.9738 45.8325 26.1706L39.2551 32.748C39.133 32.87 38.9948 32.8956 38.9004 32.8956C38.7316 32.8956 38.5796 32.8165 38.4833 32.6787C38.4733 32.6643 38.4629 32.6504 38.4521 32.6368L35.6847 29.1542C35.5124 28.9375 35.5485 28.6209 35.7651 28.4485ZM40.1562 15.8483V11.8965C40.1562 11.4305 40.5339 11.0527 41 11.0527C41.466 11.0527 41.8438 11.4305 41.8438 11.8965V15.8483C41.8438 16.3143 41.466 16.692 41 16.692C40.5339 16.692 40.1562 16.3143 40.1562 15.8483ZM31.6366 14.5124C31.4036 14.1089 31.542 13.5928 31.9455 13.3599C32.3489 13.127 32.8651 13.2652 33.0981 13.6687L35.0739 17.091C35.3069 17.4946 35.1686 18.0106 34.7651 18.2436C34.6322 18.3203 34.4871 18.3568 34.344 18.3568C34.0524 18.3568 33.7689 18.2054 33.6124 17.9348L31.6366 14.5124ZM25.2575 19.8852C25.4905 19.4816 26.0066 19.3433 26.4101 19.5764L29.8324 21.5523C30.236 21.7852 30.3742 22.3013 30.1413 22.7048C29.9851 22.9754 29.7013 23.1268 29.4097 23.1268C29.2666 23.1268 29.1216 23.0903 28.9887 23.0136L25.5663 21.0378C25.1628 20.8048 25.0245 20.2887 25.2575 19.8852ZM22.7284 28.8802C22.7284 28.4143 23.1061 28.0365 23.5721 28.0365H27.5238C27.9899 28.0365 28.3676 28.4143 28.3676 28.8802C28.3676 29.3462 27.9899 29.724 27.5238 29.724H23.5721C23.1061 29.724 22.7284 29.3463 22.7284 28.8802ZM46.8666 17.313L48.8424 13.8907C49.0754 13.4871 49.5915 13.3487 49.995 13.5819C50.3985 13.8149 50.5369 14.3309 50.3039 14.7344L48.328 18.1568C48.1717 18.4274 47.8881 18.5788 47.5964 18.5788C47.4533 18.5788 47.3082 18.5423 47.1753 18.4656C46.7719 18.2327 46.6336 17.7167 46.8666 17.313ZM51.6367 23.0895C51.4038 22.6859 51.542 22.1699 51.9455 21.9369L55.3679 19.961C55.7714 19.7282 56.2875 19.8664 56.5205 20.2699C56.7534 20.6734 56.6152 21.1894 56.2117 21.4224L52.7893 23.3983C52.6564 23.4749 52.5114 23.5114 52.3683 23.5114C52.0765 23.5114 51.7929 23.3601 51.6367 23.0895ZM54.032 28.4806H57.9837C58.4498 28.4806 58.8275 28.8584 58.8275 29.3244C58.8275 29.7903 58.4498 30.1681 57.9837 30.1681H54.032C53.566 30.1681 53.1883 29.7903 53.1883 29.3244C53.1883 28.8584 53.5661 28.4806 54.032 28.4806Z" fill="#FFF9F0"/>
</svg>
