<svg width="82" height="193" viewBox="0 0 82 193" fill="none" xmlns="http://www.w3.org/2000/svg">
<line x1="42.25" y1="193" x2="42.25" y2="84" stroke="#E3DDD6" stroke-width="5.5" stroke-dasharray="10 10"/>
<circle cx="40.7343" cy="40.7343" r="40.7343" fill="#E3DDD6"/>
<g clip-path="url(#clip0_401_2)">
<path d="M58.7356 37.5467C59.4961 36.8054 59.7646 35.7174 59.4364 34.7073C59.1082 33.6973 58.2515 32.975 57.2005 32.8223L48.0105 31.4869C47.8302 31.4608 47.6742 31.3475 47.5935 31.1839L43.4837 22.8565C43.0137 21.9041 42.062 21.3125 40.9999 21.3125C39.9379 21.3125 38.9861 21.9041 38.5162 22.8565L34.4063 31.184C34.3255 31.3475 34.1697 31.4608 33.9892 31.487L24.7994 32.8223C23.7484 32.975 22.8918 33.6973 22.5635 34.7073C22.2352 35.7174 22.5038 36.8054 23.2643 37.5467L29.9142 44.0287C30.0447 44.156 30.1044 44.3394 30.0735 44.5191L28.5037 53.6718C28.3242 54.7186 28.7463 55.7565 29.6055 56.3808C30.4647 57.0052 31.5826 57.0859 32.5226 56.5918L40.7422 52.2705C40.9036 52.1856 41.0963 52.1856 41.2578 52.2705L49.4775 56.5918C49.8864 56.8067 50.3288 56.9129 50.769 56.9129C51.3408 56.9129 51.9089 56.7337 52.3943 56.3807C53.2535 55.7564 53.6757 54.7184 53.4961 53.6717L51.9263 44.519C51.8955 44.3393 51.9551 44.1559 52.0856 44.0286L58.7356 37.5467ZM49.7426 44.8937L51.3124 54.0466C51.3649 54.3529 51.1758 54.5276 51.0921 54.5883C51.0082 54.649 50.7836 54.7751 50.5086 54.6304L42.2889 50.3091C41.8854 50.097 41.4428 49.9909 41.0001 49.9909C40.5574 49.9909 40.1146 50.097 39.7112 50.309L31.4916 54.6303C31.2165 54.7749 30.9919 54.649 30.9082 54.5882C30.8244 54.5274 30.6353 54.3527 30.6878 54.0464L32.2577 44.8937C32.4118 43.9951 32.1141 43.0786 31.4611 42.4421L24.8112 35.9601C24.5887 35.7431 24.639 35.4906 24.6711 35.3922C24.703 35.2937 24.8107 35.0598 25.1183 35.0152L34.308 33.6798C35.2102 33.5487 35.9899 32.9824 36.3935 32.1646L40.5034 23.8371C40.6409 23.5585 40.8966 23.5284 41.0002 23.5284C41.1036 23.5284 41.3592 23.5584 41.4969 23.8371V23.8372L45.6067 32.1647C46.0102 32.9825 46.7898 33.5488 47.6921 33.6799L56.882 35.0153C57.1895 35.0599 57.2971 35.2938 57.3291 35.3923C57.3611 35.4908 57.4116 35.7433 57.1889 35.9602L50.5391 42.4422C49.8861 43.0786 49.5884 43.9951 49.7426 44.8937Z" fill="#89886D"/>
<path d="M53.9431 22.856C53.4479 22.4963 52.7552 22.6061 52.3956 23.1011L51.2195 24.7197C50.8599 25.2147 50.9695 25.9076 51.4646 26.2672C51.6614 26.41 51.8892 26.4789 52.1149 26.4789C52.4576 26.4789 52.7954 26.3205 53.0121 26.0222L54.1882 24.4036C54.5478 23.9085 54.4381 23.2156 53.9431 22.856Z" fill="#89886D"/>
<path d="M30.7761 24.7132L29.6 23.0945C29.2404 22.5997 28.5476 22.4899 28.0525 22.8494C27.5575 23.209 27.4477 23.9019 27.8073 24.3969L28.9834 26.0156C29.2002 26.3141 29.538 26.4724 29.8808 26.4724C30.1066 26.4724 30.3345 26.4036 30.531 26.2607C31.026 25.9011 31.1358 25.2082 30.7761 24.7132Z" fill="#89886D"/>
<path d="M24.0648 46.1696C23.8757 45.5877 23.2507 45.2692 22.6687 45.4583L20.7658 46.0766C20.1838 46.2657 19.8655 46.8909 20.0545 47.4727C20.2066 47.941 20.641 48.2386 21.108 48.2386C21.2214 48.2386 21.3368 48.221 21.4506 48.184L23.3535 47.5656C23.9354 47.3766 24.2539 46.7516 24.0648 46.1696Z" fill="#89886D"/>
<path d="M41.0004 58.4707C40.3885 58.4707 39.8925 58.9668 39.8925 59.5786V61.5796C39.8925 62.1914 40.3885 62.6875 41.0004 62.6875C41.6122 62.6875 42.1083 62.1914 42.1083 61.5796V59.5786C42.1083 58.9667 41.6123 58.4707 41.0004 58.4707Z" fill="#89886D"/>
<path d="M61.2341 46.0782L59.3312 45.4598C58.7495 45.2709 58.1242 45.5892 57.9351 46.1712C57.7461 46.7532 58.0644 47.3782 58.6464 47.5673L60.5493 48.1856C60.6631 48.2226 60.7784 48.2401 60.8919 48.2401C61.359 48.2401 61.7933 47.9424 61.9454 47.4742C62.1345 46.8923 61.816 46.2673 61.2341 46.0782Z" fill="#89886D"/>
</g>
<defs>
<clipPath id="clip0_401_2">
<rect width="42" height="42" fill="white" transform="translate(20 21)"/>
</clipPath>
</defs>
</svg>
