<svg width="93" height="52" viewBox="0 0 93 52" fill="none" xmlns="http://www.w3.org/2000/svg">
<line y1="24.253" x2="36" y2="24.253" stroke="#B7AC84" stroke-width="3.49415" stroke-dasharray="6.35 6.35"/>
<circle cx="66.8785" cy="26.0821" r="25.8785" transform="rotate(90 66.8785 26.0821)" fill="#B7AC84"/>
<g clip-path="url(#clip0_404_22)">
<path d="M81.7442 29.017L79.1297 24.4886C79.0687 24.3829 78.9734 24.3012 78.8597 24.257L73.3394 22.1106C73.5112 21.5307 73.604 20.9171 73.604 20.2823C73.604 16.728 70.7124 13.8364 67.1581 13.8364C63.6039 13.8364 60.7123 16.728 60.7123 20.2823C60.7123 20.9172 60.8051 21.5307 60.9769 22.1106L55.4566 24.257C55.3429 24.3012 55.2476 24.3829 55.1866 24.4886L52.572 29.017C52.4938 29.1524 52.4787 29.3153 52.5306 29.4629C52.5825 29.6104 52.6963 29.7279 52.842 29.7846L55.1147 30.6683V38.0442C55.1147 38.2652 55.2505 38.4636 55.4566 38.5437L66.9638 43.0181C67.0263 43.0424 67.0922 43.0545 67.1581 43.0545C67.2239 43.0545 67.2899 43.0424 67.3523 43.0181L78.8596 38.5437C79.0657 38.4636 79.2014 38.2652 79.2014 38.0442V30.6683L81.4742 29.7846C81.62 29.7279 81.7337 29.6104 81.7855 29.4629C81.8376 29.3153 81.8224 29.1525 81.7442 29.017ZM67.1582 14.9085C70.1213 14.9085 72.532 17.3192 72.532 20.2823C72.532 23.2453 70.1213 25.656 67.1582 25.656C64.1951 25.656 61.7845 23.2453 61.7845 20.2823C61.7845 17.3192 64.1951 14.9085 67.1582 14.9085ZM67.1582 26.7281C69.7123 26.7281 71.9242 25.2349 72.9667 23.0756L77.1971 24.7524L67.1582 28.6558L57.1193 24.7524L61.3496 23.0756C62.3922 25.2349 64.6041 26.7281 67.1582 26.7281ZM53.813 29.0118L55.8852 25.4228L66.3815 29.5041L64.3093 33.0932L53.813 29.0118ZM56.1869 31.0852L64.3495 34.259C64.596 34.3548 64.8756 34.2565 65.0079 34.0275L66.6222 31.2315V41.735L56.1869 37.6774V31.0852ZM78.1295 37.6774L67.6942 41.735V31.2315L69.3085 34.0275C69.4408 34.2566 69.7205 34.3549 69.967 34.2591L78.1295 31.0852V37.6774ZM70.0071 33.0932L67.9349 29.5041L78.4312 25.4228L80.5034 29.0118L70.0071 33.0932ZM65.8245 23.7642C66.1956 23.7642 66.5448 23.6193 66.8078 23.3563L70.9864 19.1778C71.5294 18.6348 71.5294 17.7512 70.9864 17.2081C70.7234 16.9451 70.3736 16.8002 70.0017 16.8002C69.6297 16.8002 69.28 16.9451 69.0169 17.2081L65.941 20.2841L65.1201 19.2511C64.8546 18.9171 64.4575 18.7255 64.0306 18.7255C63.7179 18.7255 63.4107 18.8329 63.1654 19.0277C62.5651 19.5051 62.465 20.382 62.9422 20.9822L64.6912 23.1832C64.9526 23.5474 65.3749 23.7643 65.8245 23.7642ZM63.8325 19.8669C63.9045 19.8096 63.9799 19.7975 64.0305 19.7975C64.1287 19.7975 64.2199 19.8415 64.2807 19.918L65.4754 21.4215C65.5705 21.5411 65.712 21.6144 65.8646 21.6231C66.0167 21.6317 66.1661 21.575 66.2741 21.467L69.7749 17.9662C69.8354 17.9056 69.9159 17.8723 70.0016 17.8723C70.0873 17.8723 70.1677 17.9057 70.2282 17.9661C70.3532 18.0912 70.3533 18.2947 70.2283 18.4197L66.0497 22.5983C65.9721 22.6758 65.8843 22.6921 65.8244 22.6921C65.7171 22.6921 65.6205 22.6419 65.5594 22.5543C65.553 22.5452 65.5464 22.5363 65.5395 22.5277L63.7814 20.3152C63.6719 20.1775 63.6949 19.9764 63.8325 19.8669ZM66.6222 11.862V9.35137C66.6222 9.05535 66.8621 8.81534 67.1582 8.81534C67.4542 8.81534 67.6942 9.05535 67.6942 9.35137V11.862C67.6942 12.158 67.4542 12.398 67.1582 12.398C66.8621 12.398 66.6222 12.158 66.6222 11.862ZM61.2096 11.0133C61.0616 10.7569 61.1495 10.4291 61.4059 10.2811C61.6622 10.1331 61.9901 10.2209 62.1381 10.4772L63.3934 12.6515C63.5414 12.9078 63.4535 13.2357 63.1972 13.3837C63.1128 13.4324 63.0206 13.4556 62.9296 13.4556C62.7444 13.4556 62.5643 13.3594 62.4649 13.1875L61.2096 11.0133ZM57.157 14.4266C57.305 14.1702 57.6329 14.0823 57.8892 14.2304L60.0635 15.4857C60.3198 15.6337 60.4077 15.9615 60.2596 16.2179C60.1604 16.3898 59.9802 16.486 59.7949 16.486C59.704 16.486 59.6119 16.4628 59.5274 16.4141L57.3532 15.1588C57.0968 15.0108 57.009 14.683 57.157 14.4266ZM55.5503 20.1411C55.5503 19.8451 55.7902 19.6051 56.0863 19.6051H58.5968C58.8929 19.6051 59.1328 19.8451 59.1328 20.1411C59.1328 20.4372 58.8929 20.6772 58.5968 20.6772H56.0863C55.7902 20.6772 55.5503 20.4372 55.5503 20.1411ZM70.8853 12.7925L72.1405 10.6183C72.2885 10.3619 72.6164 10.274 72.8727 10.4221C73.1291 10.5701 73.217 10.898 73.069 11.1543L71.8137 13.3285C71.7144 13.5005 71.5342 13.5966 71.3489 13.5966C71.258 13.5966 71.1658 13.5734 71.0814 13.5247C70.8251 13.3768 70.7372 13.0489 70.8853 12.7925ZM73.9157 16.4623C73.7677 16.2059 73.8556 15.8781 74.1119 15.73L76.2861 14.4748C76.5425 14.3268 76.8704 14.4147 77.0184 14.671C77.1664 14.9273 77.0785 15.2552 76.8222 15.4032L74.648 16.6585C74.5635 16.7072 74.4714 16.7304 74.3805 16.7304C74.1951 16.7304 74.015 16.6342 73.9157 16.4623ZM75.4375 19.8873H77.948C78.2441 19.8873 78.484 20.1273 78.484 20.4233C78.484 20.7193 78.2441 20.9593 77.948 20.9593H75.4375C75.1414 20.9593 74.9014 20.7193 74.9014 20.4233C74.9014 20.1273 75.1414 19.8873 75.4375 19.8873Z" fill="#FFF9F0"/>
</g>
<defs>
<clipPath id="clip0_404_22">
<rect width="34.3062" height="34.3062" fill="white" transform="translate(50.0051 8.78168)"/>
</clipPath>
</defs>
</svg>
