<svg width="82" height="194" viewBox="0 0 82 194" fill="none" xmlns="http://www.w3.org/2000/svg">
<line x1="42.25" y1="194" x2="42.25" y2="89" stroke="#122B18" stroke-width="5.5" stroke-dasharray="10 10"/>
<circle cx="40.7343" cy="40.7343" r="40.7343" fill="#122B18"/>
<g clip-path="url(#clip0_403_12)">
<path d="M36.5234 49.1562H30.3984C29.6877 49.1563 29.0062 49.4386 28.5036 49.9411C28.0011 50.4437 27.7188 51.1252 27.7188 51.8359C27.7188 52.5466 28.0011 53.2282 28.5036 53.7308C29.0062 54.2333 29.6877 54.5156 30.3984 54.5156H36.5234C37.2341 54.5156 37.9157 54.2333 38.4183 53.7308C38.9208 53.2282 39.2031 52.5466 39.2031 51.8359C39.2031 51.1252 38.9208 50.4437 38.4183 49.9411C37.9157 49.4386 37.2341 49.1562 36.5234 49.1562ZM36.5234 52.9844H30.3984C30.0939 52.9844 29.8017 52.8634 29.5864 52.648C29.371 52.4326 29.25 52.1405 29.25 51.8359C29.25 51.5314 29.371 51.2392 29.5864 51.0239C29.8017 50.8085 30.0939 50.6875 30.3984 50.6875H36.5234C36.828 50.6875 37.1201 50.8085 37.3355 51.0239C37.5509 51.2392 37.6719 51.5314 37.6719 51.8359C37.6719 52.1405 37.5509 52.4326 37.3355 52.648C37.1201 52.8634 36.828 52.9844 36.5234 52.9844Z" fill="#FFF9F0"/>
<path d="M33.8438 61.4062H28.4844C28.2813 61.4062 28.0866 61.4869 27.943 61.6305C27.7994 61.7741 27.7188 61.9688 27.7188 62.1719C27.7188 62.3749 27.7994 62.5697 27.943 62.7133C28.0866 62.8568 28.2813 62.9375 28.4844 62.9375H33.8438C34.0468 62.9375 34.2415 62.8568 34.3851 62.7133C34.5287 62.5697 34.6094 62.3749 34.6094 62.1719C34.6094 61.9688 34.5287 61.7741 34.3851 61.6305C34.2415 61.4869 34.0468 61.4062 33.8438 61.4062Z" fill="#FFF9F0"/>
<path d="M28.4844 59.875H30.7812C30.9843 59.875 31.179 59.7943 31.3226 59.6508C31.4662 59.5072 31.5469 59.3124 31.5469 59.1094C31.5469 58.9063 31.4662 58.7116 31.3226 58.568C31.179 58.4244 30.9843 58.3438 30.7812 58.3438H28.4844C28.2813 58.3438 28.0866 58.4244 27.943 58.568C27.7994 58.7116 27.7188 58.9063 27.7188 59.1094C27.7188 59.3124 27.7994 59.5072 27.943 59.6508C28.0866 59.7943 28.2813 59.875 28.4844 59.875Z" fill="#FFF9F0"/>
<path d="M59.1094 39.9688H44.3275C44.0158 39.9699 43.7118 40.0657 43.4557 40.2434C43.1996 40.4211 43.0035 40.6724 42.8934 40.9641L41.5 44.6781L40.1066 40.9641C39.9965 40.6724 39.8004 40.4211 39.5443 40.2434C39.2883 40.0657 38.9843 39.9699 38.6726 39.9688H23.8906C23.6432 39.9687 23.3994 40.0287 23.1802 40.1435C22.961 40.2583 22.7729 40.4245 22.6319 40.628C22.4881 40.8379 22.3984 41.0801 22.3706 41.333C22.3428 41.586 22.3779 41.8419 22.4727 42.078L24.6563 47.0217V63.7031C24.6563 64.3123 24.8982 64.8965 25.329 65.3273C25.7597 65.758 26.344 66 26.9531 66H56.0469C56.6561 66 57.2403 65.758 57.671 65.3273C58.1018 64.8965 58.3438 64.3123 58.3438 63.7031V47.0217L60.5426 42.0375C60.6295 41.8059 60.6589 41.5566 60.6284 41.3112C60.5979 41.0657 60.5084 40.8313 60.3675 40.628C60.2266 40.4246 60.0386 40.2585 59.8195 40.1437C59.6004 40.0289 59.3567 39.9688 59.1094 39.9688ZM38.6726 41.5L40.3952 46.0938H25.9203L23.8906 41.5H38.6726ZM26.1875 63.7031V47.625H40.7344V64.4688H26.9531C26.7501 64.4688 26.5553 64.3881 26.4118 64.2445C26.2682 64.1009 26.1875 63.9062 26.1875 63.7031ZM56.8125 63.7031C56.8125 63.9062 56.7318 64.1009 56.5883 64.2445C56.4447 64.3881 56.2499 64.4688 56.0469 64.4688H42.2656V47.625H56.8125V63.7031ZM57.0797 46.0938H42.6048L44.3275 41.5L59.1255 41.4594L57.0797 46.0938Z" fill="#FFF9F0"/>
<path d="M44.5625 62.9375H54.5156C54.7187 62.9375 54.9134 62.8568 55.057 62.7133C55.2006 62.5697 55.2812 62.3749 55.2812 62.1719V49.9219C55.2812 49.7188 55.2006 49.5241 55.057 49.3805C54.9134 49.2369 54.7187 49.1562 54.5156 49.1562H44.5625C44.3594 49.1562 44.1647 49.2369 44.0211 49.3805C43.8775 49.5241 43.7969 49.7188 43.7969 49.9219V62.1719C43.7969 62.3749 43.8775 62.5697 44.0211 62.7133C44.1647 62.8568 44.3594 62.9375 44.5625 62.9375ZM45.3281 50.6875H53.75V61.4062H45.3281V50.6875Z" fill="#FFF9F0"/>
<path d="M51.4531 52.2188H47.625C47.4219 52.2188 47.2272 52.2994 47.0836 52.443C46.94 52.5866 46.8594 52.7813 46.8594 52.9844C46.8594 53.1874 46.94 53.3822 47.0836 53.5258C47.2272 53.6693 47.4219 53.75 47.625 53.75H51.4531C51.6562 53.75 51.8509 53.6693 51.9945 53.5258C52.1381 53.3822 52.2188 53.1874 52.2188 52.9844C52.2188 52.7813 52.1381 52.5866 51.9945 52.443C51.8509 52.2994 51.6562 52.2188 51.4531 52.2188Z" fill="#FFF9F0"/>
<path d="M51.4531 55.2812H47.625C47.4219 55.2812 47.2272 55.3619 47.0836 55.5055C46.94 55.6491 46.8594 55.8438 46.8594 56.0469C46.8594 56.2499 46.94 56.4447 47.0836 56.5883C47.2272 56.7318 47.4219 56.8125 47.625 56.8125H51.4531C51.6562 56.8125 51.8509 56.7318 51.9945 56.5883C52.1381 56.4447 52.2188 56.2499 52.2188 56.0469C52.2188 55.8438 52.1381 55.6491 51.9945 55.5055C51.8509 55.3619 51.6562 55.2812 51.4531 55.2812Z" fill="#FFF9F0"/>
<path d="M51.4531 58.3438H47.625C47.4219 58.3438 47.2272 58.4244 47.0836 58.568C46.94 58.7116 46.8594 58.9063 46.8594 59.1094C46.8594 59.3124 46.94 59.5072 47.0836 59.6508C47.2272 59.7943 47.4219 59.875 47.625 59.875H51.4531C51.6562 59.875 51.8509 59.7943 51.9945 59.6508C52.1381 59.5072 52.2188 59.3124 52.2188 59.1094C52.2188 58.9063 52.1381 58.7116 51.9945 58.568C51.8509 58.4244 51.6562 58.3438 51.4531 58.3438Z" fill="#FFF9F0"/>
<path d="M39.9688 38.4375H43.0313C43.2343 38.4375 43.4291 38.3568 43.5726 38.2132C43.7162 38.0697 43.7969 37.8749 43.7969 37.6719V24.6562H44.1491C44.501 24.657 44.8465 24.562 45.1487 24.3815C45.4508 24.201 45.6981 23.9417 45.8642 23.6314C46.0303 23.3212 46.109 22.9716 46.0917 22.62C46.0744 22.2685 45.9618 21.9283 45.7661 21.6358L43.3276 17.9823C43.1282 17.6808 42.8573 17.4333 42.539 17.2619C42.2208 17.0905 41.8651 17.0004 41.5036 16.9998C41.1421 16.9992 40.7861 17.088 40.4673 17.2584C40.1484 17.4287 39.8767 17.6753 39.6763 17.9762L37.2301 21.642C37.0358 21.9347 36.9246 22.2746 36.9084 22.6255C36.8921 22.9764 36.9714 23.3252 37.1377 23.6346C37.3041 23.944 37.5513 24.2024 37.8531 24.3823C38.1548 24.5623 38.4997 24.6569 38.851 24.6562H39.2031V37.6719C39.2031 37.8749 39.2838 38.0697 39.4274 38.2132C39.571 38.3568 39.7657 38.4375 39.9688 38.4375ZM38.851 23.125C38.7413 23.125 38.6361 23.0814 38.5586 23.0039C38.4811 22.9264 38.4375 22.8212 38.4375 22.7116C38.4381 22.631 38.4626 22.5524 38.508 22.4857L40.958 18.8199C41.0227 18.736 41.106 18.6681 41.2013 18.6216C41.2966 18.5751 41.4013 18.5513 41.5073 18.5519C41.6133 18.5525 41.7177 18.5775 41.8125 18.625C41.9072 18.6726 41.9897 18.7414 42.0536 18.826L44.486 22.4796C44.529 22.5411 44.5543 22.6133 44.5591 22.6882C44.5639 22.7631 44.5481 22.8379 44.5134 22.9045C44.4786 22.9711 44.4263 23.0268 44.3621 23.0657C44.2978 23.1046 44.2242 23.1251 44.1491 23.125H43.0313C42.8282 23.125 42.6335 23.2057 42.4899 23.3492C42.3463 23.4928 42.2656 23.6876 42.2656 23.8906V36.9062H40.7344V23.8906C40.7344 23.6876 40.6537 23.4928 40.5101 23.3492C40.3666 23.2057 40.1718 23.125 39.9688 23.125H38.851Z" fill="#FFF9F0"/>
<path d="M48.3906 38.4375H51.4531C51.6562 38.4375 51.8509 38.3568 51.9945 38.2132C52.1381 38.0697 52.2188 37.8749 52.2188 37.6719V30.0156H52.571C52.9229 30.0164 53.2684 29.9214 53.5705 29.7409C53.8727 29.5603 54.12 29.3011 54.2861 28.9908C54.4522 28.6805 54.5308 28.3309 54.5135 27.9794C54.4963 27.6279 54.3837 27.2877 54.188 26.9952L51.7494 23.3417C51.55 23.0402 51.2791 22.7927 50.9609 22.6212C50.6426 22.4498 50.2869 22.3598 49.9255 22.3592C49.564 22.3586 49.208 22.4474 48.8891 22.6178C48.5703 22.7881 48.2986 23.0347 48.0982 23.3355L45.652 27.0013C45.4577 27.294 45.3465 27.6339 45.3302 27.9849C45.314 28.3358 45.3932 28.6845 45.5596 28.9939C45.726 29.3033 45.9732 29.5618 46.2749 29.7417C46.5766 29.9216 46.9215 30.0163 47.2728 30.0156H47.625V37.6719C47.625 37.8749 47.7057 38.0697 47.8493 38.2132C47.9928 38.3568 48.1876 38.4375 48.3906 38.4375ZM47.2728 28.4844C47.1632 28.4844 47.058 28.4408 46.9805 28.3633C46.903 28.2857 46.8594 28.1806 46.8594 28.0709C46.8592 27.989 46.8838 27.909 46.9298 27.8412L49.3798 24.1754C49.4446 24.0915 49.5279 24.0237 49.6231 23.9772C49.7184 23.9307 49.8231 23.9068 49.9292 23.9074C50.0352 23.908 50.1396 23.933 50.2344 23.9806C50.3291 24.0281 50.4116 24.0969 50.4754 24.1816L52.9078 27.8389C52.9508 27.9005 52.9761 27.9726 52.981 28.0476C52.9858 28.1225 52.97 28.1973 52.9352 28.2639C52.9005 28.3304 52.8482 28.3862 52.7839 28.4251C52.7197 28.4639 52.646 28.4845 52.571 28.4844H51.4531C51.2501 28.4844 51.0553 28.565 50.9118 28.7086C50.7682 28.8522 50.6875 29.0469 50.6875 29.25V36.9062H49.1563V29.25C49.1563 29.0469 49.0756 28.8522 48.932 28.7086C48.7884 28.565 48.5937 28.4844 48.3906 28.4844H47.2728Z" fill="#FFF9F0"/>
<path d="M31.5469 38.4375H34.6094C34.8125 38.4375 35.0072 38.3568 35.1508 38.2132C35.2944 38.0697 35.375 37.8749 35.375 37.6719V30.0156H35.7272C36.0791 30.0164 36.4247 29.9214 36.7268 29.7409C37.0289 29.5603 37.2762 29.3011 37.4424 28.9908C37.6085 28.6805 37.6871 28.3309 37.6698 27.9794C37.6525 27.6279 37.54 27.2877 37.3442 26.9952L34.9057 23.3417C34.7063 23.0402 34.4354 22.7927 34.1171 22.6212C33.7989 22.4498 33.4432 22.3598 33.0817 22.3592C32.7202 22.3586 32.3642 22.4474 32.0454 22.6178C31.7266 22.7881 31.4548 23.0347 31.2544 23.3355L28.8083 27.0013C28.614 27.294 28.5028 27.6339 28.4865 27.9849C28.4702 28.3358 28.5495 28.6845 28.7159 28.9939C28.8822 29.3033 29.1295 29.5618 29.4312 29.7417C29.7329 29.9216 30.0778 30.0163 30.4291 30.0156H30.7813V37.6719C30.7813 37.8749 30.8619 38.0697 31.0055 38.2132C31.1491 38.3568 31.3438 38.4375 31.5469 38.4375ZM30.4291 28.4844C30.3194 28.4844 30.2143 28.4408 30.1367 28.3633C30.0592 28.2857 30.0156 28.1806 30.0156 28.0709C30.0155 27.989 30.04 27.909 30.0861 27.8412L32.5361 24.1754C32.6009 24.0915 32.6841 24.0237 32.7794 23.9772C32.8747 23.9307 32.9794 23.9068 33.0854 23.9074C33.1914 23.908 33.2959 23.933 33.3906 23.9806C33.4854 24.0281 33.5679 24.0969 33.6317 24.1816L36.0641 27.8389C36.1071 27.9005 36.1324 27.9726 36.1372 28.0476C36.142 28.1225 36.1262 28.1973 36.0915 28.2639C36.0567 28.3304 36.0044 28.3862 35.9402 28.4251C35.876 28.4639 35.8023 28.4845 35.7272 28.4844H34.6094C34.4063 28.4844 34.2116 28.565 34.068 28.7086C33.9244 28.8522 33.8438 29.0469 33.8438 29.25V36.9062H32.3125V29.25C32.3125 29.0469 32.2319 28.8522 32.0883 28.7086C31.9447 28.565 31.75 28.4844 31.5469 28.4844H30.4291Z" fill="#FFF9F0"/>
</g>
<defs>
<clipPath id="clip0_403_12">
<rect width="49" height="49" fill="white" transform="translate(17 17)"/>
</clipPath>
</defs>
</svg>
