<svg width="82" height="193" viewBox="0 0 82 193" fill="none" xmlns="http://www.w3.org/2000/svg">
<line x1="42.25" y1="193" x2="42.25" y2="88" stroke="#BEC9C0" stroke-width="5.5" stroke-dasharray="10 10"/>
<circle cx="40.7343" cy="40.7343" r="40.7343" fill="#BEC9C0"/>
<g clip-path="url(#clip0_403_2)">
<path d="M51.8868 21.4826C48.973 18.5892 45.1152 17.0001 41.0116 17.0001C40.9744 17.0001 40.9365 17.0002 40.8993 17.0005C36.893 17.0287 33.0998 18.5983 30.2183 21.4203C27.3362 24.2428 25.689 28.0026 25.5801 32.0067C25.4666 36.1795 26.995 40.1315 29.8838 43.135C32.1586 45.5001 33.4114 48.6459 33.4114 51.993V58.432C33.4114 59.7549 34.3299 60.8667 35.5623 61.1649V62.0234C35.5623 63.6647 36.8976 65 38.5389 65H43.4608C45.1021 65 46.4373 63.6647 46.4373 62.0234V61.1698C47.6806 60.8793 48.6096 59.7625 48.6096 58.432V51.9932C48.6096 48.6898 49.8968 45.5077 52.2343 43.0331C54.9508 40.1571 56.4468 36.3938 56.4468 32.4363C56.4468 28.2926 54.8274 24.4024 51.8868 21.4826ZM44.5624 62.0235C44.5624 62.6309 44.0683 63.1251 43.4609 63.1251H38.539C37.9316 63.1251 37.4374 62.6309 37.4374 62.0235V61.2442H44.5624V62.0235ZM46.7347 58.432C46.7347 58.9487 46.3143 59.3692 45.7975 59.3692H45.4999H36.4999H36.2237C35.7069 59.3692 35.2865 58.9487 35.2865 58.432V53.0999H46.7347V58.432ZM39.5379 51.2249V39.3668H42.4586V51.2248H39.5379V51.2249ZM50.8713 41.7455C48.3849 44.378 46.9396 47.7187 46.755 51.2248H44.3336V39.3668H45.1762C46.6747 39.3668 47.8939 38.1477 47.8939 36.6491V36.5037C47.8939 35.0052 46.6747 33.786 45.1762 33.786C43.6777 33.786 42.4586 35.0052 42.4586 36.5037V37.4918H39.5379V36.5037C39.5379 35.0052 38.3188 33.786 36.8203 33.786H36.6356C35.1371 33.786 33.918 35.0052 33.918 36.5037V36.6491C33.918 38.1476 35.1371 39.3668 36.6356 39.3668H37.6629V51.2248H35.2672C35.0882 47.6789 33.6725 44.3691 31.2352 41.8351C28.6974 39.1966 27.3546 35.7242 27.4545 32.0577C27.6508 24.8399 33.688 18.9264 40.9126 18.8754C44.5589 18.8498 47.9826 20.2482 50.5658 22.8131C53.1493 25.3782 54.5719 28.7959 54.5719 32.4363C54.5719 35.9131 53.2576 39.2191 50.8713 41.7455ZM44.3336 37.4918V36.5037C44.3336 36.039 44.7116 35.661 45.1762 35.661C45.6409 35.661 46.0189 36.0391 46.0189 36.5037V36.6491C46.0189 37.1138 45.6409 37.4918 45.1762 37.4918H44.3336ZM37.6628 36.5037V37.4918H36.6355C36.1709 37.4918 35.7929 37.1138 35.7929 36.6491V36.5037C35.7929 36.039 36.1709 35.661 36.6355 35.661H36.8202C37.2848 35.661 37.6628 36.0392 37.6628 36.5037Z" fill="#89886D"/>
<path d="M51.0603 28.378C50.255 26.3787 48.8853 24.6772 47.0995 23.4575C45.2689 22.2073 43.1232 21.5548 40.8997 21.5705C40.3819 21.5742 39.9651 21.9969 39.9688 22.5147C39.9724 23.0302 40.3915 23.4455 40.9061 23.4455C40.9083 23.4455 40.9107 23.4455 40.9128 23.4455C40.9349 23.4454 40.9563 23.4453 40.9783 23.4453C44.6701 23.4453 47.9403 25.6508 49.3213 29.0786C49.4685 29.444 49.8199 29.666 50.1911 29.666C50.3077 29.666 50.4264 29.6442 50.5412 29.5978C51.0213 29.4043 51.2539 28.8582 51.0603 28.378Z" fill="#89886D"/>
<path d="M51.5691 31.7732C51.3947 31.5988 51.1528 31.4985 50.9062 31.4985C50.6597 31.4985 50.4178 31.5988 50.2434 31.7732C50.0681 31.9476 49.9688 32.1895 49.9688 32.436C49.9688 32.6835 50.0681 32.9245 50.2434 33.0988C50.4178 33.2742 50.6587 33.3735 50.9062 33.3735C51.1528 33.3735 51.3947 33.2742 51.5691 33.0988C51.7433 32.9245 51.8438 32.6835 51.8438 32.436C51.8438 32.1895 51.7434 31.9476 51.5691 31.7732Z" fill="#89886D"/>
<path d="M60.5405 21.6696C60.1743 21.3035 59.5809 21.3035 59.2146 21.6696L57.4679 23.4162C57.1018 23.7823 57.1018 24.376 57.4679 24.7422C57.651 24.9252 57.8909 25.0167 58.1309 25.0167C58.3709 25.0167 58.6107 24.9252 58.7938 24.7422L60.5405 22.9955C60.9066 22.6294 60.9066 22.0358 60.5405 21.6696Z" fill="#89886D"/>
<path d="M60.5404 41.8773L58.7938 40.1306C58.4277 39.7645 57.8343 39.7645 57.4679 40.1306C57.1018 40.4967 57.1018 41.0903 57.4679 41.4564L59.2146 43.2031C59.3977 43.3862 59.6376 43.4777 59.8775 43.4777C60.1174 43.4777 60.3573 43.3861 60.5404 43.2031C60.9065 42.837 60.9065 42.2434 60.5404 41.8773Z" fill="#89886D"/>
<path d="M64.062 31.4989H61.5918C61.0741 31.4989 60.6543 31.9186 60.6543 32.4364C60.6543 32.9542 61.0741 33.3739 61.5918 33.3739H64.062C64.5797 33.3739 64.9995 32.9542 64.9995 32.4364C64.9995 31.9186 64.5797 31.4989 64.062 31.4989Z" fill="#89886D"/>
<path d="M24.5306 23.4163L22.7841 21.6697C22.4179 21.3036 21.8244 21.3036 21.4582 21.6697C21.0921 22.0358 21.0921 22.6294 21.4582 22.9956L23.2048 24.7422C23.3879 24.9253 23.6278 25.0168 23.8677 25.0168C24.1076 25.0168 24.3475 24.9253 24.5306 24.7422C24.8967 24.3761 24.8967 23.7825 24.5306 23.4163Z" fill="#89886D"/>
<path d="M24.5306 40.1306C24.1645 39.7644 23.571 39.7644 23.2048 40.1306L21.4582 41.8773C21.0921 42.2434 21.0921 42.8371 21.4582 43.2032C21.6413 43.3863 21.8812 43.4778 22.1211 43.4778C22.361 43.4778 22.6009 43.3862 22.784 43.2032L24.5306 41.4565C24.8967 41.0903 24.8967 40.4968 24.5306 40.1306Z" fill="#89886D"/>
<path d="M20.4077 31.4989H17.9375C17.4198 31.4989 17 31.9186 17 32.4364C17 32.9542 17.4198 33.3739 17.9375 33.3739H20.4077C20.9254 33.3739 21.3452 32.9542 21.3452 32.4364C21.3452 31.9186 20.9254 31.4989 20.4077 31.4989Z" fill="#89886D"/>
</g>
<defs>
<clipPath id="clip0_403_2">
<rect width="48" height="48" fill="white" transform="translate(17 17)"/>
</clipPath>
</defs>
</svg>
