<svg width="93" height="53" viewBox="0 0 93 53" fill="none" xmlns="http://www.w3.org/2000/svg">
<line y1="27.2529" x2="36" y2="27.2529" stroke="#BEC9C0" stroke-width="3.49415" stroke-dasharray="6.35 6.35"/>
<circle cx="66.8785" cy="26.5616" r="25.8785" transform="rotate(90 66.8785 26.5616)" fill="#BEC9C0"/>
<g clip-path="url(#clip0_404_135)">
<path d="M73.1627 13.8478C71.3115 12.0097 68.8607 11.0001 66.2536 11.0001C66.23 11.0001 66.2059 11.0002 66.1823 11.0004C63.6371 11.0183 61.2273 12.0155 59.3967 13.8083C57.5657 15.6014 56.5192 17.99 56.45 20.5339C56.3779 23.1848 57.3489 25.6955 59.1842 27.6036C60.6294 29.1062 61.4253 31.1047 61.4253 33.2311V37.3218C61.4253 38.1622 62.0088 38.8686 62.7917 39.058V39.6035C62.7917 40.6462 63.64 41.4945 64.6828 41.4945H67.8096C68.8523 41.4945 69.7006 40.6462 69.7006 39.6035V39.0612C70.4904 38.8766 71.0807 38.1671 71.0807 37.3218V33.2313C71.0807 31.1326 71.8984 29.111 73.3834 27.5389C75.1092 25.7118 76.0597 23.3209 76.0597 20.8068C76.0597 18.1742 75.0308 15.7028 73.1627 13.8478ZM68.5095 39.6035C68.5095 39.9894 68.1956 40.3033 67.8097 40.3033H64.6828C64.2969 40.3033 63.983 39.9894 63.983 39.6035V39.1084H68.5095V39.6035ZM69.8896 37.3218C69.8896 37.6501 69.6225 37.9172 69.2941 37.9172H69.1051H63.3874H63.2119C62.8836 37.9172 62.6165 37.6501 62.6165 37.3218V33.9344H69.8896V37.3218ZM65.3174 32.7432V25.2097H67.1729V32.7431H65.3174V32.7432ZM72.5175 26.7209C70.9379 28.3933 70.0197 30.5156 69.9024 32.7431H68.3641V25.2097H68.8994C69.8514 25.2097 70.626 24.4352 70.626 23.4831V23.3908C70.626 22.4387 69.8514 21.6642 68.8994 21.6642C67.9474 21.6642 67.1729 22.4387 67.1729 23.3908V24.0185H65.3174V23.3908C65.3174 22.4387 64.5429 21.6642 63.5909 21.6642H63.4736C62.5216 21.6642 61.7471 22.4387 61.7471 23.3908V23.4831C61.7471 24.4351 62.5216 25.2097 63.4736 25.2097H64.1262V32.7431H62.6042C62.4905 30.4904 61.5911 28.3876 60.0427 26.7778C58.4304 25.1016 57.5774 22.8956 57.6408 20.5663C57.7655 15.9808 61.601 12.2239 66.1907 12.1915C68.5072 12.1752 70.6823 13.0636 72.3234 14.6931C73.9647 16.3228 74.8685 18.494 74.8685 20.8068C74.8685 23.0156 74.0336 25.1159 72.5175 26.7209ZM68.3641 24.0185V23.3908C68.3641 23.0956 68.6043 22.8554 68.8994 22.8554C69.1947 22.8554 69.4348 23.0956 69.4348 23.3908V23.4831C69.4348 23.7783 69.1947 24.0185 68.8994 24.0185H68.3641ZM64.1262 23.3908V24.0185H63.4735C63.1783 24.0185 62.9382 23.7783 62.9382 23.4831V23.3908C62.9382 23.0956 63.1783 22.8554 63.4735 22.8554H63.5908C63.886 22.8554 64.1262 23.0957 64.1262 23.3908Z" fill="#89886D"/>
<path d="M72.6397 18.229C72.1281 16.9589 71.258 15.8779 70.1234 15.1031C68.9605 14.3088 67.5973 13.8943 66.1847 13.9043C65.8558 13.9066 65.591 14.1751 65.5933 14.5041C65.5956 14.8316 65.8618 15.0954 66.1888 15.0954C66.1902 15.0954 66.1917 15.0954 66.193 15.0954C66.207 15.0954 66.2207 15.0953 66.2346 15.0953C68.58 15.0953 70.6576 16.4965 71.5349 18.6741C71.6284 18.9063 71.8517 19.0473 72.0875 19.0473C72.1616 19.0473 72.237 19.0335 72.3099 19.004C72.615 18.8811 72.7627 18.5341 72.6397 18.229Z" fill="#89886D"/>
<path d="M72.9639 20.3845C72.8532 20.2737 72.6995 20.21 72.5429 20.21C72.3862 20.21 72.2326 20.2737 72.1218 20.3845C72.0104 20.4953 71.9473 20.6489 71.9473 20.8056C71.9473 20.9628 72.0104 21.1159 72.1218 21.2267C72.2326 21.338 72.3856 21.4012 72.5429 21.4012C72.6995 21.4012 72.8532 21.338 72.9639 21.2267C73.0747 21.1159 73.1385 20.9628 73.1385 20.8056C73.1385 20.6489 73.0747 20.4953 72.9639 20.3845Z" fill="#89886D"/>
<path d="M78.6618 13.9661C78.4292 13.7335 78.0522 13.7335 77.8195 13.9661L76.7098 15.0757C76.4773 15.3083 76.4773 15.6855 76.7098 15.9181C76.8262 16.0344 76.9786 16.0925 77.131 16.0925C77.2835 16.0925 77.4359 16.0344 77.5522 15.9181L78.6618 14.8084C78.8944 14.5759 78.8944 14.1987 78.6618 13.9661Z" fill="#89886D"/>
<path d="M78.6618 26.8046L77.5522 25.6949C77.3196 25.4624 76.9426 25.4624 76.7098 25.6949C76.4773 25.9275 76.4773 26.3047 76.7098 26.5372L77.8195 27.6469C77.9358 27.7632 78.0882 27.8213 78.2406 27.8213C78.393 27.8213 78.5455 27.7631 78.6618 27.6469C78.8944 27.4143 78.8944 27.0372 78.6618 26.8046Z" fill="#89886D"/>
<path d="M80.8993 20.2116H79.33C79.0011 20.2116 78.7344 20.4783 78.7344 20.8072C78.7344 21.1362 79.0011 21.4028 79.33 21.4028H80.8993C81.2282 21.4028 81.4949 21.1362 81.4949 20.8072C81.4949 20.4783 81.2282 20.2116 80.8993 20.2116Z" fill="#89886D"/>
<path d="M55.7838 15.0758L54.6743 13.9662C54.4416 13.7336 54.0646 13.7336 53.8319 13.9662C53.5993 14.1988 53.5993 14.5759 53.8319 14.8085L54.9416 15.9182C55.0579 16.0345 55.2103 16.0926 55.3627 16.0926C55.5151 16.0926 55.6675 16.0345 55.7838 15.9182C56.0164 15.6856 56.0164 15.3085 55.7838 15.0758Z" fill="#89886D"/>
<path d="M55.7838 25.6944C55.5513 25.4618 55.1742 25.4618 54.9416 25.6944L53.8319 26.8041C53.5993 27.0367 53.5993 27.4138 53.8319 27.6464C53.9482 27.7627 54.1006 27.8209 54.253 27.8209C54.4055 27.8209 54.5579 27.7627 54.6742 27.6464L55.7838 26.5368C56.0164 26.3041 56.0164 25.9271 55.7838 25.6944Z" fill="#89886D"/>
<path d="M53.1669 20.2114H51.5975C51.2687 20.2114 51.002 20.4781 51.002 20.807C51.002 21.136 51.2687 21.4026 51.5975 21.4026H53.1669C53.4958 21.4026 53.7625 21.136 53.7625 20.807C53.7625 20.4781 53.4958 20.2114 53.1669 20.2114Z" fill="#89886D"/>
</g>
<defs>
<clipPath id="clip0_404_135">
<rect width="30.4944" height="30.4944" fill="white" transform="translate(51.0002 11)"/>
</clipPath>
</defs>
</svg>
