<svg width="186" height="32" viewBox="0 0 186 32" fill="none" xmlns="http://www.w3.org/2000/svg">
<path d="M8.86097 2.56952C9.2484 2.07986 9.56049 1.29425 10.0448 1.15973C11.5353 0.750776 13.0957 0.390259 14.6293 0.390259C16.0768 0.390259 16.7386 1.25659 16.927 2.69329C17.0507 3.61342 17.0669 4.54971 17.1906 5.46984C17.3359 6.55679 17.7771 7.53072 18.8641 7.94505C19.8757 8.33247 20.9035 8.31096 21.4738 7.81591C21.3931 6.70206 21.0864 5.80346 21.3393 5.1147C21.7052 4.14075 22.7814 3.87708 23.7876 3.88247C25.4127 3.89323 26.6933 4.58738 27.5865 5.96489C29.1901 8.43473 29.3676 11.1951 29.2439 14.0147C29.0932 17.3886 27.974 20.4126 25.94 23.3937C25.0468 22.269 24.2504 21.2682 23.3249 20.1059C23.1312 22.0431 24.315 23.4044 24.6432 25.0671C22.1357 24.077 21.1133 21.7094 19.7197 19.6055C19.499 20.6117 19.7412 21.6395 20.699 23.3345C21.3447 24.4752 22.1034 25.5514 22.8783 26.7567C20.5483 28.8876 17.8471 30.3996 14.8499 31.4005C14.6885 31.4543 14.4625 31.4166 14.2903 31.352C11.3739 30.335 8.73183 28.8499 6.35885 26.7137C7.93545 24.5667 9.50668 22.4574 9.65735 19.6755C8.23678 21.6933 7.14984 24.0017 4.88447 25.1963C4.78224 25.1209 4.68 25.0456 4.57776 24.9649C5.12662 23.4475 5.67009 21.9301 6.21894 20.418C6.10056 20.3642 5.9768 20.305 5.85842 20.2512C5.06743 21.252 4.27643 22.2529 3.37782 23.3883C1.80659 21.1337 0.778837 18.8791 0.348364 16.3716C-0.162822 13.3959 -0.222013 10.4257 0.886456 7.55764C1.56983 5.78732 2.62449 4.32371 4.65848 3.97933C5.21271 3.88248 5.82613 3.88785 6.37499 4.02237C8.32826 4.50128 8.77488 5.87879 7.51574 7.41773C8.7964 8.66072 11.1748 8.34324 11.9119 6.73434C12.2348 6.02944 12.3747 5.15775 12.3263 4.37752C12.2456 2.96234 11.121 2.46191 9.21073 2.84934C9.09235 2.75786 8.96859 2.661 8.85021 2.56952H8.86097Z" fill="#122B18"/>
<path d="M133.542 27.4298H117.119C118.464 19.5414 119.035 11.6745 118.776 3.6731H124.566C123.302 7.87021 123.431 12.1965 123 16.4581C122.79 18.5405 122.656 20.6283 122.559 22.7161C122.495 24.1206 122.812 24.4327 124.238 24.438C125.476 24.4434 126.724 24.438 127.951 24.2927C129.549 24.1044 130.851 23.4856 131.599 21.8498C133.902 16.8187 136.334 11.8467 138.648 6.82093C139.079 5.88465 139.186 4.7977 139.487 3.60314C140.709 3.60314 142.216 3.54933 143.711 3.65157C144.007 3.67309 144.411 4.25962 144.519 4.65243C145.815 9.26925 147.021 13.9076 148.339 18.519C149.216 21.5915 149.975 24.7286 152.143 27.6181C150.427 27.6181 148.926 27.7419 147.467 27.5536C146.945 27.489 146.316 26.7572 146.095 26.1868C145.433 24.4972 144.949 22.7431 144.4 21.0104C144.309 20.7198 144.223 20.4239 144.19 20.3163C141.473 20.4185 138.863 20.51 136.248 20.6391C135.99 20.6499 135.608 20.8221 135.516 21.0212C134.612 23.0498 133.283 24.9439 133.536 27.4406L133.542 27.4298ZM141.01 9.21006C139.665 12.1265 138.454 14.747 137.211 17.4429H143.41C142.619 14.7255 141.86 12.1265 141.016 9.21006H141.01Z" fill="#122B18"/>
<path d="M32.9717 27.3326C34.3115 19.5357 34.8604 11.6796 34.5967 3.59743C36.4639 3.59743 38.5786 3.56516 40.6933 3.6082C42.5874 3.64587 44.4976 3.59743 46.3648 3.86648C50.8094 4.51757 51.0569 9.48953 48.8454 11.5881C47.8284 12.5513 46.5692 13.2669 45.4123 14.101C45.6706 14.1655 46.085 14.2517 46.4832 14.3647C48.6409 14.9888 50.3951 16.0865 50.9547 18.4488C51.5251 20.8648 50.9116 22.9741 49.1252 24.7068C47.5055 26.2834 45.4715 27.1712 43.2869 27.2842C39.8162 27.4672 36.3294 27.3326 32.9717 27.3326ZM38.7615 15.7583C38.6055 18.4649 38.4817 20.8217 38.3203 23.1786C38.2719 23.8942 38.5409 24.2386 39.2351 24.3839C41.0215 24.7606 42.7111 24.5292 44.2716 23.5929C45.7083 22.7266 46.2679 21.3598 46.1442 19.7348C46.0204 18.0613 45.1218 16.8399 43.4967 16.4363C42.0224 16.0704 40.4781 15.9897 38.7615 15.7529V15.7583ZM38.9176 12.9387C40.9193 13.0517 42.5981 12.8849 44.0617 11.8464C45.1917 11.05 45.5792 9.90388 45.2993 8.57479C45.0518 7.39099 44.1209 6.86903 43.0501 6.67531C42.1461 6.50851 41.2099 6.47622 40.2843 6.47622C40.0261 6.47622 39.5687 6.76678 39.5418 6.97126C39.2943 8.91377 39.1221 10.8724 38.9176 12.9387Z" fill="#122B18"/>
<path d="M81.9983 27.4395H76.3914C77.7097 19.5619 78.2693 11.6627 78.0379 3.67741C81.3364 3.67741 84.9147 3.44065 88.4446 3.74198C92.491 4.08636 94.2076 7.28262 92.8085 11.1623C92.0875 13.164 90.5862 14.3639 88.7244 15.2087C88.38 15.3647 88.0303 15.5047 87.5298 15.7091C90.8122 19.9601 94.0354 24.1303 97.3392 28.4081C95.6819 28.4081 93.9224 28.5049 92.1843 28.3543C91.614 28.3059 90.9682 27.6978 90.5808 27.1759C88.3585 24.1948 86.2223 21.1546 84.0161 18.1628C83.5964 17.5925 82.9776 17.1727 82.4503 16.6831C82.2996 16.7638 82.1489 16.8445 81.9929 16.9252V27.4288L81.9983 27.4395ZM82.305 13.7128C85.0331 14.3585 87.5137 13.1155 88.2186 10.8394C88.8213 8.89688 88.1702 7.19651 86.4967 6.76603C85.4098 6.48623 84.2421 6.51851 82.9614 6.39475C82.7301 9.00449 82.5148 11.3667 82.305 13.7128Z" fill="#122B18"/>
<path d="M73.9111 27.5642C73.0232 27.6019 71.9417 27.6772 70.8601 27.6933C69.2458 27.7202 68.7992 27.4566 68.2504 25.9445C67.6854 24.3841 67.228 22.7806 66.7276 21.1986C66.6146 20.8327 66.507 20.4722 66.4585 20.3107C63.7681 20.413 61.196 20.4991 58.6185 20.639C58.3064 20.6551 57.8437 20.8757 57.7253 21.134C56.8159 23.1249 55.5676 25.0137 55.7774 27.4297H50.5687C50.5472 27.349 50.4826 27.2575 50.5095 27.2198C55.0671 20.6551 57.9836 13.2617 61.2175 6.02978C61.5135 5.36793 61.5027 4.56618 61.6749 3.61375C62.9932 3.61375 64.5537 3.5761 66.1088 3.65681C66.3402 3.66757 66.6469 4.2218 66.7437 4.57156C68.2127 9.78028 69.5795 15.0213 71.1292 20.2031C71.8717 22.6891 72.9533 25.0782 73.9057 27.5696L73.9111 27.5642ZM65.6729 17.4696C64.8712 14.7146 64.1178 12.1318 63.273 9.2153C61.9063 12.1479 60.6956 14.7415 59.4257 17.4696H65.6729Z" fill="#122B18"/>
<path d="M185.913 3.66181C185.714 5.48056 185.531 7.1594 185.321 9.06962C183.943 7.39078 182.453 6.2877 180.435 6.15318C179.935 6.12089 179.429 6.12088 178.928 6.18007C177.659 6.31998 176.609 6.82578 176.152 8.12258C175.689 9.44628 176.222 10.5063 177.239 11.2973C178.396 12.1959 179.66 12.9654 180.849 13.8317C181.883 14.5797 182.969 15.2846 183.868 16.1778C186.871 19.1642 186.467 23.555 183.018 26.0356C181.022 27.4723 178.719 28.0696 176.324 27.9243C174.414 27.8113 172.531 27.2732 170.631 26.9504C169.835 26.8159 169.673 26.3585 169.749 25.6321C169.899 24.1415 169.991 22.6457 170.125 20.8969C170.588 21.5049 170.879 21.8977 171.185 22.2798C173.009 24.5505 176.2 25.5083 178.821 24.5828C181.339 23.6896 181.958 21.0906 180.026 19.2503C179.305 18.5615 178.412 18.0557 177.589 17.48C176.383 16.6406 175.119 15.8765 173.973 14.9617C171.696 13.1484 170.825 10.7808 171.621 7.93964C172.396 5.17924 174.516 3.947 177.131 3.40891C180.026 2.81163 182.9 3.25823 185.913 3.66718V3.66181Z" fill="#122B18"/>
<path d="M114.99 21.9409C113.854 25.912 110.184 28.2904 105.767 27.9406C100.37 27.5101 96.8559 23.6843 96.5438 17.7169C96.3878 14.7412 96.9151 11.8409 98.368 9.1881C100.456 5.37303 103.749 3.35521 108.054 3.1884C110.281 3.10231 112.52 3.38749 114.936 3.51663C114.737 5.54523 114.559 7.40165 114.349 9.5002C113.983 9.05359 113.779 8.79532 113.569 8.54242C110.723 5.06097 105.821 5.23313 103.421 9.02129C101.327 12.3252 100.859 15.9842 101.989 19.7293C103.119 23.4691 106.676 25.1694 110.647 23.9157C112.138 23.4422 113.521 22.6189 114.984 21.9463L114.99 21.9409Z" fill="#122B18"/>
<path d="M165.295 3.67275H170.886C168.421 7.3802 165.93 11.1415 163.433 14.9027C162.298 16.6085 161.502 18.4272 161.512 20.5258C161.523 22.7911 161.512 25.0511 161.512 27.4187H156.062C156.384 24.7229 156.772 22.0593 156.992 19.385C157.079 18.3734 156.96 17.2757 156.637 16.3179C155.12 11.8356 153.242 7.5201 150.11 3.46827C151.972 3.46827 153.667 3.30147 155.297 3.55437C155.927 3.65123 156.594 4.6144 156.933 5.33007C158.203 8.02052 159.344 10.7756 160.576 13.6059C160.77 13.3692 160.974 13.1701 161.12 12.9387C162.271 11.1468 163.396 9.33885 164.553 7.55239C165.311 6.37397 165.844 5.16327 165.301 3.67814L165.295 3.67275Z" fill="#122B18"/>
</svg>
