<svg width="187" height="54" viewBox="0 0 187 54" fill="none" xmlns="http://www.w3.org/2000/svg">
<path d="M26.394 13.6564C26.3626 20.7067 20.5375 26.4417 13.478 26.3793C6.46903 26.317 0.669106 20.5134 0.694296 13.594C0.719485 6.58739 6.58238 0.777597 13.5977 0.814999C20.6949 0.852401 26.4255 6.59986 26.394 13.6564Z" fill="#122B18"/>
<path d="M28.2963 13.6065C28.2963 6.58115 34.1025 0.796286 41.143 0.814987C48.2402 0.833688 53.9834 6.55621 53.9771 13.6003C53.9708 20.5134 48.215 26.398 41.4705 26.3793C34.0647 26.3606 28.2963 20.769 28.2963 13.6065Z" fill="#122B18"/>
<path d="M41.1605 53.6149C33.6729 53.5027 28.1878 47.8488 28.3012 40.3621C28.4019 33.717 34.46 28.0132 41.2675 28.1566C48.5663 28.3124 54.0891 34.0661 53.9694 41.3845C53.8561 48.0732 47.9428 53.7147 41.1605 53.6149Z" fill="#122B18"/>
<path d="M26.4002 40.8918C26.3687 47.967 20.638 53.6459 13.5409 53.6147C6.3744 53.5835 0.681533 47.8735 0.700425 40.7422C0.719318 33.8726 6.67667 28.0878 13.6479 28.1626C20.7199 28.2374 26.4317 33.9412 26.4065 40.898L26.4002 40.8918Z" fill="#122B18"/>
<path d="M64.3865 24.9645V2.79126C68.0012 2.9097 71.6096 2.72893 75.1299 3.21516C79.3302 3.78865 81.2447 8.73196 78.7509 11.8987C78.3416 12.4223 77.7811 12.8337 77.3466 13.2451C78.1148 13.6877 78.9713 14.0244 79.6388 14.5854C81.8681 16.4555 81.8744 20.3453 79.6892 22.6393C78.3541 24.0481 76.6664 24.8772 74.7457 24.9333C71.3136 25.033 67.8752 24.9582 64.3865 24.9582V24.9645ZM68.2279 21.8663C70.602 21.7417 72.8628 21.7292 75.0921 21.4611C76.5279 21.2866 77.3214 19.99 77.2899 18.469C77.2647 17.1474 76.4397 15.9381 75.111 15.801C72.8439 15.5703 70.5579 15.5641 68.2216 15.4581V21.8663H68.2279ZM68.272 6.45667V12.1418C69.6952 12.1418 71.0554 12.1418 72.4094 12.1418C72.6991 12.1418 72.9824 12.1418 73.2721 12.1044C74.8969 11.8924 75.9233 10.8826 75.98 9.4426C76.043 7.89041 75.1614 6.67485 73.4988 6.50031C71.8048 6.32577 70.073 6.4629 68.2783 6.4629L68.272 6.45667Z" fill="#122B18"/>
<path d="M125.459 29.3781C126.706 29.3781 127.896 29.3096 129.067 29.4155C129.458 29.4529 129.905 29.8768 130.157 30.2384C133.186 34.5957 136.19 38.9718 139.2 43.3478C139.414 43.6533 139.647 43.9525 140.012 44.4387V29.4592H143.74V51.6074C142.726 51.6074 141.763 51.6698 140.812 51.57C140.478 51.5389 140.113 51.1586 139.892 50.8407C136.479 45.9223 133.091 40.9915 129.697 36.0669C129.615 35.9484 129.533 35.8362 129.3 35.5246V51.5513H125.471V29.3781H125.459Z" fill="#122B18"/>
<path d="M90.2575 51.925C82.877 51.8003 79.2056 45.6477 79.955 38.9901C80.3265 35.6738 81.6742 32.8499 84.5395 30.905C91.0132 26.5165 99.9304 30.4375 101.001 38.1174C101.448 41.3153 101.114 44.3698 99.3825 47.1562C97.2981 50.5037 94.1556 51.9624 90.2512 51.9312L90.2575 51.925ZM83.9223 40.8976C83.8594 42.2441 84.2309 43.8898 85.1063 45.4046C87.4363 49.4253 93.2992 49.5998 95.7048 45.629C97.7011 42.3314 97.6885 38.828 95.7804 35.5055C93.7085 31.8899 88.6895 31.4848 85.8871 34.5891C84.3758 36.266 83.9097 38.3106 83.916 40.8976H83.9223Z" fill="#122B18"/>
<path d="M95.8745 15.0461C97.6378 18.3125 99.4263 21.6102 101.334 25.1447C99.7852 25.1447 98.4502 25.1821 97.1214 25.1135C96.8884 25.101 96.6113 24.6834 96.4602 24.3966C95.4526 22.4766 94.4387 20.5629 93.4941 18.6118C92.7573 17.0907 91.6931 16.2991 89.9235 16.5671C89.2623 16.6668 88.5758 16.5858 87.8139 16.5858V25.0636H84.0354V3.05248C84.0354 3.05248 84.0921 2.96521 84.1425 2.96521C87.3667 3.02131 90.6162 2.86547 93.8153 3.18962C98.891 3.69455 101.347 9.2737 98.2739 13.0887C97.6063 13.9178 96.5987 14.4726 95.8682 15.0523L95.8745 15.0461ZM87.8516 13.2072C89.5897 13.1324 91.2019 13.151 92.7951 12.9703C94.4891 12.777 95.5408 11.5615 95.6163 9.99057C95.7045 8.1267 94.9299 6.85503 93.1352 6.55582C91.4286 6.2753 89.659 6.34387 87.8516 6.25036V13.2072Z" fill="#122B18"/>
<path d="M159.32 2.9541H163.06V11.9431H173.999V2.97903H177.809V25.065H174.024V15.6209H163.149V25.0899H159.326V2.9541H159.32Z" fill="#122B18"/>
<path d="M103.859 29.3276H107.681C107.681 29.7328 107.681 30.1068 107.681 30.4871C107.681 34.7946 107.681 39.0958 107.681 43.4033C107.681 45.2734 108.059 47.0438 109.98 47.8541C112.197 48.783 114.476 48.8204 116.554 47.4115C117.631 46.6822 118.047 45.4978 118.066 44.2448C118.116 39.7254 118.116 35.2122 118.141 30.6928C118.141 30.2752 118.141 29.8513 118.141 29.365H121.914C121.945 29.5022 122.014 29.6705 122.014 29.8388C122.008 34.5016 122.021 39.1582 121.97 43.8209C121.907 49.2692 118.324 51.8686 113.563 51.8936C111.838 51.8998 110.03 51.6692 108.399 51.1331C105.389 50.1419 104.023 47.6547 103.915 44.7186C103.739 39.607 103.865 34.4891 103.865 29.3401L103.859 29.3276Z" fill="#122B18"/>
<path d="M139.478 23.3992C139.969 22.4392 140.466 21.473 141.002 20.4257C143.042 21.5104 145.158 22.2459 147.463 22.1275C148.307 22.0839 149.182 21.9156 149.963 21.6039C151.858 20.8371 152.243 18.5057 150.599 17.3026C149.528 16.5234 148.2 16.0808 146.965 15.5323C145.725 14.9837 144.415 14.591 143.218 13.9676C140.939 12.7894 139.988 10.8383 140.202 8.3199C140.41 5.85136 141.814 4.24307 144.069 3.40776C147.387 2.17972 150.7 2.59738 153.943 3.76931C154.17 3.85035 154.434 4.1932 154.447 4.43008C154.503 5.415 154.472 6.39992 154.472 7.21654C152.369 6.80511 150.442 6.33135 148.489 6.08824C147.57 5.97603 146.543 6.15058 145.655 6.45603C143.911 7.05446 143.552 9.03677 145.032 10.1651C146.002 10.9069 147.211 11.3557 148.338 11.8669C149.799 12.5276 151.386 12.9578 152.759 13.7619C156.802 16.1307 156.714 21.7223 152.665 24.1161C149.182 26.1732 142.841 25.849 139.484 23.3867L139.478 23.3992Z" fill="#122B18"/>
<path d="M163.564 30.5313C163.18 31.5972 162.828 32.5946 162.45 33.6357C161.612 33.3614 160.857 33.0497 160.069 32.8689C155.164 31.7469 151.209 34.6331 150.869 39.6325C150.793 40.7545 150.875 41.9265 151.127 43.0174C152.084 47.1628 155.649 49.2947 159.868 48.3035C160.699 48.1103 161.505 47.8048 162.45 47.5118C162.815 48.503 163.187 49.5191 163.552 50.5227C160.088 52.5611 153.407 52.8105 149.893 49.2074C145.957 45.1742 145.629 37.6502 149.175 32.9437C152.128 29.029 158.382 27.9568 163.558 30.5375L163.564 30.5313Z" fill="#122B18"/>
<path d="M77.9449 47.4553C78.3353 48.5337 78.6943 49.5249 79.0469 50.5036C75.7282 52.4921 68.9585 52.7913 65.4697 49.263C61.4394 45.18 61.1119 37.5188 64.8148 32.7687C68.1272 28.5174 74.6576 28.3615 79.0469 30.5308C78.7006 31.5095 78.3542 32.5069 77.9638 33.6103C77.0633 33.3422 76.2131 33.0118 75.3315 32.8311C68.757 31.4908 65.8727 36.8455 66.3576 41.5457C66.5906 43.8397 67.3589 45.9218 69.3741 47.3119C71.5278 48.8018 73.883 48.7145 76.2824 48.0475C76.7988 47.9041 77.29 47.6922 77.9575 47.4553H77.9449Z" fill="#122B18"/>
<path d="M110.704 2.98438H128.79V6.32563H121.731V25.0953H117.852V6.38797H110.704V2.98438Z" fill="#122B18"/>
<path d="M177.859 48.1978H186.613V51.5266H174.1V29.3658H177.859V48.1978Z" fill="#122B18"/>
<path d="M107.605 25.1332H103.877V3.00989H107.605V25.1332Z" fill="#122B18"/>
<path d="M131.92 2.9541H135.636V25.1024H131.92V2.9541Z" fill="#122B18"/>
<path d="M166.707 29.3899H170.409V51.5382H166.707V29.3899Z" fill="#122B18"/>
</svg>
