<svg width="71" height="71" viewBox="0 0 71 71" fill="none" xmlns="http://www.w3.org/2000/svg">
<path d="M66.9734 8.00019H28.6255C27.5723 8.00019 26.5622 8.4186 25.8174 9.16336C25.0726 9.90813 24.6542 10.9183 24.6542 11.9715V26.8893H4.90687C3.85424 26.8914 2.84532 27.3104 2.101 28.0548C1.35668 28.7991 0.937609 29.808 0.935547 30.8606V56.0539C0.937609 57.1066 1.35668 58.1155 2.101 58.8598C2.84532 59.6041 3.85424 60.0232 4.90687 60.0252H12.4828L12.2955 66.2202C12.2878 66.4607 12.3444 66.6989 12.4597 66.9102C12.5749 67.1215 12.7445 67.2981 12.9509 67.4217C13.1647 67.5265 13.3995 67.5809 13.6375 67.5809C13.8755 67.5809 14.1104 67.5265 14.3241 67.4217L27.6971 59.994H43.5668C44.0883 59.994 44.6047 59.8913 45.0865 59.6917C45.5683 59.4922 46.0061 59.1996 46.3749 58.8309C46.7437 58.4621 47.0362 58.0243 47.2358 57.5425C47.4354 57.0607 47.5381 56.5442 47.5381 56.0227V44.1712H49.8319L60.4117 51.6301C60.6231 51.7559 60.8612 51.8299 61.1066 51.8462C61.352 51.8625 61.5978 51.8205 61.8239 51.7237C62.0554 51.617 62.2517 51.4466 62.3898 51.2325C62.528 51.0183 62.6023 50.7692 62.6041 50.5144V44.1712H67.0124C68.0656 44.1712 69.0758 43.7528 69.8205 43.008C70.5653 42.2632 70.9837 41.2531 70.9837 40.1999V11.9715C70.9837 11.4467 70.8797 10.9271 70.6777 10.4427C70.4757 9.9583 70.1797 9.51877 69.8068 9.14948C69.4338 8.7802 68.9914 8.48849 68.5051 8.29122C68.0188 8.09395 67.4981 7.99504 66.9734 8.00019ZM44.8073 56.0539C44.8073 56.3829 44.6766 56.6985 44.444 56.9311C44.2113 57.1638 43.8958 57.2945 43.5668 57.2945H27.307C27.0751 57.2958 26.8472 57.3547 26.6438 57.4661L15.0731 63.8951L15.2292 58.6989C15.2332 58.5147 15.1992 58.3317 15.1294 58.1612C15.0596 57.9907 14.9555 57.8365 14.8235 57.708C14.6957 57.5766 14.5429 57.4723 14.374 57.4013C14.2051 57.3302 14.0236 57.2939 13.8404 57.2945H4.90687C4.57785 57.2945 4.26231 57.1638 4.02966 56.9311C3.79702 56.6985 3.66632 56.3829 3.66632 56.0539V30.8606C3.66836 30.5322 3.79972 30.2179 4.03193 29.9857C4.26413 29.7535 4.57848 29.6221 4.90687 29.6201H24.6542V40.1999C24.6542 41.2531 25.0726 42.2632 25.8174 43.008C26.5622 43.7528 27.5723 44.1712 28.6255 44.1712H44.8073V56.0539ZM68.2139 40.1999C68.2139 40.5289 68.0832 40.8444 67.8506 41.0771C67.6179 41.3097 67.3024 41.4404 66.9734 41.4404H61.1997C60.8376 41.4404 60.4903 41.5843 60.2343 41.8403C59.9782 42.0964 59.8343 42.4437 59.8343 42.8058V47.8772L51.0569 41.6901C50.8285 41.529 50.5561 41.4418 50.2767 41.4404H28.6255C28.2965 41.4404 27.981 41.3097 27.7483 41.0771C27.5157 40.8444 27.385 40.5289 27.385 40.1999V11.9715C27.3808 11.806 27.4098 11.6413 27.4703 11.4872C27.5308 11.3331 27.6215 11.1926 27.7371 11.0741C27.8527 10.9555 27.9909 10.8614 28.1435 10.7971C28.2961 10.7328 28.46 10.6997 28.6255 10.6998H66.9734C67.3024 10.6998 67.6179 10.8305 67.8506 11.0631C68.0832 11.2957 68.2139 11.6113 68.2139 11.9403V40.1999Z" fill="#B7AC84"/>
<path d="M37.2697 23.4719C36.7095 23.4719 36.162 23.638 35.6962 23.9492C35.2305 24.2604 34.8675 24.7028 34.6531 25.2203C34.4387 25.7378 34.3826 26.3073 34.4919 26.8567C34.6012 27.406 34.8709 27.9107 35.267 28.3068C35.6631 28.7029 36.1678 28.9726 36.7172 29.0819C37.2666 29.1912 37.836 29.1351 38.3535 28.9207C38.8711 28.7064 39.3134 28.3434 39.6246 27.8776C39.9358 27.4119 40.1019 26.8643 40.1019 26.3041C40.1019 25.9322 40.0286 25.5639 39.8863 25.2203C39.744 24.8767 39.5354 24.5644 39.2724 24.3015C39.0094 24.0385 38.6972 23.8298 38.3535 23.6875C38.0099 23.5452 37.6416 23.4719 37.2697 23.4719Z" fill="#B7AC84"/>
<path d="M48.5763 23.4719C48.0158 23.4704 47.4675 23.6352 47.0007 23.9454C46.5339 24.2557 46.1697 24.6975 45.9542 25.2149C45.7386 25.7323 45.6814 26.302 45.7898 26.8519C45.8982 27.4018 46.1673 27.9072 46.5631 28.304C46.9589 28.7009 47.4635 28.9714 48.0131 29.0813C48.5627 29.1912 49.1326 29.1356 49.6506 28.9215C50.1685 28.7073 50.6113 28.3443 50.9229 27.8784C51.2344 27.4125 51.4007 26.8646 51.4007 26.3041C51.4018 25.9326 51.3295 25.5645 51.188 25.2209C51.0465 24.8773 50.8386 24.565 50.5762 24.3019C50.3139 24.0388 50.0022 23.8301 49.659 23.6877C49.3158 23.5452 48.9479 23.4719 48.5763 23.4719Z" fill="#B7AC84"/>
<path d="M59.8811 23.4719C59.3207 23.4704 58.7723 23.6352 58.3055 23.9454C57.8388 24.2557 57.4745 24.6975 57.259 25.2149C57.0434 25.7323 56.9862 26.302 57.0946 26.8519C57.203 27.4018 57.4721 27.9072 57.8679 28.304C58.2637 28.7009 58.7683 28.9714 59.3179 29.0813C59.8675 29.1912 60.4374 29.1356 60.9554 28.9215C61.4733 28.7073 61.9161 28.3443 62.2277 27.8784C62.5392 27.4125 62.7055 26.8646 62.7055 26.3041C62.7066 25.9326 62.6343 25.5645 62.4928 25.2209C62.3513 24.8773 62.1434 24.565 61.8811 24.3019C61.6187 24.0388 61.307 23.8301 60.9638 23.6877C60.6206 23.5452 60.2527 23.4719 59.8811 23.4719Z" fill="#B7AC84"/>
</svg>
