<svg width="147" height="168" viewBox="0 0 147 168" fill="none" xmlns="http://www.w3.org/2000/svg">
<path d="M117.638 109.931L133.482 59.6873C133.62 59.2494 133.547 58.8027 133.332 58.4329L137.74 53.4214C137.972 53.1589 138.107 52.8253 138.129 52.4762L139.302 32.1769C139.307 32.1073 139.279 32.0474 139.272 31.9811C139.265 31.8636 139.256 31.7522 139.224 31.6403C139.197 31.5538 139.156 31.4798 139.114 31.3987C139.064 31.2982 139.016 31.2018 138.945 31.1151C138.882 31.0373 138.808 30.9802 138.73 30.915C138.668 30.8649 138.628 30.7981 138.557 30.7552C138.534 30.7413 138.508 30.7397 138.484 30.7288C138.397 30.6812 138.303 30.6581 138.207 30.628C138.105 30.5959 138.006 30.5576 137.901 30.545C137.875 30.5434 137.852 30.5295 137.826 30.5248C137.746 30.5199 137.676 30.5487 137.599 30.5581C137.498 30.5669 137.401 30.5706 137.304 30.6008C137.196 30.6312 137.102 30.6828 137.004 30.7335C136.923 30.7757 136.843 30.8149 136.77 30.8733C136.68 30.9433 136.609 31.0294 136.536 31.1216C136.492 31.1755 136.434 31.2081 136.398 31.268L125.718 48.5692C125.532 48.8667 125.452 49.2178 125.495 49.5669L126.232 56.1973C125.843 56.3765 125.524 56.6997 125.386 57.1377L109.785 106.61L100.247 96.8925C102.129 94.7939 103.8 92.5168 105.225 90.0503C105.255 89.9987 105.316 89.9875 105.341 89.9308C105.365 89.8772 105.358 89.8242 105.375 89.7687C106.784 87.28 108.006 84.6614 108.888 81.8643L114.715 63.3853C118.247 52.1844 112.011 40.1986 100.81 36.6665L89.9486 33.2415C78.7477 29.7094 66.764 35.9498 63.232 47.1507L57.4049 65.6297C56.5209 68.433 56.0191 71.2822 55.7444 74.1319C55.7288 74.1812 55.6967 74.2185 55.6873 74.2698C55.6769 74.3242 55.7175 74.3675 55.7112 74.4198C55.3187 78.8903 55.6735 83.3455 56.7255 87.6544C56.7235 87.6606 56.7154 87.6648 56.7135 87.671L53.1853 95.6554C52.5519 80.2454 43.9252 69.8081 43.4455 69.2432C43.0576 68.7852 42.4346 68.5887 41.8542 68.7414C40.9234 68.9836 19.0875 74.9415 11.7113 98.3333C4.335 121.725 18.8064 139.132 19.4268 139.863C19.6197 140.09 19.872 140.258 20.1496 140.346C20.4271 140.433 20.7259 140.443 21.0182 140.365C21.7606 140.172 35.9016 136.284 45.2997 122.748L49.352 124.026L44.3204 139.983L38.1272 143.204C37.5664 143.498 37.2367 144.103 37.2879 144.736C37.3463 145.368 37.7764 145.907 38.3809 146.098L78.3026 158.687C78.907 158.877 79.5686 158.682 79.979 158.198C80.3873 157.71 80.461 157.024 80.1706 156.462L76.9454 150.27L90.3462 107.774L105.844 119.076L92.4648 161.505C92.2042 162.331 92.6624 163.211 93.4889 163.472L98.5866 165.08C99.4131 165.34 100.293 164.882 100.554 164.056L112.838 125.099C115.724 125.27 118.475 123.493 119.383 120.612L120.409 117.359C121.317 114.481 120.082 111.451 117.621 109.932L117.638 109.931ZM13.1305 106.606C13.4213 104.243 13.9215 101.797 14.715 99.2805C15.5086 96.764 16.4923 94.4939 17.6046 92.3966C17.4882 94.7334 17.108 97.1971 16.294 99.7784C15.48 102.36 14.3774 104.609 13.1305 106.606ZM12.8392 112.207C15.4262 109.229 17.786 105.487 19.2885 100.723C20.791 95.958 21.0023 91.5354 20.5948 87.6128C21.6421 86.1732 22.7458 84.8666 23.8828 83.6587C24.9661 88.8896 25.1185 95.1051 22.98 101.887C20.8415 108.668 17.1482 113.671 13.2633 117.335C13.0249 115.694 12.8703 113.99 12.8392 112.207ZM21.2103 137.025C19.7063 134.977 15.8674 129.162 13.9503 121.027C18.6788 116.978 23.3529 111.156 25.9776 102.832C28.6023 94.5084 28.1169 87.0588 26.5634 81.0286C32.8024 75.4689 39.2803 72.9038 41.6868 72.0894C43.1908 74.1369 47.0296 79.9518 48.9508 88.0848C44.2223 92.134 39.5473 97.9597 36.9225 106.283C34.2978 114.607 34.7853 122.061 36.3357 128.09C30.0968 133.649 23.6167 136.211 21.2103 137.025ZM39.0133 125.459C37.9309 120.225 37.7745 114.011 39.9139 107.227C42.0534 100.442 45.7458 95.4421 49.6347 91.7758C49.8731 93.4175 50.0277 95.1208 50.0598 96.9008C47.4718 99.8822 45.1079 103.626 43.6054 108.391C42.1029 113.155 41.8917 117.578 42.3013 121.505C41.254 122.944 40.1462 124.253 39.0123 125.462L39.0133 125.459ZM45.2756 116.75C45.3969 114.397 45.7831 111.925 46.5999 109.335C47.4168 106.744 48.5185 104.498 49.7695 102.499C49.4777 104.865 48.9775 107.311 48.182 109.834C47.3865 112.357 46.3939 114.644 45.2756 116.75ZM47.0458 120.007C48.6539 117.272 50.0854 114.238 51.1765 110.778C51.8184 108.743 52.2434 106.771 52.5769 104.832L58.1388 92.2366C58.357 92.8242 58.5905 93.4064 58.8361 93.9823L50.3065 121.032L47.0437 120.003L47.0458 120.007ZM62.1508 135.125L57.799 148.925L42.9498 144.243L46.3593 142.473C46.7284 142.281 47.0063 141.948 47.1317 141.551L50.5111 130.834L62.3319 134.561L62.1539 135.126L62.1508 135.125ZM51.4523 127.838L55.2635 115.752L81.8995 124.152L78.0883 136.238L51.4523 127.838ZM56.2068 112.761L60.8504 98.0352C62.0476 100.152 63.3708 102.214 64.9616 104.126L70.5581 110.861C70.7542 111.099 71.0137 111.266 71.2943 111.355C71.5749 111.443 71.883 111.455 72.1803 111.373L80.6281 109.066C83.0289 108.409 85.2985 107.481 87.4935 106.433L82.848 121.165L56.212 112.766L56.2068 112.761ZM75.6427 154.552L60.7904 149.869L65.3202 135.504L77.1441 139.232L73.7647 149.949C73.6392 150.347 73.6759 150.779 73.8681 151.148L75.6458 154.553L75.6427 154.552ZM79.7943 106.033L72.3219 108.074L67.3721 102.116C62.4401 96.1766 59.5757 89.0347 58.8578 81.6236L64.4278 82.7765C65.2775 82.9529 66.1072 82.4076 66.2836 81.5579C66.46 80.7082 65.8765 79.9241 65.065 79.7021L58.708 78.3892C58.6997 77.7593 58.668 77.1288 58.6935 76.4995L64.401 77.6788C65.2507 77.8551 66.0804 77.3098 66.2568 76.4601C66.4311 75.6064 65.852 74.7762 65.0382 74.6044L58.9931 73.3559C59.2762 71.0819 59.6934 68.8129 60.3984 66.577L66.2255 48.098C69.2373 38.547 79.4554 33.2283 89.0033 36.2391L99.865 39.6641C109.413 42.6749 114.732 52.8931 111.72 62.4441L105.893 80.9231C105.188 83.1589 104.228 85.2568 103.155 87.2818L97.4865 84.8399C96.7275 84.5158 95.7708 84.8617 95.4238 85.661C95.0778 86.4571 95.4468 87.3838 96.2449 87.7237L101.596 90.0317C101.255 90.565 100.869 91.0601 100.5 91.5744L94.5456 89.0052C93.7566 88.7225 92.8227 89.0281 92.4829 89.8262C92.1369 90.6224 92.5058 91.5491 93.3039 91.889L98.5246 94.1388C93.6853 99.7974 87.2392 104.003 79.7954 106.04L79.7943 106.033ZM106.85 115.918L91.3513 104.619L91.4612 104.27C93.8435 102.79 96.0888 101.122 98.1059 99.1977L108.714 110.009L106.849 115.921L106.85 115.918ZM114.233 110.278L98.0455 161.613L95.9391 160.949L125.338 67.7183L127.445 68.3825L114.233 110.278ZM128.388 65.3911L126.281 64.7269L127.906 59.5767L130.012 60.2409L128.388 65.3911ZM130.361 57.0587L129.451 56.7718L128.673 49.7554L135.808 38.1921L135.023 51.7578L130.361 57.0587ZM116.403 119.666C116.023 120.872 115.013 121.709 113.851 121.93L116.639 113.091C117.462 113.941 117.81 115.203 117.43 116.409L116.404 119.663L116.403 119.666Z" fill="#122B18"/>
<path d="M70.2851 51.0192L106.725 62.5101C107.552 62.7707 108.432 62.3125 108.692 61.486C108.953 60.6595 108.495 59.7793 107.668 59.5186L71.2285 48.0278C70.402 47.7672 69.5217 48.2254 69.2611 49.0519C69.0005 49.8784 69.4586 50.7586 70.2851 51.0192Z" fill="#122B18"/>
<path d="M86.1253 78.5583L90.6347 64.2581C90.8953 63.4316 90.4371 62.5513 89.6106 62.2907C88.7841 62.0301 87.9039 62.4883 87.6433 63.3147L82.9384 78.2349C82.8129 78.6327 82.8496 79.0647 83.0418 79.4339L85.0233 83.2357L76.1847 80.4486L79.9887 78.4711C80.3578 78.279 80.6357 77.9461 80.7611 77.5483L85.466 62.6282C85.7266 61.8017 85.2684 60.9214 84.4419 60.6608C83.6154 60.4002 82.7352 60.8584 82.4746 61.6849L77.9652 75.9851L71.3785 79.4111C70.8177 79.7055 70.4881 80.3102 70.5393 80.9435C70.5976 81.5756 71.0278 82.1147 71.6322 82.3053L87.6965 87.3709C88.301 87.5615 88.9625 87.3667 89.3729 86.8824C89.7812 86.3941 89.8549 85.7087 89.5645 85.1458L86.1345 78.5612L86.1253 78.5583Z" fill="#122B18"/>
<path d="M77.4782 66.9923C77.7388 66.1658 77.2806 65.2855 76.4541 65.0249L65.8546 61.6825C65.0281 61.4218 64.1478 61.88 63.8872 62.7065C63.6266 63.533 64.0848 64.4133 64.9113 64.6739L75.5108 68.0163C76.3373 68.2769 77.2175 67.8187 77.4782 66.9923Z" fill="#122B18"/>
<path d="M104.706 75.5783C104.967 74.7518 104.509 73.8716 103.682 73.6109L93.0827 70.2685C92.2562 70.0079 91.376 70.4661 91.1154 71.2926C90.8548 72.1191 91.3129 72.9993 92.1394 73.26L102.739 76.6024C103.565 76.863 104.446 76.4048 104.706 75.5783Z" fill="#122B18"/>
<path d="M84.2328 93.0972L71.1692 88.9778C70.3427 88.7171 69.4625 89.1753 69.2018 90.0018C68.1214 93.4281 70.0302 97.0951 73.4564 98.1755L77.0832 99.3192C80.5094 100.4 84.1795 98.4918 85.2599 95.0655C85.5206 94.239 85.0624 93.3588 84.2359 93.0982L84.2328 93.0972ZM78.0244 96.3237L74.3976 95.18C73.161 94.7901 72.3045 93.7537 72.0917 92.5575L81.4206 95.4993C80.555 96.352 79.2579 96.7127 78.0244 96.3237Z" fill="#122B18"/>
<path d="M81.198 46.8519C81.2201 46.8894 81.2703 46.8917 81.2964 46.927C81.495 47.1897 81.7419 47.4066 82.0473 47.5029C82.3526 47.5991 82.6783 47.5662 82.9926 47.4619C83.0343 47.4479 83.0767 47.4748 83.1163 47.4568L87.2917 45.7423L89.7282 49.5418C89.7503 49.5793 89.8005 49.5815 89.8266 49.6169C90.0252 49.8796 90.2721 50.0965 90.5775 50.1927C90.8828 50.289 91.2085 50.2561 91.5228 50.1518C91.5645 50.1378 91.6069 50.1647 91.6464 50.1467L95.8249 48.4331L98.2615 52.2327C98.2836 52.2701 98.3338 52.2724 98.3599 52.3078C98.5585 52.5704 98.8054 52.7873 99.1107 52.8836C99.4161 52.9799 99.7418 52.9469 100.056 52.8426C100.098 52.8287 100.14 52.8556 100.18 52.8375L105.566 50.6267C106.369 50.2966 106.753 49.3801 106.422 48.5776C106.09 47.771 105.174 47.387 104.373 47.7212L100.198 49.4357L97.7614 45.6362C97.7289 45.5887 97.6804 45.5598 97.6469 45.5153C97.576 45.4285 97.5061 45.3489 97.4191 45.2807C97.3435 45.2196 97.268 45.1687 97.1813 45.121C97.0915 45.0723 97.0019 45.0339 96.9032 45.0028C96.8046 44.9717 96.7122 44.9527 96.6108 44.9411C96.5155 44.9314 96.4214 44.9288 96.3243 44.9355C96.2161 44.9455 96.1111 44.9666 96.0062 44.998C95.9533 45.0152 95.898 45.0079 95.8432 45.0313L91.6647 46.7449L89.2281 42.9453C89.1966 42.8947 89.144 42.868 89.1105 42.8235C89.0427 42.7377 88.9719 42.6611 88.888 42.594C88.8102 42.5287 88.7306 42.4799 88.644 42.4322C88.5542 42.3836 88.4677 42.3461 88.369 42.315C88.2703 42.2839 88.1779 42.265 88.0765 42.2533C87.9782 42.2426 87.8871 42.2411 87.7901 42.2478C87.6787 42.2567 87.5768 42.2788 87.472 42.3102C87.4191 42.3274 87.3638 42.3201 87.313 42.3414L83.1376 44.056L80.701 40.2564C80.2308 39.5216 79.263 39.3113 78.5313 39.7825C77.8005 40.2505 77.5893 41.2214 78.0573 41.9522L81.2011 46.8529L81.198 46.8519Z" fill="#122B18"/>
<path d="M39.8253 77.9818C38.9988 77.7212 38.1186 78.1794 37.8579 79.0058L22.0425 129.16C21.7819 129.987 22.2401 130.867 23.0666 131.127C23.893 131.388 24.7733 130.93 25.0339 130.103L40.8494 79.9492C41.11 79.1227 40.6518 78.2424 39.8253 77.9818Z" fill="#122B18"/>
</svg>
