<svg width="72" height="83" viewBox="0 0 72 83" fill="none" xmlns="http://www.w3.org/2000/svg">
<path d="M0 0H72V83H0V0Z" fill="white"/>
<path d="M62.7764 47.4592V18.8323C62.7764 18.5818 62.6642 18.3626 62.4947 18.2061L63.961 14.8899C64.0392 14.7177 64.0549 14.522 64.0079 14.3368L61.2971 3.62386C61.2866 3.58734 61.2632 3.56124 61.2501 3.52733C61.2266 3.46732 61.2058 3.40992 61.1692 3.35774C61.1405 3.31599 61.1066 3.28468 61.0727 3.25076C61.0309 3.20641 60.9892 3.16466 60.9396 3.13074C60.8953 3.10204 60.8457 3.08378 60.7961 3.06291C60.757 3.04725 60.7231 3.01855 60.6813 3.00812C60.6657 3.00551 60.6526 3.00812 60.6396 3.00812C60.5874 2.99768 60.5352 3.00029 60.4804 3.00029C60.4204 3.00029 60.3656 2.99768 60.3082 3.00812C60.2926 3.01073 60.2795 3.00812 60.2665 3.00812C60.2247 3.01855 60.1934 3.04464 60.1543 3.06291C60.1047 3.08378 60.0525 3.10204 60.0082 3.13335C59.9586 3.16727 59.9169 3.20902 59.8751 3.25076C59.8412 3.28729 59.8047 3.3186 59.776 3.36034C59.7394 3.41253 59.7186 3.46732 59.6951 3.52733C59.682 3.56124 59.656 3.58994 59.6481 3.62647L56.9399 14.3394C56.8929 14.5246 56.9086 14.7203 56.9868 14.8925L58.4532 18.2087C58.281 18.3652 58.1688 18.5844 58.1688 18.8349V47.0235L51.6382 43.5456C52.2722 42.1523 52.7653 40.6964 53.0993 39.1858C53.1071 39.1545 53.1358 39.1362 53.1411 39.1049C53.1437 39.0736 53.1332 39.0449 53.1332 39.0162C53.4568 37.4977 53.6629 35.9401 53.6629 34.3459V23.8182C53.6629 17.4364 48.4734 12.2443 42.0916 12.2443H35.9028C29.521 12.2443 24.3315 17.4364 24.3315 23.8182V34.3459C24.3315 35.9427 24.5376 37.5029 24.8611 39.024C24.8611 39.0527 24.8507 39.0762 24.8533 39.1049C24.8559 39.1336 24.8846 39.1492 24.8898 39.1779C25.4169 41.56 26.3274 43.8091 27.5798 45.8703C27.5798 45.8729 27.5772 45.8781 27.5772 45.8807L27.0554 50.5953C24.2088 42.7133 18.0331 38.7135 17.6913 38.4996C17.4148 38.3274 17.0599 38.3274 16.786 38.4996C16.345 38.7761 6 45.4345 6 58.7592C6 72.0838 16.3424 78.7422 16.786 79.0188C16.9243 79.1049 17.0808 79.1492 17.24 79.1492C17.3991 79.1492 17.5557 79.1049 17.6939 79.0188C18.0488 78.797 24.7411 74.4711 27.3972 65.9211H29.7062V75.0112L27.0241 77.6934C26.7814 77.9386 26.7084 78.3039 26.8388 78.6248C26.9719 78.9431 27.2824 79.1518 27.6268 79.1518H50.3728C50.7172 79.1518 51.0277 78.9431 51.1608 78.6248C51.2912 78.3039 51.2182 77.9386 50.9755 77.6934L48.2934 75.0112V50.7988L58.174 54.1228V78.2961C58.174 78.7657 58.5549 79.1492 59.0272 79.1492H61.9311C62.4007 79.1492 62.7843 78.7683 62.7843 78.2961V56.1005C64.308 55.717 65.4429 54.3472 65.4429 52.7061V50.851C65.4429 49.2125 64.308 47.8427 62.7843 47.4592H62.7764ZM8.07423 62.8137C7.83941 61.5405 7.69852 60.1916 7.69852 58.7592C7.69852 57.3268 7.8368 55.9883 8.07162 54.7203C8.39254 55.9492 8.59865 57.2903 8.59865 58.7592C8.59865 60.2281 8.39515 61.577 8.07423 62.8137ZM8.83869 65.7646C9.69186 63.7973 10.305 61.4726 10.305 58.7592C10.305 56.0457 9.69186 53.7184 8.83869 51.7512C9.14656 50.8354 9.50401 49.977 9.89537 49.1655C11.3095 51.699 12.4079 54.8951 12.4079 58.7592C12.4079 62.6232 11.3121 65.8194 9.89537 68.3528C9.50401 67.5414 9.14396 66.683 8.83869 65.7646ZM17.2321 77.2576C16.1181 76.4436 13.1776 74.0563 10.8555 70.1531C12.6454 67.2831 14.1143 63.4999 14.1143 58.7566C14.1143 54.0132 12.6454 50.2327 10.8555 47.3601C13.1802 43.4595 16.1181 41.0721 17.2321 40.2555C18.3462 41.0695 21.2867 43.4569 23.6114 47.3574C21.8215 50.2301 20.3526 54.0106 20.3526 58.754C20.3526 63.4973 21.8241 67.2805 23.6114 70.1505C21.2867 74.0511 18.3462 76.4384 17.2321 77.2524V77.2576ZM24.5689 68.3554C23.1522 65.8194 22.0563 62.6258 22.0563 58.7592C22.0563 54.8925 23.1522 51.699 24.5689 49.1629C24.9603 49.9744 25.3203 50.8328 25.6282 51.7485C24.775 53.7158 24.1619 56.0431 24.1619 58.7592C24.1619 61.4752 24.775 63.7999 25.6282 65.7672C25.3203 66.6856 24.9603 67.544 24.5689 68.3554ZM26.3901 62.8189C26.0691 61.5796 25.8656 60.2359 25.8656 58.7592C25.8656 57.2824 26.0691 55.9387 26.3901 54.6994C26.6249 55.9727 26.7658 57.3242 26.7658 58.7592C26.7658 60.1942 26.6249 61.5457 26.3901 62.8189ZM27.8381 64.2174C28.2242 62.5371 28.4721 60.7316 28.4721 58.7592C28.4721 57.5981 28.3703 56.5075 28.2268 55.4482L29.0513 48.0123C29.26 48.2811 29.4766 48.5446 29.6984 48.8029V64.2148H27.8381V64.2174ZM38.1362 69.5843V77.4481H29.6749L31.1516 75.974C31.3108 75.8148 31.3995 75.5956 31.3995 75.3687V69.2634H38.1336V69.5843H38.1362ZM31.4021 67.557V60.6716H46.5792V67.557H31.4021ZM31.4021 58.9653V50.5745C32.3675 51.4746 33.3902 52.3278 34.5278 53.0583L38.5275 55.6335C38.6684 55.7248 38.8302 55.7692 38.9893 55.7692C39.1485 55.7692 39.3103 55.7248 39.4512 55.6335L43.4509 53.0583C44.5884 52.3252 45.6112 51.4746 46.5792 50.5718V58.9653H31.4021ZM48.3038 77.4481H39.8425V69.2634H46.5792V75.3687C46.5792 75.5956 46.6679 75.8122 46.827 75.974L48.3038 77.4481ZM42.5273 51.6259L38.9893 53.9037L35.4514 51.6259C31.9265 49.3534 29.2731 46.1207 27.6894 42.3976L30.7655 42.0845C31.2351 42.0375 31.5769 41.6174 31.5274 41.1504C31.4804 40.6808 31.0499 40.3703 30.5933 40.3886L27.0841 40.746C26.9771 40.4199 26.8571 40.099 26.7684 39.7676L29.9201 39.4467C30.3898 39.3997 30.7316 38.9797 30.682 38.5126C30.6324 38.043 30.1967 37.7064 29.7479 37.7508L26.4109 38.09C26.1865 36.8663 26.03 35.6218 26.03 34.3459V23.8182C26.03 18.3757 30.4576 13.9506 35.895 13.9506H42.0837C47.5237 13.9506 51.9487 18.3783 51.9487 23.8182V34.3459C51.9487 35.6191 51.7948 36.8637 51.5678 38.0873L48.2307 37.7482C47.7846 37.7038 47.3437 38.0404 47.2967 38.51C47.2471 38.9797 47.5889 39.3997 48.0585 39.4441L51.2103 39.765C51.1216 40.0963 51.0016 40.4173 50.8946 40.7434L47.388 40.386C46.9314 40.3677 46.4983 40.6782 46.4539 41.1478C46.4044 41.6174 46.7462 42.0375 47.2158 42.0819L50.2893 42.395C48.7056 46.1181 46.0522 49.3508 42.5273 51.6233V51.6259ZM58.1636 52.3278L48.2829 49.0038V48.8055C49.2744 47.6497 50.1667 46.4156 50.8972 45.0901L58.1609 48.9594V52.3278H58.1636ZM61.0675 48.2002V77.4507H59.8673V24.327H61.0675V48.1976V48.2002ZM61.0675 22.6233H59.8673V19.688H61.0675V22.6233ZM60.7283 17.9843H60.2091L58.6593 14.4751L60.4674 7.31573L62.2781 14.4751L60.7283 17.9843ZM63.7261 52.7113C63.7261 53.3975 63.34 53.9976 62.7738 54.3028V49.2673C63.34 49.5726 63.7261 50.17 63.7261 50.8588V52.7139V52.7113Z" fill="#B7AC84"/>
<path d="M28.6078 24.6687H49.3709C49.8406 24.6687 50.2241 24.2878 50.2241 23.8156C50.2241 23.3433 49.8432 22.9624 49.3709 22.9624H28.6078C28.1382 22.9624 27.7546 23.3433 27.7546 23.8156C27.7546 24.2878 28.1356 24.6687 28.6078 24.6687Z" fill="#B7AC84"/>
<path d="M41.3167 36.3522V28.204C41.3167 27.7344 40.9358 27.3508 40.4635 27.3508C39.9913 27.3508 39.6103 27.7318 39.6103 28.204V36.7044C39.6103 36.9314 39.6991 37.148 39.8582 37.3097L41.5072 38.9561H36.4716L38.1205 37.3097C38.2797 37.1506 38.3684 36.9314 38.3684 36.7044V28.204C38.3684 27.7344 37.9875 27.3508 37.5152 27.3508C37.043 27.3508 36.6621 27.7318 36.6621 28.204V36.3522L33.8077 39.2039C33.5651 39.4492 33.492 39.8145 33.6225 40.1354C33.7555 40.4537 34.066 40.6624 34.4104 40.6624H43.5631C43.9075 40.6624 44.218 40.4537 44.3511 40.1354C44.4815 39.8145 44.4085 39.4492 44.1658 39.2039L41.3115 36.3522H41.3167Z" fill="#B7AC84"/>
<path d="M34.9478 31.7707C34.9478 31.301 34.5669 30.9175 34.0946 30.9175H28.0546C27.585 30.9175 27.2014 31.2984 27.2014 31.7707C27.2014 32.2429 27.5823 32.6238 28.0546 32.6238H34.0946C34.5643 32.6238 34.9478 32.2429 34.9478 31.7707Z" fill="#B7AC84"/>
<path d="M50.4589 31.7707C50.4589 31.301 50.078 30.9175 49.6057 30.9175H43.5657C43.096 30.9175 42.7125 31.2984 42.7125 31.7707C42.7125 32.2429 43.0934 32.6238 43.5657 32.6238H49.6057C50.0754 32.6238 50.4589 32.2429 50.4589 31.7707Z" fill="#B7AC84"/>
<path d="M42.7126 44.1953H35.2688C34.7992 44.1953 34.4156 44.5762 34.4156 45.0485C34.4156 47.0001 36.0046 48.589 37.9562 48.589H40.0226C41.9742 48.589 43.5657 47.0001 43.5657 45.0485C43.5657 44.5789 43.1848 44.1953 42.7126 44.1953ZM40.0226 46.8827H37.9562C37.2517 46.8827 36.6386 46.4861 36.3333 45.9017H41.648C41.3402 46.4861 40.727 46.8827 40.0226 46.8827Z" fill="#B7AC84"/>
<path d="M33.5833 20.7264C33.6016 20.7421 33.6277 20.7369 33.6459 20.7499C33.792 20.8543 33.9538 20.9247 34.1286 20.9247C34.3034 20.9247 34.4652 20.8543 34.6113 20.7499C34.6296 20.7369 34.6557 20.7421 34.6739 20.7264L36.5577 19.1558L38.4414 20.7264C38.4597 20.7421 38.4858 20.7369 38.5041 20.7499C38.6502 20.8543 38.8119 20.9247 38.9867 20.9247C39.1615 20.9247 39.3233 20.8543 39.4694 20.7499C39.4877 20.7369 39.5138 20.7421 39.532 20.7264L41.4184 19.1558L43.3022 20.7264C43.3204 20.7421 43.3465 20.7369 43.3648 20.7499C43.5109 20.8543 43.6727 20.9247 43.8475 20.9247C44.0223 20.9247 44.1841 20.8543 44.3302 20.7499C44.3484 20.7369 44.3745 20.7421 44.3928 20.7264L46.8218 18.7018C47.1845 18.3991 47.2315 17.8616 46.9314 17.499C46.6262 17.1337 46.0887 17.0867 45.7286 17.3894L43.8449 18.9601L41.9611 17.3894C41.9376 17.3685 41.9063 17.3633 41.8828 17.345C41.8333 17.3111 41.7811 17.2824 41.7263 17.2616C41.6767 17.2407 41.6297 17.2276 41.5776 17.2172C41.5228 17.2068 41.4706 17.2015 41.4158 17.2015C41.361 17.2015 41.3088 17.2068 41.254 17.2172C41.2019 17.2276 41.1549 17.2407 41.1053 17.2616C41.0505 17.285 41.001 17.3111 40.9514 17.345C40.9253 17.3633 40.8966 17.3685 40.8731 17.3894L38.9867 18.9601L37.103 17.3894C37.0769 17.3685 37.0482 17.3633 37.0221 17.345C36.9725 17.3111 36.9229 17.285 36.8682 17.2616C36.8186 17.2407 36.769 17.2276 36.7168 17.2172C36.662 17.2068 36.6098 17.2015 36.5551 17.2015C36.5003 17.2015 36.4481 17.2068 36.3933 17.2172C36.3411 17.2276 36.2915 17.2407 36.2446 17.2616C36.1898 17.285 36.1402 17.3137 36.088 17.3477C36.0619 17.3659 36.0332 17.3711 36.0098 17.3894L34.126 18.9601L32.2422 17.3894C31.877 17.0841 31.3421 17.1337 31.0395 17.499C30.7368 17.8616 30.7864 18.3991 31.149 18.7018L33.5781 20.7264H33.5833Z" fill="#B7AC84"/>
<path d="M17.2295 43.6187C16.7599 43.6187 16.3763 43.9996 16.3763 44.4718V73.0492C16.3763 73.5188 16.7573 73.9024 17.2295 73.9024C17.7018 73.9024 18.0827 73.5214 18.0827 73.0492V44.4718C18.0827 44.0022 17.7018 43.6187 17.2295 43.6187Z" fill="#B7AC84"/>
</svg>
