<svg width="61" height="77" viewBox="0 0 61 77" fill="none" xmlns="http://www.w3.org/2000/svg">
<path d="M57.5641 44.4614V15.8345C57.5641 15.584 57.4519 15.3648 57.2823 15.2083L58.7486 11.8921C58.8269 11.7199 58.8425 11.5242 58.7956 11.339L56.0847 0.62606C56.0743 0.589533 56.0508 0.563442 56.0378 0.529524C56.0143 0.469514 55.9934 0.412114 55.9569 0.359933C55.9282 0.318187 55.8943 0.286878 55.8604 0.25296C55.8186 0.208605 55.7769 0.16686 55.7273 0.132942C55.6829 0.104242 55.6334 0.0859781 55.5838 0.0651053C55.5447 0.0494508 55.5107 0.0207508 55.469 0.0103144C55.4533 0.00770535 55.4403 0.0103144 55.4272 0.0103144C55.3751 -0.000121926 55.3229 0.00248716 55.2681 0.00248716C55.2081 0.00248716 55.1533 -0.000121926 55.0959 0.0103144C55.0802 0.0129235 55.0672 0.0103144 55.0541 0.0103144C55.0124 0.0207508 54.9811 0.0468417 54.9419 0.0651053C54.8924 0.0859781 54.8402 0.104242 54.7958 0.135551C54.7463 0.169469 54.7045 0.211214 54.6628 0.25296C54.6289 0.289487 54.5923 0.320796 54.5636 0.362542C54.5271 0.414724 54.5062 0.469514 54.4827 0.529524C54.4697 0.563442 54.4436 0.592142 54.4358 0.628669L51.7275 11.3416C51.6806 11.5268 51.6962 11.7225 51.7745 11.8947L53.2408 15.2109C53.0686 15.3674 52.9564 15.5866 52.9564 15.8371V44.0257L46.4259 40.5478C47.0599 39.1545 47.553 37.6986 47.887 36.188C47.8948 36.1567 47.9235 36.1384 47.9287 36.1071C47.9313 36.0758 47.9209 36.0471 47.9209 36.0184C48.2444 34.4999 48.4505 32.9423 48.4505 31.3481V20.8204C48.4505 14.4386 43.2611 9.2465 36.8792 9.2465H30.6904C24.3086 9.2465 19.1191 14.4386 19.1191 20.8204V31.3481C19.1191 32.9449 19.3253 34.5051 19.6488 36.0262C19.6488 36.0549 19.6383 36.0784 19.641 36.1071C19.6436 36.1358 19.6723 36.1514 19.6775 36.1801C20.2045 38.5622 21.1151 40.8113 22.3675 42.8725C22.3675 42.8751 22.3648 42.8803 22.3648 42.8829L21.843 47.5975C18.9965 39.7155 12.8208 35.7157 12.479 35.5018C12.2024 35.3296 11.8476 35.3296 11.5736 35.5018C11.1327 35.7783 0.787659 42.4367 0.787659 55.7614C0.787659 69.086 11.1301 75.7444 11.5736 76.021C11.7119 76.1071 11.8685 76.1514 12.0276 76.1514C12.1868 76.1514 12.3433 76.1071 12.4816 76.021C12.8364 75.7992 19.5288 71.4733 22.1848 62.9233H24.4939V72.0134L21.8117 74.6955C21.5691 74.9408 21.496 75.3061 21.6265 75.627C21.7595 75.9453 22.07 76.154 22.4144 76.154H45.1605C45.5049 76.154 45.8154 75.9453 45.9484 75.627C46.0789 75.3061 46.0058 74.9408 45.7632 74.6955L43.081 72.0134V47.801L52.9617 51.125V75.2982C52.9617 75.7679 53.3426 76.1514 53.8148 76.1514H56.7187C57.1884 76.1514 57.5719 75.7705 57.5719 75.2982V53.1027C59.0956 52.7192 60.2306 51.3494 60.2306 49.7083V47.8532C60.2306 46.2147 59.0956 44.8449 57.5719 44.4614H57.5641ZM2.86189 59.8159C2.62707 58.5427 2.48618 57.1938 2.48618 55.7614C2.48618 54.329 2.62446 52.9905 2.85928 51.7225C3.1802 52.9514 3.38631 54.2925 3.38631 55.7614C3.38631 57.2303 3.18281 58.5792 2.86189 59.8159ZM3.62635 62.7668C4.47952 60.7995 5.09266 58.4748 5.09266 55.7614C5.09266 53.0479 4.47952 50.7206 3.62635 48.7534C3.93422 47.8376 4.29167 46.9792 4.68303 46.1677C6.09716 48.7012 7.19559 51.8973 7.19559 55.7614C7.19559 59.6254 6.09977 62.8216 4.68303 65.355C4.29167 64.5436 3.93161 63.6852 3.62635 62.7668ZM12.0198 74.2598C10.9057 73.4458 7.96527 71.0585 5.64318 67.1553C7.43302 64.2853 8.90193 60.5021 8.90193 55.7588C8.90193 51.0154 7.43302 47.2349 5.64318 44.3623C7.96788 40.4617 10.9057 38.0743 12.0198 37.2577C13.1339 38.0717 16.0743 40.4591 18.399 44.3596C16.6092 47.2323 15.1403 51.0128 15.1403 55.7562C15.1403 60.4995 16.6118 64.2827 18.399 67.1527C16.0743 71.0533 13.1339 73.4406 12.0198 74.2546V74.2598ZM19.3566 65.3576C17.9398 62.8216 16.844 59.628 16.844 55.7614C16.844 51.8947 17.9398 48.7012 19.3566 46.1651C19.7479 46.9766 20.108 47.835 20.4159 48.7507C19.5627 50.718 18.9495 53.0453 18.9495 55.7614C18.9495 58.4774 19.5627 60.8021 20.4159 62.7694C20.108 63.6878 19.7479 64.5462 19.3566 65.3576ZM21.1777 59.8211C20.8568 58.5818 20.6533 57.2381 20.6533 55.7614C20.6533 54.2846 20.8568 52.9409 21.1777 51.7016C21.4125 52.9749 21.5534 54.3264 21.5534 55.7614C21.5534 57.1964 21.4125 58.5479 21.1777 59.8211ZM22.6258 61.2196C23.0119 59.5393 23.2598 57.7338 23.2598 55.7614C23.2598 54.6003 23.158 53.5097 23.0145 52.4504L23.839 45.0145C24.0477 45.2833 24.2643 45.5468 24.486 45.8051V61.217H22.6258V61.2196ZM32.9238 66.5865V74.4503H24.4625L25.9393 72.9762C26.0985 72.817 26.1872 72.5978 26.1872 72.3708V66.2656H32.9212V66.5865H32.9238ZM26.1898 64.5592V57.6738H41.3669V64.5592H26.1898ZM26.1898 55.9675V47.5767C27.1551 48.4768 28.1779 49.33 29.3155 50.0605L33.3152 52.6357C33.4561 52.727 33.6178 52.7714 33.777 52.7714C33.9362 52.7714 34.0979 52.727 34.2388 52.6357L38.2385 50.0605C39.3761 49.3274 40.3989 48.4768 41.3669 47.574V55.9675H26.1898ZM43.0915 74.4503H34.6302V66.2656H41.3669V72.3708C41.3669 72.5978 41.4556 72.8144 41.6147 72.9762L43.0915 74.4503ZM37.3149 48.6281L33.777 50.9059L30.2391 48.6281C26.7142 46.3556 24.0607 43.1229 22.477 39.3998L25.5531 39.0867C26.0228 39.0397 26.3646 38.6196 26.315 38.1526C26.268 37.683 25.8375 37.3725 25.381 37.3908L21.8717 37.7482C21.7647 37.4221 21.6447 37.1012 21.556 36.7698L24.7078 36.4489C25.1774 36.4019 25.5192 35.9818 25.4697 35.5148C25.4201 35.0452 24.9844 34.7086 24.5356 34.753L21.1986 35.0922C20.9742 33.8685 20.8177 32.624 20.8177 31.3481V20.8204C20.8177 15.3779 25.2453 10.9528 30.6826 10.9528H36.8714C42.3113 10.9528 46.7364 15.3805 46.7364 20.8204V31.3481C46.7364 32.6213 46.5824 33.8659 46.3554 35.0895L43.0184 34.7504C42.5722 34.706 42.1313 35.0426 42.0844 35.5122C42.0348 35.9819 42.3766 36.4019 42.8462 36.4463L45.998 36.7672C45.9093 37.0985 45.7893 37.4195 45.6823 37.7456L42.1757 37.3882C41.7191 37.3699 41.286 37.6804 41.2416 38.15C41.192 38.6196 41.5338 39.0397 42.0035 39.0841L45.077 39.3972C43.4933 43.1203 40.8398 46.353 37.3149 48.6255V48.6281ZM52.9512 49.33L43.0706 46.006V45.8077C44.062 44.6519 44.9544 43.4178 45.6849 42.0923L52.9486 45.9616V49.33H52.9512ZM55.8551 45.2024V74.4529H54.655V21.3292H55.8551V45.1998V45.2024ZM55.8551 19.6255H54.655V16.6902H55.8551V19.6255ZM55.5159 14.9865H54.9967L53.4469 11.4773L55.255 4.31792L57.0658 11.4773L55.5159 14.9865ZM58.5138 49.7135C58.5138 50.3997 58.1276 50.9998 57.5615 51.305V46.2695C58.1276 46.5748 58.5138 47.1722 58.5138 47.861V49.7161V49.7135Z" fill="#122B18"/>
<path d="M23.3954 21.6709H44.1585C44.6282 21.6709 45.0117 21.29 45.0117 20.8178C45.0117 20.3455 44.6308 19.9646 44.1585 19.9646H23.3954C22.9258 19.9646 22.5422 20.3455 22.5422 20.8178C22.5422 21.29 22.9232 21.6709 23.3954 21.6709Z" fill="#122B18"/>
<path d="M36.1043 33.3544V25.2062C36.1043 24.7366 35.7234 24.353 35.2512 24.353C34.7789 24.353 34.398 24.734 34.398 25.2062V33.7066C34.398 33.9336 34.4867 34.1502 34.6459 34.3119L36.2948 35.9583H31.2593L32.9082 34.3119C33.0674 34.1528 33.1561 33.9336 33.1561 33.7066V25.2062C33.1561 24.7366 32.7751 24.353 32.3029 24.353C31.8306 24.353 31.4497 24.734 31.4497 25.2062V33.3544L28.5954 36.2061C28.3527 36.4514 28.2797 36.8167 28.4101 37.1376C28.5432 37.4559 28.8537 37.6646 29.1981 37.6646H38.3508C38.6952 37.6646 39.0057 37.4559 39.1387 37.1376C39.2692 36.8167 39.1961 36.4514 38.9535 36.2061L36.0991 33.3544H36.1043Z" fill="#122B18"/>
<path d="M29.7355 28.7728C29.7355 28.3032 29.3546 27.9197 28.8823 27.9197H22.8423C22.3727 27.9197 21.9891 28.3006 21.9891 28.7728C21.9891 29.2451 22.3701 29.626 22.8423 29.626H28.8823C29.352 29.626 29.7355 29.2451 29.7355 28.7728Z" fill="#122B18"/>
<path d="M45.2466 28.7728C45.2466 28.3032 44.8656 27.9197 44.3934 27.9197H38.3533C37.8837 27.9197 37.5002 28.3006 37.5002 28.7728C37.5002 29.2451 37.8811 29.626 38.3533 29.626H44.3934C44.863 29.626 45.2466 29.2451 45.2466 28.7728Z" fill="#122B18"/>
<path d="M37.5002 41.1975H30.0564C29.5868 41.1975 29.2032 41.5784 29.2032 42.0507C29.2032 44.0023 30.7922 45.5912 32.7438 45.5912H34.8102C36.7618 45.5912 38.3533 44.0023 38.3533 42.0507C38.3533 41.581 37.9724 41.1975 37.5002 41.1975ZM34.8102 43.8849H32.7438C32.0393 43.8849 31.4262 43.4883 31.1209 42.9039H36.4356C36.1278 43.4883 35.5146 43.8849 34.8102 43.8849Z" fill="#122B18"/>
<path d="M28.371 17.7286C28.3892 17.7443 28.4153 17.7391 28.4336 17.7521C28.5797 17.8565 28.7415 17.9269 28.9163 17.9269C29.0911 17.9269 29.2528 17.8565 29.399 17.7521C29.4172 17.7391 29.4433 17.7443 29.4616 17.7286L31.3453 16.158L33.2291 17.7286C33.2474 17.7443 33.2735 17.7391 33.2917 17.7521C33.4378 17.8565 33.5996 17.9269 33.7744 17.9269C33.9492 17.9269 34.111 17.8565 34.2571 17.7521C34.2753 17.7391 34.3014 17.7443 34.3197 17.7286L36.2061 16.158L38.0898 17.7286C38.1081 17.7443 38.1342 17.7391 38.1525 17.7521C38.2986 17.8565 38.4603 17.9269 38.6351 17.9269C38.8099 17.9269 38.9717 17.8565 39.1178 17.7521C39.1361 17.7391 39.1622 17.7443 39.1804 17.7286L41.6095 15.704C41.9722 15.4013 42.0191 14.8638 41.7191 14.5012C41.4138 14.1359 40.8763 14.0889 40.5163 14.3916L38.6325 15.9623L36.7488 14.3916C36.7253 14.3707 36.694 14.3655 36.6705 14.3472C36.6209 14.3133 36.5687 14.2846 36.5139 14.2638C36.4644 14.2429 36.4174 14.2298 36.3652 14.2194C36.3104 14.209 36.2582 14.2037 36.2035 14.2037C36.1487 14.2037 36.0965 14.209 36.0417 14.2194C35.9895 14.2298 35.9425 14.2429 35.893 14.2638C35.8382 14.2872 35.7886 14.3133 35.739 14.3472C35.713 14.3655 35.6843 14.3707 35.6608 14.3916L33.7744 15.9623L31.8906 14.3916C31.8645 14.3707 31.8358 14.3655 31.8098 14.3472C31.7602 14.3133 31.7106 14.2872 31.6558 14.2638C31.6062 14.2429 31.5567 14.2298 31.5045 14.2194C31.4497 14.209 31.3975 14.2037 31.3427 14.2037C31.2879 14.2037 31.2357 14.209 31.181 14.2194C31.1288 14.2298 31.0792 14.2429 31.0322 14.2638C30.9774 14.2872 30.9279 14.3159 30.8757 14.3499C30.8496 14.3681 30.8209 14.3733 30.7974 14.3916L28.9137 15.9623L27.0299 14.3916C26.6646 14.0863 26.1298 14.1359 25.8271 14.5012C25.5245 14.8638 25.574 15.4013 25.9367 15.704L28.3658 17.7286H28.371Z" fill="#122B18"/>
<path d="M12.0172 40.6208C11.5475 40.6208 11.164 41.0018 11.164 41.474V70.0514C11.164 70.521 11.5449 70.9046 12.0172 70.9046C12.4894 70.9046 12.8703 70.5236 12.8703 70.0514V41.474C12.8703 41.0044 12.4894 40.6208 12.0172 40.6208Z" fill="#122B18"/>
</svg>
