 <svg style="max-width:271px;" width="273" height="172" viewBox="0 0 273 172" fill="none"
                            xmlns="http://www.w3.org/2000/svg">
                            <g clip-path="url(#clip0_0_75)">
                                <path
                                    d="M197.819 100.422V35.7715C197.819 35.2073 197.567 34.7123 197.181 34.3585L200.492 26.8726C200.667 26.4791 200.702 26.0361 200.598 25.6204L194.484 1.4205C194.465 1.33883 194.41 1.27697 194.378 1.20025C194.326 1.06662 194.274 0.937937 194.195 0.819153C194.133 0.727589 194.057 0.655824 193.978 0.576634C193.881 0.475172 193.787 0.37866 193.669 0.301945C193.57 0.237603 193.461 0.198008 193.352 0.15099C193.263 0.113869 193.186 0.0495277 193.09 0.0247809C193.055 0.0148822 193.023 0.0247809 192.989 0.0198316C192.868 -0.00491519 192.749 0.00250885 192.625 0.00250885C192.494 0.00250885 192.366 -0.00491518 192.237 0.0223063C192.208 0.0297303 192.178 0.0198316 192.148 0.0272556C192.059 0.0495277 191.992 0.10892 191.908 0.141091C191.787 0.190584 191.669 0.235129 191.56 0.309369C191.449 0.383609 191.36 0.475172 191.268 0.56921C191.189 0.650874 191.107 0.727589 191.043 0.821627C190.964 0.940412 190.915 1.0691 190.863 1.20273C190.831 1.27944 190.779 1.34131 190.756 1.42545L184.643 25.6253C184.537 26.0411 184.574 26.484 184.749 26.8775L188.057 34.3659C187.671 34.7173 187.422 35.2147 187.422 35.7765V99.44L172.688 91.5854C174.117 88.4326 175.232 85.1413 175.986 81.7238C176 81.6595 176.062 81.6248 176.07 81.558C176.077 81.4937 176.052 81.4367 176.052 81.3749C176.787 77.9375 177.246 74.4161 177.246 70.808V47.0263C177.246 32.6138 165.536 20.8913 151.139 20.8913H137.179C122.781 20.8913 111.071 32.6138 111.071 47.0263V70.808C111.071 74.4087 111.531 77.9252 112.262 81.3576C112.262 81.4268 112.235 81.4887 112.243 81.558C112.25 81.6298 112.319 81.6693 112.336 81.7386C113.523 87.1087 115.58 92.1843 118.396 96.8342C118.396 96.8441 118.388 96.849 118.388 96.8589L117.209 107.507C110.789 89.7022 96.8562 80.6721 96.0898 80.192C95.4693 79.796 94.6659 79.796 94.0454 80.192C93.0491 80.8156 69.7051 95.8542 69.7051 125.951C69.7051 156.048 93.0466 171.087 94.0454 171.71C94.3569 171.908 94.7128 172.007 95.0688 172.007C95.4248 172.007 95.7808 171.908 96.0923 171.71C96.8908 171.211 111.988 161.443 117.983 142.128H123.191V162.661L117.137 168.719C116.591 169.27 116.425 170.097 116.722 170.817C117.024 171.537 117.723 172.005 118.502 172.005H169.82C170.596 172.005 171.298 171.535 171.6 170.817C171.897 170.097 171.731 169.27 171.185 168.719L165.131 162.661V107.978L187.424 115.483V170.082C187.424 171.146 188.287 172.007 189.347 172.007H195.901C196.964 172.007 197.824 171.144 197.824 170.082V119.95C201.258 119.084 203.816 115.991 203.816 112.284V108.094C203.816 104.392 201.255 101.296 197.824 100.43L197.819 100.422ZM74.3971 135.112C73.8656 132.234 73.5467 129.188 73.5467 125.944C73.5467 122.7 73.8607 119.678 74.3897 116.812C75.1165 119.594 75.5813 122.623 75.5813 125.944C75.5813 129.265 75.1215 132.314 74.3971 135.112ZM76.1202 141.774C78.0459 137.332 79.4303 132.076 79.4303 125.944C79.4303 119.812 78.0484 114.555 76.1202 110.111C76.8148 108.035 77.6282 106.092 78.5156 104.253C81.7047 109.975 84.1768 117.196 84.1768 125.944C84.1768 134.692 81.7022 141.891 78.5058 147.615C77.6232 145.783 76.8124 143.846 76.1202 141.774ZM95.0589 167.724C92.5448 165.885 85.9122 160.493 80.6688 151.683C84.7058 145.199 88.0233 136.654 88.0233 125.944C88.0233 115.233 84.7058 106.688 80.6688 100.205C85.9122 91.3924 92.5448 86.0025 95.0589 84.1638C97.5731 86.005 104.203 91.3948 109.447 100.205C105.41 106.688 102.09 115.233 102.09 125.946C102.09 136.659 105.407 145.202 109.447 151.688C104.203 160.498 97.5731 165.888 95.0589 167.729V167.724ZM111.6 147.634C108.408 141.913 105.939 134.692 105.939 125.944C105.939 117.196 108.413 109.997 111.61 104.271C112.492 106.102 113.303 108.04 113.995 110.111C112.069 114.553 110.685 119.809 110.685 125.944C110.685 132.079 112.067 137.332 113.995 141.774C113.301 143.853 112.485 145.796 111.6 147.634ZM115.726 135.073C114.996 132.294 114.532 129.265 114.532 125.944C114.532 122.623 114.996 119.591 115.723 116.812C116.252 119.678 116.566 122.714 116.566 125.944C116.566 129.173 116.252 132.207 115.726 135.073ZM118.986 138.268C119.859 134.474 120.415 130.393 120.415 125.941C120.415 123.321 120.185 120.858 119.862 118.465L121.723 101.667C122.195 102.274 122.68 102.867 123.182 103.451V138.265H118.986V138.268ZM142.229 150.386V168.145H123.137L126.469 164.811C126.83 164.45 127.031 163.96 127.031 163.45V149.661H142.229V150.389V150.386ZM127.031 145.806V130.252H161.272V145.806H127.031ZM127.031 126.399V107.446C129.211 109.482 131.52 111.405 134.086 113.061L143.112 118.881C143.428 119.084 143.794 119.188 144.155 119.188C144.516 119.188 144.882 119.084 145.198 118.881L154.224 113.061C156.787 111.408 159.094 109.487 161.274 107.451V126.399H127.033H127.031ZM165.165 168.142H146.078V149.656H161.272V163.445C161.272 163.957 161.472 164.445 161.833 164.806L165.165 168.14V168.142ZM152.137 109.819L144.155 114.969L136.172 109.819C128.217 104.689 122.232 97.3885 118.66 88.982L125.592 88.2718C126.65 88.1629 127.421 87.2176 127.31 86.1609C127.199 85.1017 126.207 84.2999 125.201 84.441L117.291 85.2502C117.051 84.5152 116.781 83.7902 116.576 83.0403L123.686 82.3128C124.744 82.2039 125.515 81.2586 125.404 80.2019C125.298 79.1402 124.361 78.3607 123.295 78.482L115.768 79.2516C115.258 76.4874 114.91 73.6761 114.91 70.7981V47.0164C114.91 34.7297 124.897 24.7344 137.169 24.7344H151.129C163.4 24.7344 173.387 34.7297 173.387 47.0164V70.7981C173.387 73.6761 173.039 76.4849 172.53 79.2516L165.002 78.482C163.964 78.3607 162.997 79.1477 162.893 80.2019C162.782 81.261 163.556 82.2064 164.611 82.3128L171.721 83.0403C171.519 83.7902 171.249 84.5128 171.009 85.2502L163.094 84.441C162.04 84.2999 161.089 85.1067 160.985 86.1609C160.874 87.2201 161.647 88.1654 162.703 88.2718L169.64 88.982C166.068 97.3885 160.083 104.691 152.127 109.819H152.137ZM187.417 111.405L165.123 103.902V103.456C167.365 100.843 169.378 98.0567 171.029 95.0574L187.419 103.795V111.405H187.417ZM193.97 102.078V168.142H191.263V48.1746H193.97V102.085V102.078ZM193.97 44.3141H191.263V37.6894H193.97V44.3141ZM193.199 33.8363H192.032L188.534 25.9124L192.618 9.73789L196.702 25.9099L193.199 33.8363ZM199.965 112.266C199.965 113.818 199.097 115.172 197.819 115.857V104.486C199.097 105.176 199.965 106.527 199.965 108.077V112.266Z"
                                    fill="#FFF9F0" />
                                <path
                                    d="M120.732 48.9467H167.576C168.639 48.9467 169.499 48.083 169.499 47.0214C169.499 45.9597 168.636 45.0961 167.576 45.0961H120.732C119.669 45.0961 118.808 45.9597 118.808 47.0214C118.808 48.083 119.671 48.9467 120.732 48.9467Z"
                                    fill="#FFF9F0" />
                                <path
                                    d="M149.401 75.3343V56.9375C149.401 55.8734 148.538 55.0122 147.478 55.0122C146.417 55.0122 145.554 55.8759 145.554 56.9375V76.1336C145.554 76.6458 145.755 77.1334 146.116 77.4947L149.834 81.2141H138.474L142.192 77.4947C142.553 77.1334 142.754 76.6434 142.754 76.1336V56.9375C142.754 55.8734 141.891 55.0122 140.83 55.0122C139.77 55.0122 138.907 55.8759 138.907 56.9375V75.3343L132.467 81.7783C131.921 82.3302 131.755 83.1567 132.052 83.8769C132.353 84.597 133.053 85.0647 133.832 85.0647H154.484C155.26 85.0647 155.962 84.5945 156.264 83.8769C156.56 83.1567 156.395 82.3302 155.848 81.7783L149.408 75.3343H149.401Z"
                                    fill="#FFF9F0" />
                                <path
                                    d="M135.029 64.9949C135.029 63.9308 134.167 63.0696 133.106 63.0696H119.48C118.417 63.0696 117.557 63.9332 117.557 64.9949C117.557 66.0565 118.419 66.9202 119.48 66.9202H133.106C134.169 66.9202 135.029 66.0565 135.029 64.9949Z"
                                    fill="#FFF9F0" />
                                <path
                                    d="M170.028 64.9949C170.028 63.9308 169.165 63.0696 168.104 63.0696H154.478C153.415 63.0696 152.555 63.9332 152.555 64.9949C152.555 66.0565 153.417 66.9202 154.478 66.9202H168.104C169.167 66.9202 170.028 66.0565 170.028 64.9949Z"
                                    fill="#FFF9F0" />
                                <path
                                    d="M152.548 93.053H135.755C134.692 93.053 133.832 93.9166 133.832 94.9783C133.832 99.3882 137.419 102.976 141.824 102.976H146.484C150.89 102.976 154.472 99.3882 154.472 94.9783C154.472 93.9142 153.609 93.053 152.548 93.053ZM146.484 99.1258H141.824C140.235 99.1258 138.848 98.2251 138.156 96.9061H150.148C149.456 98.2251 148.074 99.1258 146.484 99.1258Z"
                                    fill="#FFF9F0" />
                                <path
                                    d="M131.953 40.0428C131.995 40.0775 132.052 40.0651 132.097 40.0948C132.426 40.3299 132.794 40.4908 133.187 40.4908C133.58 40.4908 133.948 40.3299 134.277 40.0948C134.322 40.0651 134.379 40.0775 134.421 40.0428L138.67 36.4966L142.925 40.0428C142.967 40.0775 143.024 40.0651 143.068 40.0948C143.397 40.3299 143.765 40.4908 144.158 40.4908C144.551 40.4908 144.917 40.3299 145.246 40.0973C145.29 40.0651 145.35 40.08 145.392 40.0453L149.641 36.4991L153.891 40.0453C153.933 40.08 153.99 40.0676 154.034 40.0973C154.363 40.3324 154.731 40.4932 155.124 40.4932C155.517 40.4932 155.886 40.3324 156.215 40.0973C156.259 40.0676 156.316 40.08 156.358 40.0453L161.841 35.4696C162.657 34.7866 162.768 33.574 162.086 32.7549C161.399 31.9358 160.187 31.8244 159.374 32.5099L155.124 36.0561L150.875 32.5099C150.818 32.4629 150.746 32.4481 150.687 32.4085C150.576 32.3367 150.469 32.2724 150.348 32.2253C150.232 32.1783 150.121 32.1461 150.002 32.1239C149.881 32.0991 149.762 32.0868 149.639 32.0868C149.515 32.0868 149.399 32.1016 149.275 32.1239C149.157 32.1461 149.046 32.1783 148.934 32.2253C148.811 32.2748 148.702 32.3392 148.588 32.4134C148.531 32.453 148.465 32.4654 148.41 32.5124L144.161 36.0586L139.906 32.5124C139.849 32.4629 139.778 32.4505 139.716 32.4085C139.607 32.3367 139.501 32.2748 139.385 32.2278C139.266 32.1808 139.152 32.1486 139.031 32.1239C138.91 32.0991 138.794 32.0868 138.67 32.0868C138.547 32.0868 138.433 32.1016 138.314 32.1239C138.191 32.1461 138.074 32.1808 137.958 32.2278C137.842 32.2748 137.736 32.3367 137.632 32.406C137.57 32.4456 137.498 32.4604 137.442 32.5099L133.192 36.0561L128.942 32.5099C128.122 31.8244 126.908 31.9358 126.231 32.7549C125.548 33.5716 125.659 34.7866 126.475 35.4696L131.958 40.0453L131.953 40.0428Z"
                                    fill="#FFF9F0" />
                                <path
                                    d="M95.062 91.7488C93.999 91.7488 93.1387 92.6124 93.1387 93.6741V158.211C93.1387 159.275 94.0014 160.136 95.062 160.136C96.1225 160.136 96.9853 159.273 96.9853 158.211V93.6741C96.9853 92.61 96.1225 91.7488 95.062 91.7488Z"
                                    fill="#FFF9F0" />
                                <path
                                    d="M30.692 101.071C30.692 105.092 29.1741 108.346 26.1433 110.831C23.1076 113.315 19.1102 114.558 14.1487 114.558C9.85465 114.558 5.81771 114.006 2.0354 112.9V98.7618H2.15406L9.95353 112.249C10.3095 112.88 10.7397 113.236 11.2539 113.313C11.8447 113.392 12.6728 113.432 13.7358 113.432C16.1783 113.432 18.1288 112.84 19.5873 111.657C21.0434 110.474 21.7726 108.799 21.7726 106.629C21.7726 104.775 21.1596 103.286 19.9408 102.162C18.7196 101.039 16.6109 99.7666 13.6197 98.3461L11.7878 97.4577C10.2106 96.7103 8.87075 95.9902 7.7682 95.2998C6.66564 94.6093 5.53342 93.7407 4.37153 92.6964C3.20717 91.6521 2.32216 90.4098 1.71155 88.9695C1.10094 87.5317 0.796875 85.9232 0.796875 84.1489C0.796875 80.4022 2.19361 77.4054 4.99203 75.1584C7.78797 72.9113 11.5085 71.7878 16.1585 71.7878C19.9804 71.7878 23.7627 72.2407 27.503 73.1489V86.6359H27.3843L19.4093 73.8591C19.0929 73.384 18.6998 73.1093 18.2276 73.0301C17.795 72.9534 17.224 72.9113 16.5145 72.9113C14.386 72.9113 12.6827 73.483 11.4022 74.6263C10.1216 75.7696 9.48383 77.3682 9.48383 79.4173C9.48383 81.152 10.0623 82.5527 11.2267 83.6168C12.3885 84.6809 14.3069 85.8638 16.9867 87.1655L19.172 88.2296C20.7072 88.9794 21.9284 89.6006 22.8356 90.093C23.7429 90.5855 24.7565 91.2363 25.8788 92.0456C27.0036 92.8548 27.8664 93.6541 28.4794 94.441C29.0901 95.2305 29.6117 96.1981 30.0443 97.3389C30.4769 98.4822 30.6944 99.727 30.6944 101.066L30.692 101.071Z"
                                    fill="#122B18" />
                                <path
                                    d="M52.0246 84.6858V85.8687H44.7566V105.627C44.7566 106.968 45.0335 108.002 45.5847 108.732C46.136 109.462 46.9048 109.826 47.8887 109.826C49.3844 109.826 50.5289 109.096 51.3151 107.638L51.4337 107.698C51.0802 109.591 50.2026 111.19 48.8059 112.489C47.4067 113.791 45.4068 114.441 42.8086 114.441C37.6864 114.441 35.1278 111.741 35.1278 106.339V85.8712H31.877V84.6883H34.5369C35.3651 84.6883 35.9732 84.473 36.3688 84.0375L44.6404 74.75H44.7591V84.6883H52.027L52.0246 84.6858Z"
                                    fill="#122B18" />
                                <path
                                    d="M77.4885 86.1632L74.2402 95.4506H74.1215L69.4542 89.89C69.0982 89.457 68.7447 89.358 68.3887 89.5931C67.6422 90.1449 66.7942 91.2882 65.8474 93.023V108.995C65.8474 109.586 66.1416 110.078 66.7324 110.474L72.5246 113.845V113.964H52.7305V113.845L55.6253 111.123C55.9813 110.809 56.1568 110.336 56.1568 109.705V89.2367C56.1568 88.6453 55.9788 88.1528 55.6253 87.7594L52.7305 84.8021V84.6833H65.8474V92.2558C66.3987 89.9296 67.3257 88.0068 68.6261 86.4898C69.9239 84.9729 71.5407 84.2131 73.4714 84.2131C75.1648 84.2131 76.5046 84.864 77.4885 86.1657V86.1632Z"
                                    fill="#122B18" />
                                <path
                                    d="M103.787 96.1609C103.787 96.396 103.777 96.8019 103.757 97.3735C103.735 97.9452 103.728 98.252 103.728 98.2891L103.372 106.691C103.253 108.977 103.787 110.121 104.966 110.121C105.715 110.121 106.267 109.767 106.623 109.056H106.741C106.741 109.846 106.583 110.556 106.267 111.187C105.204 113.355 103.273 114.439 100.474 114.439C98.7019 114.439 97.2038 113.937 95.9826 112.929C94.7614 111.925 94.1112 110.514 94.0346 108.7C93.4438 110.435 92.4277 111.826 90.9914 112.87C89.5527 113.914 87.889 114.436 85.9978 114.436C83.7136 114.436 81.8026 113.696 80.2675 112.219C78.7323 110.739 77.961 108.7 77.961 106.097C77.961 103.337 78.9573 101.157 80.9448 99.5611C82.9324 97.965 85.2487 97.1656 87.889 97.1656C90.5292 97.1656 92.6527 97.6977 94.1508 98.7643L94.2694 92.434V92.1371C94.2694 87.6035 92.8331 85.3342 89.9556 85.3342C89.3673 85.3342 89.0014 85.3738 88.863 85.453C88.7245 85.5322 88.5589 85.7301 88.3611 86.0444L83.5751 94.9161H83.4565L79.7335 86.4577C83.9089 84.9605 87.8889 84.2107 91.6713 84.2107C95.8466 84.2107 98.8972 85.1189 100.83 86.9304C102.801 88.7839 103.785 91.8599 103.785 96.1584L103.787 96.1609ZM91.9679 98.9994C90.4698 98.9994 89.3005 99.571 88.4501 100.714C87.6047 101.858 87.1819 103.318 87.1819 105.092C87.1819 106.671 87.5058 107.903 88.1559 108.789C88.8061 109.678 89.6417 110.121 90.6676 110.121C92.0075 110.121 93.1298 109.43 94.0371 108.049V107.99L94.1557 99.3532C93.4462 99.1182 92.717 98.9994 91.9704 98.9994H91.9679Z"
                                    fill="#122B18" />
                                <path
                                    d="M153.245 84.8046L149.227 91.7238C148.597 92.7508 148.162 93.6367 147.927 94.3865L141.191 113.966H134.573L128.902 97.5219L123.228 113.966H116.551L108.93 91.4887C108.378 89.9519 107.963 88.9076 107.691 88.3533L105.859 84.8046V84.6858H120.573V84.8046L118.563 88.1751C118.287 88.6478 118.23 89.1402 118.385 89.6549L124.237 107.577L128.313 95.7476L126.894 91.4887C126.462 90.187 126.047 89.1427 125.656 88.3533L123.824 84.8046V84.6858H138.538V84.8046L136.528 88.1751C136.251 88.6478 136.195 89.1402 136.35 89.6549L142.259 107.517L146.75 94.2084C146.946 93.6169 147.035 93.2234 147.015 93.0255C146.993 92.83 146.847 92.4736 146.57 91.9613L143.144 84.8046V84.6858H153.247V84.8046H153.245Z"
                                    fill="#122B18" />
                                <path
                                    d="M155.963 123.192V89.2392C155.963 88.6478 155.785 88.1553 155.432 87.7618L152.537 84.8046V84.6858H165.595V90.9566C167.525 86.4601 170.578 84.2131 174.754 84.2131C178.064 84.2131 180.751 85.5247 182.82 88.1479C184.889 90.771 185.923 94.29 185.923 98.7073C185.923 103.399 184.741 107.195 182.378 110.093C180.014 112.991 177.021 114.441 173.397 114.441C169.34 114.441 166.739 112.944 165.597 109.945V122.84C165.597 123.234 165.647 123.511 165.746 123.669C165.844 123.825 166.092 124.043 166.485 124.32L170.858 127.337V127.456H152.54V127.337L155.434 124.617C155.79 124.263 155.966 123.788 155.966 123.197L155.963 123.192ZM170.027 88.9447C168.294 88.9447 166.816 89.8727 165.595 91.7238V109.529C166.5 110.514 167.78 111.009 169.436 111.009C171.093 111.009 172.598 110.034 173.839 108.081C175.08 106.129 175.701 103.164 175.701 99.18C175.701 92.3573 173.812 88.9472 170.03 88.9472L170.027 88.9447Z"
                                    fill="#122B18" />
                                <path
                                    d="M214.226 96.1609C214.226 96.396 214.217 96.8019 214.197 97.3735C214.174 97.9452 214.167 98.252 214.167 98.2891L213.811 106.691C213.692 108.977 214.226 110.121 215.406 110.121C216.155 110.121 216.706 109.767 217.062 109.056H217.181C217.181 109.846 217.022 110.556 216.706 111.187C215.643 113.355 213.712 114.439 210.914 114.439C209.141 114.439 207.643 113.937 206.422 112.929C205.201 111.925 204.551 110.514 204.474 108.7C203.883 110.435 202.867 111.826 201.431 112.87C199.992 113.914 198.328 114.436 196.437 114.436C194.153 114.436 192.242 113.696 190.707 112.219C189.172 110.739 188.4 108.7 188.4 106.097C188.4 103.337 189.397 101.157 191.384 99.5611C193.372 97.965 195.688 97.1656 198.328 97.1656C200.969 97.1656 203.092 97.6977 204.59 98.7643L204.709 92.434V92.1371C204.709 87.6035 203.273 85.3342 200.395 85.3342C199.807 85.3342 199.441 85.3738 199.302 85.453C199.164 85.5322 198.998 85.7301 198.801 86.0444L194.015 94.9161H193.896L190.173 86.4577C194.348 84.9605 198.328 84.2107 202.111 84.2107C206.286 84.2107 209.337 85.1189 211.27 86.9304C213.24 88.7839 214.224 91.8599 214.224 96.1584L214.226 96.1609ZM202.407 98.9994C200.909 98.9994 199.74 99.571 198.89 100.714C198.044 101.858 197.621 103.318 197.621 105.092C197.621 106.671 197.945 107.903 198.595 108.789C199.245 109.678 200.081 110.121 201.107 110.121C202.447 110.121 203.569 109.43 204.476 108.049V107.99L204.595 99.3532C203.886 99.1182 203.156 98.9994 202.41 98.9994H202.407Z"
                                    fill="#122B18" />
                                <path
                                    d="M237.683 84.6858V85.8687H230.415V105.627C230.415 106.968 230.692 108.002 231.243 108.732C231.794 109.462 232.563 109.826 233.547 109.826C235.043 109.826 236.187 109.096 236.973 107.638L237.092 107.698C236.738 109.591 235.861 111.19 234.464 112.489C233.065 113.791 231.065 114.441 228.467 114.441C223.345 114.441 220.786 111.741 220.786 106.339V85.8712H217.535V84.6883H220.195C221.023 84.6883 221.631 84.473 222.027 84.0375L230.299 74.75H230.417V84.6883H237.685L237.683 84.6858Z"
                                    fill="#122B18" />
                                <path
                                    d="M269.416 96.693C269.416 98.1135 269.386 100.469 269.327 103.761C269.267 107.054 269.238 109.037 269.238 109.705C269.238 110.296 269.433 110.769 269.826 111.123L272.721 113.845V113.964H256.175V113.845L258.954 111.123C259.347 110.769 259.545 110.316 259.545 109.762C259.545 109.643 259.574 107.938 259.634 104.644C259.693 101.353 259.723 99.1528 259.723 98.0491C259.723 95.0919 259.396 92.8647 258.749 91.365C258.098 89.8679 256.927 89.118 255.231 89.118C253.535 89.118 252.02 90.004 250.798 91.7808V109.705C250.798 110.296 250.994 110.769 251.389 111.123L254.284 113.845V113.964H237.738V113.845L240.633 111.123C240.987 110.769 241.165 110.294 241.165 109.705V76.6976C241.165 76.0666 240.987 75.5741 240.633 75.2178L237.738 72.4981V72.3793L250.796 70.8425V91.1299C252.41 86.5171 255.545 84.2107 260.192 84.2107C263.186 84.2107 265.47 85.2749 267.048 87.4056C268.622 89.5338 269.411 92.6321 269.411 96.6905L269.416 96.693Z"
                                    fill="#122B18" />
                            </g>
                            <defs>
                                <clipPath id="clip0_0_75">
                                    <rect width="271.931" height="172" fill="white" transform="translate(0.791016)" />
                                </clipPath>
                            </defs>
                        </svg>