<svg width="163" height="70" viewBox="0 0 163 70" fill="none" xmlns="http://www.w3.org/2000/svg">
<path d="M97.9717 32.5661C98.2036 31.2584 98.549 30.1679 98.5638 29.0774C98.6231 24.064 98.5885 19.0506 98.5885 14.0372C98.5885 13.6277 98.5885 13.2132 98.5638 12.8036C98.48 11.3628 97.947 10.519 97.0095 10.3216C96.1854 10.1489 94.8383 10.7904 94.3942 11.8266C93.9847 12.7839 93.6738 13.8596 93.659 14.886C93.585 19.7316 93.5998 24.5821 93.659 29.4278C93.6689 30.1087 94.0587 30.7897 94.2709 31.4706C94.3844 31.8358 94.4929 32.2009 94.6854 32.8375C91.7444 32.872 89.0157 32.8621 85.8231 32.8375C87.5798 30.5232 87.1554 28.283 87.1702 26.1168C87.1949 21.9274 87.1604 17.7331 87.185 13.5438C87.19 12.3003 87.2245 11.0815 86.1241 10.1834C87.9301 9.22123 89.4055 8.97451 93.4567 8.91529C93.5455 9.58144 93.6393 10.2673 93.7429 11.0371C97.2661 6.9514 101.692 7.24253 104.737 11.5355C105.832 10.6177 106.799 9.38901 108.063 8.83142C111.763 7.18825 116.185 8.60937 116.767 14.5702C116.905 15.9518 116.792 17.3631 116.792 18.7595C116.792 21.4734 116.777 24.1825 116.797 26.8964C116.811 28.8258 116.431 30.8193 118.001 32.7042H109.316C109.425 32.2207 109.395 31.8259 109.582 31.6285C110.332 30.8242 110.328 29.862 110.323 28.8652C110.308 23.9357 110.337 19.0013 110.298 14.0718C110.288 13.1885 110.13 12.2707 109.844 11.4368C109.499 10.4203 108.448 10.0897 107.426 10.4795C106.222 10.9384 105.645 11.8908 105.452 13.0849C105.339 13.8103 105.339 14.5603 105.339 15.2955C105.329 19.8994 105.299 24.4983 105.359 29.1021C105.373 30.2074 105.714 31.3078 105.906 32.418C104.386 32.9806 100.064 33.0447 97.9717 32.5562V32.5661Z" fill="#122B18"/>
<path d="M23.3721 0.857968V10.5936C22.7208 10.6627 22.0448 10.7318 21.2256 10.8157C20.8111 9.64127 20.4904 8.55569 20.0512 7.51946C19.4492 6.09341 18.9163 4.60321 18.0775 3.31532C16.3998 0.749408 13.3256 0.665526 11.5097 3.11794C10.7449 4.14924 10.1231 5.37298 9.76786 6.60166C9.10665 8.87643 8.65761 11.2055 8.70696 13.6135C8.77111 16.6531 8.63788 19.7026 8.76617 22.7373C8.84019 24.4347 9.11158 26.1667 9.58035 27.8C10.513 31.0765 11.9538 32.0486 15.2895 31.9893C15.778 31.9795 16.2616 31.9203 16.8735 31.8709C17.3817 29.8429 17.0511 27.8 17.1103 25.7818C17.1695 23.8179 17.1251 21.8491 17.1251 20.0825C16.2665 18.6417 14.1102 18.5923 14.0855 16.5594C15.7484 16.0659 17.3077 16.3768 18.8374 16.3176C20.3029 16.2633 21.7783 16.3077 23.1994 16.3077C23.7373 18.2173 23.8804 25.7424 23.53 32.2114C19.1729 33.4351 14.727 33.8891 10.2613 32.8331C5.62293 31.7328 2.61293 28.6833 1.50761 24.109C0.362822 19.3621 0.357887 14.5461 1.7346 9.7745C3.2248 4.61801 7.77928 0.779017 13.8931 0.295442C16.3652 0.0980644 18.7979 0.320117 21.2454 0.399068C21.9461 0.423741 22.6369 0.695129 23.3622 0.8629L23.3721 0.857968Z" fill="#122B18"/>
<path d="M76.7871 68.8346H68.1371C68.0532 68.583 67.9199 68.3708 67.9693 68.3017C69.0006 66.9645 68.9118 65.4101 68.9118 63.8508C68.897 57.1104 68.9118 50.3699 68.9019 43.6295C68.9019 41.9271 69.2424 40.1557 67.387 38.5026C70.3033 38.2065 72.6323 37.9697 75.0157 37.7279C75.6522 39.3809 75.2575 40.9402 75.3315 42.46C75.4006 43.9305 75.3463 45.4059 75.3463 47.3106C76.496 45.771 77.6901 44.9815 79.205 44.5868C82.7973 43.6492 85.8073 45.2924 86.7448 48.8945C87.0113 49.911 87.1445 50.9917 87.1593 52.0427C87.2087 55.9903 87.1889 59.9329 87.1741 63.8804C87.1692 65.5137 86.9817 67.1668 88.314 68.5188C86.4192 69.0369 82.4519 69.1011 79.8958 68.7113C79.8514 68.5632 79.7281 68.3461 79.7823 68.2671C80.784 66.9151 80.6952 65.3558 80.6903 63.8015C80.6755 59.4444 80.71 55.0873 80.6656 50.7302C80.6557 49.763 80.5176 48.7564 80.2264 47.8336C79.807 46.5112 78.4796 46.1115 77.2411 46.7727C76.0174 47.4241 75.6621 48.6133 75.4154 49.8222C75.2871 50.4538 75.3512 51.1298 75.3512 51.7911C75.3512 55.7386 75.3413 59.6812 75.3512 63.6288C75.3512 65.3312 75.0848 67.0878 76.7871 68.8346Z" fill="#122B18"/>
<path d="M81.7325 1.7262V4.45494C81.7325 12.1675 81.7325 19.8849 81.7325 27.5975C81.7325 29.29 81.3871 31.0516 83.1339 32.6158C80.4594 33.0253 78.2982 32.8181 75.9938 32.8329C75.8704 31.846 75.7619 30.9825 75.599 29.6601C75.1747 30.2917 74.9427 30.5483 74.8095 30.8493C73.9657 32.7934 72.2929 33.4152 70.408 33.3214C67.8174 33.1981 65.6167 32.1421 64.383 29.7292C63.7218 28.4363 63.1346 27.0596 62.7991 25.6533C61.8714 21.7699 61.8961 17.8519 63.1593 14.0524C64.013 11.4915 65.4884 9.33511 68.3306 8.59001C70.6646 7.97321 72.8802 7.92879 74.5381 10.1296C74.6664 10.2973 74.9181 10.3713 75.2437 10.5687C75.0562 7.81036 75.826 5.08655 74.2371 2.57492C76.6599 1.53375 79.0581 1.97785 81.7276 1.7262H81.7325ZM68.9178 20.4919C69.0954 23.0134 69.2435 25.5497 69.4754 28.0761C69.5395 28.7965 69.7912 29.512 70.033 30.2029C70.3192 31.017 70.9162 31.6881 71.76 31.7769C72.7074 31.8756 73.5512 31.3624 73.9509 30.4841C74.3457 29.6058 74.6713 28.6534 74.8095 27.706C75.4905 23.0529 75.1944 18.3849 74.8095 13.7268C74.7355 12.8484 74.4098 11.98 74.0891 11.146C73.7437 10.243 73.1071 9.69532 72.0265 9.72987C70.9508 9.76441 70.3735 10.3812 70.0083 11.2497C69.7566 11.8467 69.5395 12.4931 69.4803 13.1346C69.2583 15.5772 69.1004 18.0296 68.9227 20.4968L68.9178 20.4919Z" fill="#122B18"/>
<path d="M22.0346 36.889V46.8369C21.477 46.8912 20.944 46.9405 20.1693 47.0096C19.8239 46.1115 19.4686 45.1444 19.0838 44.1871C18.4472 42.5982 17.9192 40.9501 17.1051 39.455C16.0343 37.4861 13.9075 36.8545 11.8153 37.6341C9.02244 38.6802 8.06516 42.3021 10.0389 44.8187C10.7791 45.7612 11.8104 46.5211 12.8368 47.1724C14.7661 48.4011 16.8139 49.4423 18.763 50.6512C22.2221 52.8026 23.732 56.0297 23.5001 60.0168C23.2484 64.3788 21.0625 67.0681 17.4406 68.43C14.2036 69.6488 10.863 69.6241 7.4977 69.2294C6.14073 69.0715 4.78869 68.8445 3.3725 68.6422V56.2617C4.00905 56.2271 4.62585 56.1926 5.35615 56.1531C5.98776 57.9936 6.56015 59.7651 7.20657 61.507C7.69014 62.8097 8.19345 64.1123 8.82999 65.341C10.0587 67.7096 11.5193 68.4448 13.7842 68.0106C15.6987 67.6405 17.263 65.8345 17.5837 63.6584C18.0475 60.5299 16.8386 58.196 14.1839 56.612C12.4272 55.5659 10.5965 54.6432 8.80039 53.6661C6.57496 52.4572 4.77389 50.8387 3.85608 48.411C1.94152 43.3532 4.52223 38.3496 9.89583 36.9581C13.8385 35.9367 17.8353 36.1439 22.0346 36.8792V36.889Z" fill="#122B18"/>
<path d="M162.858 32.4283C161.309 32.9661 157.307 33.05 154.489 32.5615C155.969 29.9857 155.264 27.2076 155.348 24.4986C155.446 21.3801 155.372 18.2516 155.367 15.1281C155.367 14.388 155.363 13.6478 155.313 12.9126C155.205 11.3335 154.613 10.4651 153.571 10.2973C152.589 10.1394 151.41 10.8006 150.838 11.9997C150.532 12.6412 150.344 13.4011 150.339 14.1067C150.295 19.2829 150.265 24.4641 150.339 29.6403C150.354 30.6321 150.867 31.6141 151.188 32.7293H143.16C143.051 32.5368 142.878 32.3395 142.918 32.2704C143.89 30.5532 143.826 28.6781 143.811 26.7981C143.781 22.6877 143.811 18.5773 143.796 14.4718C143.791 12.9323 144.092 11.3286 142.622 10.1049C145.025 8.7775 147.453 9.58182 149.693 8.52585C150.009 9.38445 150.226 9.97165 150.443 10.5638C150.561 10.5391 150.739 10.5638 150.798 10.4848C152.2 8.71336 154.075 8.15577 156.251 8.26433C159.073 8.40249 161.096 9.99138 161.659 12.7349C161.935 14.0919 162.068 15.4933 162.088 16.8799C162.142 20.6596 162.108 24.4394 162.108 28.2241C162.108 29.8591 162.36 31.2637 162.863 32.4381L162.858 32.4283Z" fill="#122B18"/>
<path d="M45.03 68.845H38.5757C38.3734 68.2134 38.1366 67.4782 37.8059 66.4518C36.8339 68.1443 35.4868 69.0868 33.8781 69.3039C32.6248 69.4717 31.2777 69.2398 30.0194 68.9585C28.5687 68.6378 27.6311 67.5571 27.0439 66.2248C26.0225 63.9056 26.2149 60.6094 28.2973 58.4284C29.9947 56.652 32.1659 55.6997 34.3272 54.7226C35.4325 54.2243 36.5921 53.8394 37.8306 53.3657C37.8306 51.5054 37.8898 49.7043 37.8109 47.9082C37.7517 46.5068 36.972 45.5396 35.9259 45.3373C34.6726 45.0955 33.7992 45.7962 33.2909 46.7584C32.4126 48.4164 31.5984 50.1287 30.9964 51.9001C30.5523 53.2078 29.7727 53.4446 28.5095 53.2917V45.7173C29.3335 45.4903 30.1674 45.2238 31.0162 45.0413C33.8239 44.4491 36.6118 43.8866 39.5034 44.7403C42.4394 45.6038 43.9049 47.1137 44.275 50.2372C44.4773 51.9396 44.5464 53.6667 44.576 55.3888C44.6253 57.935 44.5365 60.491 44.6056 63.0372C44.6549 64.8876 44.8622 66.7331 45.0201 68.845H45.03ZM37.8454 54.7128C36.1776 55.2654 34.9292 55.9612 34.2235 57.3872C33.2663 59.3314 32.837 61.3693 33.1528 63.5207C33.2564 64.2362 33.3896 64.9863 33.6906 65.6327C34.3913 67.1278 36.0641 67.3351 37.0115 66.0077C37.4556 65.381 37.7813 64.5323 37.8059 63.7724C37.8948 60.8463 37.8405 57.9152 37.8405 54.7078L37.8454 54.7128Z" fill="#122B18"/>
<path d="M122.455 9.64553C126.185 8.61917 129.866 7.54347 133.75 8.72773C136.967 9.70969 138.467 11.6736 138.507 15.0339C138.551 18.646 138.492 22.258 138.526 25.87C138.546 28.1151 138.072 30.4343 139.637 32.5117C138.354 33.1187 137.199 32.7831 136.094 32.8423C134.954 32.9065 133.809 32.8571 132.536 32.8571C132.319 32.0676 132.126 31.3867 131.934 30.6909C131.82 30.7304 131.643 30.7353 131.579 30.8242C129.699 33.3308 127.246 33.849 124.369 32.9312C122.795 32.4278 121.606 31.5002 121.113 29.8718C119.973 26.0969 120.728 23.235 123.437 21.3106C124.952 20.2348 126.694 19.4601 128.381 18.641C129.477 18.1081 130.646 17.7331 131.924 17.2347C132.112 15.0537 132.418 12.8628 131.623 10.736C130.982 9.01392 129.126 8.64877 127.893 9.98107C127.35 10.5683 126.95 11.3183 126.605 12.0535C126.082 13.1539 125.657 14.3086 125.189 15.4336C124.971 15.9567 124.754 16.4748 124.503 17.0817H122.455V9.64059V9.64553ZM132.023 18.6854C127.828 19.9634 125.554 26.3782 127.898 29.8422C128.504 30.7403 129.496 30.9524 130.454 30.3998C131.48 29.8077 131.944 28.7813 131.983 27.7451C132.092 24.7449 132.023 21.7398 132.023 18.6854Z" fill="#122B18"/>
<path d="M47.2312 20.8284C47.3299 23.5029 46.7378 26.0392 45.514 28.4028C42.958 33.3471 36.4692 35.0791 31.6532 31.3091C30.2518 30.2088 29.3389 28.7383 28.7468 27.1149C27.1579 22.7232 27.0592 18.3316 28.9392 13.9646C31.0265 9.10911 36.2718 7.12547 40.7523 8.85252C43.0715 9.75059 44.7048 11.4579 45.7558 13.6932C46.8167 15.9482 47.3151 18.3365 47.2361 20.8333L47.2312 20.8284ZM40.5253 20.9666C40.4414 20.9616 40.3575 20.9567 40.2736 20.9518C40.2736 19.0619 40.4019 17.1621 40.2342 15.287C40.0911 13.6784 39.7012 12.0747 39.2374 10.5253C39.0006 9.74071 38.2851 9.2226 37.3228 9.26207C36.3557 9.30155 35.8178 9.90849 35.4774 10.6733C35.1862 11.3345 35.0234 12.0747 34.9 12.7951C34.1944 16.9499 34.3523 21.1393 34.525 25.3138C34.599 27.1692 35.0777 29.0196 35.4478 30.8552C35.6303 31.7631 36.4643 32.3404 37.234 32.2812C37.9347 32.227 38.7144 31.6694 39.2226 31.1118C39.6174 30.6775 39.7457 29.9176 39.8098 29.2811C40.0861 26.5178 40.2934 23.7446 40.5253 20.9764V20.9666Z" fill="#122B18"/>
<path d="M106.414 51.5207C105.151 52.0092 104.416 51.7773 103.991 50.5733C103.641 49.5716 103.212 48.5896 102.699 47.662C102.353 47.0353 101.884 46.4037 101.322 45.9744C99.9452 44.9332 98.2133 45.1701 97.1079 46.4185C96.2197 47.4202 96.1655 49.4531 97.1672 50.4943C97.9517 51.3085 98.909 51.9796 99.8663 52.5915C101.519 53.6474 103.32 54.4863 104.909 55.6261C107.599 57.5604 108.319 60.4273 107.756 63.4916C107.209 66.477 105.235 68.2879 102.2 69.0379C100.069 69.561 97.9616 69.4968 95.8447 69.3192C94.4828 69.2057 93.1407 68.8702 91.7146 68.6234V60.225C92.2031 60.1559 92.7262 60.0819 93.3627 59.9882C93.7624 61.0441 94.1078 62.036 94.5124 62.9982C94.9861 64.1232 95.4253 65.2828 96.047 66.3339C97.2856 68.4261 99.4666 69.033 101.273 67.908C102.955 66.8569 103.641 64.2614 102.536 62.4554C102.003 61.5771 101.204 60.7826 100.355 60.2004C99.1508 59.3714 97.7741 58.7891 96.4961 58.0637C95.7164 57.6196 94.9467 57.141 94.2262 56.6032C91.8528 54.8317 91.1471 52.3201 91.7393 49.6012C92.3117 46.9761 94.2756 45.4266 96.8612 44.8345C99.0176 44.3411 101.199 43.9759 103.424 44.6371C104.268 44.8888 105.195 44.8493 106.222 44.9579C106.617 47.1882 106.365 49.3594 106.409 51.5207H106.414Z" fill="#122B18"/>
<path d="M58.8001 32.5758C55.8592 33.0643 52.0301 32.9755 50.4412 32.4228C50.9774 31.255 51.2455 29.8553 51.2455 28.2236C51.2455 21.0736 51.2356 13.9187 51.2504 6.76869C51.2504 5.29329 51.359 3.8179 50.2339 2.53001C52.7702 1.7405 55.2177 1.79971 57.8626 1.84905C57.9021 2.60402 57.9662 3.31458 57.9711 4.03007C57.981 12.088 57.9711 20.141 57.9711 28.199C57.9711 29.8372 58.2458 31.2978 58.7952 32.5807L58.8001 32.5758Z" fill="#122B18"/>
<path d="M64.7129 45.3321V53.3654C63.958 53.3111 63.3461 53.2716 62.6553 53.2222C62.1125 51.6235 61.6092 50.079 61.0565 48.5444C60.7802 47.7796 60.494 46.9999 60.0745 46.3091C59.285 45.0064 58.0465 44.9324 57.0695 46.1216C56.1615 47.2269 55.752 48.5937 55.6434 49.9803C55.4115 53.0841 55.15 56.1977 55.1993 59.3064C55.2289 61.2407 55.5645 63.2392 56.1763 65.0748C57.0793 67.7789 59.6946 68.3611 61.8509 66.4219C62.8378 65.5337 63.5385 64.3198 64.4021 63.2194C64.5353 63.3921 64.8313 63.6142 64.8017 63.7622C63.879 67.8923 60.0351 70.2461 55.826 69.2839C51.9771 68.4055 49.4556 65.5633 48.7155 61.4184C48.222 58.6501 48.1283 55.9313 48.6612 53.1334C49.8109 47.1332 53.9361 43.9159 60.0252 44.3551C61.5499 44.4636 63.0451 44.9817 64.7228 45.3469L64.7129 45.3321Z" fill="#122B18"/>
</svg>
