<svg width="71" height="71" viewBox="0 0 71 71" fill="none" xmlns="http://www.w3.org/2000/svg">
<path d="M57.5454 0H8.45458C5.44764 0 3 2.44623 3 5.45458V54.5454C3 57.5536 5.44764 60 8.45458 60H57.5454C60.5524 60 63 57.5538 63 54.5454V5.45458C62.9999 2.44623 60.5524 0 57.5454 0ZM41.1818 57.2726H8.45458C6.94977 57.2726 5.72735 56.0488 5.72735 54.5454V13.6364H41.1818V57.2726ZM60.2726 54.5454C60.2726 56.0488 59.0501 57.2726 57.5454 57.2726H43.909V13.6364H60.2726V54.5454ZM60.2726 10.909H5.72723V5.45458C5.72723 3.95117 6.94977 2.72735 8.45445 2.72735H57.5453C59.0501 2.72735 60.2725 3.95117 60.2725 5.45458V10.909H60.2726Z" fill="#B7AC84"/>
<path d="M9.8168 8.18182C10.5699 8.18182 11.1805 7.57128 11.1805 6.81814C11.1805 6.06501 10.5699 5.45447 9.8168 5.45447C9.06366 5.45447 8.45312 6.06501 8.45312 6.81814C8.45312 7.57128 9.06366 8.18182 9.8168 8.18182Z" fill="#B7AC84"/>
<path d="M15.2738 8.18182C16.027 8.18182 16.6375 7.57128 16.6375 6.81814C16.6375 6.06501 16.027 5.45447 15.2738 5.45447C14.5207 5.45447 13.9102 6.06501 13.9102 6.81814C13.9102 7.57128 14.5207 8.18182 15.2738 8.18182Z" fill="#B7AC84"/>
<path d="M20.727 8.18182C21.4801 8.18182 22.0906 7.57128 22.0906 6.81814C22.0906 6.06501 21.4801 5.45447 20.727 5.45447C19.9738 5.45447 19.3633 6.06501 19.3633 6.81814C19.3633 7.57128 19.9738 8.18182 20.727 8.18182Z" fill="#B7AC84"/>
<path d="M48.0003 24.5455H56.1821C56.9358 24.5455 57.5458 23.9355 57.5458 23.1818C57.5458 22.428 56.9358 21.8181 56.1821 21.8181H48.0003C47.2465 21.8181 46.6366 22.428 46.6366 23.1818C46.6366 23.9355 47.2465 24.5455 48.0003 24.5455Z" fill="#B7AC84"/>
<path d="M48.0003 32.7272H56.1821C56.9358 32.7272 57.5458 32.1173 57.5458 31.3636C57.5458 30.6098 56.9358 29.9999 56.1821 29.9999H48.0003C47.2465 29.9999 46.6366 30.6098 46.6366 31.3636C46.6366 32.1173 47.2465 32.7272 48.0003 32.7272Z" fill="#B7AC84"/>
<path d="M48.0003 40.909H56.1821C56.9358 40.909 57.5458 40.2991 57.5458 39.5453C57.5458 38.7916 56.9358 38.1816 56.1821 38.1816H48.0003C47.2465 38.1816 46.6366 38.7916 46.6366 39.5453C46.6366 40.2991 47.2465 40.909 48.0003 40.909Z" fill="#B7AC84"/>
<path d="M48.0003 49.0909H53.4549C54.2086 49.0909 54.8185 48.481 54.8185 47.7272C54.8185 46.9735 54.2086 46.3635 53.4549 46.3635H48.0003C47.2465 46.3635 46.6366 46.9735 46.6366 47.7272C46.6366 48.481 47.2465 49.0909 48.0003 49.0909Z" fill="#B7AC84"/>
</svg>
