<svg width="71" height="71" viewBox="0 0 71 71" fill="none" xmlns="http://www.w3.org/2000/svg">
<g clip-path="url(#clip0_0_124)">
<path d="M43.6095 5.60321C39.9672 1.98657 35.1449 0.00012207 30.0154 0.00012207C29.969 0.00012207 29.9216 0.000239258 29.8751 0.00059082C24.8673 0.0358643 20.1257 1.99793 16.5239 5.5254C12.9213 9.05356 10.8622 13.7532 10.7261 18.7584C10.5842 23.9743 12.4947 28.9144 16.1057 32.6687C18.9493 35.6251 20.5153 39.5573 20.5153 43.7413V51.79C20.5153 53.4436 21.6633 54.8333 23.2039 55.2061V56.2793C23.2039 58.3309 24.873 60 26.9246 60H33.0769C35.1285 60 36.7976 58.3309 36.7976 56.2793V55.2123C38.3517 54.8491 39.513 53.4531 39.513 51.79V43.7415C39.513 39.6123 41.122 35.6346 44.0438 32.5413C47.4394 28.9464 49.3095 24.2422 49.3095 19.2954C49.3095 14.1157 47.2852 9.25301 43.6095 5.60321ZM34.454 56.2794C34.454 57.0387 33.8363 57.6564 33.0771 57.6564H26.9247C26.1655 57.6564 25.5478 57.0387 25.5478 56.2794V55.3052H34.454V56.2794ZM37.1694 51.79C37.1694 52.4359 36.6439 52.9615 35.9978 52.9615H35.6259H24.3759H24.0307C23.3846 52.9615 22.8591 52.4359 22.8591 51.79V45.1249H37.1694V51.79ZM28.1733 42.7812V27.9585H31.8242V42.7811H28.1733V42.7812ZM42.3401 30.9319C39.2321 34.2225 37.4255 38.3984 37.1947 42.7811H34.168V27.9585H35.2212C37.0944 27.9585 38.6184 26.4346 38.6184 24.5613V24.3797C38.6184 22.5064 37.0944 20.9825 35.2212 20.9825C33.3481 20.9825 31.8242 22.5064 31.8242 24.3797V25.6147H28.1733V24.3797C28.1733 22.5064 26.6494 20.9825 24.7763 20.9825H24.5455C22.6723 20.9825 21.1484 22.5064 21.1484 24.3797V24.5613C21.1484 26.4345 22.6723 27.9585 24.5455 27.9585H25.8296V42.7811H22.835C22.6113 38.3487 20.8416 34.2114 17.795 31.0439C14.6227 27.7458 12.9442 23.4053 13.0691 18.8222C13.3144 9.79993 20.861 2.40797 29.8917 2.34422C34.4496 2.31223 38.7292 4.0602 41.9582 7.26633C45.1876 10.4728 46.9659 14.7449 46.9659 19.2954C46.9659 23.6414 45.323 27.7739 42.3401 30.9319ZM34.168 25.6147V24.3797C34.168 23.7988 34.6405 23.3263 35.2212 23.3263C35.8021 23.3263 36.2746 23.7989 36.2746 24.3797V24.5613C36.2746 25.1422 35.8021 25.6147 35.2212 25.6147H34.168ZM25.8295 24.3797V25.6147H24.5453C23.9646 25.6147 23.4921 25.1422 23.4921 24.5613V24.3797C23.4921 23.7988 23.9646 23.3263 24.5453 23.3263H24.7762C25.357 23.3263 25.8295 23.799 25.8295 24.3797Z" fill="#B7AC84"/>
<path d="M42.5754 14.2224C41.5688 11.7233 39.8567 9.59647 37.6244 8.07186C35.3362 6.50917 32.654 5.69354 29.8746 5.71311C29.2274 5.71768 28.7064 6.24608 28.711 6.89331C28.7155 7.53772 29.2394 8.05686 29.8826 8.05686C29.8854 8.05686 29.8884 8.05686 29.891 8.05686C29.9186 8.05675 29.9454 8.05663 29.9728 8.05663C34.5876 8.05663 38.6754 10.8135 40.4016 15.0982C40.5856 15.555 41.0249 15.8325 41.4889 15.8325C41.6346 15.8325 41.783 15.8052 41.9264 15.7473C42.5267 15.5054 42.8174 14.8227 42.5754 14.2224Z" fill="#B7AC84"/>
<path d="M43.2113 18.4665C42.9934 18.2486 42.691 18.1232 42.3828 18.1232C42.0746 18.1232 41.7723 18.2486 41.5543 18.4665C41.3352 18.6845 41.2109 18.9868 41.2109 19.295C41.2109 19.6044 41.3352 19.9056 41.5543 20.1236C41.7723 20.3427 42.0734 20.4669 42.3828 20.4669C42.691 20.4669 42.9934 20.3427 43.2113 20.1236C43.4292 19.9056 43.5547 19.6044 43.5547 19.295C43.5547 18.9868 43.4293 18.6845 43.2113 18.4665Z" fill="#B7AC84"/>
<path d="M54.4261 5.83699C53.9684 5.37937 53.2266 5.37937 52.7687 5.83699L50.5854 8.02031C50.1278 8.47793 50.1278 9.21996 50.5854 9.67769C50.8143 9.90656 51.1141 10.0209 51.4141 10.0209C51.7141 10.0209 52.0139 9.90656 52.2428 9.67769L54.4261 7.49437C54.8837 7.03675 54.8837 6.29472 54.4261 5.83699Z" fill="#B7AC84"/>
<path d="M54.426 31.0966L52.2428 28.9133C51.7852 28.4557 51.0434 28.4557 50.5854 28.9133C50.1278 29.3709 50.1278 30.1129 50.5854 30.5705L52.7687 32.7539C52.9976 32.9827 53.2975 33.0971 53.5974 33.0971C53.8972 33.0971 54.1971 32.9826 54.426 32.7539C54.8836 32.2962 54.8836 31.5542 54.426 31.0966Z" fill="#B7AC84"/>
<path d="M58.8281 18.1237H55.7404C55.0932 18.1237 54.5685 18.6483 54.5685 19.2955C54.5685 19.9428 55.0932 20.4674 55.7404 20.4674H58.8281C59.4752 20.4674 60 19.9428 60 19.2955C60 18.6483 59.4752 18.1237 58.8281 18.1237Z" fill="#B7AC84"/>
<path d="M9.41427 8.02043L7.23106 5.83711C6.77333 5.37949 6.03153 5.37949 5.57368 5.83711C5.11606 6.29473 5.11606 7.03676 5.57368 7.49449L7.757 9.67781C7.98587 9.90668 8.28575 10.0211 8.58563 10.0211C8.88552 10.0211 9.1854 9.90668 9.41427 9.67781C9.87188 9.22008 9.87188 8.47816 9.41427 8.02043Z" fill="#B7AC84"/>
<path d="M9.41427 28.9132C8.95665 28.4555 8.21474 28.4555 7.757 28.9132L5.57368 31.0967C5.11606 31.5543 5.11606 32.2963 5.57368 32.754C5.80255 32.9828 6.10243 33.0972 6.40231 33.0972C6.7022 33.0972 7.00208 32.9827 7.23095 32.754L9.41427 30.5706C9.87188 30.1129 9.87188 29.371 9.41427 28.9132Z" fill="#B7AC84"/>
<path d="M4.25965 18.1237H1.17188C0.524766 18.1237 0 18.6483 0 19.2955C0 19.9428 0.524766 20.4674 1.17188 20.4674H4.25965C4.90676 20.4674 5.43152 19.9428 5.43152 19.2955C5.43152 18.6483 4.90676 18.1237 4.25965 18.1237Z" fill="#B7AC84"/>
</g>
<defs>
<clipPath id="clip0_0_124">
<rect width="60" height="60" fill="white"/>
</clipPath>
</defs>
</svg>
