<svg width="76" height="76" viewBox="0 0 76 76" fill="none" xmlns="http://www.w3.org/2000/svg">
<path d="M11.6113 24.6567C11.519 25.3578 11.464 26.0719 11.464 26.7957C11.464 32.2183 14.1097 37.0224 18.1657 40.0243H11.7003C6.42023 40.0243 2.12458 44.32 2.12458 49.6001V73.8245C2.12458 74.7183 2.84996 75.4436 3.74375 75.4436H52.1165C53.0119 75.4436 53.7356 74.7183 53.7356 73.8245V49.6001C53.7356 44.32 49.44 40.0243 44.1599 40.0243H37.6945C41.7505 37.0224 44.3963 32.2183 44.3963 26.7957C44.3963 25.1117 44.1275 23.4602 43.6255 21.8669C45.7904 17.0353 45.9717 13.2432 44.1226 10.6121C41.8153 7.32838 37.2055 7.10979 35.4536 7.15999C33.9235 6.03305 29.2862 3.0311 23.904 3.59134C20.2512 3.97022 17.042 5.88894 14.3655 9.29568C9.01738 16.101 1.5692 16.773 1.49957 16.7779C0.834096 16.8264 0.267386 17.2798 0.0714663 17.9178C-0.124453 18.5557 0.0908964 19.2487 0.613889 19.6632C4.04005 22.3737 7.73176 24.0463 11.6113 24.6567ZM30.9669 43.2626V46.3229H30.7612H25.1022H24.895V43.2626H30.9669ZM30.3969 62.0661L27.9309 64.8883L25.4665 62.0661L26.5838 49.5628H29.2813L30.3969 62.0661ZM50.4989 49.6001V72.2053H43.7178V62.9194C43.7178 62.0256 42.9941 61.3002 42.0987 61.3002C41.2033 61.3002 40.4795 62.0256 40.4795 62.9194V72.2053H15.3823V62.9194C15.3823 62.0256 14.657 61.3002 13.7632 61.3002C12.8694 61.3002 12.144 62.0256 12.144 62.9194V72.2053H5.36292V49.6001C5.36292 46.1059 8.20618 43.2626 11.7003 43.2626H21.655V47.942C21.655 48.8358 22.3804 49.5612 23.2742 49.5612H23.3309L22.178 62.466C22.1391 62.9048 22.28 63.3436 22.5715 63.6755L26.7117 68.4132C27.0193 68.7662 27.463 68.967 27.9309 68.967C28.3989 68.967 28.8425 68.7646 29.1502 68.4132L33.2904 63.6755C33.5818 63.342 33.7243 62.9048 33.6838 62.466L32.531 49.5612H32.586C33.4798 49.5612 34.2052 48.8358 34.2052 47.942V43.2626H44.1615C47.6557 43.2626 50.4989 46.1059 50.4989 49.6001ZM27.9309 40.0243C20.6366 40.0243 14.7023 34.09 14.7023 26.7957C14.7023 26.1577 14.7476 25.5311 14.8367 24.9207C22.1926 25.047 30.0132 20.9926 35.507 15.978C37.7431 17.5227 39.4546 19.7393 40.384 22.3251C40.8988 23.7597 41.1612 25.2623 41.1612 26.7957C41.1595 34.09 35.2253 40.0243 27.9309 40.0243ZM16.9141 11.297C19.0222 8.614 21.4818 7.10494 24.2198 6.81349C29.2975 6.27592 33.8587 10.0113 33.9008 10.047C34.2327 10.3255 34.665 10.4647 35.0941 10.4178C36.3862 10.2947 40.0488 10.434 41.4801 12.479C42.3059 13.661 42.3642 15.4777 41.702 17.7963C40.2836 15.6315 38.3729 13.8115 36.0932 12.5259C34.9792 11.8977 34.2975 12.6911 33.3535 13.5476C28.1139 18.3128 20.7531 22.1406 13.6353 21.6305C10.8697 21.4314 8.18999 20.6007 5.63494 19.1548C8.77127 18.1542 13.2369 15.9748 16.9141 11.297Z" fill="#89886D"/>
<path d="M37.918 59.354H46.2843C47.1797 59.354 47.9034 58.6286 47.9034 57.7348V53.07C47.9034 52.1762 47.1797 51.4508 46.2843 51.4508H37.918C37.0242 51.4508 36.2988 52.1762 36.2988 53.07V57.7348C36.2988 58.6286 37.0242 59.354 37.918 59.354ZM39.5372 54.6891H44.6651V56.1156H39.5372V54.6891Z" fill="#89886D"/>
<path d="M72.6571 19.7652C72.6571 14.0819 68.0344 9.45752 62.3495 9.45752L62.0483 9.46238C56.5108 9.62106 51.9301 14.4381 52.0451 19.9821C52.1066 22.9452 53.4457 25.7399 55.7222 27.6521C56.3181 28.1525 56.731 28.7856 56.9755 29.4705C56.5788 29.7652 56.3051 30.2153 56.3051 30.748V33.9442C56.3051 36.2386 58.1704 38.1039 60.4648 38.1039H64.2342C66.5286 38.1039 68.3939 36.2386 68.3939 33.9442V30.748C68.3939 30.2088 68.1121 29.7538 67.7057 29.4591C67.9324 28.7937 68.3113 28.1946 68.8586 27.7509C71.2744 25.782 72.6571 22.8723 72.6571 19.7652ZM55.285 19.9141C55.2089 16.2321 58.1979 12.759 62.3495 12.6959C66.2468 12.6959 69.4188 15.8662 69.4188 19.7652C69.4188 21.8944 68.47 23.8892 66.8152 25.2396C65.5959 26.2337 64.7621 27.6003 64.4188 29.1272H60.2737C59.9143 27.6133 59.0593 26.224 57.8077 25.1716C56.2468 23.86 55.3255 21.9446 55.285 19.9141ZM65.1571 33.9426C65.1571 34.4494 64.7426 34.8639 64.2358 34.8639H60.4664C59.9596 34.8639 59.5451 34.451 59.5451 33.9426V32.3655H65.1587L65.1571 33.9426Z" fill="#89886D"/>
<path d="M63.9705 5.10039V1.61917C63.9705 0.725388 63.2468 0 62.3514 0C61.456 0 60.7322 0.725388 60.7322 1.61917V5.10039C60.7322 5.99417 61.456 6.71956 62.3514 6.71956C63.2468 6.71956 63.9705 5.99417 63.9705 5.10039Z" fill="#89886D"/>
<path d="M53.7998 7.53726L51.5604 4.8721C50.9889 4.18881 49.9672 4.09652 49.279 4.67294C48.5941 5.24775 48.5051 6.26945 49.0815 6.95436L51.3208 9.61951C51.894 10.3028 52.9173 10.3935 53.6022 9.81867C54.2871 9.24386 54.3746 8.22217 53.7998 7.53726Z" fill="#89886D"/>
<path d="M73.1405 4.87047L70.9011 7.53563C70.3263 8.22054 70.4138 9.24223 71.0987 9.81704C71.7836 10.3935 72.8069 10.3012 73.3801 9.61788L75.6194 6.95273C76.1942 6.26782 76.1068 5.24612 75.4219 4.67132C74.7353 4.09489 73.7153 4.1888 73.1405 4.87047Z" fill="#89886D"/>
</svg>
