<svg width="187" height="39" viewBox="0 0 187 39" fill="none" xmlns="http://www.w3.org/2000/svg">
<path d="M84.4737 26.511C84.6195 27.0038 84.4938 27.2452 84.0614 27.2552C83.5082 27.2653 82.9551 27.2653 82.4019 27.2653C80.1441 27.2653 77.8812 27.2653 75.6234 27.2653C75.1758 27.2653 74.7283 27.2653 74.0444 27.2653C74.3059 26.8329 74.3813 26.5311 74.5523 26.4557C74.9244 26.2998 75.3518 26.2797 75.7541 26.1741C76.7146 25.9176 77.2275 25.2689 77.313 24.2984C77.3784 23.5643 77.4186 22.825 77.4236 22.0909C77.4337 16.6047 77.4337 11.1185 77.4337 5.63228C77.4337 5.41605 77.3934 5.19981 77.1672 4.93329C76.7397 5.96416 76.3123 6.99503 75.8899 8.02589C73.4309 14.0753 70.982 20.1247 68.5129 26.1641C68.3369 26.5915 68.3822 27.2452 67.6581 27.2502C66.944 27.2502 66.9541 26.6116 66.768 26.1842C63.8967 19.5062 61.0455 12.8232 58.1792 6.1452C57.9529 5.61217 57.6864 5.09422 57.1986 4.59639C57.1533 4.82267 57.0729 5.05398 57.0729 5.28027C57.0729 11.3649 57.0729 17.4545 57.1081 23.5391C57.1181 25.2488 57.7014 25.9528 59.3458 26.3803C59.7431 26.4859 60.2359 26.4155 60.0599 27.1748H52.4013C52.7433 26.7976 52.879 26.5362 53.0902 26.4457C53.4221 26.3049 53.8093 26.3149 54.1563 26.1993C55.1318 25.8825 55.6699 25.1885 55.7453 24.1677C55.8107 23.2927 55.8811 22.4177 55.8861 21.5428C55.8962 15.3626 55.8912 9.18748 55.8861 3.00733C55.8861 2.64527 55.8409 2.28323 55.8057 1.76528H52.869C52.5773 1.21717 52.5672 0.89533 53.0953 0.814872C53.4121 0.769615 53.7389 0.789736 54.0607 0.789736C56.042 0.789736 58.0183 0.789736 60.1303 0.789736C63.0267 7.54817 65.9182 14.2965 68.9504 21.3718C70.5545 17.726 71.8318 14.3066 73.1996 10.9274C74.5573 7.56827 75.91 4.20416 77.2878 0.794769C79.4049 0.794769 81.4264 0.784701 83.4479 0.814872C83.649 0.814872 83.8502 1.08139 84.0513 1.22219C83.8703 1.37807 83.6993 1.65969 83.5032 1.67477C82.8243 1.73009 82.1354 1.69488 81.2856 1.69488C81.2856 2.30334 81.2856 2.75591 81.2856 3.20346C81.2856 9.61492 81.2856 16.0213 81.2856 22.4328C81.2856 22.7999 81.2906 23.172 81.3308 23.5391C81.542 25.5606 81.9795 26.0283 84.0111 26.4104C84.1418 26.4356 84.2726 26.4708 84.4687 26.516L84.4737 26.511Z" fill="#122B18"/>
<path d="M130.229 21.8545C129.651 21.6534 129.264 21.5176 128.876 21.3869C126.966 20.7533 125.764 19.4509 125.336 17.4947C125.02 16.0415 124.959 14.558 125.321 13.1048C126.086 10.0625 128.635 8.041 131.858 7.87505C134.257 7.74934 136.52 8.12146 138.531 9.60489C139.673 10.4447 140.457 10.0927 140.92 8.71482C140.98 8.53882 140.985 8.34773 141.056 8.18179C141.448 7.21127 142.273 6.77881 143.143 7.07549C143.776 7.29172 144.324 8.36281 144.184 9.14727C144.008 10.1379 143.429 10.847 142.479 11.1386C141.745 11.3649 140.96 11.4252 140.085 11.5811C140.206 12.1695 140.301 12.8282 140.472 13.4719C140.774 14.5832 140.623 15.6895 140.377 16.7606C139.919 18.7418 138.622 20.0443 136.802 20.884C135.062 21.6886 133.186 21.9149 131.335 22.2568C130.481 22.4177 129.626 22.6189 128.796 22.8753C128.414 22.991 128.032 23.2324 127.755 23.519C127.106 24.1928 127.328 25.2338 128.198 25.5355C128.751 25.7316 129.359 25.8121 129.953 25.8422C132.16 25.9629 134.378 26.0132 136.585 26.1439C137.928 26.2244 139.245 26.4909 140.352 27.3307C142.167 28.7085 142.76 31.2681 141.931 33.7321C141.242 35.7888 139.738 37.0409 137.807 37.7198C134.116 39.0121 130.375 38.9166 126.714 37.5689C124.673 36.8146 123.752 34.949 124.356 33.0381C124.487 32.6308 124.758 32.1883 125.095 31.9369C126.096 31.1776 127.297 31.7408 127.408 32.9879C127.443 33.4002 127.388 33.8176 127.373 34.2299C127.333 35.3161 127.8 36.1659 128.791 36.5381C129.812 36.9202 130.898 37.2169 131.979 37.3376C134.066 37.5689 136.128 37.3527 138.034 36.3872C139.391 35.6983 140.301 34.6875 140.186 33.008C140.115 32.0375 139.703 31.2781 138.843 30.9211C138.054 30.5942 137.179 30.368 136.324 30.2976C134.398 30.1366 132.452 30.1718 130.526 29.9858C129.259 29.8601 127.986 29.5734 126.764 29.2064C125.527 28.8342 124.768 27.9442 124.632 26.5965C124.481 25.1181 124.979 23.9414 126.302 23.2374C127.066 22.8351 127.911 22.5736 128.731 22.2769C129.153 22.121 129.601 22.0356 130.229 21.8646V21.8545ZM136.892 14.7743C136.636 13.5825 136.455 12.2097 136.027 10.9224C135.6 9.63506 134.554 9.01652 133.171 8.92098C131.738 8.82041 130.652 9.32829 129.927 10.5502C129.671 10.9777 129.48 11.4554 129.334 11.9331C128.711 14.0099 128.761 16.1219 129.213 18.2038C129.646 20.1851 130.606 20.8589 132.638 20.884C132.824 20.884 133.005 20.884 133.191 20.884C134.845 20.8337 135.816 20.2001 136.248 18.6262C136.57 17.4394 136.666 16.1923 136.897 14.7793L136.892 14.7743Z" fill="#122B18"/>
<path d="M26.2072 26.8226C26.3933 26.6868 26.5693 26.4656 26.7704 26.4253C29.5764 25.9174 29.9837 25.4649 29.9887 22.6338C29.9988 16.0413 29.9887 9.45382 29.9887 2.86133C29.9887 2.54453 29.9887 2.23275 29.9887 1.76007C29.1389 1.74498 28.3745 1.7148 27.6102 1.71983C26.9665 1.71983 26.7855 1.43822 27.0269 0.77445C27.3537 0.749307 27.7158 0.699039 28.0728 0.699039C31.2509 0.688982 34.434 0.633651 37.6121 0.714109C39.2162 0.754338 40.8354 0.92029 42.3993 1.25721C45.1198 1.85058 46.8697 3.46978 47.267 6.37128C47.4883 7.99552 47.4732 9.58959 47.0105 11.1535C46.4473 13.0442 45.16 14.3064 43.3698 15.0557C41.474 15.8502 39.4727 16.1167 37.4361 16.1419C36.2996 16.157 35.1581 16.1419 33.8859 16.1419C33.8859 17.5801 33.8859 18.8573 33.8859 20.1396C33.8859 21.0598 33.8758 21.9851 33.8859 22.9053C33.9161 25.3341 34.5798 26.0784 37.0137 26.3901C37.4713 26.4505 37.8685 26.4706 37.6071 27.2551C33.8658 27.2651 30.0792 27.2551 26.2877 27.2551C26.2575 27.1092 26.2273 26.9634 26.1921 26.8125L26.2072 26.8226ZM33.9613 15.0506C36.0683 15.0607 38.0395 15.2518 39.9554 14.5377C41.7758 13.8589 43.0027 12.6319 43.4201 10.7411C43.8123 8.97107 43.7771 7.17588 43.2391 5.4209C42.8418 4.11849 41.992 3.15803 40.7499 2.625C38.5876 1.68968 36.3197 1.64442 33.9563 1.86568V15.0456L33.9613 15.0506Z" fill="#122B18"/>
<path d="M174.425 27.2091H165.364V26.2335C165.484 26.1933 165.61 26.143 165.736 26.1078C167.792 25.5597 168.089 25.248 168.109 23.1812C168.144 18.8013 168.134 14.4214 168.134 10.0465C168.134 9.86546 168.089 9.68446 168.054 9.38274C167.154 9.3224 166.259 9.26203 165.333 9.20169C165.318 8.905 165.308 8.68375 165.298 8.36695H171.081C171.333 9.45816 171.584 10.5544 171.896 11.9272C172.298 11.4093 172.57 11.0774 172.816 10.7304C174.827 7.87918 178.574 7.61769 180.867 8.58318C182.446 9.24695 183.421 10.4639 183.567 12.1334C183.738 14.0995 183.698 16.0858 183.713 18.0621C183.723 19.4902 183.643 20.9183 183.668 22.3464C183.718 24.8507 184.191 25.4692 186.539 26.2537C186.559 26.4045 186.604 26.5805 186.609 26.7565C186.609 26.8823 186.554 27.013 186.509 27.1991H177.618V26.2788C179.906 25.3536 179.967 25.1876 179.831 22.5677C179.76 21.1899 179.901 19.802 179.846 18.4241C179.766 16.3624 179.71 14.2856 179.434 12.244C179.237 10.7757 178.297 10.1571 176.824 10.0918C174.43 9.98616 172.419 11.6406 172.298 14.1649C172.142 17.4285 172.218 20.7071 172.258 23.9757C172.268 24.9663 172.756 25.7357 173.842 25.957C174.455 26.0827 174.677 26.4649 174.42 27.2141L174.425 27.2091Z" fill="#122B18"/>
<path d="M164.107 23.2985C164.555 25.32 163.649 26.9895 161.975 27.3818C159.712 27.9098 157.861 27.7036 156.584 24.9278C156.227 25.2346 155.885 25.5162 155.548 25.8078C154.03 27.1203 152.315 27.8796 150.268 27.8344C148.081 27.7841 146.059 26.4615 145.486 24.5004C144.852 22.3381 145.406 20.1808 147.171 18.7678C148.956 17.3397 151.098 16.8217 153.29 16.4546C154.286 16.2887 155.287 16.1931 156.433 16.0423C156.529 14.5086 156.65 12.9598 156.358 11.426C156.071 9.91243 155.005 9.18326 153.527 9.04246C151.606 8.8564 149.775 9.54029 149.524 11.8384C149.489 12.1552 149.383 12.467 149.278 12.7737C148.916 13.8146 148.252 14.1767 147.12 13.9705C146.276 13.8146 145.944 13.3118 145.924 12.2457C145.903 11.1947 146.391 10.4002 147.12 9.71127C148.433 8.4692 150.097 8.0267 151.802 7.93619C153.441 7.8507 155.121 7.93619 156.745 8.18762C159.003 8.54465 160.084 9.7867 160.441 12.0445C160.527 12.5876 160.562 13.1408 160.567 13.6939C160.592 16.7362 160.597 19.7785 160.607 22.8158C160.607 23.1829 160.597 23.555 160.642 23.9221C160.748 24.7267 161.14 25.1742 161.789 25.2949C162.513 25.4307 163.051 25.144 163.428 24.5406C163.68 24.1433 163.886 23.7159 164.107 23.3036V23.2985ZM156.499 17.2341C154.211 17.4101 152.33 18.0587 150.701 19.3511C149.921 19.9696 149.403 20.7641 149.157 21.7347C148.83 23.0471 149.102 24.2389 150.082 25.144C151.002 25.9939 152.184 26.1246 153.295 25.5715C154.271 25.0887 155.176 24.4501 156.071 23.8215C156.293 23.6656 156.474 23.2935 156.479 23.0169C156.514 21.1413 156.499 19.2706 156.499 17.2341Z" fill="#122B18"/>
<path d="M104.532 17.3386C104.522 19.7473 104.246 21.5325 103.436 23.2372C101.847 26.5762 98.0201 28.5021 94.2587 28.0093C90.2409 27.4813 87.4249 24.7256 86.7309 20.8335C86.3186 18.5254 86.399 16.2525 87.0276 14.0047C88.0534 10.3439 91.1259 7.99046 94.9426 7.85972C98.1911 7.74406 100.947 8.71457 102.853 11.4602C104.185 13.3811 104.572 15.5937 104.537 17.3436L104.532 17.3386ZM100.464 17.6353C100.404 17.6353 100.343 17.6303 100.283 17.6252C100.283 16.4737 100.358 15.3121 100.258 14.1706C100.182 13.2655 99.9662 12.3553 99.6796 11.4904C99.3829 10.5903 98.7442 9.92648 97.8642 9.50408C94.8622 8.07093 91.8903 9.4186 91.1159 12.652C90.4772 15.3222 90.5376 18.0476 90.7236 20.7631C90.7991 21.9046 90.955 23.0561 91.2064 24.1725C91.4578 25.3039 92.1316 26.2091 93.2832 26.5762C94.3845 26.9282 95.5159 27.0388 96.6876 26.7974C98.1408 26.4957 99.0761 25.666 99.574 24.3133C99.7651 23.8004 99.9411 23.2623 100.001 22.7243C100.187 21.0346 100.313 19.335 100.459 17.6404L100.464 17.6353Z" fill="#122B18"/>
<path d="M11.9469 1.70482C10.9211 1.70482 10.0058 1.72997 9.09064 1.68471C8.88447 1.67466 8.56767 1.43325 8.52744 1.2472C8.43692 0.83988 8.75373 0.699097 9.12584 0.699097C12.5302 0.699097 15.9295 0.699097 19.3741 0.699097V1.70482H15.8642C15.8642 2.30825 15.8642 2.80103 15.8642 3.28881C15.8642 8.68449 15.8792 14.0802 15.8491 19.4759C15.844 20.4816 15.7435 21.5024 15.5474 22.493C14.9741 25.4247 13.0129 27.235 9.88013 27.7479C8.05475 28.0446 6.21931 28.115 4.37382 27.7932C2.09586 27.3909 0.763284 26.1187 0.692884 23.9916C0.672769 23.3328 0.878942 22.6238 1.15049 22.0153C1.47734 21.3013 2.36238 21.0096 3.16695 21.1655C3.98159 21.3264 4.39896 21.7689 4.51965 22.6891C4.61016 23.373 4.60513 24.072 4.71073 24.7509C4.91188 26.0885 5.5656 26.6466 6.92835 26.7372C9.72425 26.9232 11.2479 25.7214 11.7206 22.9255C11.8564 22.1109 11.967 21.2811 11.972 20.4564C11.9972 14.5076 11.9871 8.55879 11.9871 2.60996C11.9871 2.38367 11.962 2.15739 11.9368 1.69978L11.9469 1.70482Z" fill="#122B18"/>
<path d="M109.884 9.23339H106.57C106.394 8.73053 106.46 8.38358 106.952 8.37855C108.924 8.35341 110.895 8.36849 112.911 8.36849C113.158 9.64072 113.379 10.8023 113.661 12.2455C114.088 11.5063 114.365 10.9934 114.676 10.5006C116.014 8.40871 118.694 7.53875 120.967 8.44893C122.038 8.87636 122.682 9.66084 122.888 10.7923C123.044 11.6371 122.672 12.4567 122.003 12.7936C121.244 13.1758 120.555 13.035 119.896 12.3461C119.735 12.1802 119.609 11.984 119.464 11.808C118.247 10.3095 116.894 10.39 115.541 11.6471C114.425 12.683 113.837 14.0307 113.842 15.5895C113.842 17.9882 113.832 20.3818 113.852 22.7804C113.877 25.4707 114.344 25.9585 117.125 26.2099C117.166 26.4815 117.211 26.7732 117.271 27.1704H106.55C106.404 26.6072 106.359 26.1597 107.144 26.1345C107.42 26.1245 107.702 26.1295 107.968 26.0742C108.954 25.8781 109.678 25.4154 109.773 24.2991C109.819 23.7962 109.965 23.2984 109.97 22.8006C109.985 18.5615 109.98 14.3223 109.975 10.0782C109.975 9.85693 109.934 9.6357 109.894 9.22839L109.884 9.23339Z" fill="#122B18"/>
<path d="M23.0651 25.852C23.0752 27.089 22.1147 28.0494 20.8877 28.0343C19.7513 28.0193 18.7858 27.0538 18.7657 25.9123C18.7456 24.7255 19.7764 23.7047 20.9732 23.7349C22.1549 23.7651 23.0601 24.6803 23.0702 25.857L23.0651 25.852Z" fill="#122B18"/>
<path d="M45.205 28.0297C44.0183 28.0297 42.9774 26.9687 43.0176 25.8071C43.0578 24.6958 44.0636 23.7504 45.2151 23.7454C46.3465 23.7454 47.3673 24.7058 47.4025 25.8121C47.4377 26.9687 46.3868 28.0297 45.2101 28.0247L45.205 28.0297Z" fill="#122B18"/>
</svg>
