<svg width="30" height="30" viewBox="0 0 30 30" fill="none" xmlns="http://www.w3.org/2000/svg">
<g clip-path="url(#clip0_0_57)">
<path d="M15.0014 0.600586C7.04844 0.600586 0.60144 7.04759 0.60144 15.0006C0.60144 22.9536 7.04844 29.4006 15.0014 29.4006C22.9544 29.4006 29.4014 22.9536 29.4014 15.0006C29.4014 7.04759 22.9544 0.600586 15.0014 0.600586ZM11.4764 20.9691H8.56044V11.5851H11.4764V20.9691ZM10.0004 10.4331C9.07944 10.4331 8.48394 9.78059 8.48394 8.97359C8.48394 8.15009 9.09744 7.51709 10.0379 7.51709C10.9784 7.51709 11.5544 8.15009 11.5724 8.97359C11.5724 9.78059 10.9784 10.4331 10.0004 10.4331ZM22.1264 20.9691H19.2104V15.7686C19.2104 14.5581 18.7874 13.7361 17.7329 13.7361C16.9274 13.7361 16.4489 14.2926 16.2374 14.8281C16.1594 15.0186 16.1399 15.2886 16.1399 15.5571V20.9676H13.2224V14.5776C13.2224 13.4061 13.1849 12.4266 13.1459 11.5836H15.6794L15.8129 12.8871H15.8714C16.2554 12.2751 17.1959 11.3721 18.7694 11.3721C20.6879 11.3721 22.1264 12.6576 22.1264 15.4206V20.9691Z" fill="#122B18"/>
</g>
<defs>
<clipPath id="clip0_0_57">
<rect width="30" height="30" fill="white"/>
</clipPath>
</defs>
</svg>
