<svg width="26" height="26" viewBox="0 0 26 26" fill="none" xmlns="http://www.w3.org/2000/svg">
<path d="M19.825 6.18583C19.7248 6.0854 19.6057 6.00573 19.4747 5.95136C19.3436 5.897 19.2031 5.86902 19.0612 5.86902C18.9194 5.86902 18.7789 5.897 18.6478 5.95136C18.5168 6.00573 18.3977 6.0854 18.2975 6.18583L13 11.4725L7.7025 6.175C7.6022 6.0747 7.48313 5.99514 7.35209 5.94086C7.22104 5.88658 7.08059 5.85864 6.93875 5.85864C6.79691 5.85864 6.65645 5.88658 6.52541 5.94086C6.39437 5.99514 6.2753 6.0747 6.175 6.175C6.0747 6.2753 5.99514 6.39437 5.94086 6.52541C5.88658 6.65645 5.85864 6.79691 5.85864 6.93875C5.85864 7.08059 5.88658 7.22104 5.94086 7.35209C5.99514 7.48313 6.0747 7.6022 6.175 7.7025L11.4725 13L6.175 18.2975C6.0747 18.3978 5.99514 18.5169 5.94086 18.6479C5.88658 18.779 5.85864 18.9194 5.85864 19.0612C5.85864 19.2031 5.88658 19.3435 5.94086 19.4746C5.99514 19.6056 6.0747 19.7247 6.175 19.825C6.2753 19.9253 6.39437 20.0049 6.52541 20.0591C6.65645 20.1134 6.79691 20.1414 6.93875 20.1414C7.08059 20.1414 7.22104 20.1134 7.35209 20.0591C7.48313 20.0049 7.6022 19.9253 7.7025 19.825L13 14.5275L18.2975 19.825C18.3978 19.9253 18.5169 20.0049 18.6479 20.0591C18.779 20.1134 18.9194 20.1414 19.0612 20.1414C19.2031 20.1414 19.3435 20.1134 19.4746 20.0591C19.6056 20.0049 19.7247 19.9253 19.825 19.825C19.9253 19.7247 20.0049 19.6056 20.0591 19.4746C20.1134 19.3435 20.1414 19.2031 20.1414 19.0612C20.1414 18.9194 20.1134 18.779 20.0591 18.6479C20.0049 18.5169 19.9253 18.3978 19.825 18.2975L14.5275 13L19.825 7.7025C20.2367 7.29083 20.2367 6.5975 19.825 6.18583Z" fill="#FFF9F0"/>
</svg>
