<svg width="287" height="155" viewBox="0 0 287 155" fill="none" xmlns="http://www.w3.org/2000/svg">
<path d="M60.5831 75.4705H68.1207V73.2971H62.8869V71.4081H66.8214V69.2426H62.8869V67.4893H68.1364V65.3159L60.5831 65.3211V75.4705Z" fill="#FFF9F0"/>
<path d="M79.3555 70.0881C78.6589 69.6185 77.8735 69.3341 77.0334 69.2454C76.1098 69.0914 75.7602 68.8723 75.6297 68.7157C75.5227 68.5879 75.4079 68.3661 75.6454 67.9617C75.8306 67.6486 76.2872 67.4921 77.0047 67.4921C77.7222 67.4921 78.2988 67.7295 78.7032 68.2174L78.8232 68.3609L80.3861 66.798L80.2635 66.678C79.8147 66.2293 79.3242 65.8875 78.805 65.6605C78.2779 65.4309 77.563 65.3213 76.6159 65.3213C75.7993 65.3213 74.9931 65.5952 74.2234 66.1379C73.4355 66.6989 73.0363 67.4477 73.0363 68.3713C73.0363 69.3915 73.3963 70.122 74.1008 70.5447C74.7765 70.9517 75.5253 71.1996 76.3316 71.2857C77.1456 71.3692 77.6491 71.5727 77.8344 71.891C78.017 72.2067 78.017 72.5146 77.8344 72.8303C77.6518 73.1433 77.1534 73.2999 76.3629 73.2999C75.3688 73.2164 74.6617 72.932 74.2573 72.4467L74.1373 72.3032L72.5745 73.8661L72.6971 73.9861C73.1511 74.4401 73.6964 74.8027 74.3199 75.0715C74.9513 75.3402 75.7419 75.4759 76.6707 75.4759C77.6648 75.4759 78.5493 75.1758 79.2981 74.5862C80.0626 73.9887 80.4487 73.2634 80.4487 72.4258C80.4487 71.3692 80.0834 70.5812 79.3581 70.0907L79.3555 70.0881Z" fill="#FFF9F0"/>
<path d="M84.8424 67.4895H88.1142V75.4707H90.4206V67.4895H93.6898V65.3162H84.8424V67.4895Z" fill="#FFF9F0"/>
<path d="M102.248 65.3083H98.2949V75.4707H102.248C105.399 75.4707 106.999 73.7617 106.999 70.3908C106.999 67.0198 105.399 65.3057 102.248 65.3057V65.3083ZM102.248 73.1721H100.599V67.6199H102.248C103.889 67.6199 104.69 68.5253 104.692 70.3908C104.687 72.2615 103.889 73.1695 102.248 73.1721Z" fill="#FFF9F0"/>
<path d="M187.672 71.5962C188.567 70.6257 189.023 69.5403 189.023 68.3662C189.023 67.3591 188.692 66.5894 188.04 66.0754C187.401 65.5719 186.571 65.3162 185.577 65.3162C184.583 65.3162 183.818 65.4284 183.375 65.6606C182.947 65.8876 182.503 66.2293 182.06 66.6729L181.937 66.7929L183.497 68.3558L183.617 68.2123C184.022 67.727 184.58 67.4869 185.319 67.4869C186.057 67.4869 186.547 67.6852 186.735 68.0766C186.934 68.4914 186.941 68.8958 186.761 69.3081C186.576 69.7412 185.877 70.503 184.679 71.5702C183.208 72.8851 182.576 73.1617 182.308 73.1617H182.135V75.4681H189.091V73.1617H185.976C186.461 72.8095 187.03 72.2824 187.669 71.591L187.672 71.5962Z" fill="#FFF9F0"/>
<path d="M197.845 65.3162C196.699 65.3162 195.771 65.8145 195.09 66.7929C194.419 67.7583 194.077 68.9663 194.077 70.3908C194.077 71.8154 194.419 73.0234 195.09 73.9862C195.773 74.9698 196.702 75.4707 197.845 75.4707C198.988 75.4707 199.922 74.9698 200.605 73.9888C201.273 73.0286 201.615 71.818 201.615 70.3908C201.615 68.9637 201.276 67.7531 200.605 66.7929C199.924 65.8145 198.993 65.3162 197.845 65.3162ZM198.841 72.5016C198.541 73.0365 198.218 73.2974 197.85 73.2974C197.482 73.2974 197.14 73.0312 196.848 72.5042C196.532 71.9354 196.378 71.244 196.378 70.3908C196.378 69.5377 196.535 68.841 196.848 68.2827C197.14 67.7531 197.472 67.4869 197.837 67.4869C198.202 67.4869 198.544 67.7478 198.841 68.2827C199.152 68.8437 199.311 69.5533 199.311 70.3908C199.311 71.2284 199.155 71.938 198.841 72.5016Z" fill="#FFF9F0"/>
<path d="M212.187 71.5962C213.082 70.6257 213.538 69.5403 213.538 68.3662C213.538 67.3591 213.207 66.5894 212.555 66.0754C211.916 65.5719 211.086 65.3162 210.092 65.3162C209.098 65.3162 208.333 65.4284 207.89 65.6606C207.462 65.8876 207.018 66.2293 206.575 66.6729L206.452 66.7929L208.012 68.3558L208.132 68.2123C208.537 67.727 209.095 67.4869 209.834 67.4869C210.572 67.4869 211.062 67.6852 211.25 68.0766C211.449 68.4914 211.456 68.8958 211.276 69.3081C211.091 69.7412 210.392 70.503 209.194 71.5702C207.723 72.8851 207.091 73.1617 206.823 73.1617H206.65V75.4681H213.606V73.1617H210.491C210.976 72.8095 211.545 72.2824 212.184 71.591L212.187 71.5962Z" fill="#FFF9F0"/>
<path d="M225.303 70.3047C225.866 69.9316 226.153 69.282 226.153 68.3662C226.153 67.5365 225.814 66.8086 225.144 66.2085C224.478 65.6162 223.638 65.3162 222.639 65.3162C221.64 65.3162 220.974 65.4257 220.45 65.6553C219.928 65.8849 219.438 66.2267 218.994 66.6729L218.871 66.7929L220.432 68.3558L220.552 68.2123C220.959 67.727 221.538 67.4869 222.321 67.4869C223.103 67.4869 223.625 67.6487 223.805 67.9566C223.99 68.2775 223.99 68.5749 223.805 68.8984C223.703 69.0706 223.296 69.3472 221.684 69.2376L221.501 69.2272V71.3406L221.666 71.3484C223.205 71.4006 223.677 71.6693 223.805 71.8859C223.99 72.2016 223.99 72.5094 223.805 72.8251C223.623 73.1382 223.124 73.2948 222.334 73.2948C221.34 73.2113 220.63 72.9269 220.226 72.4416L220.106 72.2981L218.545 73.8609L218.668 73.981C219.119 74.4323 219.665 74.7976 220.291 75.0663C220.922 75.3351 221.713 75.4707 222.642 75.4707C223.636 75.4707 224.517 75.1707 225.266 74.581C226.031 73.9836 226.417 73.2582 226.417 72.4207C226.417 71.351 226.041 70.6361 225.303 70.3047Z" fill="#FFF9F0"/>
<path d="M170.564 44.4614V15.8345C170.564 15.584 170.452 15.3648 170.282 15.2083L171.749 11.8921C171.827 11.7199 171.843 11.5242 171.796 11.339L169.085 0.62606C169.074 0.589533 169.051 0.563442 169.038 0.529524C169.014 0.469514 168.993 0.412114 168.957 0.359933C168.928 0.318187 168.894 0.286878 168.86 0.25296C168.819 0.208605 168.777 0.16686 168.727 0.132942C168.683 0.104242 168.633 0.0859781 168.584 0.0651053C168.545 0.0494508 168.511 0.0207508 168.469 0.0103144C168.453 0.00770535 168.44 0.0103144 168.427 0.0103144C168.375 -0.000121926 168.323 0.00248716 168.268 0.00248716C168.208 0.00248716 168.153 -0.000121926 168.096 0.0103144C168.08 0.0129235 168.067 0.0103144 168.054 0.0103144C168.012 0.0207508 167.981 0.0468417 167.942 0.0651053C167.892 0.0859781 167.84 0.104242 167.796 0.135551C167.746 0.169469 167.705 0.211214 167.663 0.25296C167.629 0.289487 167.592 0.320796 167.564 0.362542C167.527 0.414724 167.506 0.469514 167.483 0.529524C167.47 0.563442 167.444 0.592142 167.436 0.628669L164.728 11.3416C164.681 11.5268 164.696 11.7225 164.775 11.8947L166.241 15.2109C166.069 15.3674 165.956 15.5866 165.956 15.8371V44.0257L159.426 40.5478C160.06 39.1545 160.553 37.6986 160.887 36.188C160.895 36.1567 160.923 36.1384 160.929 36.1071C160.931 36.0758 160.921 36.0471 160.921 36.0184C161.244 34.4999 161.451 32.9423 161.451 31.3481V20.8204C161.451 14.4386 156.261 9.2465 149.879 9.2465H143.69C137.309 9.2465 132.119 14.4386 132.119 20.8204V31.3481C132.119 32.9449 132.325 34.5051 132.649 36.0262C132.649 36.0549 132.638 36.0784 132.641 36.1071C132.644 36.1358 132.672 36.1514 132.677 36.1801C133.205 38.5622 134.115 40.8113 135.367 42.8725C135.367 42.8751 135.365 42.8803 135.365 42.8829L134.843 47.5975C131.997 39.7155 125.821 35.7157 125.479 35.5018C125.202 35.3296 124.848 35.3296 124.574 35.5018C124.133 35.7783 113.788 42.4367 113.788 55.7614C113.788 69.086 124.13 75.7444 124.574 76.021C124.712 76.1071 124.868 76.1514 125.028 76.1514C125.187 76.1514 125.343 76.1071 125.482 76.021C125.836 75.7992 132.529 71.4733 135.185 62.9233H137.494V72.0134L134.812 74.6955C134.569 74.9408 134.496 75.3061 134.626 75.627C134.76 75.9453 135.07 76.154 135.414 76.154H158.16C158.505 76.154 158.815 75.9453 158.948 75.627C159.079 75.3061 159.006 74.9408 158.763 74.6955L156.081 72.0134V47.801L165.962 51.125V75.2982C165.962 75.7679 166.343 76.1514 166.815 76.1514H169.719C170.188 76.1514 170.572 75.7705 170.572 75.2982V53.1027C172.096 52.7192 173.231 51.3494 173.231 49.7083V47.8532C173.231 46.2147 172.096 44.8449 170.572 44.4614H170.564ZM115.862 59.8159C115.627 58.5427 115.486 57.1938 115.486 55.7614C115.486 54.329 115.624 52.9905 115.859 51.7225C116.18 52.9514 116.386 54.2925 116.386 55.7614C116.386 57.2303 116.183 58.5792 115.862 59.8159ZM116.626 62.7668C117.48 60.7995 118.093 58.4748 118.093 55.7614C118.093 53.0479 117.48 50.7206 116.626 48.7534C116.934 47.8376 117.292 46.9792 117.683 46.1677C119.097 48.7012 120.196 51.8973 120.196 55.7614C120.196 59.6254 119.1 62.8216 117.683 65.355C117.292 64.5436 116.932 63.6852 116.626 62.7668ZM125.02 74.2598C123.906 73.4458 120.965 71.0585 118.643 67.1553C120.433 64.2853 121.902 60.5021 121.902 55.7588C121.902 51.0154 120.433 47.2349 118.643 44.3623C120.968 40.4617 123.906 38.0743 125.02 37.2577C126.134 38.0717 129.074 40.4591 131.399 44.3596C129.609 47.2323 128.14 51.0128 128.14 55.7562C128.14 60.4995 129.612 64.2827 131.399 67.1527C129.074 71.0533 126.134 73.4406 125.02 74.2546V74.2598ZM132.357 65.3576C130.94 62.8216 129.844 59.628 129.844 55.7614C129.844 51.8947 130.94 48.7012 132.357 46.1651C132.748 46.9766 133.108 47.835 133.416 48.7507C132.563 50.718 131.95 53.0453 131.95 55.7614C131.95 58.4774 132.563 60.8021 133.416 62.7694C133.108 63.6878 132.748 64.5462 132.357 65.3576ZM134.178 59.8211C133.857 58.5818 133.653 57.2381 133.653 55.7614C133.653 54.2846 133.857 52.9409 134.178 51.7016C134.413 52.9749 134.553 54.3264 134.553 55.7614C134.553 57.1964 134.413 58.5479 134.178 59.8211ZM135.626 61.2196C136.012 59.5393 136.26 57.7338 136.26 55.7614C136.26 54.6003 136.158 53.5097 136.015 52.4504L136.839 45.0145C137.048 45.2833 137.264 45.5468 137.486 45.8051V61.217H135.626V61.2196ZM145.924 66.5865V74.4503H137.463L138.939 72.9762C139.098 72.817 139.187 72.5978 139.187 72.3708V66.2656H145.921V66.5865H145.924ZM139.19 64.5592V57.6738H154.367V64.5592H139.19ZM139.19 55.9675V47.5767C140.155 48.4768 141.178 49.33 142.315 50.0605L146.315 52.6357C146.456 52.727 146.618 52.7714 146.777 52.7714C146.936 52.7714 147.098 52.727 147.239 52.6357L151.239 50.0605C152.376 49.3274 153.399 48.4768 154.367 47.574V55.9675H139.19ZM156.091 74.4503H147.63V66.2656H154.367V72.3708C154.367 72.5978 154.456 72.8144 154.615 72.9762L156.091 74.4503ZM150.315 48.6281L146.777 50.9059L143.239 48.6281C139.714 46.3556 137.061 43.1229 135.477 39.3998L138.553 39.0867C139.023 39.0397 139.365 38.6196 139.315 38.1526C139.268 37.683 138.838 37.3725 138.381 37.3908L134.872 37.7482C134.765 37.4221 134.645 37.1012 134.556 36.7698L137.708 36.4489C138.177 36.4019 138.519 35.9818 138.47 35.5148C138.42 35.0452 137.984 34.7086 137.536 34.753L134.199 35.0922C133.974 33.8685 133.818 32.624 133.818 31.3481V20.8204C133.818 15.3779 138.245 10.9528 143.683 10.9528H149.871C155.311 10.9528 159.736 15.3805 159.736 20.8204V31.3481C159.736 32.6213 159.582 33.8659 159.355 35.0895L156.018 34.7504C155.572 34.706 155.131 35.0426 155.084 35.5122C155.035 35.9819 155.377 36.4019 155.846 36.4463L158.998 36.7672C158.909 37.0985 158.789 37.4195 158.682 37.7456L155.176 37.3882C154.719 37.3699 154.286 37.6804 154.242 38.15C154.192 38.6196 154.534 39.0397 155.003 39.0841L158.077 39.3972C156.493 43.1203 153.84 46.353 150.315 48.6255V48.6281ZM165.951 49.33L156.071 46.006V45.8077C157.062 44.6519 157.954 43.4178 158.685 42.0923L165.949 45.9616V49.33H165.951ZM168.855 45.2024V74.4529H167.655V21.3292H168.855V45.1998V45.2024ZM168.855 19.6255H167.655V16.6902H168.855V19.6255ZM168.516 14.9865H167.997L166.447 11.4773L168.255 4.31792L170.066 11.4773L168.516 14.9865ZM171.514 49.7135C171.514 50.3997 171.128 50.9998 170.561 51.305V46.2695C171.128 46.5748 171.514 47.1722 171.514 47.861V49.7161V49.7135Z" fill="#FFF9F0"/>
<path d="M136.395 21.6709H157.159C157.628 21.6709 158.012 21.29 158.012 20.8178C158.012 20.3455 157.631 19.9646 157.159 19.9646H136.395C135.926 19.9646 135.542 20.3455 135.542 20.8178C135.542 21.29 135.923 21.6709 136.395 21.6709Z" fill="#FFF9F0"/>
<path d="M149.104 33.3544V25.2062C149.104 24.7366 148.723 24.353 148.251 24.353C147.779 24.353 147.398 24.734 147.398 25.2062V33.7066C147.398 33.9336 147.487 34.1502 147.646 34.3119L149.295 35.9583H144.259L145.908 34.3119C146.067 34.1528 146.156 33.9336 146.156 33.7066V25.2062C146.156 24.7366 145.775 24.353 145.303 24.353C144.831 24.353 144.45 24.734 144.45 25.2062V33.3544L141.595 36.2061C141.353 36.4514 141.28 36.8167 141.41 37.1376C141.543 37.4559 141.854 37.6646 142.198 37.6646H151.351C151.695 37.6646 152.006 37.4559 152.139 37.1376C152.269 36.8167 152.196 36.4514 151.953 36.2061L149.099 33.3544H149.104Z" fill="#FFF9F0"/>
<path d="M142.736 28.7728C142.736 28.3032 142.355 27.9197 141.882 27.9197H135.842C135.373 27.9197 134.989 28.3006 134.989 28.7728C134.989 29.2451 135.37 29.626 135.842 29.626H141.882C142.352 29.626 142.736 29.2451 142.736 28.7728Z" fill="#FFF9F0"/>
<path d="M158.247 28.7728C158.247 28.3032 157.866 27.9197 157.393 27.9197H151.353C150.884 27.9197 150.5 28.3006 150.5 28.7728C150.5 29.2451 150.881 29.626 151.353 29.626H157.393C157.863 29.626 158.247 29.2451 158.247 28.7728Z" fill="#FFF9F0"/>
<path d="M150.5 41.1975H143.056C142.587 41.1975 142.203 41.5784 142.203 42.0507C142.203 44.0023 143.792 45.5912 145.744 45.5912H147.81C149.762 45.5912 151.353 44.0023 151.353 42.0507C151.353 41.581 150.972 41.1975 150.5 41.1975ZM147.81 43.8849H145.744C145.039 43.8849 144.426 43.4883 144.121 42.9039H149.436C149.128 43.4883 148.515 43.8849 147.81 43.8849Z" fill="#FFF9F0"/>
<path d="M141.371 17.7286C141.389 17.7443 141.415 17.7391 141.434 17.7521C141.58 17.8565 141.741 17.9269 141.916 17.9269C142.091 17.9269 142.253 17.8565 142.399 17.7521C142.417 17.7391 142.443 17.7443 142.462 17.7286L144.345 16.158L146.229 17.7286C146.247 17.7443 146.273 17.7391 146.292 17.7521C146.438 17.8565 146.6 17.9269 146.774 17.9269C146.949 17.9269 147.111 17.8565 147.257 17.7521C147.275 17.7391 147.301 17.7443 147.32 17.7286L149.206 16.158L151.09 17.7286C151.108 17.7443 151.134 17.7391 151.152 17.7521C151.299 17.8565 151.46 17.9269 151.635 17.9269C151.81 17.9269 151.972 17.8565 152.118 17.7521C152.136 17.7391 152.162 17.7443 152.18 17.7286L154.609 15.704C154.972 15.4013 155.019 14.8638 154.719 14.5012C154.414 14.1359 153.876 14.0889 153.516 14.3916L151.633 15.9623L149.749 14.3916C149.725 14.3707 149.694 14.3655 149.67 14.3472C149.621 14.3133 149.569 14.2846 149.514 14.2638C149.464 14.2429 149.417 14.2298 149.365 14.2194C149.31 14.209 149.258 14.2037 149.203 14.2037C149.149 14.2037 149.096 14.209 149.042 14.2194C148.99 14.2298 148.943 14.2429 148.893 14.2638C148.838 14.2872 148.789 14.3133 148.739 14.3472C148.713 14.3655 148.684 14.3707 148.661 14.3916L146.774 15.9623L144.891 14.3916C144.865 14.3707 144.836 14.3655 144.81 14.3472C144.76 14.3133 144.711 14.2872 144.656 14.2638C144.606 14.2429 144.557 14.2298 144.504 14.2194C144.45 14.209 144.398 14.2037 144.343 14.2037C144.288 14.2037 144.236 14.209 144.181 14.2194C144.129 14.2298 144.079 14.2429 144.032 14.2638C143.977 14.2872 143.928 14.3159 143.876 14.3499C143.85 14.3681 143.821 14.3733 143.797 14.3916L141.914 15.9623L140.03 14.3916C139.665 14.0863 139.13 14.1359 138.827 14.5012C138.524 14.8638 138.574 15.4013 138.937 15.704L141.366 17.7286H141.371Z" fill="#FFF9F0"/>
<path d="M125.017 40.6208C124.548 40.6208 124.164 41.0018 124.164 41.474V70.0514C124.164 70.521 124.545 70.9046 125.017 70.9046C125.489 70.9046 125.87 70.5236 125.87 70.0514V41.474C125.87 41.0044 125.489 40.6208 125.017 40.6208Z" fill="#FFF9F0"/>
<path d="M31.5569 108.773C31.5569 113.013 29.9549 116.444 26.7562 119.063C23.5522 121.683 19.3333 122.992 14.0969 122.992C9.5649 122.992 5.30425 122.411 1.31234 121.247V106.341H1.43758L9.66926 120.561C10.045 121.226 10.499 121.599 11.0416 121.683C11.6652 121.766 12.5393 121.81 13.6612 121.81C16.239 121.81 18.2975 121.187 19.8369 119.937C21.3736 118.69 22.1433 116.924 22.1433 114.638C22.1433 112.684 21.4963 111.113 20.21 109.929C18.9211 108.742 16.6955 107.4 13.5385 105.905L11.6052 104.969C9.94061 104.181 8.52648 103.422 7.36282 102.694C6.19917 101.966 5.00421 101.05 3.77793 99.9489C2.54905 98.8479 1.615 97.5381 0.970552 96.0196C0.326106 94.5037 0.00518799 92.8078 0.00518799 90.9371C0.00518799 86.987 1.47932 83.8273 4.43282 81.4583C7.3837 79.0892 11.3104 77.9021 16.2181 77.9021C20.2517 77.9021 24.2436 78.3822 28.1912 79.3371V93.5566H28.066L19.649 80.0859C19.3151 79.585 18.9002 79.298 18.4019 79.2119C17.9453 79.131 17.3426 79.0866 16.5938 79.0866C14.3474 79.0866 12.5497 79.6893 11.1982 80.8947C9.84668 82.1001 9.17353 83.7856 9.17353 85.9459C9.17353 87.7749 9.78406 89.2543 11.0129 90.3736C12.2392 91.4955 14.2639 92.7426 17.0921 94.115L19.3986 95.2369C21.0188 96.0275 22.3077 96.6823 23.2652 97.2015C24.2228 97.7208 25.2925 98.4069 26.477 99.2575C27.6642 100.111 28.5747 100.953 29.2218 101.783C29.8662 102.615 30.4168 103.636 30.8733 104.838C31.3299 106.044 31.5595 107.356 31.5595 108.768L31.5569 108.773Z" fill="#FFF9F0"/>
<path d="M54.0708 91.498V92.7452H46.4001V113.574C46.4001 114.988 46.6923 116.078 47.2741 116.848C47.8559 117.618 48.6674 118.004 49.7058 118.004C51.2843 118.004 52.4923 117.234 53.322 115.697L53.4472 115.76C53.0741 117.753 52.1479 119.441 50.6738 120.811C49.197 122.184 47.0863 122.87 44.3441 122.87C38.9381 122.87 36.2377 120.023 36.2377 114.325V92.7478H32.8067V91.5007H35.6141C36.4881 91.5007 37.13 91.2737 37.5474 90.8171L46.2774 81.0251H46.4027V91.5033H54.0734L54.0708 91.498Z" fill="#FFF9F0"/>
<path d="M80.947 93.0584L77.5187 102.85H77.3934L72.4675 96.9877C72.0917 96.5311 71.7186 96.4267 71.3429 96.6772C70.555 97.259 69.6601 98.4644 68.6608 100.293V117.132C68.6608 117.753 68.9713 118.275 69.5948 118.693L75.7079 122.246V122.372H54.817V122.246L57.8722 119.376C58.2479 119.045 58.4332 118.547 58.4332 117.881V96.3015C58.4332 95.6805 58.2453 95.1587 57.8722 94.7439L54.817 91.626V91.4982H68.6608V99.482C69.2426 97.0294 70.221 95.0048 71.5934 93.4028C72.9632 91.8008 74.6695 91.0024 76.7072 91.0024C78.4945 91.0024 79.9086 91.6886 80.947 93.0584Z" fill="#FFF9F0"/>
<path d="M108.703 103.599C108.703 103.847 108.692 104.275 108.671 104.875C108.648 105.48 108.64 105.801 108.64 105.84L108.264 114.698C108.139 117.109 108.703 118.314 109.947 118.314C110.738 118.314 111.319 117.941 111.695 117.192H111.82C111.82 118.022 111.653 118.771 111.319 119.439C110.198 121.724 108.16 122.867 105.206 122.867C103.336 122.867 101.755 122.338 100.466 121.276C99.1768 120.216 98.4906 118.729 98.4097 116.817C97.7861 118.646 96.7138 120.112 95.1979 121.216C93.6794 122.317 91.9235 122.867 89.9275 122.867C87.5167 122.867 85.4999 122.087 83.8797 120.529C82.2594 118.969 81.4454 116.817 81.4454 114.075C81.4454 111.165 82.4968 108.867 84.5945 107.181C86.6923 105.498 89.137 104.656 91.9235 104.656C94.71 104.656 96.9512 105.217 98.5323 106.339L98.6575 99.6672V99.3541C98.6575 94.5742 97.1417 92.1817 94.1047 92.1817C93.4837 92.1817 93.0976 92.2234 92.9515 92.3069C92.8054 92.3904 92.6305 92.5991 92.4218 92.9305L87.3706 102.287H87.2454L83.3161 93.3688C87.7228 91.7903 91.9235 90.9998 95.9154 90.9998C100.322 90.9998 103.542 91.9573 105.582 93.8671C107.662 95.8214 108.7 99.0671 108.7 103.596L108.703 103.599ZM96.2285 106.592C94.6474 106.592 93.4133 107.197 92.5157 108.402C91.6234 109.608 91.1773 111.145 91.1773 113.015C91.1773 114.68 91.5191 115.979 92.2053 116.913C92.8915 117.85 93.7733 118.317 94.8561 118.317C96.2702 118.317 97.4548 117.592 98.4123 116.133V116.071L98.5375 106.967C97.7887 106.72 97.019 106.592 96.2311 106.592H96.2285Z" fill="#FFF9F0"/>
<path d="M160.9 91.6261L156.66 98.9211C155.995 100.004 155.536 100.938 155.288 101.726L148.178 122.369H141.194L135.208 105.032L129.22 122.369H122.173L114.129 98.6706C113.548 97.0504 113.109 95.9493 112.822 95.3649L110.889 91.6235V91.4956H126.418V91.6235L124.297 95.177C124.005 95.678 123.945 96.1972 124.109 96.7373L130.285 115.635L134.587 103.161L133.09 98.6706C132.633 97.3008 132.195 96.1998 131.783 95.3649L129.849 91.6235V91.4956H145.378V91.6235L143.257 95.177C142.965 95.678 142.905 96.1972 143.069 96.7373L149.305 115.572L154.046 101.541C154.252 100.917 154.346 100.502 154.325 100.293C154.302 100.087 154.148 99.7142 153.855 99.1716L150.239 91.6261V91.4982H160.903V91.6261H160.9Z" fill="#FFF9F0"/>
<path d="M163.77 132.098V96.3014C163.77 95.6805 163.582 95.1586 163.209 94.7438L160.154 91.6259V91.4981H173.935V98.1095C175.973 93.3688 179.195 90.9998 183.602 90.9998C187.095 90.9998 189.931 92.3826 192.115 95.1456C194.299 97.9112 195.39 101.621 195.39 106.279C195.39 111.228 194.142 115.228 191.648 118.283C189.154 121.338 185.994 122.867 182.169 122.867C177.888 122.867 175.143 121.289 173.938 118.126V131.722C173.938 132.137 173.99 132.43 174.094 132.596C174.199 132.763 174.459 132.993 174.874 133.283L179.49 136.463V136.588H160.156V136.463L163.212 133.593C163.587 133.22 163.773 132.719 163.773 132.096L163.77 132.098ZM178.613 95.9909C176.784 95.9909 175.224 96.9694 173.935 98.9236V117.693C174.89 118.732 176.241 119.254 177.99 119.254C179.738 119.254 181.327 118.226 182.636 116.167C183.946 114.111 184.601 110.983 184.601 106.782C184.601 99.5889 182.608 95.9909 178.616 95.9909H178.613Z" fill="#FFF9F0"/>
<path d="M225.261 103.599C225.261 103.847 225.251 104.275 225.23 104.875C225.206 105.48 225.198 105.801 225.198 105.84L224.823 114.698C224.698 117.109 225.261 118.314 226.506 118.314C227.296 118.314 227.878 117.941 228.254 117.192H228.379C228.379 118.022 228.212 118.771 227.878 119.439C226.756 121.724 224.718 122.867 221.765 122.867C219.894 122.867 218.313 122.338 217.024 121.276C215.735 120.216 215.049 118.729 214.968 116.817C214.345 118.646 213.272 120.112 211.756 121.216C210.238 122.317 208.482 122.867 206.486 122.867C204.075 122.867 202.058 122.087 200.438 120.529C198.818 118.969 198.004 116.817 198.004 114.075C198.004 111.165 199.055 108.867 201.153 107.181C203.251 105.498 205.695 104.656 208.482 104.656C211.269 104.656 213.51 105.217 215.091 106.339L215.216 99.6672V99.3541C215.216 94.5742 213.7 92.1817 210.663 92.1817C210.042 92.1817 209.656 92.2234 209.51 92.3069C209.364 92.3904 209.189 92.5991 208.98 92.9305L203.929 102.287H203.804L199.875 93.3688C204.281 91.7903 208.482 90.9998 212.474 90.9998C216.881 90.9998 220.1 91.9573 222.141 93.8671C224.22 95.8214 225.258 99.0671 225.258 103.596L225.261 103.599ZM212.787 106.592C211.206 106.592 209.972 107.197 209.074 108.402C208.182 109.608 207.736 111.145 207.736 113.015C207.736 114.68 208.078 115.979 208.764 116.913C209.45 117.85 210.332 118.317 211.415 118.317C212.829 118.317 214.013 117.592 214.971 116.133V116.071L215.096 106.967C214.347 106.72 213.578 106.592 212.79 106.592H212.787Z" fill="#FFF9F0"/>
<path d="M250.019 91.498V92.7452H242.348V113.574C242.348 114.988 242.64 116.078 243.222 116.848C243.804 117.618 244.615 118.004 245.654 118.004C247.232 118.004 248.44 117.234 249.27 115.697L249.395 115.76C249.022 117.753 248.096 119.441 246.622 120.811C245.145 122.184 243.034 122.87 240.292 122.87C234.886 122.87 232.186 120.023 232.186 114.325V92.7478H228.755V91.5007H231.562C232.436 91.5007 233.078 91.2737 233.495 90.8171L242.225 81.0251H242.351V91.5033H250.021L250.019 91.498Z" fill="#FFF9F0"/>
<path d="M283.509 104.157C283.509 105.655 283.478 108.139 283.415 111.612C283.352 115.084 283.321 117.174 283.321 117.879C283.321 118.5 283.527 119.001 283.942 119.374L286.997 122.244V122.369H269.535V122.244L272.467 119.374C272.882 119.001 273.091 118.523 273.091 117.941C273.091 117.816 273.122 116.018 273.185 112.546C273.247 109.073 273.279 106.756 273.279 105.592C273.279 102.475 272.934 100.126 272.251 98.5453C271.565 96.9668 270.328 96.1763 268.538 96.1763C266.748 96.1763 265.149 97.1103 263.86 98.9836V117.881C263.86 118.502 264.066 119.003 264.484 119.376L267.539 122.246V122.372H250.076V122.246L253.131 119.376C253.504 119.003 253.692 118.502 253.692 117.881V83.0812C253.692 82.4159 253.504 81.8941 253.131 81.521L250.076 78.651V78.5258L263.857 76.9055V98.2975C265.561 93.4341 268.869 91.0024 273.775 91.0024C276.934 91.0024 279.345 92.1243 281.01 94.3708C282.672 96.6172 283.504 99.8812 283.504 104.16L283.509 104.157Z" fill="#FFF9F0"/>
</svg>
