<svg width="130" height="156" viewBox="0 0 130 156" fill="none" xmlns="http://www.w3.org/2000/svg">
<path d="M112.893 96.6687L120.613 44.542C120.681 44.0867 120.538 43.6574 120.268 43.3264L123.833 37.681C124.021 37.3877 124.103 37.0353 124.068 36.6872L122.023 16.4493C122.017 16.3804 121.979 16.3258 121.964 16.261C121.938 16.1455 121.913 16.0358 121.861 15.9301C121.821 15.848 121.766 15.78 121.714 15.707C121.649 15.6157 121.585 15.5301 121.502 15.4524C121.427 15.3843 121.344 15.3393 121.259 15.2887C121.192 15.2487 121.141 15.1895 121.064 15.1563C121.038 15.1444 121.011 15.1484 120.987 15.1396C120.894 15.1067 120.798 15.0979 120.699 15.0833C120.593 15.0675 120.49 15.0468 120.383 15.0501C120.356 15.0514 120.333 15.0426 120.305 15.044C120.225 15.0512 120.162 15.0935 120.086 15.1121C119.987 15.1356 119.891 15.1568 119.8 15.2005C119.698 15.2479 119.615 15.3118 119.526 15.3802C119.453 15.4347 119.38 15.4838 119.318 15.5535C119.241 15.6372 119.185 15.7351 119.127 15.8353C119.093 15.8957 119.041 15.9396 119.012 16.0034L111.192 34.7804C111.058 35.1032 111.034 35.4643 111.129 35.7994L112.905 42.2331C112.548 42.4715 112.287 42.8409 112.219 43.2961L104.618 94.6241L93.6628 86.529C95.1918 84.1598 96.4836 81.6467 97.501 78.9841C97.5226 78.9301 97.5833 78.9065 97.5973 78.8487C97.6109 78.7936 97.5971 78.7398 97.6053 78.6839C98.6061 76.0052 99.3961 73.2246 99.8259 70.3226L102.665 51.1508C104.386 39.5322 96.335 28.6757 84.7138 26.9545L73.4466 25.2859C61.8279 23.5651 50.9733 31.6217 49.2526 43.2404L46.4132 62.4122C45.9826 65.3195 45.9346 68.2154 46.1152 71.0745C46.1077 71.1251 46.0824 71.1676 46.0798 71.2216C46.0773 71.2757 46.1262 71.3128 46.1267 71.3646C46.4432 75.8409 47.4973 80.187 49.2177 84.2781C49.2165 84.2861 49.2104 84.2906 49.2096 84.296L46.9848 92.741C43.9273 77.6177 33.7598 68.6706 33.197 68.19C32.743 67.8017 32.096 67.7059 31.5463 67.9455C30.6674 68.3323 10.0358 77.6644 6.44214 101.929C2.84849 126.194 19.8892 141.108 20.6187 141.731C20.8457 141.925 21.121 142.05 21.4085 142.093C21.6961 142.135 21.9954 142.098 22.2694 141.975C22.9736 141.666 36.3283 135.596 43.4717 120.743L47.6783 121.366L45.2265 137.92L39.6179 142.079C39.1101 142.459 38.878 143.107 39.0313 143.726C39.188 144.339 39.6987 144.804 40.3244 144.897L81.743 151.031C82.3686 151.124 82.9921 150.827 83.32 150.285C83.6459 149.737 83.6087 149.052 83.2357 148.539L79.0734 142.933L85.6034 98.8413L102.697 107.557L96.1775 151.577C96.0505 152.434 96.6425 153.232 97.4997 153.359L102.79 154.142C103.647 154.269 104.445 153.677 104.572 152.82L110.558 112.403C113.435 112.116 115.871 109.927 116.314 106.937L116.814 103.562C117.256 100.577 115.559 97.7764 112.888 96.6679L112.893 96.6687ZM9.14224 109.877C9.05664 107.497 9.16499 105.002 9.5518 102.39C9.93861 99.7781 10.5519 97.3822 11.3175 95.1339C11.5716 97.4597 11.5854 99.9567 11.1892 102.632C10.7929 105.308 10.0593 107.708 9.14224 109.877ZM9.73631 115.455C11.8215 112.105 13.5639 108.037 14.2962 103.093C15.0284 98.1485 14.5402 93.7475 13.5157 89.9363C14.322 88.3498 15.2084 86.884 16.1381 85.5116C18.032 90.5072 19.1668 96.6229 18.1247 103.66C17.0825 110.696 14.2238 116.22 10.9633 120.453C10.4686 118.869 10.0478 117.21 9.73631 115.455ZM21.9214 138.648C20.1127 136.862 15.4048 131.724 12.224 123.991C16.2568 119.248 19.9529 112.754 21.2317 104.12C22.5104 95.4856 20.8547 88.2018 18.3704 82.4902C23.6529 76.0136 29.6508 72.4588 31.8996 71.2737C33.7083 73.0597 38.4189 78.1977 41.5978 85.9248C37.5646 90.6711 33.8689 97.1624 32.5898 105.799C31.3107 114.436 32.9686 121.723 35.4506 127.431C30.1655 133.908 24.1706 137.46 21.9222 138.643L21.9214 138.648ZM37.6821 124.415C35.7887 119.417 34.6508 113.304 35.6933 106.264C36.7358 99.2249 39.5942 93.7033 42.8577 89.4688C43.3524 91.0521 43.7732 92.7115 44.0878 94.464C42.0022 97.8173 40.2567 101.888 39.5245 106.832C38.7923 111.776 39.2805 116.177 40.3072 119.991C39.5009 121.577 38.6141 123.046 37.6818 124.418L37.6821 124.415ZM42.4927 114.824C42.2413 112.48 42.2336 109.978 42.6315 107.292C43.0293 104.605 43.7621 102.211 44.6822 100.04C44.767 102.425 44.6587 104.92 44.2715 107.535C43.8843 110.149 43.2648 112.569 42.4927 114.824ZM44.7542 117.76C45.9127 114.805 46.8474 111.581 47.3785 107.995C47.6912 105.884 47.7993 103.867 47.8239 101.901L51.3309 88.5825C51.6395 89.1261 51.9621 89.6663 52.2944 90.1971L48.138 118.261L44.7515 117.76L44.7542 117.76ZM62.0609 130.308L59.9403 144.627L44.5358 142.345L47.6226 140.057C47.9558 139.81 48.177 139.437 48.2381 139.025L49.8847 127.907L62.1476 129.723L62.0609 130.308ZM50.3448 124.8L52.2016 112.262L79.8371 116.355L77.9803 128.892L50.3448 124.8ZM52.6618 109.155L54.9246 93.876C56.4416 95.7767 58.0727 97.6045 59.9438 99.2447L66.5334 105.015C66.7645 105.218 67.0478 105.344 67.338 105.387C67.6282 105.43 67.9355 105.394 68.216 105.264L76.195 101.652C78.4639 100.624 80.5574 99.3483 82.5605 97.9662L80.2973 113.248L52.6618 109.155ZM78.4545 147.369L63.0447 145.086L65.252 130.182L77.5175 131.999L75.8709 143.117C75.8098 143.53 75.9135 143.951 76.1607 144.284L78.4519 147.368L78.4545 147.369ZM74.8992 98.7905L67.8415 101.987L62.0133 96.8821C56.207 91.7941 52.247 85.1893 50.3675 77.9838L56.0509 78.2433C56.9181 78.2847 57.6516 77.6124 57.6903 76.7448C57.7317 75.8776 57.0299 75.1968 56.1918 75.1054L49.7082 74.8117C49.6018 74.1892 49.4698 73.5738 49.3969 72.9454L55.2211 73.2094C56.0883 73.2508 56.8218 72.5786 56.8605 71.7109C56.8996 70.8406 56.1965 70.1134 55.362 70.0715L49.1946 69.792C49.1146 67.5029 49.1684 65.1927 49.5118 62.8738L52.3512 43.702C53.8188 33.7926 63.074 26.9275 72.978 28.3943L84.2452 30.063C94.1493 31.5298 101.017 40.7854 99.5498 50.6922L96.7105 69.8639C96.367 72.1829 95.7493 74.4068 95.0088 76.5771L89.0248 75.0597C88.2246 74.8595 87.3329 75.3505 87.1154 76.1944C86.901 77.036 87.4108 77.8924 88.2502 78.1038L93.9009 79.5392C93.6463 80.1191 93.3443 80.6702 93.062 81.2352L86.7742 79.6374C85.9509 79.4828 85.0762 79.9328 84.8649 80.7721C84.6504 81.6137 85.1603 82.4701 85.9996 82.6814L91.5115 84.08C87.6243 90.4314 81.9225 95.6053 74.8881 98.7916L74.8992 98.7905ZM103.184 104.286L86.0906 95.5696L86.1443 95.2076C88.2639 93.3693 90.2203 91.3655 91.9065 89.1475L104.093 98.1514L103.184 104.286ZM109.588 97.5504L101.7 150.811L99.5166 150.488L113.842 53.7611L116.025 54.0844L109.588 97.5504ZM116.485 50.9774L114.302 50.6541L115.093 45.3107L117.277 45.634L116.485 50.9774ZM117.119 42.4382L116.176 42.2986L114.3 35.491L119.524 22.9437L120.89 36.4669L117.121 42.4386L117.119 42.4382ZM113.214 106.481C113.029 107.73 112.164 108.72 111.049 109.121L112.407 99.9515C113.355 100.663 113.899 101.854 113.714 103.105L113.214 106.481Z" fill="#122B18"/>
<path d="M56.8248 45.9538L94.6333 51.5533C95.4906 51.6803 96.2884 51.0883 96.4153 50.231C96.5423 49.3737 95.9503 48.5759 95.093 48.449L57.2846 42.8495C56.4273 42.7225 55.6295 43.3145 55.5025 44.1718C55.3756 45.0291 55.9675 45.8269 56.8248 45.9538Z" fill="#122B18"/>
<path d="M76.816 70.6532L79.0131 55.8184C79.14 54.9611 78.5481 54.1633 77.6908 54.0364C76.8335 53.9094 76.0357 54.5014 75.9087 55.3587L73.6163 70.8377C73.5552 71.2504 73.6588 71.6712 73.906 72.0043L76.4626 75.4466L67.2933 74.0886L70.7378 71.5351C71.071 71.2879 71.2921 70.9153 71.3533 70.5026L73.6457 55.0235C73.7727 54.1662 73.1807 53.3684 72.3234 53.2415C71.4661 53.1145 70.6683 53.7065 70.5414 54.5638L68.3443 69.3985L62.3781 73.8232C61.8703 74.2023 61.6382 74.8509 61.7915 75.4694C61.9482 76.083 62.4589 76.5478 63.0845 76.6404L79.751 79.1087C80.3767 79.2014 81.0002 78.9047 81.328 78.3628C81.654 77.8152 81.6168 77.1295 81.2437 76.6172L76.816 70.6532Z" fill="#122B18"/>
<path d="M66.4502 60.5964C66.5771 59.7391 65.9852 58.9414 65.1279 58.8144L54.1322 57.1859C53.275 57.059 52.4772 57.6509 52.3502 58.5082C52.2232 59.3655 52.8152 60.1633 53.6725 60.2903L64.6681 61.9187C65.5254 62.0457 66.3232 61.4537 66.4502 60.5964Z" fill="#122B18"/>
<path d="M94.7002 64.7805C94.8271 63.9232 94.2352 63.1254 93.3779 62.9985L82.3822 61.37C81.525 61.243 80.7272 61.835 80.6002 62.6923C80.4732 63.5496 81.0652 64.3474 81.9225 64.4743L92.9181 66.1028C93.7754 66.2298 94.5732 65.6378 94.7002 64.7805Z" fill="#122B18"/>
<path d="M77.2392 85.3154L63.685 83.308C62.8277 83.181 62.0299 83.773 61.9029 84.6303C61.3765 88.1846 63.8397 91.5041 67.394 92.0305L71.1559 92.5877C74.7102 93.114 78.0351 90.6517 78.5614 87.0974C78.6884 86.2401 78.0964 85.4424 77.2392 85.3154ZM71.6156 89.4833L67.8537 88.9262C66.5704 88.7361 65.5622 87.8467 65.163 86.702L74.8408 88.1353C74.1213 89.1171 72.8989 89.6734 71.6156 89.4833Z" fill="#122B18"/>
<path d="M66.9452 40.115C66.9755 40.1494 67.0227 40.1428 67.0534 40.1745C67.2917 40.403 67.5679 40.5772 67.8847 40.6241C68.2015 40.671 68.519 40.5847 68.8106 40.4348C68.8487 40.4159 68.8951 40.4337 68.9314 40.4091L72.784 38.0576L75.7897 41.4248C75.8199 41.4592 75.8672 41.4526 75.8978 41.4844C76.1361 41.7128 76.4123 41.8871 76.7291 41.934C77.0459 41.9809 77.3634 41.8946 77.655 41.7446C77.6932 41.7258 77.7395 41.7435 77.7758 41.719L81.6337 39.3682L84.6394 42.7355C84.6697 42.7699 84.7169 42.7633 84.7476 42.795C84.9858 43.0235 85.262 43.1977 85.5789 43.2446C85.8957 43.2916 86.2132 43.2053 86.5048 43.0553C86.5429 43.0364 86.5893 43.0542 86.6255 43.0296L91.5965 39.9976C92.3384 39.5442 92.571 38.5802 92.1177 37.8383C91.6621 37.0933 90.6957 36.8577 89.9584 37.3171L86.1057 39.6687L83.1001 36.3014C83.0603 36.2574 83.0087 36.2389 82.9681 36.2002C82.884 36.1252 82.8014 36.0586 82.7061 36.0036C82.6211 35.953 82.5368 35.916 82.4464 35.8835C82.3506 35.8503 82.2564 35.8255 82.1552 35.8105C82.054 35.7955 81.9566 35.792 81.8553 35.796C81.7594 35.8008 81.668 35.8118 81.572 35.8357C81.4649 35.8606 81.3665 35.9005 81.2669 35.9483C81.2169 35.9735 81.1594 35.9759 81.1113 36.0069L77.2533 38.3576L74.2477 34.9904C74.2079 34.9464 74.1536 34.9275 74.1104 34.8884C74.0289 34.8138 73.9486 34.7502 73.856 34.6956C73.7683 34.6446 73.684 34.6076 73.5909 34.5748C73.4952 34.5415 73.4009 34.5167 73.2997 34.5017C73.1986 34.4867 73.1038 34.4836 72.9999 34.4872C72.9013 34.4917 72.8099 34.5026 72.7138 34.5265C72.6067 34.5514 72.5083 34.5913 72.4087 34.6391C72.3587 34.6644 72.3039 34.6671 72.2562 34.6954L68.4036 37.047L65.3979 33.6797C64.817 33.0278 63.8295 32.9713 63.1803 33.5526C62.5314 34.1313 62.4772 35.1218 63.0532 35.7703L66.9319 40.113L66.9452 40.115Z" fill="#122B18"/>
<path d="M30.9935 77.3919C30.1362 77.2649 29.3384 77.8569 29.2115 78.7142L21.5049 130.75C21.3779 131.608 21.9699 132.405 22.8272 132.532C23.6844 132.659 24.4822 132.067 24.6092 131.21L32.3158 79.1739C32.4428 78.3166 31.8508 77.5188 30.9935 77.3919Z" fill="#122B18"/>
</svg>
