<svg width="186" height="56" viewBox="0 0 186 56" fill="none" xmlns="http://www.w3.org/2000/svg">
<path d="M185.91 10.7292C185.756 11.2058 185.602 11.6774 185.3 12.0874C184.567 13.0868 183.245 13.5122 182.025 13.133C180.815 12.7537 180.006 11.6312 179.959 10.3858C179.898 8.78151 181.241 7.31052 182.989 7.33615C184.224 7.35665 185.321 8.17159 185.731 9.35043C185.792 9.52469 185.854 9.70408 185.915 9.87834V10.7292H185.91Z" fill="#122B18"/>
<path d="M130.673 37.5757V38.1343C130.673 41.5888 130.673 45.0434 130.673 48.4979C130.673 48.6414 130.678 48.7798 130.673 48.9233C130.647 49.3794 130.421 49.6306 129.965 49.6408C128.93 49.6613 127.895 49.6613 126.854 49.646C126.424 49.6408 126.203 49.3948 126.167 48.9643C126.157 48.8259 126.162 48.6824 126.162 48.5389C126.162 42.619 126.152 36.6992 126.167 30.7794C126.172 28.8984 126.249 27.0122 126.598 25.1568C126.992 23.0605 127.91 21.2 129.248 19.5548C131.185 17.1715 133.671 15.6441 136.685 15.1059C141.087 14.3217 144.993 15.3981 148.258 18.5348C150.375 20.5645 151.63 23.0708 152.035 25.9513C152.568 29.7441 151.84 33.2754 149.431 36.3353C147.412 38.9031 144.752 40.4202 141.518 40.8969C137.802 41.4453 134.501 40.4356 131.544 38.1856C131.272 37.9806 131.031 37.7397 130.775 37.5142C130.739 37.5347 130.708 37.55 130.673 37.5705V37.5757ZM139.176 36.7658C142.056 36.7658 144.239 35.669 145.833 33.4805C147.31 31.4559 147.75 29.1444 147.407 26.6842C147.115 24.5725 146.172 22.7786 144.573 21.3538C142.784 19.7598 140.662 19.0781 138.309 19.3395C135.439 19.6573 133.322 21.2154 131.928 23.7166C130.934 25.4951 130.591 27.412 130.857 29.4468C131.098 31.2612 131.795 32.8603 133.071 34.1826C134.783 35.9458 136.9 36.7453 139.181 36.771L139.176 36.7658Z" fill="#122B18"/>
<path d="M71.6788 37.4222C71.6788 37.6631 71.6788 37.8322 71.6788 37.9962C71.6788 41.5174 71.684 45.0334 71.6891 48.5546C71.6891 48.6981 71.6891 48.8365 71.6891 48.98C71.6686 49.4156 71.4943 49.6309 71.0587 49.6411C69.9926 49.6616 68.9214 49.6616 67.8553 49.6411C67.4657 49.636 67.271 49.4002 67.2402 49.0005C67.2351 48.9082 67.2402 48.8108 67.2402 48.7186C67.2402 42.3887 67.23 36.0588 67.2505 29.729C67.2556 28.1299 67.3684 26.5307 67.6913 24.9572C68.0859 23.0506 68.9111 21.3284 70.1053 19.796C71.5968 17.8842 73.4727 16.4747 75.7638 15.6444C77.6858 14.9473 79.6591 14.7269 81.6938 14.9422C84.0823 15.1933 86.2298 16.039 88.1313 17.4947C90.7197 19.4782 92.2983 22.1024 92.9749 25.2801C93.226 26.4538 93.3234 27.6429 93.2465 28.8372C93.0107 32.4403 91.673 35.5361 88.9514 37.9655C87.1473 39.5749 85.0254 40.5487 82.6318 40.8921C78.552 41.4764 75.0052 40.3078 71.93 37.6067C71.8736 37.5606 71.8121 37.5196 71.6788 37.4222ZM71.8275 28.504C71.8531 28.7808 71.8736 29.3138 71.9607 29.8366C72.1965 31.2922 72.7603 32.6146 73.7239 33.737C75.7689 36.1255 78.4238 37.0327 81.4837 36.7046C83.8978 36.4484 85.7942 35.2029 87.1114 33.1579C88.526 30.9642 88.8745 28.545 88.3364 26.0182C87.4753 21.9794 83.9952 19.1399 79.9051 19.2988C77.9933 19.3705 76.3173 20.0522 74.9027 21.3182C72.8423 23.1531 71.848 25.4851 71.8326 28.504H71.8275Z" fill="#122B18"/>
<path d="M101.74 31.1079C102.037 32.174 102.591 33.0453 103.298 33.8141C104.692 35.3364 106.43 36.2897 108.459 36.6126C111.109 37.0329 113.462 36.3205 115.451 34.4958C115.707 34.2601 115.943 34.0089 116.178 33.7578C116.409 33.5066 116.681 33.4502 116.988 33.5732C117.121 33.6245 117.25 33.6758 117.378 33.7424C118.136 34.1165 118.895 34.4958 119.653 34.8802C119.807 34.9571 119.956 35.0442 120.099 35.1416C120.566 35.4543 120.627 35.8182 120.279 36.2487C119.705 36.956 119.059 37.6018 118.341 38.1656C116.281 39.7801 113.928 40.6412 111.345 40.9231C108.788 41.205 106.327 40.8718 104.016 39.7237C100.372 37.9093 98.1369 34.9674 97.2041 31.0208C96.9735 30.0367 96.8504 29.0373 96.8607 28.0378C96.8915 24.5987 97.9473 21.5337 100.31 18.9761C102.299 16.8234 104.744 15.5216 107.639 15.0552C111.232 14.476 114.502 15.2448 117.403 17.459C119.361 18.9556 120.714 20.9135 121.621 23.1943C122.196 24.6397 122.472 26.1414 122.58 27.6842C122.616 28.2326 122.385 28.576 121.934 28.8323C121.083 29.314 120.186 29.7036 119.243 29.9496C118.167 30.2315 117.086 30.5134 115.989 30.6774C114.574 30.8875 113.144 30.8978 111.719 30.7543C109.879 30.5698 108.044 30.3186 106.199 30.2161C104.785 30.1392 103.385 30.3904 102.058 30.9439C101.96 30.9849 101.868 31.0515 101.74 31.1233V31.1079ZM101.146 27.1306C101.289 27.0845 101.366 27.064 101.438 27.0384C103.298 26.3977 105.21 26.1055 107.173 26.1875C108.157 26.2286 109.146 26.3106 110.13 26.3669C110.848 26.4079 111.571 26.4233 112.288 26.4899C114.092 26.6642 115.855 26.4336 117.603 26.0184C117.777 25.9774 117.947 25.9057 118.146 25.839C118.08 25.6238 118.039 25.4546 117.977 25.2957C117.296 23.3635 116.066 21.8463 114.384 20.7085C112.585 19.4938 110.597 18.9454 108.439 19.34C105.394 19.8987 103.185 21.6157 101.837 24.4039C101.433 25.2394 101.181 26.126 101.146 27.1306Z" fill="#122B18"/>
<path d="M165.474 41.0304C161.902 41.0612 158.806 39.826 156.105 37.54C155.854 37.3248 155.597 37.1198 155.367 36.884C155.075 36.5867 155.08 36.2433 155.392 35.9819C156.223 35.2849 157.058 34.5981 157.914 33.9318C158.309 33.6242 158.514 33.6499 158.908 33.9984C159.969 34.9261 161.123 35.7052 162.46 36.1818C164.249 36.8174 166.069 36.9711 167.919 36.4535C168.795 36.2074 169.559 35.7667 170.195 35.0952C171.204 34.0292 171.009 32.2968 169.923 31.3998C169.303 30.8873 168.585 30.5849 167.801 30.4311C166.371 30.1441 164.936 29.8878 163.511 29.5752C161.779 29.1959 160.133 28.5962 158.683 27.5507C157.391 26.6178 156.438 25.4236 156.161 23.8194C155.772 21.5949 156.366 19.6114 157.847 17.92C159.4 16.1466 161.415 15.2343 163.726 14.9678C166.115 14.6859 168.457 14.9165 170.712 15.7981C171.937 16.2748 173.039 16.9667 174.069 17.7765C174.167 17.8534 174.259 17.9457 174.336 18.043C174.587 18.3608 174.607 18.7042 174.31 18.9759C173.557 19.6627 172.783 20.329 171.994 20.9696C171.655 21.2464 171.261 21.2003 170.897 20.9491C170.599 20.7441 170.312 20.5237 170.01 20.3238C168.708 19.4576 167.278 19.0271 165.71 19.0117C164.557 19.0015 163.455 19.1399 162.43 19.6934C161.866 19.9958 161.384 20.3905 161.056 20.9491C160.425 22.0306 160.533 23.1274 161.435 23.9988C162.23 24.7624 163.209 25.1827 164.259 25.4287C165.894 25.8029 167.545 26.1155 169.18 26.4743C170.974 26.869 172.609 27.5814 173.916 28.9294C175.002 30.0518 175.535 31.4152 175.627 32.9579C175.74 34.8902 175.115 36.5765 173.823 38.0065C173.07 38.847 172.142 39.4672 171.112 39.9285C169.897 40.4667 168.626 40.7998 167.299 40.9074C166.689 40.9536 166.079 40.9946 165.469 41.0356L165.474 41.0304Z" fill="#122B18"/>
<path d="M180.707 28.0732C180.707 24.3214 180.707 20.5644 180.707 16.8127C180.707 16.6691 180.707 16.5308 180.707 16.3872C180.727 15.9362 180.917 15.7312 181.378 15.7261C182.413 15.7158 183.449 15.7158 184.489 15.7261C184.94 15.7312 185.135 15.9465 185.155 16.4026C185.161 16.5256 185.155 16.6538 185.155 16.7819C185.155 24.306 185.155 31.8301 185.155 39.349C185.155 39.4105 185.155 39.4772 185.155 39.5387C185.155 40.246 184.976 40.4202 184.258 40.4202C183.392 40.4202 182.531 40.4202 181.665 40.4202C180.83 40.4202 180.701 40.2921 180.696 39.4772C180.696 35.6741 180.696 31.8762 180.696 28.0732H180.707Z" fill="#122B18"/>
<path d="M44.1764 5.87482C38.8306 24.1366 23.8645 39.0925 5.44379 44.3255C-1.29098 35.8276 -2.92086 20.5591 7.1608 9.43184C17.5397 -2.02342 33.9717 -2.0388 44.1764 5.87482Z" fill="#122B18"/>
<path d="M6.51013 45.6894C6.72027 45.6176 6.87916 45.5612 7.04317 45.51C11.0615 44.2645 15.1362 43.224 19.2416 42.3015C22.5936 41.548 25.9508 40.8151 29.2976 40.0412C32.419 39.3185 35.5045 38.4625 38.4619 37.2017C41.4705 35.9203 44.2125 34.2341 46.4523 31.8252C49.0868 28.9908 50.7628 25.6747 51.4188 21.8511C51.6597 20.4365 51.7418 19.0117 51.6649 17.5817C51.5931 16.2183 51.3625 14.8703 51.0037 13.548C50.9781 13.4609 50.9576 13.3737 50.9166 13.1995C57.8102 23.4861 57.1542 40.2769 44.2433 50.0203C31.5374 59.6099 14.8645 56.0222 6.51013 45.6894Z" fill="#122B18"/>
</svg>
