<svg width="76" height="76" viewBox="0 0 76 76" fill="none" xmlns="http://www.w3.org/2000/svg">
<g clip-path="url(#clip0_0_458)">
<path fill-rule="evenodd" clip-rule="evenodd" d="M37.7026 22.4141C27.1636 22.4141 19.4448 10.5391 24.1948 2.07812C24.937 0.59375 28.7964 0 30.4292 0C40.2261 0 47.9448 10.8359 44.3823 19.4453C45.5698 21.5234 46.7573 24.0469 47.9448 27.0156C48.687 25.3828 49.5776 23.8984 50.7651 22.2656C47.2026 13.8047 54.9214 2.96875 64.7183 2.96875C66.7964 2.96875 68.7261 3.41406 70.2104 4.30469C70.5073 4.45312 70.8042 4.75 70.9526 5.04688C75.5542 13.3594 67.9839 25.3828 57.4448 25.3828C56.1089 25.3828 54.6245 25.2344 53.437 24.6406C51.062 28.0547 49.5776 32.2109 48.8354 36.0703C51.6558 36.5156 54.1792 38.2969 55.6636 40.6719C62.0464 37.8516 69.0229 43.3438 67.3901 50.3203C72.5854 52.3984 73.3276 59.5234 68.4292 62.3438L48.2417 74.0703C39.3354 79.2656 27.1636 73.1797 20.3354 67.2422L13.6558 70.9531C12.9136 71.3984 11.7261 71.25 11.2808 70.3594L3.85889 57.4453C3.41357 56.5547 3.71045 55.5156 4.60107 55.0703L22.4136 44.6797C24.1948 43.6406 26.5698 43.1953 27.7573 43.1953C30.1323 40.0781 34.437 39.0391 37.9995 40.6719C39.6323 38.1484 42.1558 36.3672 45.2729 35.9219C45.4214 34.7344 45.7183 33.5469 46.0151 32.2109C44.6792 27.9062 43.0464 24.4922 41.562 21.8203C40.3745 22.2656 39.0386 22.4141 37.7026 22.4141ZM46.7573 39.3359C43.937 39.3359 41.4136 41.1172 40.3745 43.7891C40.0776 44.9766 38.5933 45.4219 37.7026 44.6797C35.9214 43.3438 33.5464 43.0469 31.4683 44.3828C35.9214 47.5 34.7339 51.3594 44.6792 53.7344C47.6479 54.625 49.4292 55.8125 50.6167 57.1484L61.6011 50.7656C62.3433 50.3203 63.0854 50.0234 63.8276 49.875C65.1636 45.125 59.9683 41.5625 55.9604 44.6797C55.0698 45.4219 53.5854 44.9766 53.2886 43.7891C52.2495 41.2656 49.5776 39.3359 46.7573 39.3359ZM65.1636 53.4375C64.5698 53.4375 64.1245 53.4375 63.3823 53.7344L51.9526 60.4141C52.6948 64.8672 48.2417 69.4688 42.0073 67.2422L32.6558 64.2734C30.2808 63.6797 31.4683 60.2656 33.6948 60.8594L43.1948 63.9766C48.3901 65.9062 51.6558 59.0781 43.7886 57.2969C41.4136 56.7031 35.7729 55.0703 32.6558 50.9141C31.1714 48.8359 30.1323 47.3516 28.6479 46.9062C28.3511 46.9062 28.0542 46.9062 27.7573 46.7578C26.8667 46.7578 25.6792 47.0547 24.1948 47.7969L7.8667 57.1484L13.5073 66.9453L19.5933 63.3828C20.3354 63.0859 21.0776 63.0859 21.6714 63.6797C27.4604 69.0234 33.2495 71.8438 38.8901 72.2891C40.6714 72.2891 43.937 72.2891 46.6089 70.9531L66.6479 59.375C69.4683 57.5938 67.9839 53.4375 65.1636 53.4375ZM53.5854 19C55.812 16.625 58.7808 14.3984 62.6401 12.7656C64.7183 11.7266 66.2026 14.9922 64.1245 15.8828C60.7104 17.5156 57.8901 19.4453 55.812 21.6719C59.2261 22.4141 62.7886 20.9297 65.312 18.4062C68.5776 15.1406 69.6167 10.5391 68.1323 7.27344C67.0933 6.82812 65.9058 6.53125 64.7183 6.53125C58.3354 6.53125 52.6948 12.9141 53.5854 19ZM39.6323 18.7031C35.9214 13.3594 32.8042 12.1719 32.8042 12.1719C30.5776 11.4297 31.6167 8.01562 33.8433 8.75781C33.9917 8.90625 37.5542 10.0938 41.7104 15.4375C42.0073 9.5 36.5151 3.5625 30.4292 3.5625C29.2417 3.5625 28.0542 3.85938 27.0151 4.30469C25.5308 7.57031 26.5698 12.1719 29.8354 15.4375C32.3589 17.9609 36.2183 19.4453 39.6323 18.7031Z" fill="#89886D"/>
</g>
<defs>
<clipPath id="clip0_0_458">
<rect width="76" height="76" fill="white"/>
</clipPath>
</defs>
</svg>
