<svg width="76" height="76" viewBox="0 0 76 76" fill="none" xmlns="http://www.w3.org/2000/svg">
<g clip-path="url(#clip0_0_433)">
<path d="M10.3102 55.0839C9.59739 54.3714 8.44165 54.3714 7.72871 55.0839L3.97991 58.8327C3.26711 59.5455 3.26711 60.7013 3.97991 61.4142C4.33631 61.7705 4.80344 61.9489 5.27058 61.9489C5.73786 61.9489 6.20514 61.7706 6.56139 61.4142L10.3102 57.6654C11.023 56.9526 11.023 55.7969 10.3102 55.0839Z" fill="#89886D"/>
<path d="M15.612 60.3865C14.8995 59.674 13.7435 59.674 13.0309 60.3865L0.534477 72.8831C-0.178322 73.5959 -0.178322 74.7516 0.534477 75.4646C0.890727 75.8208 1.35801 75.9992 1.82514 75.9992C2.29228 75.9992 2.75941 75.821 3.11581 75.4646L15.612 62.968C16.325 62.2551 16.3248 61.0993 15.612 60.3865Z" fill="#89886D"/>
<path d="M20.9151 65.6897C20.2021 64.9769 19.0465 64.9768 18.3339 65.6896L12.0857 71.9377C11.3729 72.6505 11.3727 73.8063 12.0857 74.5192C12.4421 74.8755 12.9092 75.0539 13.3763 75.0539C13.8435 75.0539 14.3106 74.8756 14.667 74.5192L20.9152 68.2713C21.6277 67.5584 21.628 66.4026 20.9151 65.6897Z" fill="#89886D"/>
<path d="M55.3365 20.6627C53.2109 18.5371 50.3845 17.3662 47.3782 17.3662C44.3717 17.3662 41.5455 18.5369 39.4196 20.6627C37.2939 22.7883 36.123 25.6149 36.123 28.6214C36.123 31.6278 37.2939 34.4541 39.4196 36.58C41.5452 38.7056 44.3716 39.8764 47.3782 39.8764C50.3845 39.8764 53.2108 38.7056 55.3365 36.58C59.7248 32.1913 59.7248 25.0511 55.3365 20.6627ZM52.7551 33.9985C51.3189 35.4348 49.4093 36.2258 47.378 36.2258C45.3467 36.2258 43.437 35.4348 42.0009 33.9985C40.5645 32.5622 39.7736 30.6527 39.7736 28.6214C39.7736 26.59 40.5645 24.6805 42.0009 23.2442C43.437 21.8079 45.3467 21.0169 47.378 21.0169C49.4091 21.0169 51.3189 21.8079 52.7551 23.2442C55.72 26.2091 55.72 31.0336 52.7551 33.9985Z" fill="#89886D"/>
<path d="M74.7287 2.56502C74.5601 1.93416 74.0674 1.44164 73.4365 1.27287C67.1947 -0.395723 60.5872 -0.423184 54.3286 1.1933C53.353 1.44535 52.3915 1.74148 51.4425 2.07072C51.3604 2.09313 51.2795 2.12134 51.2005 2.15533C45.9892 4.00472 41.2224 7.00078 37.2723 10.9396C37.27 10.9418 37.2677 10.944 37.2657 10.9461C37.2554 10.9564 37.2449 10.966 37.2346 10.9762C37.2179 10.993 37.2035 11.0111 37.1876 11.0282C37.1723 11.0448 37.1558 11.06 37.1408 11.0773L31.5501 17.5841C22.7551 17.487 14.2079 20.9621 7.97605 27.194C5.94973 29.2203 4.20128 31.4912 2.77939 33.9437C2.49246 34.4386 2.45417 35.0393 2.67593 35.5667C2.8977 36.0943 3.35385 36.4871 3.90812 36.6279L14.0534 39.2106L12.0683 44.6016C11.0881 47.2641 11.751 50.2806 13.7571 52.2868L23.7151 62.2447C25.1058 63.6351 26.9814 64.3804 28.8886 64.3804C29.7329 64.3804 30.5834 64.2342 31.4006 63.9335L36.792 61.9484L39.3751 72.0942C39.516 72.6484 39.909 73.1047 40.4363 73.3265C40.6631 73.4218 40.9039 73.469 41.1437 73.469C41.4611 73.469 41.7774 73.3863 42.0593 73.2227C44.5113 71.801 46.7821 70.0527 48.8091 68.0261C55.0414 61.7938 58.5148 53.2452 58.4188 44.4507L64.9248 38.8606C64.9417 38.846 64.9566 38.8299 64.973 38.8147C64.9906 38.7985 65.0091 38.7837 65.0262 38.7668C65.0366 38.7564 65.0462 38.7455 65.0566 38.7354C65.0585 38.7332 65.0608 38.7313 65.0629 38.7291C69.0017 34.7791 71.9977 30.0126 73.8471 24.8014C73.8807 24.722 73.9091 24.6408 73.9316 24.5583C74.2608 23.6098 74.5569 22.6482 74.8088 21.6728C76.4249 15.4144 76.3973 8.80697 74.7287 2.56502ZM7.25331 33.7128C8.23196 32.313 9.33797 30.9949 10.5574 29.7753C15.3311 25.0015 21.6335 22.0512 28.2881 21.3807L15.8189 35.8933L7.25331 33.7128ZM15.4935 45.863L17.1924 41.2494L19.5469 43.6039L15.9881 49.2993C15.2641 48.3214 15.0659 47.0248 15.4935 45.863ZM18.6156 51.9832L22.1962 46.2531L24.6818 48.7385L20.0264 53.3938L18.6156 51.9832ZM22.6076 55.9752L27.263 51.3199L29.7485 53.8053L24.0183 57.3859L22.6076 55.9752ZM30.1386 60.508C28.9766 60.9355 27.6803 60.7375 26.7024 60.0134L32.3976 56.4546L34.7522 58.8091L30.1386 60.508ZM46.2271 65.445C45.0076 66.6645 43.6893 67.7702 42.2897 68.7491L40.1087 60.1828L54.6217 47.713C53.9517 54.3674 51.0007 60.6708 46.2271 65.445ZM62.4827 36.1458L38.1545 57.0488L18.9529 37.8472L33.7195 20.6609C33.7339 20.645 33.7475 20.6284 33.7615 20.6119L39.8557 13.5191C43.1773 10.2085 47.1374 7.63714 51.464 5.95163L70.0499 24.5377C68.3647 28.8643 65.7933 32.8244 62.4827 36.1458ZM71.3054 20.6305L55.3715 4.69629C60.6393 3.35782 66.1761 3.30543 71.461 4.54058C72.6961 9.82526 72.6439 15.3623 71.3054 20.6305Z" fill="#89886D"/>
</g>
<defs>
<clipPath id="clip0_0_433">
<rect width="76" height="76" fill="white"/>
</clipPath>
</defs>
</svg>
