<svg width="276" height="275" viewBox="0 0 276 275" fill="none" xmlns="http://www.w3.org/2000/svg">
<path d="M34.1815 133.963L34.4154 129.995L17.3174 128.989L17.0069 128.973L16.773 132.941L33.8714 133.944L34.1815 133.963Z" fill="#122B18"/>
<path d="M34.4691 125.527L35.2706 121.622L26.2201 119.756L32.3159 116.183L28.1167 110.495L37.175 112.346L37.9764 108.44L21.2095 104.997L20.9057 104.935L20.5827 106.474L27.1114 115.116L17.8357 120.411L17.7116 120.477L17.3965 122.016L34.1657 125.463L34.4691 125.527Z" fill="#122B18"/>
<path d="M38.8472 105.386L40.4277 101.659L40.5136 101.465L38.5393 99.5292L41.3557 92.9131L44.119 92.9932L45.7781 89.0842L27.2356 88.6643L27.0271 88.658L25.5426 92.1411L38.517 105.063L38.8472 105.386ZM37.1089 92.7086L35.4942 96.5017L31.5107 92.5352L37.1116 92.709L37.1089 92.7086Z" fill="#122B18"/>
<path d="M39.6753 82.1215C40.8584 82.9143 42.0914 83.4071 43.364 83.5956C44.3065 83.7352 45.2734 83.7097 46.255 83.5122C48.554 83.0528 50.4146 81.7884 51.7823 79.7545C53.1555 77.7023 53.7044 75.4846 53.4083 73.1662L53.3881 73.0271L46.4969 68.4124L43.0295 73.5825L46.1585 75.6757L47.3957 73.8075L49.3932 75.1454C49.3797 75.8426 49.0764 76.6411 48.4865 77.5196C47.6975 78.6952 46.6989 79.4125 45.5093 79.6553C44.303 79.9011 43.1096 79.6182 41.8738 78.7958C40.7229 78.0241 40.0461 77.0641 39.7989 75.8494C39.5572 74.6518 39.8257 73.4454 40.6036 72.271C41.3857 71.1053 42.4438 70.2989 43.7474 69.8743L44.0245 69.7848L43.0884 65.9649L42.7793 66.0498C40.5175 66.6616 38.6793 68.0137 37.31 70.0582C35.9445 72.0952 35.4878 74.2967 35.9465 76.6011C36.4051 78.9055 37.6619 80.7622 39.681 82.1196L39.6753 82.1215Z" fill="#122B18"/>
<path d="M58.3266 71.0435L60.9481 68.058L47.8488 56.549L45.2224 59.5311L58.0901 70.8398L58.3266 71.0435Z" fill="#122B18"/>
<path d="M66.7683 62.0471L60.2462 54.4996L74.1895 55.5144L74.3189 55.5227L75.5806 54.4253L64.1822 41.242L61.168 43.8483L67.7647 51.4802L53.6627 50.4528L53.5329 50.4472L52.3557 51.47L63.7541 64.6534L66.7683 62.0471Z" fill="#122B18"/>
<path d="M78.1719 52.3874L81.8631 50.2622L81.4516 47.5295L87.6853 43.9444L89.8426 45.6732L93.5178 43.5457L78.9668 32.0476L78.8011 31.9169L75.523 33.8067L78.1004 51.9333L78.1684 52.3923L78.1719 52.3874ZM84.419 41.216L80.8439 43.274L80.0549 37.7074L84.419 41.216Z" fill="#122B18"/>
<path d="M100.288 26.4846L105.571 24.6196L104.317 21.0683L89.9958 26.1329L91.2492 29.6841L96.5298 27.8134L101.089 40.6995L104.847 39.3706L100.288 26.4846Z" fill="#122B18"/>
<path d="M113.936 18.933L110.047 19.7686L113.71 36.8198L117.6 35.9843L113.936 18.933Z" fill="#122B18"/>
<path d="M123.309 32.3022C124.554 33.3789 125.985 34.0398 127.572 34.2748C128.253 34.3758 128.957 34.3984 129.695 34.3417C132.146 34.1605 134.173 33.1683 135.707 31.3903C137.238 29.6145 137.923 27.4686 137.743 25.007C137.561 22.5449 136.566 20.5201 134.792 18.995C133.016 17.4641 130.877 16.7882 128.409 16.9586C125.952 17.1389 123.928 18.1315 122.397 19.9099C120.86 21.6876 120.178 23.8339 120.36 26.2933C120.541 28.7443 121.534 30.766 123.309 32.3022ZM125.389 22.372C126.187 21.3746 127.29 20.817 128.68 20.7126C129.093 20.6786 129.491 20.6939 129.863 20.7491C130.753 20.8808 131.535 21.2552 132.198 21.8703C133.137 22.7467 133.668 23.9028 133.767 25.3078C133.87 26.7243 133.526 27.9112 132.716 28.9366C131.91 29.9465 130.835 30.4864 129.426 30.5907C128.009 30.6965 126.86 30.3168 125.908 29.4357C124.968 28.5592 124.438 27.4032 124.338 25.9982C124.233 24.595 124.591 23.3747 125.389 22.3747L125.389 22.372Z" fill="#122B18"/>
<path d="M146.897 24.3736L155.541 35.3561L155.621 35.4578L157.289 35.6586L159.312 18.6594L159.35 18.3467L155.388 17.8742L154.197 27.8954L145.452 16.7837L145.373 16.6794L143.822 16.4959L141.794 33.497L141.758 33.8074L145.718 34.2795L146.897 24.3736Z" fill="#122B18"/>
<path d="M178.221 35.47C178.352 35.5221 178.488 35.5585 178.621 35.5783C179.391 35.6922 180.119 35.2613 180.441 34.4438C180.793 33.4784 180.424 32.5585 179.537 32.2068C178.658 31.8616 177.691 32.2871 177.317 33.2166C177.127 33.6754 177.115 34.158 177.292 34.5814C177.463 34.985 177.789 35.3026 178.221 35.4727L178.221 35.47Z" fill="#122B18"/>
<path d="M203.187 57.1464L205.389 54.0933L198.117 48.8482L199.989 46.2577L205.193 50.0104L205.446 50.1975L207.644 47.1519L202.181 43.214L203.913 40.8151L210.949 45.8892L211.202 46.0736L213.403 43.0205L202.875 35.4429L192.868 49.3141L192.684 49.5671L202.934 56.962L203.187 57.1464Z" fill="#122B18"/>
<path d="M227.155 56.0786L220.851 56.938L221.927 50.6681L218.645 47.2762L216.874 57.4863L206.35 58.9178L205.736 59.0037L209.047 62.4243L216.19 61.4417L214.962 68.5432L218.272 71.9691L220.17 60.8938L230.434 59.4727L227.155 56.0786Z" fill="#122B18"/>
<path d="M234.051 79.8759C235.223 80.0494 236.46 79.7048 237.75 78.8375C240.583 76.9253 240.857 74.2314 238.567 70.8207L234.302 64.478L220.099 74.0331L219.842 74.2099L222.064 77.521L227.827 73.6431L229.869 76.6853C231.156 78.5927 232.549 79.6561 234.048 79.8781L234.051 79.8759ZM233.396 69.8943L235.86 73.5568C236.67 74.8547 236.131 75.4579 235.673 75.7955C234.791 76.3478 234.068 76.1454 233.405 75.1847L230.951 71.5428L233.399 69.8947L233.396 69.8943Z" fill="#122B18"/>
<path d="M229.215 88.7252L234.472 100.218L234.599 100.501L238.02 98.937L234.291 90.7857L246.435 85.23L246.718 85.1032L245.065 81.4764L229.497 88.5984L229.215 88.7252Z" fill="#122B18"/>
<path d="M238.82 104.927C237.622 106.954 237.324 109.187 237.939 111.572C238.549 113.956 239.883 115.772 241.904 116.969C242.874 117.543 243.895 117.906 244.958 118.064C246.105 118.233 247.307 118.161 248.548 117.847C250.939 117.23 252.75 115.896 253.941 113.876C255.138 111.858 255.431 109.624 254.819 107.232C254.205 104.842 252.87 103.03 250.849 101.839C248.822 100.638 246.597 100.344 244.209 100.961C241.828 101.572 240.017 102.906 238.82 104.927ZM242.101 106.983C242.803 105.885 243.819 105.178 245.202 104.822C246.562 104.472 247.824 104.609 248.96 105.218C250.096 105.836 250.822 106.795 251.172 108.161C251.524 109.513 251.349 110.747 250.654 111.822C249.958 112.905 248.917 113.633 247.554 113.978C246.192 114.337 244.932 114.194 243.795 113.587C242.659 112.973 241.936 112.011 241.583 110.645C241.227 109.267 241.396 108.068 242.101 106.983Z" fill="#122B18"/>
<path d="M240.524 123.422L240.795 127.399L247.727 126.924L247.907 129.494L241.251 133.983L241.568 138.546L248.729 133.768C249.625 135.672 251.31 136.547 253.724 136.382C257.135 136.145 258.721 133.947 258.438 129.849L257.934 122.54L257.915 122.227L240.837 123.403L240.526 123.422L240.524 123.422ZM251.782 131.048L251.479 126.666L254.421 126.46L254.723 130.866C254.778 132.389 254.01 132.646 253.446 132.706C252.422 132.753 251.884 132.217 251.782 131.048Z" fill="#122B18"/>
<path d="M241.617 139.836L241.147 144.073L243.596 145.358L242.804 152.505L240.127 153.222L239.675 157.451L257.55 152.507L257.757 152.451L258.176 148.69L242.025 140.054L241.617 139.833L241.617 139.836ZM247.385 147.386L252.342 150.035L246.931 151.479L247.385 147.386Z" fill="#122B18"/>
<path d="M250.614 169.137L237.523 165.218L236.376 169.034L249.472 172.954L247.867 178.321L251.47 179.399L255.826 164.848L252.22 163.77L250.614 169.137Z" fill="#122B18"/>
<path d="M233.212 177.696L231.591 181.328L247.237 188.297L247.523 188.427L249.144 184.795L233.498 177.825L233.212 177.696Z" fill="#122B18"/>
<path d="M237.749 189.346C235.659 188.044 233.447 187.656 231.161 188.177L231.16 188.183C228.87 188.709 227.046 190.036 225.746 192.129C224.435 194.217 224.041 196.436 224.576 198.725C225.105 201.01 226.436 202.831 228.523 204.13C229.643 204.832 230.801 205.268 231.983 205.443C233.01 205.595 234.059 205.549 235.122 205.301C237.404 204.774 239.227 203.447 240.533 201.354C241.839 199.262 242.23 197.043 241.7 194.758C241.173 192.476 239.846 190.653 237.754 189.347L237.749 189.346ZM237.347 199.351C236.597 200.557 235.611 201.265 234.334 201.508C233.056 201.76 231.85 201.508 230.631 200.753C229.426 199.998 228.668 199.018 228.324 197.759C227.992 196.529 228.192 195.307 228.927 194.129C229.673 192.933 230.686 192.21 231.935 191.97C232.481 191.866 233.022 191.851 233.554 191.93C234.262 192.035 234.957 192.301 235.635 192.725C236.83 193.471 237.604 194.475 237.942 195.72C238.28 196.964 238.086 198.149 237.342 199.35L237.347 199.351Z" fill="#122B18"/>
<path d="M216.364 205.059L223.666 211.859L209.695 212.353L209.567 212.356L208.421 213.585L221.175 225.464L223.892 222.547L216.509 215.67L230.638 215.175L230.767 215.167L231.834 214.021L219.081 202.142L216.364 205.059Z" fill="#122B18"/>
<path d="M197.513 230.324C197.09 230.207 196.636 230.297 196.239 230.551C195.416 231.072 195.211 232.075 195.756 232.948C196.078 233.422 196.525 233.712 196.99 233.781C197.361 233.835 197.742 233.756 198.099 233.534C198.487 233.287 198.751 232.918 198.847 232.491C198.946 232.043 198.852 231.57 198.588 231.152C198.332 230.728 197.954 230.433 197.513 230.326L197.513 230.324Z" fill="#122B18"/>
<path d="M176.067 233.807L172.344 235.201L178.458 251.531L182.181 250.138L176.067 233.807Z" fill="#122B18"/>
<path d="M168.196 236.911L164.307 237.78L166.478 247.515L154.569 239.951L152.936 240.319L156.66 257.023L156.73 257.328L160.618 256.459L158.425 246.617L170.466 254.263L171.988 253.925L168.266 237.213L168.196 236.911Z" fill="#122B18"/>
<path d="M148.672 240.906L144.687 241.01L144.943 250.986L134.811 241.356L134.715 241.269L133.041 241.312L133.481 258.423L133.491 258.737L137.477 258.631L137.216 248.544L147.467 258.282L147.561 258.369L149.122 258.334L148.683 241.22L148.672 240.906Z" fill="#122B18"/>
<path d="M121.004 239.785L120.823 239.759C118.462 239.409 116.32 239.908 114.463 241.238C112.556 242.599 111.386 244.526 110.98 246.958C110.574 249.385 111.061 251.588 112.427 253.498C113.788 255.406 115.715 256.576 118.15 256.982L118.347 257.012C120.695 257.359 122.828 256.864 124.685 255.532C126.596 254.168 127.768 252.242 128.172 249.809C128.572 247.384 128.081 245.184 126.718 243.276C125.355 241.36 123.431 240.191 120.999 239.785L121.004 239.785ZM122.363 252.437C121.364 253.211 120.221 253.486 118.879 253.287L118.776 253.271C117.392 253.042 116.333 252.382 115.631 251.32C114.925 250.244 114.683 248.998 114.912 247.611C115.142 246.225 115.776 245.125 116.79 244.336C117.789 243.567 118.932 243.285 120.274 243.484L120.378 243.499C121.786 243.729 122.814 244.371 123.523 245.45C124.229 246.524 124.471 247.77 124.241 249.159C124.014 250.543 123.383 251.644 122.363 252.434L122.363 252.437Z" fill="#122B18"/>
<path d="M103.695 235.444L100.147 234.124L87.8485 247.686L87.5365 248.029L91.5308 249.516L99.9921 240.112L100.155 252.515L100.159 252.728L104.153 254.217L103.699 235.657L103.695 235.444Z" fill="#122B18"/>
<path d="M91.4085 230.703L87.7716 228.474L85.5653 230.145L79.4347 226.383L79.9253 223.658L76.2997 221.445L73.1605 239.721L73.124 239.931L76.3488 241.91L91.0363 230.974L91.4115 230.7L91.4085 230.703ZM82.1245 232.709L77.6113 236.068L78.6102 230.554L82.1245 232.709Z" fill="#122B18"/>
<path d="M58.1428 223.708L53.9792 219.965L51.4676 222.76L62.532 232.706L62.765 232.914L65.2748 230.114L61.1087 226.37L70.0397 216.44L70.2457 216.207L67.2798 213.544L58.1428 223.708Z" fill="#122B18"/>
<path d="M58.2091 203.956L45 215.344L47.5939 218.352L60.8031 206.964L58.2091 203.956Z" fill="#122B18"/>
<path d="M52.1755 200.64C52.673 198.347 52.2417 196.133 50.9061 194.055C49.5609 191.987 47.7177 190.691 45.4292 190.197C43.0914 189.688 40.9164 190.135 38.8515 191.476C36.7843 192.813 35.4856 194.656 34.9882 196.949C34.4987 199.244 34.93 201.457 36.2664 203.53C37.6116 205.598 39.4544 206.897 41.7432 207.388C41.936 207.427 42.1269 207.461 42.3213 207.49C44.4086 207.799 46.4199 207.335 48.321 206.109C50.3855 204.772 51.6781 202.933 52.1755 200.64ZM48.4139 199.732C48.0927 200.982 47.3323 202.001 46.153 202.763C45.0153 203.5 43.8194 203.786 42.5974 203.605C42.5521 203.598 42.5095 203.592 42.4651 203.58C41.1892 203.358 40.1993 202.675 39.4357 201.493C38.6608 200.295 38.4397 199.106 38.7582 197.856C39.0741 196.605 39.8345 195.585 41.0191 194.825C42.1568 194.087 43.35 193.802 44.5694 193.982C44.6146 193.989 44.6572 193.995 44.7017 194.007C45.9829 194.23 46.9728 194.912 47.7364 196.095C48.5064 197.289 48.7302 198.478 48.4139 199.732Z" fill="#122B18"/>
<path d="M44.6336 183.742L43.1517 180.043L33.8917 183.762L39.3741 170.902L39.4242 170.784L38.7973 169.23L22.9189 175.623L22.6302 175.736L24.112 179.435L33.4792 175.672L27.9317 188.677L27.8816 188.795L28.4668 190.245L44.3445 183.857L44.6336 183.742Z" fill="#122B18"/>
<path d="M27.1037 152.907C27.5977 152.86 28.0255 152.635 28.3098 152.277C28.5837 151.934 28.7005 151.495 28.6458 151.038C28.5862 150.558 28.3534 150.145 27.9898 149.882C27.6337 149.622 27.1714 149.51 26.6881 149.578C25.6695 149.732 25.0417 150.498 25.1602 151.444C25.213 151.895 25.4344 152.292 25.7783 152.561C26.0068 152.744 26.2811 152.859 26.5793 152.903C26.7497 152.928 26.9263 152.93 27.1064 152.907L27.1037 152.907Z" fill="#122B18"/>
</svg>
