 <svg  width="290" height="290" viewBox="0 0 366 366"
          fill="none" xmlns="http://www.w3.org/2000/svg">
          <g clip-path="url(#clip0_0_473)">
            <path
              d="M67.4386 132.068C70.0628 133.509 72.455 133.643 74.5369 132.427C76.55 131.258 78.284 129.662 79.6866 127.677C81.1233 125.594 82.4507 124.524 83.6315 124.5C84.8112 124.468 85.6915 124.956 86.2991 125.965C86.8953 126.966 86.5873 128.588 85.3912 130.758C83.6942 133.311 81.8601 134.794 79.9292 135.165L79.5897 135.231L81.237 140.932L81.3258 141.231L81.6271 141.146C83.4481 140.618 85.1802 139.717 86.784 138.47C88.3918 137.22 89.8893 135.353 91.2332 132.908C92.6617 130.324 93.1532 127.594 92.7017 124.8C92.2415 121.98 90.9158 119.948 88.76 118.763C86.0211 117.245 83.48 117.077 81.1947 118.238C78.9634 119.379 77.0899 121.02 75.6378 123.098C74.2058 124.908 73.0083 125.92 72.0725 126.103C71.2069 126.268 70.4947 125.87 69.8955 124.868C69.3022 123.857 69.5426 122.352 70.6264 120.389C71.7171 118.413 73.243 117.219 75.1576 116.847L75.4899 116.782L73.759 110.787L73.4577 110.872C71.6367 111.4 70.0397 112.185 68.7095 113.21C67.3743 114.24 66.0121 116.001 64.6711 118.436C63.5008 120.556 63.0617 123.045 63.3761 125.833C63.6881 128.661 65.0538 130.759 67.4355 132.067L67.4386 132.068Z"
              fill="#122B18" />
            <path
              d="M91.4497 92.5131L108.063 109.965L112.808 105.446L96.1962 87.9983L103.345 81.1863L99.1023 76.7289L80.0542 94.8668L84.2974 99.3242L91.4497 92.5131Z"
              fill="#122B18" />
            <path
              d="M126.782 94.0558L132.693 91.2238L127.395 80.1851L131.827 78.0563L143.367 85.9303L143.516 86.0281L150.291 82.7801L137.911 74.2345C140.538 71.5604 140.932 68.2567 139.084 64.4087C136.546 59.1228 132.017 57.9795 125.629 61.0576L113.981 66.641L113.695 66.7746L126.643 93.7747L126.778 94.0579L126.782 94.0558ZM133.677 67.0607C134.467 68.8458 133.894 70.1908 131.928 71.178L124.734 74.6261L122.283 69.5167L129.519 66.0413C131.499 65.1704 132.868 65.5071 133.677 67.0607Z"
              fill="#122B18" />
            <path
              d="M169.865 48.9433L163.768 49.6419L163.554 49.6658L155.114 80.6562L154.994 81.103L161.732 80.3255L161.945 80.3046L163.192 75.588L176.107 74.1034L178.395 78.4157L185.323 77.5962L169.968 49.1318L169.864 48.9464L169.865 48.9433ZM172.956 67.8713L165.044 68.7804L167.9 58.2921L172.956 67.8713Z"
              fill="#122B18" />
            <path
              d="M198.987 79.1655L204.912 80.871L205.146 80.9347L216.372 62.4762L216.077 83.8391L216.074 84.0754L221.997 85.7871L222.231 85.8508L238.136 59.3574L238.345 59.0062L231.883 57.1448L231.646 57.0801L221.637 74.1658L222.245 54.3768L216.125 52.6131L215.891 52.5494L205.698 69.6044L206.274 50.0256L206.283 49.7841L199.581 47.8539L198.992 78.9261L198.987 79.1655Z"
              fill="#122B18" />
            <path
              d="M265.3 76.9217L254.796 68.8794L236.598 92.653L236.408 92.9015L241.609 96.881L249.055 87.1586L254.372 91.2324C259.994 95.5415 264.715 95.2703 268.409 90.4372C271.977 85.778 270.929 81.2297 265.303 76.9227L265.3 76.9217ZM259.13 87.1214L252.791 82.2676L256.243 77.7616L262.614 82.6425C264.292 84.0193 264.606 85.3897 263.597 86.8175C262.36 88.3298 260.91 88.4352 259.131 87.1183L259.13 87.1214Z"
              fill="#122B18" />
            <path
              d="M276.06 127.346L273.264 131.34L277.149 137.139L295.498 110.507L295.621 110.333L292.101 105.045L260.662 111.64L260.207 111.738L264.088 117.559L268.855 116.526L276.055 127.348L276.06 127.346ZM275.763 115.07L286.398 112.839L280.179 121.701L275.763 115.07Z"
              fill="#122B18" />
            <path
              d="M282.13 152.686L283.79 159.024L307.101 152.935L309.596 162.486L315.556 160.927L308.983 135.785L308.902 135.481L302.945 137.041L305.439 146.592L282.13 152.686Z"
              fill="#122B18" />
            <path
              d="M315.845 198.99L315.869 198.675L304.035 197.754L305.061 184.617L316.559 185.51L316.873 185.535L317.359 179.317L317.383 179.006L287.537 176.677L287.222 176.656L286.737 182.87L286.715 183.186L298.923 184.136L297.896 197.276L286.005 196.351L285.69 196.33L285.224 202.55L285.204 202.859L315.05 205.188L315.362 205.208L315.845 198.99Z"
              fill="#122B18" />
            <path
              d="M63.6667 185.877C65.138 183.846 66.0628 181.537 66.4126 179.029C66.8706 176.76 67.4812 175.318 68.2244 174.735C68.9222 174.189 69.7399 174.22 70.7267 174.843C71.7147 175.473 72.1812 176.929 72.1052 179.17C72.032 181.456 71.2355 183.164 69.6731 184.377L69.3994 184.589L73.6647 189.149L73.8954 188.933C75.2784 187.633 76.3444 186.21 77.0673 184.691C77.788 183.169 78.2015 180.987 78.3003 178.201C78.3795 175.778 77.6386 173.364 76.0981 171.023C74.5377 168.65 72.3595 167.407 69.6518 167.306C66.6588 167.206 64.4738 168.178 63.1599 170.205C61.8921 172.172 61.07 174.381 60.7255 176.775C60.3889 179.283 59.6922 180.837 58.651 181.397C57.6088 181.96 56.6132 181.924 55.6109 181.296C54.621 180.672 54.1606 179.089 54.24 176.622C54.6015 173.572 55.5687 171.419 57.1106 170.207L57.3833 169.998L53.1211 165.439L52.8905 165.655C51.5104 166.945 50.3714 168.536 49.5036 170.385C48.6408 172.228 48.1523 174.573 48.0575 177.358C47.9573 180.31 48.7543 182.965 50.4278 185.249C51.6432 186.911 53.0733 187.999 54.6955 188.51C55.3308 188.711 55.9912 188.821 56.6819 188.845C59.8018 188.951 62.1511 187.952 63.6596 185.878L63.6667 185.877Z"
              fill="#122B18" />
            <path
              d="M78.88 222.716L84.8363 221.149L78.1488 195.713L72.1925 197.279L74.7022 206.825L51.4026 212.952L53.0645 219.295L76.3692 213.163L78.88 222.716Z"
              fill="#122B18" />
            <path
              d="M92.5302 252.114C95.0251 250.578 96.4497 248.63 96.7598 246.324C97.0715 244.046 96.2937 241.373 94.446 238.383L87.4964 227.121L61.7551 243.013L65.1952 248.587L75.6151 242.155L78.195 246.339L71.5873 258.648L71.5009 258.804L75.4495 265.207L82.6376 251.992C85.5707 254.314 88.9024 254.361 92.5302 252.114ZM89.3228 247.017C87.6401 247.998 86.2382 247.573 85.0451 245.712L80.8529 238.921L85.6856 235.939L89.9051 242.772C90.9821 244.658 90.7869 246.051 89.3259 247.018L89.3228 247.017Z"
              fill="#122B18" />
            <path
              d="M83.9475 274.837L83.5399 275.054L88.7155 279.436L88.8824 279.574L93.1738 277.255L103.093 285.658L101.512 290.273L106.85 294.764L117.097 264.085L117.161 263.882L112.322 259.779L83.9423 274.832L83.9475 274.837ZM99.4035 273.95L109 268.859L105.48 279.098L99.4035 273.95Z"
              fill="#122B18" />
            <path
              d="M150.003 301.892L151.525 282.398L151.545 282.153L145.293 280.022L134.291 296.578L135.803 277.054L135.819 276.808L129.221 274.561L127.155 305.564L127.14 305.804L133.209 307.87L145.3 289.966L143.984 311.291L143.973 311.529L150.034 313.589L167.412 287.543L160.806 285.297L150.003 301.892Z"
              fill="#122B18" />
            <path
              d="M186.564 286.794L173.336 287.109L174.059 317.354L180.615 317.197L180.322 304.953L187.014 304.795C194.087 304.625 197.604 301.458 197.46 295.378C197.314 289.51 193.652 286.629 186.565 286.791L186.564 286.794ZM191.44 295.578C191.426 297.526 190.351 298.516 188.151 298.609L180.17 298.802L180.033 293.13L188.062 292.936C190.229 292.965 191.336 293.823 191.437 295.577L191.44 295.578Z"
              fill="#122B18" />
            <path
              d="M219.442 280.118L213.65 282.153L213.449 282.222L212.064 314.311L212.044 314.773L218.448 312.527L218.65 312.458L218.824 307.583L231.089 303.279L234.134 306.816L234.272 306.979L240.849 304.648L219.581 280.28L219.441 280.121L219.442 280.118ZM219.124 300.534L219.591 289.679L226.639 297.896L219.125 300.531L219.124 300.534Z"
              fill="#122B18" />
            <path
              d="M259.417 262.818L259.667 262.629L255.926 257.73L235.263 273.494L235.016 273.687L238.752 278.581L246.608 272.592L261.027 291.498L261.219 291.749L266.43 287.77L251.812 268.615L259.417 262.818Z"
              fill="#122B18" />
            <path
              d="M275.392 231.62L271.675 237.012L281.446 243.755L273.959 254.604L264.209 247.871L260.483 253.267L285.129 270.268L285.387 270.448L289.107 265.05L279.033 258.096L286.514 247.252L296.591 254.207L300.118 249.057L300.298 248.798L275.654 231.801L275.392 231.62Z"
              fill="#122B18" />
            <path
              d="M153.654 274.142C103.145 258.214 75.0087 204.166 90.9369 153.654C106.865 103.142 160.916 75.0095 211.425 90.9367C261.934 106.864 290.07 160.913 274.142 211.425C258.214 261.937 204.166 290.07 153.654 274.142ZM210.48 93.9343C161.624 78.5283 109.337 105.742 93.9305 154.601C78.5235 203.46 105.738 255.743 154.597 271.15C203.456 286.557 255.739 259.343 271.146 210.484C286.553 161.625 259.339 109.341 210.48 93.9343Z"
              fill="#122B18" />
            <path
              d="M138.778 321.317C62.2558 297.187 19.6317 215.3 43.7618 138.778C67.892 62.2556 149.779 19.6315 226.301 43.7616C302.823 67.8918 345.447 149.779 321.317 226.301C297.187 302.823 215.3 345.447 138.778 321.317ZM225.357 46.7561C150.488 23.1472 70.3652 64.8529 46.7563 139.722C23.1474 214.591 64.8531 294.713 139.722 318.322C214.591 341.931 294.714 300.226 318.322 225.357C341.931 150.488 300.226 70.365 225.357 46.7561Z"
              fill="#122B18" />
          </g>
          <defs>
            <clipPath id="clip0_0_473">
              <rect width="291.028" height="291.028" fill="white" transform="translate(87.5234) rotate(17.502)" />
            </clipPath>
          </defs>
        </svg>