<svg width="290" height="290" viewBox="0 0 366 366" fill="none" xmlns="http://www.w3.org/2000/svg">
<g clip-path="url(#clip0_0_473)">
<path d="M67.4386 132.068C70.0628 133.509 72.455 133.643 74.5369 132.427C76.55 131.258 78.284 129.662 79.6866 127.677C81.1233 125.594 82.4507 124.524 83.6315 124.5C84.8112 124.468 85.6915 124.956 86.2991 125.965C86.8953 126.966 86.5873 128.588 85.3912 130.758C83.6942 133.311 81.8601 134.794 79.9292 135.165L79.5897 135.231L81.237 140.932L81.3258 141.231L81.6271 141.146C83.4481 140.618 85.1802 139.717 86.784 138.47C88.3918 137.22 89.8893 135.353 91.2332 132.908C92.6617 130.324 93.1532 127.594 92.7017 124.8C92.2415 121.98 90.9158 119.948 88.76 118.763C86.0211 117.245 83.48 117.077 81.1947 118.238C78.9634 119.379 77.0899 121.02 75.6378 123.098C74.2058 124.908 73.0083 125.92 72.0725 126.103C71.2069 126.268 70.4947 125.87 69.8955 124.868C69.3022 123.857 69.5426 122.352 70.6264 120.389C71.7171 118.413 73.243 117.219 75.1576 116.847L75.4899 116.782L73.759 110.787L73.4577 110.872C71.6367 111.4 70.0397 112.185 68.7095 113.21C67.3743 114.24 66.0121 116.001 64.6711 118.436C63.5008 120.556 63.0617 123.045 63.3761 125.833C63.6881 128.661 65.0538 130.759 67.4355 132.067L67.4386 132.068Z" fill="#122B18"/>
<path d="M91.4497 92.5131L108.063 109.965L112.808 105.446L96.1962 87.9983L103.345 81.1863L99.1023 76.7289L80.0542 94.8668L84.2974 99.3242L91.4497 92.5131Z" fill="#122B18"/>
<path d="M126.782 94.0558L132.693 91.2238L127.395 80.1851L131.827 78.0563L143.367 85.9303L143.516 86.0281L150.291 82.7801L137.911 74.2345C140.538 71.5604 140.932 68.2567 139.084 64.4087C136.546 59.1228 132.017 57.9795 125.629 61.0576L113.981 66.641L113.695 66.7746L126.643 93.7747L126.778 94.0579L126.782 94.0558ZM133.677 67.0607C134.467 68.8458 133.894 70.1908 131.928 71.178L124.734 74.6261L122.283 69.5167L129.519 66.0413C131.499 65.1704 132.868 65.5071 133.677 67.0607Z" fill="#122B18"/>
<path d="M169.865 48.9433L163.768 49.6419L163.554 49.6658L155.114 80.6562L154.994 81.103L161.732 80.3255L161.945 80.3046L163.192 75.588L176.107 74.1034L178.395 78.4157L185.323 77.5962L169.968 49.1318L169.864 48.9464L169.865 48.9433ZM172.956 67.8713L165.044 68.7804L167.9 58.2921L172.956 67.8713Z" fill="#122B18"/>
<path d="M198.987 79.1655L204.912 80.871L205.146 80.9347L216.372 62.4762L216.077 83.8391L216.074 84.0754L221.997 85.7871L222.231 85.8508L238.136 59.3574L238.345 59.0062L231.883 57.1448L231.646 57.0801L221.637 74.1658L222.245 54.3768L216.125 52.6131L215.891 52.5494L205.698 69.6044L206.274 50.0256L206.283 49.7841L199.581 47.8539L198.992 78.9261L198.987 79.1655Z" fill="#122B18"/>
<path d="M265.3 76.9217L254.796 68.8794L236.598 92.653L236.408 92.9015L241.609 96.881L249.055 87.1586L254.372 91.2324C259.994 95.5415 264.715 95.2703 268.409 90.4372C271.977 85.778 270.929 81.2297 265.303 76.9227L265.3 76.9217ZM259.13 87.1214L252.791 82.2676L256.243 77.7616L262.614 82.6425C264.292 84.0193 264.606 85.3897 263.597 86.8175C262.36 88.3298 260.91 88.4352 259.131 87.1183L259.13 87.1214Z" fill="#122B18"/>
<path d="M276.06 127.346L273.264 131.34L277.149 137.139L295.498 110.507L295.621 110.333L292.101 105.045L260.662 111.64L260.207 111.738L264.088 117.559L268.855 116.526L276.055 127.348L276.06 127.346ZM275.763 115.07L286.398 112.839L280.179 121.701L275.763 115.07Z" fill="#122B18"/>
<path d="M282.13 152.686L283.79 159.024L307.101 152.935L309.596 162.486L315.556 160.927L308.983 135.785L308.902 135.481L302.945 137.041L305.439 146.592L282.13 152.686Z" fill="#122B18"/>
<path d="M315.845 198.99L315.869 198.675L304.035 197.754L305.061 184.617L316.559 185.51L316.873 185.535L317.359 179.317L317.383 179.006L287.537 176.677L287.222 176.656L286.737 182.87L286.715 183.186L298.923 184.136L297.896 197.276L286.005 196.351L285.69 196.33L285.224 202.55L285.204 202.859L315.05 205.188L315.362 205.208L315.845 198.99Z" fill="#122B18"/>
<path d="M63.6667 185.877C65.138 183.846 66.0628 181.537 66.4126 179.029C66.8706 176.76 67.4812 175.318 68.2244 174.735C68.9222 174.189 69.7399 174.22 70.7267 174.843C71.7147 175.473 72.1812 176.929 72.1052 179.17C72.032 181.456 71.2355 183.164 69.6731 184.377L69.3994 184.589L73.6647 189.149L73.8954 188.933C75.2784 187.633 76.3444 186.21 77.0673 184.691C77.788 183.169 78.2015 180.987 78.3003 178.201C78.3795 175.778 77.6386 173.364 76.0981 171.023C74.5377 168.65 72.3595 167.407 69.6518 167.306C66.6588 167.206 64.4738 168.178 63.1599 170.205C61.8921 172.172 61.07 174.381 60.7255 176.775C60.3889 179.283 59.6922 180.837 58.651 181.397C57.6088 181.96 56.6132 181.924 55.6109 181.296C54.621 180.672 54.1606 179.089 54.24 176.622C54.6015 173.572 55.5687 171.419 57.1106 170.207L57.3833 169.998L53.1211 165.439L52.8905 165.655C51.5104 166.945 50.3714 168.536 49.5036 170.385C48.6408 172.228 48.1523 174.573 48.0575 177.358C47.9573 180.31 48.7543 182.965 50.4278 185.249C51.6432 186.911 53.0733 187.999 54.6955 188.51C55.3308 188.711 55.9912 188.821 56.6819 188.845C59.8018 188.951 62.1511 187.952 63.6596 185.878L63.6667 185.877Z" fill="#122B18"/>
<path d="M78.88 222.716L84.8363 221.149L78.1488 195.713L72.1925 197.279L74.7022 206.825L51.4026 212.952L53.0645 219.295L76.3692 213.163L78.88 222.716Z" fill="#122B18"/>
<path d="M92.5302 252.114C95.0251 250.578 96.4497 248.63 96.7598 246.324C97.0715 244.046 96.2937 241.373 94.446 238.383L87.4964 227.121L61.7551 243.013L65.1952 248.587L75.6151 242.155L78.195 246.339L71.5873 258.648L71.5009 258.804L75.4495 265.207L82.6376 251.992C85.5707 254.314 88.9024 254.361 92.5302 252.114ZM89.3228 247.017C87.6401 247.998 86.2382 247.573 85.0451 245.712L80.8529 238.921L85.6856 235.939L89.9051 242.772C90.9821 244.658 90.7869 246.051 89.3259 247.018L89.3228 247.017Z" fill="#122B18"/>
<path d="M83.9475 274.837L83.5399 275.054L88.7155 279.436L88.8824 279.574L93.1738 277.255L103.093 285.658L101.512 290.273L106.85 294.764L117.097 264.085L117.161 263.882L112.322 259.779L83.9423 274.832L83.9475 274.837ZM99.4035 273.95L109 268.859L105.48 279.098L99.4035 273.95Z" fill="#122B18"/>
<path d="M150.003 301.892L151.525 282.398L151.545 282.153L145.293 280.022L134.291 296.578L135.803 277.054L135.819 276.808L129.221 274.561L127.155 305.564L127.14 305.804L133.209 307.87L145.3 289.966L143.984 311.291L143.973 311.529L150.034 313.589L167.412 287.543L160.806 285.297L150.003 301.892Z" fill="#122B18"/>
<path d="M186.564 286.794L173.336 287.109L174.059 317.354L180.615 317.197L180.322 304.953L187.014 304.795C194.087 304.625 197.604 301.458 197.46 295.378C197.314 289.51 193.652 286.629 186.565 286.791L186.564 286.794ZM191.44 295.578C191.426 297.526 190.351 298.516 188.151 298.609L180.17 298.802L180.033 293.13L188.062 292.936C190.229 292.965 191.336 293.823 191.437 295.577L191.44 295.578Z" fill="#122B18"/>
<path d="M219.442 280.118L213.65 282.153L213.449 282.222L212.064 314.311L212.044 314.773L218.448 312.527L218.65 312.458L218.824 307.583L231.089 303.279L234.134 306.816L234.272 306.979L240.849 304.648L219.581 280.28L219.441 280.121L219.442 280.118ZM219.124 300.534L219.591 289.679L226.639 297.896L219.125 300.531L219.124 300.534Z" fill="#122B18"/>
<path d="M259.417 262.818L259.667 262.629L255.926 257.73L235.263 273.494L235.016 273.687L238.752 278.581L246.608 272.592L261.027 291.498L261.219 291.749L266.43 287.77L251.812 268.615L259.417 262.818Z" fill="#122B18"/>
<path d="M275.392 231.62L271.675 237.012L281.446 243.755L273.959 254.604L264.209 247.871L260.483 253.267L285.129 270.268L285.387 270.448L289.107 265.05L279.033 258.096L286.514 247.252L296.591 254.207L300.118 249.057L300.298 248.798L275.654 231.801L275.392 231.62Z" fill="#122B18"/>
<path d="M153.654 274.142C103.145 258.214 75.0087 204.166 90.9369 153.654C106.865 103.142 160.916 75.0095 211.425 90.9367C261.934 106.864 290.07 160.913 274.142 211.425C258.214 261.937 204.166 290.07 153.654 274.142ZM210.48 93.9343C161.624 78.5283 109.337 105.742 93.9305 154.601C78.5235 203.46 105.738 255.743 154.597 271.15C203.456 286.557 255.739 259.343 271.146 210.484C286.553 161.625 259.339 109.341 210.48 93.9343Z" fill="#122B18"/>
<path d="M138.778 321.317C62.2558 297.187 19.6317 215.3 43.7618 138.778C67.892 62.2556 149.779 19.6315 226.301 43.7616C302.823 67.8918 345.447 149.779 321.317 226.301C297.187 302.823 215.3 345.447 138.778 321.317ZM225.357 46.7561C150.488 23.1472 70.3652 64.8529 46.7563 139.722C23.1474 214.591 64.8531 294.713 139.722 318.322C214.591 341.931 294.714 300.226 318.322 225.357C341.931 150.488 300.226 70.365 225.357 46.7561Z" fill="#122B18"/>
<path d="M222.638 200.931L238.482 150.687C238.62 150.249 238.547 149.803 238.332 149.433L242.74 144.421C242.972 144.159 243.107 143.825 243.129 143.476L244.302 123.177C244.307 123.107 244.279 123.047 244.272 122.981C244.265 122.864 244.256 122.752 244.224 122.64C244.197 122.554 244.156 122.48 244.114 122.399C244.064 122.298 244.016 122.202 243.945 122.115C243.882 122.037 243.808 121.98 243.73 121.915C243.668 121.865 243.628 121.798 243.557 121.755C243.534 121.741 243.508 121.74 243.484 121.729C243.397 121.681 243.303 121.658 243.207 121.628C243.105 121.596 243.006 121.558 242.901 121.545C242.875 121.543 242.852 121.529 242.826 121.525C242.746 121.52 242.676 121.549 242.599 121.558C242.498 121.567 242.401 121.571 242.304 121.601C242.196 121.631 242.102 121.683 242.004 121.733C241.923 121.776 241.843 121.815 241.77 121.873C241.68 121.943 241.609 122.029 241.536 122.122C241.492 122.175 241.434 122.208 241.398 122.268L230.718 139.569C230.532 139.867 230.452 140.218 230.495 140.567L231.232 147.197C230.843 147.376 230.524 147.7 230.386 148.138L214.785 197.61L205.247 187.892C207.129 185.794 208.8 183.517 210.225 181.05C210.255 180.999 210.316 180.987 210.341 180.931C210.365 180.877 210.358 180.824 210.375 180.769C211.784 178.28 213.006 175.661 213.888 172.864L219.715 154.385C223.247 143.184 217.011 131.199 205.81 127.667L194.949 124.241C183.748 120.709 171.764 126.95 168.232 138.151L162.405 156.63C161.521 159.433 161.019 162.282 160.744 165.132C160.729 165.181 160.697 165.219 160.687 165.27C160.677 165.324 160.718 165.368 160.711 165.42C160.319 169.89 160.674 174.346 161.725 178.654C161.724 178.661 161.715 178.665 161.713 178.671L158.185 186.655C157.552 171.245 148.925 160.808 148.446 160.243C148.058 159.785 147.435 159.589 146.854 159.741C145.923 159.984 124.088 165.942 116.711 189.333C109.335 212.725 123.806 230.132 124.427 230.863C124.62 231.09 124.872 231.258 125.15 231.346C125.427 231.433 125.726 231.443 126.018 231.365C126.761 231.172 140.902 227.284 150.3 213.748L154.352 215.026L149.32 230.983L143.127 234.204C142.566 234.498 142.237 235.103 142.288 235.736C142.346 236.368 142.776 236.907 143.381 237.098L183.303 249.687C183.907 249.877 184.569 249.682 184.979 249.198C185.387 248.71 185.461 248.024 185.171 247.462L181.945 241.27L195.346 198.774L210.844 210.076L197.465 252.505C197.204 253.331 197.662 254.211 198.489 254.472L203.587 256.08C204.413 256.34 205.293 255.882 205.554 255.056L217.838 216.099C220.724 216.27 223.475 214.493 224.383 211.612L225.409 208.359C226.317 205.481 225.082 202.451 222.621 200.932L222.638 200.931ZM118.13 197.606C118.421 195.243 118.921 192.797 119.715 190.28C120.509 187.764 121.492 185.494 122.605 183.397C122.488 185.733 122.108 188.197 121.294 190.778C120.48 193.36 119.377 195.609 118.13 197.606ZM117.839 203.207C120.426 200.229 122.786 196.487 124.289 191.723C125.791 186.958 126.002 182.535 125.595 178.613C126.642 177.173 127.746 175.867 128.883 174.659C129.966 179.89 130.118 186.105 127.98 192.887C125.842 199.668 122.148 204.671 118.263 208.335C118.025 206.694 117.87 204.99 117.839 203.207ZM126.21 228.025C124.706 225.977 120.867 220.162 118.95 212.027C123.679 207.978 128.353 202.156 130.978 193.832C133.602 185.508 133.117 178.059 131.563 172.029C137.802 166.469 144.28 163.904 146.687 163.089C148.191 165.137 152.03 170.952 153.951 179.085C149.222 183.134 144.547 188.96 141.923 197.283C139.298 205.607 139.785 213.061 141.336 219.09C135.097 224.649 128.617 227.211 126.21 228.025ZM144.013 216.459C142.931 211.225 142.774 205.011 144.914 198.227C147.053 191.442 150.746 186.442 154.635 182.776C154.873 184.417 155.028 186.121 155.06 187.901C152.472 190.882 150.108 194.626 148.605 199.391C147.103 204.155 146.892 208.578 147.301 212.505C146.254 213.944 145.146 215.253 144.012 216.462L144.013 216.459ZM150.276 207.75C150.397 205.397 150.783 202.925 151.6 200.335C152.417 197.744 153.519 195.498 154.769 193.499C154.478 195.865 153.977 198.311 153.182 200.834C152.387 203.357 151.394 205.644 150.276 207.75ZM152.046 211.007C153.654 208.272 155.085 205.238 156.177 201.778C156.818 199.743 157.243 197.771 157.577 195.832L163.139 183.237C163.357 183.824 163.59 184.406 163.836 184.982L155.306 212.032L152.044 211.003L152.046 211.007ZM167.151 226.125L162.799 239.925L147.95 235.243L151.359 233.473C151.728 233.281 152.006 232.948 152.132 232.551L155.511 221.834L167.332 225.561L167.154 226.126L167.151 226.125ZM156.452 218.838L160.263 206.752L186.899 215.152L183.088 227.238L156.452 218.838ZM161.207 203.761L165.85 189.035C167.048 191.152 168.371 193.214 169.962 195.126L175.558 201.861C175.754 202.099 176.014 202.266 176.294 202.355C176.575 202.443 176.883 202.455 177.18 202.373L185.628 200.066C188.029 199.409 190.298 198.481 192.494 197.433L187.848 212.165L161.212 203.766L161.207 203.761ZM180.643 245.552L165.79 240.869L170.32 226.504L182.144 230.232L178.765 240.949C178.639 241.347 178.676 241.779 178.868 242.148L180.646 245.553L180.643 245.552ZM184.794 197.033L177.322 199.074L172.372 193.116C167.44 187.177 164.576 180.035 163.858 172.624L169.428 173.776C170.277 173.953 171.107 173.408 171.284 172.558C171.46 171.708 170.877 170.924 170.065 170.702L163.708 169.389C163.7 168.759 163.668 168.129 163.694 167.499L169.401 168.679C170.251 168.855 171.08 168.31 171.257 167.46C171.431 166.606 170.852 165.776 170.038 165.604L163.993 164.356C164.276 162.082 164.693 159.813 165.398 157.577L171.226 139.098C174.237 129.547 184.455 124.228 194.003 127.239L204.865 130.664C214.413 133.675 219.732 143.893 216.72 153.444L210.893 171.923C210.188 174.159 209.228 176.257 208.155 178.282L202.487 175.84C201.728 175.516 200.771 175.862 200.424 176.661C200.078 177.457 200.447 178.384 201.245 178.724L206.596 181.032C206.255 181.565 205.869 182.06 205.5 182.574L199.546 180.005C198.757 179.722 197.823 180.028 197.483 180.826C197.137 181.622 197.506 182.549 198.304 182.889L203.525 185.139C198.685 190.797 192.239 195.003 184.795 197.04L184.794 197.033ZM211.85 206.918L196.351 195.619L196.461 195.27C198.843 193.79 201.089 192.122 203.106 190.198L213.714 201.009L211.849 206.921L211.85 206.918ZM219.233 201.278L203.045 252.613L200.939 251.949L230.338 158.718L232.445 159.383L219.233 201.278ZM233.388 156.391L231.281 155.727L232.906 150.577L235.012 151.241L233.388 156.391ZM235.361 148.059L234.451 147.772L233.673 140.755L240.808 129.192L240.023 142.758L235.361 148.059ZM221.403 210.666C221.023 211.872 220.013 212.709 218.851 212.93L221.639 204.091C222.462 204.941 222.81 206.203 222.43 207.409L221.404 210.663L221.403 210.666Z" fill="#122B18"/>
<path d="M175.285 142.019L211.725 153.51C212.552 153.771 213.432 153.312 213.692 152.486C213.953 151.66 213.495 150.779 212.668 150.519L176.228 139.028C175.402 138.767 174.522 139.225 174.261 140.052C174 140.878 174.459 141.759 175.285 142.019Z" fill="#122B18"/>
<path d="M191.125 169.558L195.635 155.258C195.895 154.432 195.437 153.551 194.611 153.291C193.784 153.03 192.904 153.488 192.643 154.315L187.938 169.235C187.813 169.633 187.85 170.065 188.042 170.434L190.023 174.236L181.185 171.449L184.989 169.471C185.358 169.279 185.636 168.946 185.761 168.548L190.466 153.628C190.727 152.802 190.268 151.921 189.442 151.661C188.615 151.4 187.735 151.858 187.475 152.685L182.965 166.985L176.379 170.411C175.818 170.706 175.488 171.31 175.539 171.943C175.598 172.576 176.028 173.115 176.632 173.305L192.696 178.371C193.301 178.562 193.963 178.367 194.373 177.882C194.781 177.394 194.855 176.709 194.565 176.146L191.135 169.561L191.125 169.558Z" fill="#122B18"/>
<path d="M182.478 157.992C182.739 157.166 182.281 156.286 181.454 156.025L170.855 152.682C170.028 152.422 169.148 152.88 168.887 153.707C168.627 154.533 169.085 155.413 169.911 155.674L180.511 159.016C181.337 159.277 182.218 158.819 182.478 157.992Z" fill="#122B18"/>
<path d="M209.706 166.578C209.967 165.752 209.509 164.872 208.682 164.611L198.083 161.269C197.256 161.008 196.376 161.466 196.115 162.293C195.855 163.119 196.313 163.999 197.139 164.26L207.739 167.602C208.565 167.863 209.446 167.405 209.706 166.578Z" fill="#122B18"/>
<path d="M189.233 184.097L176.169 179.978C175.343 179.717 174.462 180.175 174.202 181.002C173.121 184.428 175.03 188.095 178.456 189.176L182.083 190.319C185.509 191.4 189.18 189.492 190.26 186.066C190.521 185.239 190.062 184.359 189.236 184.098L189.233 184.097ZM183.024 187.324L179.398 186.18C178.161 185.79 177.304 184.754 177.092 183.558L186.421 186.499C185.555 187.352 184.258 187.713 183.024 187.324Z" fill="#122B18"/>
<path d="M186.198 137.852C186.22 137.889 186.27 137.892 186.296 137.927C186.495 138.19 186.742 138.407 187.047 138.503C187.353 138.599 187.678 138.566 187.993 138.462C188.034 138.448 188.077 138.475 188.116 138.457L192.292 136.742L194.728 140.542C194.75 140.579 194.8 140.582 194.827 140.617C195.025 140.88 195.272 141.096 195.577 141.193C195.883 141.289 196.208 141.256 196.523 141.152C196.564 141.138 196.607 141.165 196.646 141.147L200.825 139.433L203.262 143.233C203.284 143.27 203.334 143.272 203.36 143.308C203.558 143.57 203.805 143.787 204.111 143.884C204.416 143.98 204.742 143.947 205.056 143.843C205.098 143.829 205.14 143.856 205.18 143.838L210.566 141.627C211.369 141.297 211.753 140.38 211.422 139.578C211.09 138.771 210.174 138.387 209.373 138.721L205.198 140.436L202.761 136.636C202.729 136.589 202.68 136.56 202.647 136.515C202.576 136.429 202.506 136.349 202.419 136.281C202.343 136.22 202.268 136.169 202.181 136.121C202.092 136.072 202.002 136.034 201.903 136.003C201.805 135.972 201.712 135.953 201.611 135.941C201.515 135.931 201.421 135.929 201.324 135.936C201.216 135.945 201.111 135.967 201.006 135.998C200.953 136.015 200.898 136.008 200.843 136.031L196.665 137.745L194.228 133.945C194.197 133.895 194.144 133.868 194.111 133.824C194.043 133.738 193.972 133.661 193.888 133.594C193.81 133.529 193.731 133.48 193.644 133.432C193.554 133.384 193.468 133.346 193.369 133.315C193.27 133.284 193.178 133.265 193.077 133.253C192.978 133.243 192.887 133.241 192.79 133.248C192.679 133.257 192.577 133.279 192.472 133.31C192.419 133.327 192.364 133.32 192.313 133.341L188.138 135.056L185.701 131.256C185.231 130.522 184.263 130.311 183.531 130.782C182.801 131.25 182.589 132.221 183.057 132.952L186.201 137.853L186.198 137.852Z" fill="#122B18"/>
<path d="M144.825 168.982C143.999 168.721 143.119 169.179 142.858 170.006L127.042 220.16C126.782 220.987 127.24 221.867 128.067 222.127C128.893 222.388 129.773 221.93 130.034 221.103L145.849 170.949C146.11 170.123 145.652 169.242 144.825 168.982Z" fill="#122B18"/>
</g>
<defs>
<clipPath id="clip0_0_473">
<rect width="291.028" height="291.028" fill="white" transform="translate(87.5234) rotate(17.502)"/>
</clipPath>
</defs>
</svg>
