<svg width="187" height="47" viewBox="0 0 187 47" fill="none" xmlns="http://www.w3.org/2000/svg">
<path d="M62.8788 46.1078H54.4496C54.2505 45.1852 54.0617 44.2626 53.8625 43.3086C53.6214 43.5287 53.3803 43.7594 53.1182 43.9691C51.273 45.5102 49.1133 46.3384 46.7649 46.7158C44.3641 47.0933 41.9842 47.1037 39.6358 46.4013C36.3229 45.3948 34.1527 43.2875 33.5656 39.7964C33.1672 37.406 33.3244 35.0577 34.6769 32.9399C35.8616 31.0842 37.6858 30.1301 39.7092 29.4906C41.7011 28.8616 43.7665 28.6624 45.8213 28.3689C47.5093 28.1278 49.1867 27.8342 50.8641 27.5511C51.0738 27.5197 51.273 27.4358 51.4722 27.3519C52.5311 26.9326 53.4117 26.314 53.5271 25.0874C53.6633 23.7035 53.4327 22.4035 52.248 21.4704C51.5665 20.9462 50.7593 20.747 49.9206 20.6631C48.673 20.5373 47.4359 20.4849 46.1988 20.7784C44.2488 21.2293 43.0431 22.5293 42.7391 24.5107C42.7076 24.7099 42.6761 24.8987 42.6342 25.1188H34.268C34.4043 24.343 34.4882 23.5986 34.6769 22.8857C35.5051 19.6672 37.6334 17.6123 40.6318 16.3752C42.6552 15.5365 44.7834 15.1696 46.9641 15.0542C49.5851 14.9179 52.1956 15.0437 54.7642 15.6308C56.1376 15.9454 57.4376 16.4381 58.6223 17.2139C60.782 18.6398 61.8513 20.6841 61.8723 23.2422C61.9038 28.5681 61.8723 33.9044 61.8933 39.2303C61.8933 41.0859 61.9667 42.9521 62.4384 44.7763C62.5538 45.2166 62.732 45.6465 62.8892 46.1183L62.8788 46.1078ZM53.5795 31.4197C53.0029 31.6713 52.5101 31.9858 51.9754 32.1116C50.7488 32.3947 49.5117 32.6044 48.2641 32.8036C46.9222 33.0133 45.5907 33.2125 44.3326 33.7367C42.9278 34.3238 41.9632 35.2778 41.7745 36.8504C41.5229 38.9157 42.2882 40.5827 44.5842 41.1489C45.7375 41.4319 46.9012 41.4319 48.0649 41.3271C50.7803 41.0859 52.6464 39.4819 53.3069 36.8294C53.7472 35.0576 53.4851 33.2439 53.5795 31.4302V31.4197Z" fill="#122B18"/>
<path d="M20.4719 15.8285H28.7857V46.0852H20.8913V41.9336C20.8913 41.9336 20.8074 41.9126 20.7655 41.9021C20.6816 42.0174 20.5872 42.1328 20.5034 42.2481C18.3332 45.3199 15.3348 46.8401 11.6025 46.9344C10.0089 46.9763 8.43633 46.8191 6.90567 46.3683C3.69758 45.4352 1.81046 43.2546 0.971743 40.0779C0.562868 38.5263 0.384644 36.9327 0.384644 35.3286C0.384644 28.9858 0.384644 22.6431 0.384644 16.3003V15.818H8.70891V16.3422C8.70891 21.9511 8.70891 27.5495 8.70891 33.1585C8.70891 34.427 8.81375 35.6746 9.18069 36.9012C9.85167 39.1134 11.2775 40.2666 13.584 40.3505C14.4017 40.382 15.2509 40.3086 16.0582 40.1408C17.9977 39.7424 19.1929 38.4843 19.8219 36.6496C20.3042 35.2343 20.4719 33.7771 20.4719 32.2883C20.4719 26.9939 20.4719 21.689 20.4719 16.3946V15.818V15.8285Z" fill="#122B18"/>
<path d="M68.298 4.26538H76.5909V46.086H68.298V4.26538Z" fill="#122B18"/>
<path d="M95.0139 25.3701H85.8405V16.3854H95.0139V25.3701Z" fill="#122B18"/>
<path d="M95.0244 37.1217V46.096H85.8405V37.1217H95.0244Z" fill="#122B18"/>
<path d="M138.669 38.3065V34.0396H141.06V46.0751H138.816C138.806 45.7711 138.785 45.4671 138.774 45.0687C138.197 45.8445 137.506 46.222 136.635 46.3268C135.797 46.4212 135.01 46.3058 134.277 45.9074C133.595 45.5405 133.081 44.9848 132.767 44.2719C131.981 42.5525 131.939 40.8227 132.767 39.1138C133.805 37.0065 136.206 36.7235 137.684 37.5202C138.04 37.7089 138.323 38.013 138.68 38.296L138.669 38.3065ZM134.507 41.892C134.664 42.3848 134.801 43.0558 135.094 43.6324C135.451 44.3348 136.132 44.6179 136.918 44.534C137.694 44.4606 138.229 44.0308 138.491 43.2969C138.837 42.3534 138.858 41.3993 138.585 40.4452C138.302 39.4493 137.621 38.9251 136.688 38.9251C135.755 38.9251 135.073 39.4388 134.769 40.4243C134.643 40.8332 134.602 41.263 134.497 41.8815L134.507 41.892Z" fill="#122B18"/>
<path d="M136.55 29.6671H134.17V17.642H136.54V22.0452C137.095 21.4581 137.672 20.9968 138.416 20.7977C140.461 20.2525 142.149 21.2799 142.295 23.3977C142.442 25.463 142.327 27.5493 142.327 29.6566H139.958V29.1848C139.958 27.7695 139.958 26.3542 139.958 24.9388C139.958 24.5719 139.926 24.205 139.863 23.838C139.748 23.1356 139.349 22.7267 138.762 22.6428C137.882 22.517 137.158 22.7477 136.907 23.4082C136.697 23.9324 136.582 24.5299 136.561 25.1065C136.519 26.6162 136.55 28.1155 136.55 29.6776V29.6671Z" fill="#122B18"/>
<path d="M159.027 23.651C158.303 23.651 157.622 23.651 156.951 23.651C156.857 23.651 156.773 23.651 156.647 23.6405C156.699 22.5502 157.182 21.7534 158.136 21.2607C159.257 20.6736 160.463 20.6316 161.69 20.747C162.057 20.7784 162.424 20.8518 162.77 20.9566C164.08 21.3341 164.615 22.0574 164.625 23.4099C164.625 24.6679 164.615 25.9365 164.625 27.1946C164.636 28.0019 164.699 28.8091 164.73 29.6897C164.08 29.6897 163.336 29.7212 162.612 29.6583C162.465 29.6478 162.35 29.2599 162.193 28.9978C162.14 29.0293 162.036 29.1131 161.931 29.176C160.61 30.0357 159.205 30.193 157.758 29.6164C156.762 29.218 156.364 28.3583 156.353 27.3309C156.353 26.2929 156.731 25.4123 157.769 25.0768C158.67 24.7833 159.624 24.6785 160.557 24.5002C160.861 24.4373 161.165 24.3953 161.459 24.322C161.899 24.2066 162.193 23.9656 162.182 23.4518C162.161 22.8962 161.952 22.5187 161.438 22.4349C160.977 22.3615 160.484 22.351 160.023 22.4244C159.404 22.5292 159.132 23.0219 159.037 23.6615L159.027 23.651ZM162.214 25.5696C161.543 25.6849 160.935 25.7688 160.348 25.9051C159.981 25.9889 159.593 26.0938 159.268 26.272C158.66 26.618 158.597 27.6035 159.121 28.0228C160.023 28.7462 161.753 28.243 162.057 27.1317C162.193 26.6389 162.161 26.1042 162.214 25.5591V25.5696Z" fill="#122B18"/>
<path d="M149.832 10.3255C149.392 11.982 148.071 13.0933 146.456 13.2296C144.936 13.3554 143.542 13.1037 142.441 11.9295C141.057 10.4618 140.889 7.63114 142.106 5.86983C143.248 4.21336 145.534 3.54237 147.442 4.33915C148.941 4.9577 149.654 6.17385 149.937 7.69403C150.021 8.17629 150.031 8.66906 150.073 9.22471H143.731C143.762 10.3675 144.192 11.0489 144.999 11.3215C146.027 11.657 147.002 11.3529 147.662 10.5037C147.725 10.4199 147.851 10.336 147.945 10.336C148.564 10.3255 149.172 10.336 149.822 10.336L149.832 10.3255ZM143.741 7.66261H147.568C147.442 6.48841 146.75 5.81738 145.691 5.83835C144.59 5.84883 143.825 6.56179 143.752 7.66261H143.741Z" fill="#122B18"/>
<path d="M145.86 25.8841C145.871 27.0479 146.311 27.7398 147.129 28.0019C148.156 28.3269 149.184 28.0019 149.771 27.2156C149.855 27.1002 150.023 27.0059 150.159 27.0059C150.746 26.9849 151.333 27.0059 151.962 27.0059C151.731 27.8865 151.27 28.589 150.589 29.1446C149.037 30.4132 145.357 30.4342 143.984 27.8341C142.831 25.664 143.302 22.3406 145.902 21.1559C148.209 20.097 151.49 20.8308 152.067 24.5212C152.13 24.9615 152.151 25.4019 152.193 25.9156H145.86V25.8841ZM145.871 24.3535H149.666C149.635 23.2002 148.901 22.5083 147.779 22.5188C146.668 22.5293 145.892 23.2736 145.871 24.3535Z" fill="#122B18"/>
<path d="M176.777 16.1014V14.0465C177.029 14.0674 177.281 14.0779 177.532 14.1094C178.811 14.2561 179.388 13.5328 178.937 12.3167C177.983 9.76905 177.029 7.2319 176.075 4.68429C176.023 4.55849 175.981 4.43271 175.918 4.25448C176.725 4.25448 177.49 4.24394 178.256 4.26491C178.371 4.26491 178.549 4.45367 178.591 4.57948C179.178 6.30933 179.755 8.03914 180.321 9.76899C180.363 9.8948 180.415 10.0311 180.489 10.2513C181.149 8.19642 181.778 6.23595 182.407 4.25448H184.881C184.829 4.41174 184.798 4.55849 184.745 4.68429C183.602 7.76658 182.46 10.8489 181.317 13.9207C180.719 15.5352 180.048 16.0175 178.329 16.0804C177.815 16.1013 177.291 16.0804 176.756 16.0804L176.777 16.1014Z" fill="#122B18"/>
<path d="M117.061 25.3596C117.029 27.1733 116.421 28.7144 114.67 29.4902C112.878 30.287 111.074 30.1926 109.502 28.9241C108.181 27.8652 107.877 26.3555 108.024 24.7515C108.181 23.0426 108.957 21.6796 110.645 21.0611C112.416 20.4111 114.146 20.5369 115.635 21.795C116.725 22.7071 117.071 23.9757 117.061 25.3596ZM114.754 25.3805C114.608 24.7619 114.545 24.2063 114.345 23.7031C114.041 22.9273 113.423 22.5498 112.574 22.5394C111.745 22.5289 111.095 22.8434 110.749 23.6192C110.246 24.7724 110.246 25.9571 110.781 27.0999C111.095 27.7813 111.693 28.1063 112.458 28.1168C113.255 28.1377 113.916 27.8547 114.241 27.1313C114.492 26.5756 114.587 25.9466 114.754 25.3805Z" fill="#122B18"/>
<path d="M116.916 37.1425C119.662 37.1425 121.445 38.9457 121.466 41.7344C121.476 44.5232 119.652 46.3683 116.905 46.3683C114.169 46.3683 112.366 44.5441 112.366 41.7659C112.366 38.9562 114.148 37.1425 116.926 37.1425H116.916ZM119.107 41.7868C118.981 41.2207 118.908 40.6651 118.729 40.1514C118.436 39.3126 117.754 38.9352 116.895 38.9352C116.056 38.9352 115.395 39.3021 115.081 40.1094C114.651 41.2102 114.641 42.332 115.112 43.4328C115.437 44.1877 116.066 44.5336 116.874 44.5336C117.712 44.5336 118.362 44.1877 118.677 43.4223C118.887 42.9086 118.96 42.332 119.086 41.7764L119.107 41.7868Z" fill="#122B18"/>
<path d="M151.427 40.9589C151.427 44.125 150.232 45.7396 148.103 46.2429C146.007 46.7356 143.952 45.9597 142.998 44.3033C141.866 42.3533 142.274 39.3863 143.899 38.1283C145.503 36.8912 147.296 36.8072 149.078 37.6145C150.829 38.4008 151.416 39.9524 151.427 40.9694V40.9589ZM149.078 41.9759C149.005 41.4097 148.995 41.0323 148.911 40.6549C148.691 39.6379 148.083 39.0823 147.097 38.9565C146.279 38.8516 145.493 39.229 145.147 39.9734C144.612 41.1371 144.612 42.3323 145.147 43.4961C145.482 44.2299 146.122 44.534 146.908 44.534C147.695 44.534 148.345 44.2194 148.649 43.4751C148.869 42.9509 148.963 42.3638 149.068 41.9654L149.078 41.9759Z" fill="#122B18"/>
<path d="M121.234 12.9984H118.854V4.2862H121.098V5.4604C121.244 5.32411 121.328 5.2612 121.381 5.1983C122.408 3.95071 124.568 3.62569 125.91 4.52731C126.602 4.9886 126.958 5.70157 126.979 6.48787C127.032 8.64757 127 10.8177 127 13.0089H124.652V12.5266C124.652 11.0379 124.652 9.5387 124.652 8.04997C124.652 7.74594 124.631 7.43142 124.568 7.13787C124.4 6.36206 123.981 5.98461 123.257 5.93219C122.387 5.86929 121.727 6.21524 121.496 6.9596C121.36 7.37896 121.297 7.82977 121.297 8.2701C121.276 9.81124 121.286 11.3524 121.276 12.8831C121.276 12.9145 121.265 12.9355 121.234 13.0194V12.9984Z" fill="#122B18"/>
<path d="M158.544 46.0857C158.544 44.4921 158.544 42.93 158.544 41.3784C158.544 41.1897 158.544 41.0115 158.544 40.8228C158.523 39.6591 158.041 39.0614 157.077 39.0195C155.997 38.9671 155.273 39.5961 155.221 40.7389C155.158 42.2276 155.168 43.7268 155.148 45.2155C155.148 45.4881 155.148 45.7712 155.148 46.0752H152.768V37.3735H155.022V38.4953C155.127 38.4324 155.189 38.4114 155.21 38.3695C156.185 37.0066 158.02 36.8808 159.341 37.3735C160.463 37.7929 160.872 38.7469 160.914 39.8268C160.987 41.8712 160.945 43.9155 160.956 45.9599C160.956 45.9913 160.935 46.0123 160.914 46.0752H158.544V46.0857Z" fill="#122B18"/>
<path d="M114.493 4.27576H116.842V12.9879H114.588V11.8242C114.053 12.5162 113.487 12.967 112.742 13.1452C111.904 13.3444 111.054 13.3129 110.247 12.9984C109.262 12.6105 108.863 11.7718 108.748 10.7968C108.675 10.1783 108.664 9.53876 108.654 8.90972C108.643 7.38954 108.654 5.85887 108.654 4.30724H111.054C111.054 4.45402 111.075 4.61129 111.075 4.77903C111.075 6.22582 111.075 7.67256 111.075 9.11935C111.075 9.4129 111.096 9.70647 111.128 9.98953C111.233 10.8387 111.673 11.3 112.417 11.3734C113.309 11.4678 114.011 11.0903 114.252 10.3145C114.378 9.89517 114.441 9.44436 114.451 9.00404C114.472 7.48386 114.462 5.95322 114.462 4.43304C114.462 4.40159 114.462 4.37012 114.483 4.28625L114.493 4.27576Z" fill="#122B18"/>
<path d="M125.155 46.0962H122.775V37.3945H125.018V38.4953C125.113 38.4534 125.155 38.4429 125.186 38.4114C126.203 37.1114 127.566 36.9227 129.055 37.2896C130.156 37.5622 130.795 38.3695 130.858 39.4389C130.994 41.6405 130.984 43.8526 131.036 46.0962H128.573C128.573 45.918 128.573 45.7397 128.573 45.5615C128.552 43.905 128.573 42.2381 128.51 40.5816C128.478 39.6066 127.985 39.1034 127.136 39.0405C126.172 38.9671 125.49 39.4284 125.291 40.3405C125.197 40.7913 125.176 41.2526 125.165 41.7139C125.155 43.1607 125.165 44.6075 125.165 46.1067L125.155 46.0962Z" fill="#122B18"/>
<path d="M164.963 6.81352H162.751C162.436 5.49254 161.136 5.48201 160.224 5.78605C160.014 5.85943 159.763 6.17396 159.763 6.38364C159.763 6.62477 159.941 6.98121 160.151 7.08605C160.623 7.3167 161.157 7.44255 161.671 7.58932C162.331 7.77803 163.023 7.89332 163.663 8.14494C165.487 8.84736 165.823 11.2482 164.229 12.4119C163.715 12.7893 163.055 13.041 162.426 13.1563C161.283 13.3765 160.13 13.345 159.019 12.9047C157.792 12.4224 157.184 11.5418 157.121 10.2103C157.194 10.2103 157.268 10.1893 157.341 10.1893C158.002 10.1893 158.662 10.1893 159.312 10.1893C159.794 11.4789 160.685 11.9401 161.933 11.5627C162.08 11.5208 162.227 11.4579 162.352 11.374C162.971 10.9651 162.96 10.1579 162.29 9.86433C161.681 9.59174 161.01 9.45544 160.36 9.26673C159.847 9.11996 159.312 9.00465 158.809 8.82642C157.96 8.5119 157.352 7.97722 157.31 6.99173C157.268 5.95381 157.582 5.05216 158.547 4.60135C160.214 3.81505 161.944 3.80457 163.621 4.60135C164.46 4.99974 164.89 5.8175 164.952 6.83444L164.963 6.81352Z" fill="#122B18"/>
<path d="M178.212 26.8688C178.915 26.8688 179.596 26.8688 180.267 26.8688C180.351 26.8688 180.466 26.9946 180.498 27.089C180.812 27.9801 181.441 28.4099 182.396 28.3261C182.71 28.2946 183.035 28.2108 183.329 28.0954C183.675 27.9487 183.874 27.6656 183.884 27.2672C183.895 26.8583 183.664 26.6067 183.329 26.5019C182.637 26.2607 181.924 26.0825 181.211 25.8833C180.729 25.7366 180.225 25.6317 179.764 25.4325C178.129 24.73 177.887 22.5284 179.324 21.4486C179.911 21.0082 180.592 20.8405 181.305 20.7567C182.28 20.6413 183.245 20.6832 184.178 20.9978C185.31 21.3857 185.96 22.2453 186.054 23.4615H183.853C183.36 22.434 182.815 22.1615 181.62 22.3607C181.232 22.4236 180.896 22.5808 180.823 23.0107C180.75 23.451 181.012 23.7341 181.389 23.8494C182.05 24.0591 182.721 24.2058 183.381 24.3841C183.8 24.4994 184.22 24.5938 184.618 24.7406C185.467 25.0446 186.17 25.5269 186.275 26.5228C186.4 27.6656 186.117 28.7035 185.069 29.2591C183.224 30.2446 181.316 30.2342 179.47 29.2172C178.611 28.735 178.223 27.9067 178.212 26.8583V26.8688Z" fill="#122B18"/>
<path d="M136.845 10.1144C137.118 9.24426 137.391 8.3636 137.663 7.49343C137.967 6.52891 138.271 5.56436 138.554 4.58935C138.628 4.33774 138.733 4.24344 138.995 4.25392C139.655 4.27489 140.316 4.25392 141.049 4.25392C140.798 4.99828 140.567 5.7007 140.326 6.40312C139.624 8.47895 138.911 10.5548 138.219 12.6411C138.114 12.9451 137.988 13.0395 137.674 13.029C137.013 12.9975 136.353 13.029 135.692 13.008C135.566 13.008 135.378 12.8822 135.336 12.7774C134.371 10.0096 133.428 7.23132 132.474 4.46355C132.453 4.41113 132.453 4.34828 132.442 4.25392C133.207 4.25392 133.962 4.23291 134.717 4.27485C134.832 4.27485 135 4.50554 135.053 4.65232C135.587 6.35072 136.112 8.04912 136.636 9.75801C136.667 9.87333 136.709 9.98861 136.751 10.1039C136.783 10.1039 136.814 10.1039 136.845 10.1144Z" fill="#122B18"/>
<path d="M118.873 29.668V22.5494H117.458V20.9664H118.894C118.831 19.8236 118.915 18.7647 119.932 18.0937C120.896 17.4542 121.966 17.6324 123.046 17.6639V19.3204C122.5 19.4462 121.924 19.4462 121.525 19.7188C121.274 19.8865 121.305 20.4631 121.19 20.9349H122.92V22.5599H121.284V29.6785H118.873V29.668Z" fill="#122B18"/>
<path d="M175.436 11.206V13.0511C174.388 13.156 173.35 13.2608 172.343 12.8624C171.609 12.5689 171.305 11.9818 171.295 11.2269C171.295 9.64383 171.295 8.06079 171.295 6.47771C171.295 6.30996 171.295 6.1422 171.295 5.93252H169.858V4.28653H171.284V1.68652H173.664V4.25511H175.415V5.91153H173.696C173.696 6.5196 173.696 7.06476 173.696 7.60993C173.696 8.52203 173.696 9.42369 173.696 10.3358C173.696 11.0068 173.916 11.2164 174.576 11.2269C174.849 11.2269 175.121 11.2269 175.436 11.2269V11.206Z" fill="#122B18"/>
<path d="M128.688 20.9452V18.3242H131.068V20.9347H132.819V22.5388H131.11C131.11 22.7275 131.089 22.8742 131.089 23.021C131.089 24.2791 131.089 25.5476 131.089 26.8057C131.089 27.7178 131.299 27.9171 132.211 27.8961C132.41 27.8961 132.609 27.8751 132.829 27.8646V29.7098C131.791 29.8356 130.753 29.9195 129.757 29.5316C129.013 29.238 128.699 28.6299 128.699 27.8541C128.699 26.271 128.699 24.6775 128.699 23.0944C128.699 22.9267 128.699 22.7589 128.699 22.5492H127.262V20.9347H128.709L128.688 20.9452Z" fill="#122B18"/>
<path d="M175.948 18.3242C175.948 19.0791 175.958 19.8024 175.948 20.5258C175.948 20.8403 176.032 20.9662 176.367 20.9557C176.797 20.9347 177.216 20.9557 177.678 20.9557V22.5492H175.99C175.979 22.7484 175.958 22.8952 175.958 23.042C175.958 24.2686 175.958 25.5058 175.958 26.7324C175.958 27.7388 176.178 27.938 177.195 27.9066C177.342 27.9066 177.499 27.8961 177.678 27.8856V29.7308C176.661 29.8566 175.633 29.9299 174.648 29.563C173.788 29.238 173.547 28.5146 173.547 27.6654C173.547 26.1557 173.547 24.646 173.547 23.1363C173.547 22.9686 173.547 22.8009 173.547 22.5702H172.142V20.9557H173.536V18.3242H175.958H175.948Z" fill="#122B18"/>
<path d="M111.095 46.0967H108.746V34.0507H111.095V46.0967Z" fill="#122B18"/>
<path d="M153.557 13.009H151.177V4.29678H153.441V5.82746C154.259 4.52745 155.286 3.8774 156.765 4.08708V6.27826C156.461 6.27826 156.167 6.27826 155.884 6.27826C154.647 6.27826 153.808 6.98066 153.651 8.21777C153.556 8.93068 153.567 9.65407 153.557 10.3775C153.546 11.2372 153.557 12.0968 153.557 13.009Z" fill="#122B18"/>
<path d="M165.936 20.9768H168.169V22.3502C168.169 22.3502 168.232 22.3712 168.263 22.3817C168.347 22.2663 168.431 22.1615 168.505 22.0462C169.134 21.176 169.983 20.7357 171.052 20.7043C171.409 20.6938 171.587 20.7881 171.566 21.2075C171.534 21.7841 171.566 22.3712 171.566 23.0107C171.388 23.0002 171.241 22.9897 171.094 22.9793C169.49 22.7905 168.41 23.7026 168.358 25.3381C168.316 26.5962 168.337 27.8648 168.337 29.1228C168.337 29.2906 168.337 29.4584 168.337 29.668H165.957V20.9873L165.936 20.9768Z" fill="#122B18"/>
<path d="M168.758 13.0089H166.431V4.27576H168.758V13.0089Z" fill="#122B18"/>
<path d="M131.423 13.0089H129.096V4.27576H131.423V13.0089Z" fill="#122B18"/>
<path d="M129.086 0.952515H131.435V2.8711H129.086V0.952515Z" fill="#122B18"/>
<path d="M168.768 2.86049H166.42V0.962891H168.768V2.86049Z" fill="#122B18"/>
</svg>
