<svg width="216" height="277" viewBox="0 0 216 277" fill="none" xmlns="http://www.w3.org/2000/svg">
<path d="M206.354 161.569V57.546C206.354 56.6357 205.95 55.8357 205.325 55.2748L210.658 43.2294C210.943 42.5949 210.998 41.8869 210.832 41.2157L200.985 2.284C200.948 2.14607 200.865 2.05412 200.81 1.92539C200.727 1.7139 200.644 1.50242 200.516 1.30932C200.414 1.1622 200.295 1.04267 200.166 0.923134C200.01 0.757624 199.854 0.601308 199.67 0.481773C199.513 0.380628 199.339 0.316263 199.164 0.233508C199.017 0.169143 198.897 0.0771927 198.741 0.0312176C198.686 0.0128276 198.64 0.0312176 198.585 0.0312176C198.392 -0.00556242 198.198 0.0036326 197.996 0.0036326C197.794 0.0036326 197.573 -0.0147574 197.371 0.0312176C197.325 0.0312176 197.279 0.0312176 197.224 0.0312176C197.077 0.0679977 196.966 0.159948 196.838 0.215118C196.644 0.288678 196.451 0.362238 196.277 0.481773C196.093 0.601308 195.955 0.748428 195.808 0.904744C195.679 1.03347 195.55 1.15301 195.44 1.30932C195.311 1.50242 195.238 1.70471 195.146 1.92539C195.091 2.04492 195.008 2.14607 194.971 2.284L185.123 41.2157C184.958 41.8869 185.013 42.5949 185.298 43.2294L190.622 55.2748C190.006 55.8449 189.601 56.6357 189.601 57.546V159.978L165.869 147.344C168.168 142.269 169.97 136.973 171.184 131.483C171.202 131.382 171.312 131.327 171.321 131.216C171.321 131.115 171.294 131.023 171.294 130.922C172.471 125.387 173.216 119.723 173.216 113.921V75.651C173.216 52.4612 154.357 33.6022 131.167 33.6022H108.676C85.486 33.6022 66.627 52.4612 66.627 75.651V113.921C66.627 119.713 67.3718 125.368 68.5488 130.895C68.5488 131.005 68.5028 131.106 68.512 131.216C68.5212 131.336 68.6408 131.4 68.6591 131.511C70.5717 140.154 73.8819 148.319 78.415 155.795C78.415 155.813 78.415 155.822 78.4059 155.831L76.5025 172.962C66.1581 144.319 43.7223 129.782 42.4901 129.01C41.4879 128.375 40.2006 128.375 39.1983 129.01C37.5892 130.012 0 154.204 0 202.634C0 251.064 37.5984 275.256 39.1983 276.259C39.6949 276.58 40.2741 276.737 40.8442 276.737C41.4143 276.737 41.9936 276.58 42.4901 276.259C43.7774 275.449 68.0891 259.735 77.7438 228.665H86.1389V261.694L76.3829 271.44C75.5002 272.323 75.2336 273.656 75.7117 274.815C76.1991 275.974 77.33 276.728 78.5806 276.728H161.234C162.485 276.728 163.616 275.974 164.103 274.815C164.581 273.656 164.315 272.323 163.432 271.44L153.685 261.694V173.716L189.592 185.789V273.638C189.592 275.348 190.98 276.737 192.691 276.737H203.246C204.957 276.737 206.345 275.348 206.345 273.638V192.979C211.871 191.582 216 186.607 216 180.649V173.909C216 167.951 211.881 162.976 206.345 161.578L206.354 161.569ZM7.57669 217.383C6.72155 212.749 6.20663 207.848 6.20663 202.634C6.20663 197.421 6.71236 192.556 7.5583 187.94C8.73526 192.409 9.48006 197.292 9.48006 202.634C9.48006 207.976 8.73526 212.887 7.56749 217.383H7.57669ZM10.3536 228.104C13.4615 220.96 15.6867 212.5 15.6867 202.634C15.6867 192.768 13.4615 184.308 10.3536 177.155C11.4754 173.817 12.7811 170.691 14.2155 167.73C19.3555 176.943 23.3277 188.557 23.3277 202.634C23.3277 216.712 19.3463 228.288 14.1971 237.502C12.7719 234.559 11.4662 231.433 10.3536 228.104ZM40.8626 269.859C36.8076 266.898 26.1322 258.227 17.682 244.048C24.1921 233.621 29.5252 219.866 29.5252 202.634C29.5252 185.403 24.1829 171.656 17.682 161.22C26.1322 147.041 36.8076 138.37 40.8626 135.409C44.9084 138.37 55.593 147.041 64.034 161.22C57.524 171.656 52.1817 185.403 52.1817 202.634C52.1817 219.866 57.524 233.612 64.034 244.048C55.5838 258.218 44.9084 266.889 40.8626 269.859ZM67.5006 237.538C62.3606 228.334 58.3791 216.712 58.3791 202.634C58.3791 188.557 62.3698 176.98 67.5098 167.767C68.9258 170.718 70.2315 173.826 71.3533 177.164C68.2454 184.318 66.0202 192.768 66.0202 202.643C66.0202 212.519 68.2454 220.969 71.3533 228.113C70.2315 231.451 68.9258 234.587 67.4914 237.538H67.5006ZM74.1486 217.328C72.9716 212.859 72.2268 207.986 72.2268 202.643C72.2268 197.301 72.9716 192.418 74.1486 187.95C75.0037 192.566 75.5002 197.448 75.5002 202.643C75.5002 207.838 74.9945 212.721 74.1486 217.328ZM79.3989 222.468C80.8057 216.362 81.6977 209.797 81.6977 202.643C81.6977 198.432 81.3299 194.46 80.8058 190.616L83.8033 163.592C84.5665 164.567 85.3481 165.523 86.1572 166.461V222.468H79.3989ZM116.832 241.97V270.539H86.0837L91.4536 265.179C92.0329 264.599 92.3547 263.809 92.3547 262.99V240.803H116.832V241.97ZM92.3547 234.605V209.586H147.506V234.605H92.3547ZM92.3547 203.388V172.888C95.8672 176.171 99.582 179.26 103.72 181.927L118.257 191.287C118.763 191.609 119.351 191.775 119.931 191.775C120.51 191.775 121.098 191.609 121.613 191.287L136.151 181.927C140.279 179.27 143.994 176.18 147.506 172.897V203.388H92.3547ZM153.777 270.548H123.038V240.803H147.506V262.99C147.506 263.818 147.828 264.599 148.407 265.179L153.777 270.539V270.548ZM132.794 176.713L119.94 184.998L107.085 176.713C94.2764 168.456 84.6309 156.714 78.884 143.188L90.0467 142.048C91.7478 141.873 92.9891 140.356 92.8144 138.655C92.6397 136.954 91.0398 135.658 89.4123 135.888L76.6772 137.193C76.291 136.007 75.8496 134.839 75.5278 133.644L86.9756 132.476C88.6767 132.301 89.918 130.784 89.7433 129.074C89.5686 127.364 88.0606 126.113 86.3411 126.306L74.2221 127.548C73.4038 123.097 72.8429 118.573 72.8429 113.948V75.6786C72.8429 55.9093 88.9249 39.8272 108.694 39.8272H131.185C150.945 39.8272 167.037 55.9093 167.037 75.6786V113.948C167.037 118.573 166.476 123.097 165.657 127.548L153.538 126.306C151.865 126.113 150.311 127.382 150.136 129.074C149.961 130.775 151.203 132.301 152.904 132.476L164.352 133.644C164.03 134.848 163.588 136.016 163.202 137.193L150.458 135.888C148.766 135.658 147.23 136.954 147.056 138.655C146.881 140.356 148.122 141.883 149.823 142.048L160.995 143.188C155.249 156.714 145.603 168.456 132.794 176.713ZM189.61 179.27L153.704 167.197V166.479C157.317 162.277 160.563 157.79 163.211 152.972L189.61 167.031V179.27ZM200.166 164.263V270.548H195.808V77.4992H200.166V164.236V164.263ZM200.166 71.3293H195.808V60.6723H200.166V71.3293ZM198.925 54.4749H197.04L191.403 41.7306L197.978 15.7087L204.552 41.7306L198.916 54.4841L198.925 54.4749ZM209.821 180.667C209.821 183.168 208.423 185.338 206.364 186.442V168.144C208.423 169.256 209.821 171.426 209.821 173.918V180.658V180.667Z" fill="#C8C0A1"/>
<path d="M82.2043 78.7405H157.649C159.36 78.7405 160.748 77.3521 160.748 75.6418C160.748 73.9315 159.36 72.5431 157.649 72.5431H82.2043C80.494 72.5431 79.1056 73.9315 79.1056 75.6418C79.1056 77.3521 80.494 78.7405 82.2043 78.7405Z" fill="#C8C0A1"/>
<path d="M128.382 121.203V91.6044C128.382 89.8941 126.993 88.5057 125.283 88.5057C123.573 88.5057 122.184 89.8941 122.184 91.6044V122.49C122.184 123.318 122.506 124.1 123.086 124.679L129.072 130.665H110.773L116.759 124.679C117.339 124.1 117.66 123.309 117.66 122.49V91.6044C117.66 89.8941 116.272 88.5057 114.562 88.5057C112.852 88.5057 111.463 89.8941 111.463 91.6044V121.203L101.091 131.575C100.218 132.458 99.9509 133.791 100.42 134.95C100.898 136.108 102.029 136.862 103.289 136.862H136.547C137.798 136.862 138.929 136.108 139.416 134.95C139.894 133.791 139.627 132.458 138.745 131.575L128.373 121.203H128.382Z" fill="#C8C0A1"/>
<path d="M105.228 104.56C105.228 102.85 103.839 101.461 102.129 101.461H80.1806C78.4704 101.461 77.0819 102.85 77.0819 104.56C77.0819 106.27 78.4704 107.659 80.1806 107.659H102.129C103.839 107.659 105.228 106.27 105.228 104.56Z" fill="#C8C0A1"/>
<path d="M161.595 104.56C161.595 102.85 160.207 101.461 158.496 101.461H136.548C134.838 101.461 133.449 102.85 133.449 104.56C133.449 106.27 134.838 107.659 136.548 107.659H158.496C160.207 107.659 161.595 106.27 161.595 104.56Z" fill="#C8C0A1"/>
<path d="M133.448 149.708H106.405C104.695 149.708 103.307 151.096 103.307 152.806C103.307 159.905 109.081 165.67 116.18 165.67H123.683C130.781 165.67 136.547 159.896 136.547 152.806C136.547 151.096 135.158 149.708 133.448 149.708ZM123.683 159.473H116.18C113.623 159.473 111.389 158.02 110.276 155.905H129.586C128.473 158.029 126.248 159.473 123.683 159.473Z" fill="#C8C0A1"/>
<path d="M100.272 64.4147C100.336 64.4698 100.428 64.4515 100.502 64.4974C101.035 64.8744 101.623 65.1319 102.258 65.1319C102.892 65.1319 103.481 64.8744 104.014 64.4974C104.088 64.4423 104.18 64.4698 104.244 64.4147L111.085 58.7046L117.935 64.4147C118 64.4698 118.092 64.4515 118.165 64.4974C118.699 64.8744 119.287 65.1319 119.921 65.1319C120.556 65.1319 121.144 64.8744 121.669 64.4974C121.742 64.4423 121.834 64.4698 121.898 64.4147L128.739 58.7046L135.581 64.4147C135.654 64.4698 135.746 64.4515 135.81 64.4974C136.344 64.8744 136.932 65.1319 137.567 65.1319C138.201 65.1319 138.79 64.8744 139.323 64.4974C139.396 64.4423 139.488 64.4698 139.553 64.4147L148.38 57.0495C149.695 55.9553 149.87 53.9967 148.775 52.6818C147.672 51.3578 145.713 51.1831 144.408 52.2865L137.557 57.9966L130.716 52.2865C130.624 52.2129 130.514 52.1853 130.413 52.1209C130.238 52.0014 130.064 51.9095 129.87 51.8267C129.687 51.7531 129.503 51.698 129.31 51.6612C129.116 51.6244 128.923 51.5968 128.721 51.5968C128.519 51.5968 128.335 51.6244 128.142 51.6612C127.949 51.698 127.774 51.744 127.59 51.8267C127.397 51.9095 127.213 52.0106 127.029 52.1301C126.937 52.1945 126.827 52.2129 126.744 52.2865L119.903 57.9966L113.053 52.2865C112.961 52.2129 112.85 52.1853 112.749 52.1209C112.575 52.0014 112.4 51.9095 112.216 51.8267C112.023 51.7531 111.839 51.698 111.646 51.6612C111.453 51.6244 111.26 51.5968 111.067 51.5968C110.874 51.5968 110.69 51.6244 110.497 51.6612C110.294 51.698 110.11 51.7531 109.917 51.8267C109.724 51.9003 109.559 52.0014 109.393 52.1118C109.292 52.1761 109.182 52.2037 109.081 52.2773L102.239 57.9874L95.3984 52.2773C94.0743 51.1739 92.1249 51.3486 91.0307 52.6726C89.9273 53.9875 90.1112 55.9461 91.4261 57.0403L100.253 64.4055L100.272 64.4147Z" fill="#C8C0A1"/>
<path d="M40.8546 147.611C39.1443 147.611 37.7559 149 37.7559 150.71V254.549C37.7559 256.26 39.1443 257.648 40.8546 257.648C42.5648 257.648 43.9533 256.26 43.9533 254.549V150.71C43.9533 149 42.5648 147.611 40.8546 147.611Z" fill="#C8C0A1"/>
</svg>
