<svg width="30" height="30" viewBox="0 0 30 30" fill="none" xmlns="http://www.w3.org/2000/svg">
<g clip-path="url(#clip0_0_55)">
<path d="M17.4042 14.7501L14.0352 13.1781C13.7412 13.0416 13.4997 13.1946 13.4997 13.5201V16.4811C13.4997 16.8066 13.7412 16.9596 14.0352 16.8231L17.4027 15.2511C17.6982 15.1131 17.6982 14.8881 17.4042 14.7501ZM14.9997 0.600586C7.04673 0.600586 0.599731 7.04759 0.599731 15.0006C0.599731 22.9536 7.04673 29.4006 14.9997 29.4006C22.9527 29.4006 29.3997 22.9536 29.3997 15.0006C29.3997 7.04759 22.9527 0.600586 14.9997 0.600586ZM14.9997 20.8506C7.62873 20.8506 7.49973 20.1861 7.49973 15.0006C7.49973 9.81509 7.62873 9.15059 14.9997 9.15059C22.3707 9.15059 22.4997 9.81509 22.4997 15.0006C22.4997 20.1861 22.3707 20.8506 14.9997 20.8506Z" fill="#122B18"/>
</g>
<defs>
<clipPath id="clip0_0_55">
<rect width="30" height="30" fill="white"/>
</clipPath>
</defs>
</svg>
